<?xml version="1.0" standalone="no"?>
<!DOCTYPE svg PUBLIC "-//W3C//DTD SVG 20010904//EN"
 "http://www.w3.org/TR/2001/REC-SVG-20010904/DTD/svg10.dtd">
<svg version="1.0" xmlns="http://www.w3.org/2000/svg"
 width="350.000000pt" height="382.000000pt" viewBox="0 0 350.000000 382.000000"
 preserveAspectRatio="xMidYMid meet">

<g transform="translate(0.000000,382.000000) scale(0.100000,-0.100000)"
fill="#000000" stroke="none">
<path d="M1526 3315 c-983 -141 -1516 -1248 -1011 -2100 360 -607 1112 -856
1754 -580 398 170 707 526 810 932 32 126 42 209 42 354 1 388 -134 712 -410
990 -211 211 -437 334 -721 390 -130 26 -339 32 -464 14z m325 -185 c207 -24
434 -112 594 -232 245 -183 414 -456 471 -758 21 -108 20 -316 0 -430 -32
-177 -111 -359 -220 -503 -107 -142 -286 -292 -441 -370 -188 -94 -435 -139
-645 -118 -478 49 -889 376 -1040 829 -208 623 142 1317 770 1526 174 58 338
76 511 56z"/>
<path d="M1312 2808 c-7 -7 -12 -43 -12 -90 0 -61 -3 -78 -14 -78 -23 0 -46
-41 -46 -82 0 -35 -2 -38 -29 -38 -42 0 -79 -34 -94 -88 -13 -44 -16 -47 -45
-44 -38 4 -69 -11 -77 -38 -6 -17 -15 -20 -74 -20 -78 0 -114 -17 -92 -44 10
-12 31 -16 83 -16 63 0 72 -3 90 -25 15 -20 28 -25 64 -25 32 0 44 -4 44 -15
0 -11 -11 -15 -40 -15 -39 0 -80 -26 -80 -50 0 -6 -33 -10 -79 -10 -63 0 -80
-3 -85 -16 -11 -28 4 -34 82 -34 75 0 77 -1 94 -30 15 -26 22 -30 63 -30 33 0
45 -4 45 -15 0 -11 -11 -15 -43 -15 -43 0 -77 -21 -77 -48 0 -8 -25 -12 -79
-12 -81 0 -102 -9 -81 -35 9 -11 34 -15 85 -15 67 0 73 -2 83 -25 10 -22 18
-25 61 -25 33 0 51 -5 54 -14 8 -21 -2 -26 -47 -26 -47 0 -58 -6 -75 -37 -11
-21 -19 -23 -86 -23 -75 0 -90 -6 -79 -34 5 -13 22 -16 83 -16 73 0 78 -1 89
-25 10 -22 18 -25 62 -25 43 0 50 -3 50 -20 0 -17 -7 -20 -50 -20 -44 0 -52
-3 -62 -25 -10 -23 -16 -25 -83 -25 -80 0 -109 -16 -85 -45 9 -11 33 -15 85
-15 67 0 74 -2 89 -25 14 -21 25 -25 61 -25 39 0 45 -3 45 -20 0 -26 23 -72
45 -90 9 -7 33 -16 53 -19 36 -6 37 -8 42 -56 4 -40 10 -52 28 -60 20 -9 22
-17 22 -77 0 -79 6 -98 30 -98 24 0 30 19 30 99 0 62 2 69 24 79 21 9 25 19
28 59 2 35 7 48 18 48 11 0 16 -14 20 -50 4 -39 10 -52 27 -60 20 -8 23 -18
25 -90 3 -69 6 -80 22 -83 28 -6 36 15 36 94 0 65 2 72 24 82 21 9 25 19 28
59 2 35 7 48 18 48 11 0 16 -14 20 -50 4 -39 10 -52 27 -60 20 -8 23 -18 25
-90 3 -69 6 -80 22 -83 28 -6 36 15 36 94 0 65 2 72 24 82 21 9 25 19 28 59 2
35 7 48 18 48 9 0 16 -11 18 -30 5 -56 12 -74 32 -80 18 -6 20 -15 20 -78 0
-80 8 -101 36 -95 16 3 19 14 22 84 3 75 5 82 27 92 20 9 24 20 27 59 2 35 7
48 18 48 10 0 17 -14 20 -45 6 -52 15 -70 35 -70 11 0 15 -20 17 -82 3 -81 4
-83 28 -83 24 0 25 2 28 80 2 72 5 82 25 90 17 8 23 21 27 60 5 49 6 50 43 56
49 8 86 43 93 91 6 37 7 38 50 38 35 0 47 5 60 25 15 23 23 25 83 25 78 0 114
17 92 44 -10 12 -32 16 -87 16 -70 0 -75 1 -84 25 -8 22 -15 25 -60 25 -43 0
-50 3 -50 20 0 17 7 20 50 20 44 0 52 3 60 25 9 23 14 24 92 27 75 3 83 5 83
23 0 18 -8 21 -83 25 -76 5 -84 7 -95 30 -10 21 -21 26 -60 28 -33 2 -47 7
-47 18 0 10 12 14 40 14 39 0 80 26 80 50 0 6 31 10 73 10 78 0 103 9 94 34
-5 13 -22 16 -86 16 -77 0 -80 1 -93 28 -11 23 -20 27 -61 30 -33 2 -47 7 -47
18 0 10 12 14 45 14 40 0 48 4 63 30 16 28 20 29 97 32 72 3 80 5 80 23 0 18
-8 20 -83 23 -76 3 -84 5 -92 26 -10 27 -29 36 -76 36 -24 0 -34 5 -34 15 0
11 12 15 45 15 36 0 47 4 61 25 15 23 23 25 84 25 81 0 100 6 100 30 0 24 -19
30 -99 30 -63 0 -69 2 -79 25 -10 22 -18 25 -62 25 -47 0 -50 2 -50 25 0 58
-51 115 -102 115 -26 0 -28 3 -28 38 0 41 -23 82 -46 82 -11 0 -14 17 -14 79
0 60 -4 82 -16 92 -28 23 -45 -15 -43 -94 2 -63 0 -69 -22 -81 -20 -10 -24
-20 -27 -64 -3 -44 -6 -53 -20 -50 -12 2 -18 17 -22 53 -4 40 -10 52 -27 60
-21 9 -23 17 -23 86 0 85 -15 113 -44 84 -12 -12 -16 -36 -16 -88 0 -65 -2
-73 -22 -82 -18 -8 -24 -20 -28 -60 -4 -36 -9 -50 -20 -50 -11 0 -16 14 -20
50 -4 40 -10 52 -27 60 -21 9 -23 17 -23 80 0 82 -17 118 -44 96 -12 -10 -16
-32 -16 -90 0 -69 -2 -77 -22 -86 -19 -8 -24 -19 -26 -62 -3 -44 -6 -53 -22
-53 -16 0 -19 9 -22 53 -2 43 -7 54 -25 62 -21 9 -23 17 -23 80 0 82 -17 118
-44 96 -12 -10 -16 -32 -16 -90 0 -69 -2 -77 -22 -86 -18 -8 -24 -20 -28 -60
-4 -36 -9 -50 -20 -50 -11 0 -16 14 -20 50 -4 40 -10 52 -27 60 -21 9 -23 17
-23 78 0 90 -18 125 -48 95z m48 -253 c0 -32 -2 -35 -30 -35 -28 0 -30 3 -30
35 0 32 2 35 30 35 28 0 30 -3 30 -35z m200 0 c0 -32 -2 -35 -30 -35 -28 0
-30 3 -30 35 0 32 2 35 30 35 28 0 30 -3 30 -35z m200 0 c0 -32 -2 -35 -30
-35 -28 0 -30 3 -30 35 0 32 2 35 30 35 28 0 30 -3 30 -35z m200 0 c0 -32 -2
-35 -30 -35 -28 0 -30 3 -30 35 0 32 2 35 30 35 28 0 30 -3 30 -35z m200 0 c0
-32 -2 -35 -30 -35 -28 0 -30 3 -30 35 0 32 2 35 30 35 28 0 30 -3 30 -35z
m112 -102 c17 -15 18 -45 18 -541 0 -475 -2 -527 -17 -544 -15 -17 -45 -18
-541 -18 -475 0 -527 2 -544 17 -17 15 -18 45 -18 541 0 475 2 527 17 544 15
17 45 18 541 18 475 0 527 -2 544 -17z m-1162 -153 c0 -27 -3 -30 -30 -30 -27
0 -30 3 -30 30 0 27 3 30 30 30 27 0 30 -3 30 -30z m1300 0 c0 -27 -3 -30 -30
-30 -27 0 -30 3 -30 30 0 27 3 30 30 30 27 0 30 -3 30 -30z m-1300 -200 c0
-27 -3 -30 -30 -30 -27 0 -30 3 -30 30 0 27 3 30 30 30 27 0 30 -3 30 -30z
m1300 0 c0 -27 -3 -30 -30 -30 -27 0 -30 3 -30 30 0 27 3 30 30 30 27 0 30 -3
30 -30z m-1300 -189 c0 -44 -54 -59 -62 -18 -7 35 1 47 33 47 25 0 29 -4 29
-29z m1298 -3 c-2 -28 -7 -33 -28 -33 -21 0 -26 5 -28 33 -3 30 -1 32 28 32
29 0 31 -2 28 -32z m-1298 -198 c0 -27 -3 -30 -30 -30 -27 0 -30 3 -30 30 0
27 3 30 30 30 27 0 30 -3 30 -30z m1300 0 c0 -27 -3 -30 -30 -30 -27 0 -30 3
-30 30 0 27 3 30 30 30 27 0 30 -3 30 -30z m-1300 -200 c0 -27 -3 -30 -30 -30
-27 0 -30 3 -30 30 0 27 3 30 30 30 27 0 30 -3 30 -30z m1300 0 c0 -27 -3 -30
-30 -30 -27 0 -30 3 -30 30 0 27 3 30 30 30 27 0 30 -3 30 -30z m-1059 -220
c5 0 9 -13 9 -30 0 -27 -3 -30 -30 -30 -26 0 -30 4 -30 28 0 33 8 45 28 37 7
-3 18 -5 23 -5z m200 0 c5 0 9 -13 9 -30 0 -27 -3 -30 -30 -30 -26 0 -30 4
-30 28 0 33 8 45 28 37 7 -3 18 -5 23 -5z m204 -25 c0 -25 -4 -30 -27 -33 -25
-3 -28 0 -28 26 0 35 8 44 35 40 15 -2 20 -10 20 -33z m205 0 c0 -32 -2 -35
-30 -35 -26 0 -30 4 -30 28 0 35 6 42 37 42 20 0 23 -5 23 -35z m200 -6 c0
-26 -4 -29 -30 -29 -26 0 -30 4 -30 28 0 36 5 40 35 34 20 -3 25 -10 25 -33z"/>
<path d="M1892 2322 c-9 -7 -12 -39 -10 -128 l3 -119 120 0 120 0 3 119 c2 89
-1 121 -10 128 -7 4 -58 8 -113 8 -55 0 -106 -4 -113 -8z m186 -124 l-3 -73
-70 0 -70 0 -3 73 -3 72 76 0 76 0 -3 -72z"/>
<path d="M1496 2302 c-10 -2 -16 -14 -16 -32 0 -29 0 -29 -67 -32 l-68 -3 -3
-204 c-2 -142 1 -208 9 -217 9 -11 55 -14 218 -14 113 0 211 4 218 8 6 4 13
30 15 57 l3 50 123 3 122 3 0 -51 c0 -45 -2 -50 -22 -50 -44 0 -49 -12 -46
-96 l3 -79 85 0 85 0 3 73 c3 78 -6 102 -39 102 -16 0 -19 10 -21 73 l-3 72
-145 5 -144 5 2 108 c1 59 -3 118 -8 132 -9 23 -14 25 -74 25 -63 0 -65 1 -68
28 -3 26 -5 27 -74 32 -39 3 -79 4 -88 2z m112 -89 c-3 -36 -5 -38 -40 -41
l-38 -3 0 40 0 41 41 0 40 0 -3 -37z m-126 -55 l3 -33 73 -3 c81 -3 102 6 102
44 0 22 4 24 45 24 l45 0 0 -165 0 -165 -180 0 -180 0 0 158 c0 87 3 162 7
165 3 4 23 7 44 7 35 0 38 -2 41 -32z m628 -428 l0 -40 -40 0 -40 0 0 40 0 40
40 0 40 0 0 -40z"/>
<path d="M1878 1693 l-3 -118 -40 3 c-46 4 -81 -17 -72 -42 5 -13 21 -16 75
-16 39 0 73 5 80 12 8 8 12 52 12 133 0 120 -6 145 -37 145 -9 0 -13 -31 -15
-117z"/>
<path d="M1332 1728 c-13 -13 -17 -192 -6 -222 5 -13 26 -16 124 -16 98 0 119
3 124 16 10 25 7 180 -4 208 -9 26 -11 26 -118 26 -71 0 -112 -4 -120 -12z
m188 -118 l0 -70 -70 0 -70 0 0 70 0 70 70 0 70 0 0 -70z"/>
<path d="M1610 283 c-46 -18 -62 -61 -40 -103 6 -11 33 -26 61 -35 67 -19 82
-31 68 -56 -14 -27 -74 -26 -91 1 -15 24 -58 27 -58 5 0 -9 11 -27 25 -40 20
-20 34 -25 78 -25 63 0 97 27 97 77 0 38 -23 58 -82 73 -57 15 -76 33 -58 55
18 22 67 19 82 -5 7 -11 20 -20 30 -20 55 0 3 69 -57 75 -22 3 -47 2 -55 -2z"/>
<path d="M1965 281 c-83 -36 -100 -174 -28 -231 54 -42 171 -11 173 46 0 26
-34 25 -53 0 -12 -17 -28 -26 -46 -26 -44 0 -63 21 -69 78 -4 44 -1 54 21 76
32 32 61 33 90 3 24 -25 60 -25 55 0 -8 39 -98 73 -143 54z"/>
<path d="M1332 173 c-22 -59 -43 -116 -47 -125 -6 -14 -2 -18 18 -18 19 0 28
7 36 30 9 28 13 30 61 30 48 0 53 -2 63 -30 8 -21 18 -30 34 -30 13 0 23 6 23
13 0 6 -20 62 -44 122 -41 104 -45 110 -73 113 -30 3 -31 1 -71 -105z m91 2
l16 -45 -35 0 c-19 0 -34 5 -34 10 0 14 28 80 34 80 2 0 11 -20 19 -45z"/>
<path d="M1800 155 l0 -125 25 0 25 0 0 125 0 125 -25 0 -25 0 0 -125z"/>
</g>
</svg>
