<?xml version="1.0" encoding="UTF-8"?>
<svg version="1.1" xmlns="http://www.w3.org/2000/svg" width="512" height="512">
<path d="M0 0 C1.97789558 1.81307094 4.00196817 3.53289014 6.0625 5.25 C21.71272899 18.98323307 34.63739937 36.22885856 45.25 54.0625 C45.6531543 54.73861328 46.05630859 55.41472656 46.47167969 56.11132812 C60.02205456 79.08759789 69.01534731 103.93691098 74.25 130.0625 C74.41661133 130.88621094 74.58322266 131.70992187 74.75488281 132.55859375 C85.90237722 190.99639053 71.95700703 254.62846661 38.78393555 303.63305664 C28.90032807 317.92483843 17.66653951 330.68173574 5.4375 343 C4.64690186 343.79772827 4.64690186 343.79772827 3.84033203 344.61157227 C0.46288698 347.97462934 -3.04903864 351.05858069 -6.75 354.0625 C-5.99082275 354.30371582 -5.23164551 354.54493164 -4.44946289 354.79345703 C2.34013742 356.95408795 9.12410449 359.13090539 15.90072632 361.33187866 C19.3252532 362.44339511 22.75489031 363.53560243 26.19140625 364.609375 C38.58108371 368.59538053 52.32924496 374.48549412 62.25 383.0625 C62.73828125 386.03515625 62.73828125 386.03515625 62.25 389.0625 C44.5611891 410.84383784 -8.15035682 412.10447602 -34.17559814 414.80859375 C-49.0000386 416.27068797 -63.87570636 417.27265248 -78.75 418.0625 C-79.65216248 418.1108902 -80.55432495 418.1592804 -81.48382568 418.20913696 C-100.9009474 419.21083554 -120.31285493 419.26267517 -139.75 419.25 C-140.97090395 419.24982061 -140.97090395 419.24982061 -142.21647263 419.2496376 C-167.77268491 419.24489374 -193.2540313 418.9888815 -218.75 417.0625 C-219.47185486 417.00922546 -220.19370972 416.95595093 -220.93743896 416.90106201 C-318.74166035 409.64515353 -318.74166035 409.64515353 -343.5078125 388.56640625 C-344.75 387.0625 -344.75 387.0625 -345.5 383.75 C-344.66525327 379.64582857 -344.38039504 379.31949322 -341.125 377.0625 C-339.35265926 376.02863457 -337.5586606 375.03142532 -335.75 374.0625 C-334.7909375 373.51851563 -333.831875 372.97453125 -332.84375 372.4140625 C-322.00945699 366.60246358 -310.39297322 362.90386865 -298.75 359.0625 C-298.75 358.4025 -298.75 357.7425 -298.75 357.0625 C-300.67305825 355.33112922 -302.6191039 353.69349004 -304.625 352.0625 C-318.41780652 340.5149506 -331.34130399 327.77624196 -341.75 313.0625 C-342.23130371 312.38251953 -342.71260742 311.70253906 -343.20849609 311.00195312 C-380.10730274 258.299519 -394.81659747 194.98222159 -383.9765625 131.4609375 C-382.20299138 121.80934346 -379.68405914 112.42095537 -376.75 103.0625 C-376.48316406 102.20962402 -376.21632813 101.35674805 -375.94140625 100.47802734 C-366.15355405 69.78561759 -349.99560007 41.90771144 -327.93359375 18.3984375 C-326.02566872 16.35740142 -324.22702181 14.26892589 -322.4375 12.125 C-305.88105817 -6.83542167 -283.86771796 -21.3130294 -261.75 -32.9375 C-260.69981689 -33.49219971 -260.69981689 -33.49219971 -259.62841797 -34.05810547 C-234.03615659 -47.37116403 -205.44666791 -55.30672012 -176.75 -57.9375 C-174.99236328 -58.12119141 -174.99236328 -58.12119141 -173.19921875 -58.30859375 C-111.13342044 -63.617284 -45.84640591 -42.3197593 0 0 Z " fill="#6294BE" transform="translate(410.75,81.9375)"/>
<path d="M0 0 C2.18893427 0.00056489 4.37786892 0.00024603 6.56680298 -0.00088501 C12.47916056 -0.00145647 18.39143621 0.01026428 24.30377483 0.02426291 C30.49371101 0.03680485 36.68364927 0.03794349 42.87359619 0.04031372 C54.58173337 0.04651833 66.28983298 0.06291533 77.99795365 0.0830127 C91.33291943 0.10540346 104.66788396 0.11637311 118.00286436 0.12640357 C145.42152671 0.14728247 172.84015578 0.18243859 200.25878906 0.22705078 C201.38539976 2.62218263 202.51002746 5.01821253 203.63354492 7.41479492 C203.95062157 8.08836281 204.26769821 8.76193069 204.59438324 9.45590973 C206.92955785 14.44277844 209.03778412 19.45162388 210.82128906 24.66455078 C211.10520508 25.49108154 211.38912109 26.3176123 211.68164062 27.16918945 C231.50892956 86.52424099 226.95901158 151.06359994 199.81738281 207.38330078 C189.12122093 228.77992884 174.77413219 247.99750072 158.25878906 265.22705078 C157.75621582 265.75685547 157.25364258 266.28666016 156.73583984 266.83251953 C139.63024722 284.78566255 119.18593607 298.75177126 97.25878906 310.22705078 C96.62779297 310.5615625 95.99679687 310.89607422 95.34667969 311.24072266 C75.75934096 321.48364291 53.89527967 327.98634956 32.25878906 332.22705078 C31.44909668 332.38931152 30.6394043 332.55157227 29.80517578 332.71875 C12.28710866 336.0928321 -8.11869452 337.48853143 -25.74121094 334.22705078 C-24.12522499 328.18466855 -20.97378981 323.18015211 -17.80371094 317.85205078 C-17.19035889 316.81113281 -16.57700684 315.77021484 -15.94506836 314.69775391 C-14.24429849 311.81527893 -12.53818451 308.93611557 -10.82885742 306.05871582 C-9.72740265 304.20379676 -8.62760633 302.34790428 -7.52832031 300.49169922 C-3.17506188 293.14141152 1.18702945 285.79641123 5.55462646 278.45463562 C8.41628222 273.64424475 11.27592767 268.8326656 14.13378906 264.02001953 C14.53275391 263.3481662 14.93171875 262.67631287 15.34277344 261.98410034 C17.34125158 258.61839957 19.33930317 255.25244604 21.33691406 251.88623047 C22.12336459 250.56103052 22.90982286 249.23583518 23.69628906 247.91064453 C24.08083252 247.262659 24.46537598 246.61467346 24.86157227 245.947052 C27.04563121 242.26767699 29.23303085 238.59032053 31.42391968 234.91500854 C38.58823676 222.89492645 45.6571284 210.82974393 52.57128906 198.66455078 C68.55769814 170.5488655 68.55769814 170.5488655 77.01660156 159.07470703 C78.43550502 157.14168818 78.43550502 157.14168818 79.25878906 154.22705078 C78.71351563 155.04947266 78.16824219 155.87189453 77.60644531 156.71923828 C60.79008007 181.76841925 37.02576315 198.58089218 7.25878906 204.85986328 C-21.2983356 209.54501655 -47.97193692 202.62555712 -71.58105469 186.25830078 C-82.50468801 177.83692154 -91.52875155 167.97616693 -98.74121094 156.22705078 C-99.10375977 155.63907715 -99.46630859 155.05110352 -99.83984375 154.4453125 C-105.10835288 145.72154338 -108.3421385 137.27604925 -110.33154297 127.26757812 C-110.62409039 125.81041997 -110.94023092 124.35791752 -111.27197266 122.90917969 C-114.83547008 106.79555932 -113.53332321 89.92902174 -108.74121094 74.22705078 C-108.53222168 73.540625 -108.32323242 72.85419922 -108.10791016 72.14697266 C-100.0300139 46.6123493 -81.99113453 24.38813651 -58.30371094 11.78955078 C-39.21141599 2.04726263 -21.18157795 -0.0767939 0 0 Z " fill="#B2CDE5" transform="translate(264.7412109375,152.77294921875)"/>
<path d="M0 0 C1.97789558 1.81307094 4.00196817 3.53289014 6.0625 5.25 C26.3976343 23.09428452 41.63579065 46.35494341 54.25 70.0625 C54.25 70.3925 54.25 70.7225 54.25 71.0625 C52.55454749 71.06608253 52.55454749 71.06608253 50.82484341 71.06973743 C23.28035658 71.12861787 -4.26404338 71.20455342 -31.80843449 71.29821491 C-45.12887794 71.34311759 -58.44928016 71.38254498 -71.76977539 71.40893555 C-83.38435264 71.4319604 -94.99884593 71.46540852 -106.61335653 71.51120156 C-112.75910164 71.53507322 -118.90476391 71.55384167 -125.05055428 71.56011391 C-130.84455443 71.56619217 -136.6383428 71.58629067 -142.43226433 71.61677551 C-144.54968669 71.62551194 -146.66713678 71.62928752 -148.78457642 71.62750816 C-177.50580684 71.61100485 -203.82298315 78.59973438 -224.75 99.0625 C-225.80046567 99.91095304 -226.86071273 100.74771177 -227.9375 101.5625 C-244.41295606 116.20734983 -255.93632508 141.24603767 -257.75 163.0625 C-258.59665824 176.67548396 -258.59665824 176.67548396 -256.75 190.0625 C-256.68451508 191.64461573 -256.66421619 193.22920081 -256.6875 194.8125 C-256.69652344 195.61171875 -256.70554687 196.4109375 -256.71484375 197.234375 C-256.72644531 197.83765625 -256.73804688 198.4409375 -256.75 199.0625 C-259.22490306 196.80036526 -260.77495856 194.50995997 -262.39453125 191.58203125 C-262.89903809 190.67799561 -263.40354492 189.77395996 -263.92333984 188.8425293 C-264.73472412 187.37360229 -264.73472412 187.37360229 -265.5625 185.875 C-266.73685626 183.77264088 -267.9126836 181.67110294 -269.08984375 179.5703125 C-269.69554199 178.48911133 -270.30124023 177.40791016 -270.92529297 176.29394531 C-273.77392205 171.24919624 -276.69591407 166.24833672 -279.625 161.25 C-288.43093375 146.20362148 -297.16587424 131.11623636 -305.796875 115.96875 C-306.30175446 115.08274109 -306.30175446 115.08274109 -306.8168335 114.17883301 C-307.15346008 113.58807983 -307.49008667 112.99732666 -307.83691406 112.38867188 C-314.29753161 101.05145985 -320.83957536 89.76815221 -327.5 78.546875 C-331.14820416 72.3989754 -334.76605217 66.23351102 -338.375 60.0625 C-338.96748535 59.0528418 -339.5599707 58.04318359 -340.17041016 57.00292969 C-342.84795931 52.41928905 -345.46657539 47.85607223 -347.75 43.0625 C-341.49759844 34.50036247 -335.23367215 26.16981623 -327.96875 18.43359375 C-326.04801148 16.38097354 -324.23754319 14.2824047 -322.4375 12.125 C-305.88105817 -6.83542167 -283.86771796 -21.3130294 -261.75 -32.9375 C-260.69981689 -33.49219971 -260.69981689 -33.49219971 -259.62841797 -34.05810547 C-234.03615659 -47.37116403 -205.44666791 -55.30672012 -176.75 -57.9375 C-174.99236328 -58.12119141 -174.99236328 -58.12119141 -173.19921875 -58.30859375 C-111.13342044 -63.617284 -45.84640591 -42.3197593 0 0 Z " fill="#5689B7" transform="translate(410.75,81.9375)"/>
<path d="M0 0 C17.20646561 13.61229363 28.61554528 32.27853644 32.421875 53.94140625 C35.11567275 77.70724806 30.24880005 100.27716868 15.83984375 119.62890625 C12.98997014 123.12296468 9.99979259 126.4136168 6.83984375 129.62890625 C6.23785156 130.24378906 5.63585937 130.85867188 5.015625 131.4921875 C-12.75553179 148.26106647 -35.14237237 153.18316505 -58.79296875 152.90625 C-79.35706694 152.29642649 -99.92951207 142.42778796 -114.16015625 127.62890625 C-132.74983351 106.27982377 -138.41425597 83.68998809 -137.16015625 55.62890625 C-135.43264355 34.95316369 -122.96979387 15.50565945 -107.79003906 1.99707031 C-98.68257801 -5.64795841 -88.36398153 -10.60022699 -77.16015625 -14.37109375 C-75.66162109 -14.8815625 -75.66162109 -14.8815625 -74.1328125 -15.40234375 C-48.79212273 -22.59497054 -20.70084168 -15.5320283 0 0 Z " fill="#236F9A" transform="translate(309.16015625,189.37109375)"/>
<path d="M0 0 C1.44155321 0.48859844 2.88262696 0.97861354 4.32324219 1.4699707 C5.05812866 1.71768219 5.79301514 1.96539368 6.5501709 2.22061157 C17.24540377 5.83729284 27.40869077 9.7047057 37.19824219 15.4074707 C38.47332512 16.09544849 39.7493929 16.78160366 41.02636719 17.46606445 C42.25214979 18.15161483 43.47618877 18.8402946 44.69824219 19.5324707 C46.29152344 20.43352539 46.29152344 20.43352539 47.91699219 21.3527832 C50.19824219 23.4074707 50.19824219 23.4074707 50.78027344 26.43481445 C50.07367267 30.0436949 49.38756207 30.79432373 46.38574219 32.8449707 C9.06527133 56.33157408 -48.16011974 56.14313514 -90.80175781 58.4074707 C-91.70392029 58.4558609 -92.60608276 58.5042511 -93.5355835 58.55410767 C-112.95270521 59.55580624 -132.36461275 59.60764587 -151.80175781 59.5949707 C-153.02266176 59.59479132 -153.02266176 59.59479132 -154.26823044 59.59460831 C-179.82444273 59.58986444 -205.30578911 59.3338522 -230.80175781 57.4074707 C-231.52361267 57.35419617 -232.24546753 57.30092163 -232.98919678 57.24603271 C-330.79341816 49.99012423 -330.79341816 49.99012423 -355.55957031 28.91137695 C-356.80175781 27.4074707 -356.80175781 27.4074707 -357.55175781 24.0949707 C-356.71701108 19.99079927 -356.43215286 19.66446392 -353.17675781 17.4074707 C-351.40441707 16.37360527 -349.61041841 15.37639602 -347.80175781 14.4074707 C-346.84269531 13.86348633 -345.88363281 13.31950195 -344.89550781 12.7590332 C-337.42735283 8.75305687 -329.71131088 5.74972438 -321.73925781 2.9074707 C-320.73942871 2.54476074 -319.73959961 2.18205078 -318.70947266 1.80834961 C-317.28368896 1.3160083 -317.28368896 1.3160083 -315.82910156 0.8137207 C-314.98081787 0.51788086 -314.13253418 0.22204102 -313.25854492 -0.08276367 C-308.89713102 -0.98772563 -306.33462632 0.08035045 -302.59472656 2.3762207 C-301.38895084 3.21431216 -300.18734821 4.05842902 -298.98925781 4.9074707 C-267.11039114 26.75257789 -231.1035362 39.85485343 -192.80175781 44.4074707 C-191.55628174 44.57875488 -190.31080566 44.75003906 -189.02758789 44.92651367 C-184.896019 45.44174009 -180.78290857 45.60114552 -176.62207031 45.64575195 C-175.86048615 45.65559113 -175.09890198 45.6654303 -174.3142395 45.67556763 C-122.10362134 46.2099846 -64.70152231 32.58307921 -24.73535156 -3.14331055 C-17.01595959 -6.95675185 -7.6708254 -2.55199328 0 0 Z " fill="#000000" transform="translate(422.8017578125,441.592529296875)"/>
<path d="M0 0 C0.72219727 0.03577148 1.44439453 0.07154297 2.18847656 0.10839844 C25.87228017 1.43873099 46.01025576 9.43661818 64 25 C65.010625 25.763125 66.02125 26.52625 67.0625 27.3125 C84.97401276 43.6996287 96.12252725 68.05206989 97.921875 92.1796875 C98.7348369 121.52761195 90.42067528 147.43348668 70.1796875 169.03515625 C52.7156725 187.27101455 29.0260595 199.26379611 3.52734375 200.3359375 C-26.91655024 200.82366496 -52.68613626 190.8790348 -74.6875 169.625 C-79.45122864 164.73432768 -83.46414979 159.83771242 -87 154 C-87.35304199 153.42604492 -87.70608398 152.85208984 -88.06982422 152.26074219 C-95.19392516 140.47939317 -98.88638244 128.35445666 -102 115 C-102.33 115 -102.66 115 -103 115 C-103.49434008 100.78201869 -103.17086193 87.66636446 -99 74 C-98.79101074 73.31357422 -98.58202148 72.62714844 -98.36669922 71.91992188 C-90.28880297 46.38529852 -72.24992359 24.16108573 -48.5625 11.5625 C-33.17023853 3.70824011 -17.41164115 -0.89191035 0 0 Z M-62.46875 47.02734375 C-79.47522008 66.99944827 -84.8210254 90.25552761 -83 116 C-81.29152424 131.3401236 -74.22819262 145.75538985 -65 158 C-64.34837891 158.87978516 -64.34837891 158.87978516 -63.68359375 159.77734375 C-59.23277739 165.36939508 -53.64173661 169.66752716 -48 174 C-47.27941406 174.55945313 -46.55882812 175.11890625 -45.81640625 175.6953125 C-39.17404438 180.49187627 -31.68589174 183.34044396 -24 186 C-23.01773438 186.34417969 -22.03546875 186.68835938 -21.0234375 187.04296875 C-4.8779196 191.67773332 14.23055297 190.4717649 30 185 C31.06089844 184.63777344 32.12179687 184.27554688 33.21484375 183.90234375 C45.10555088 179.38785391 54.98825928 171.85446776 64 163 C64.62519531 162.38769531 65.25039063 161.77539062 65.89453125 161.14453125 C81.65830616 144.45556864 87.88689856 121.29419937 87.28515625 98.875 C86.24275315 76.57891355 75.6932266 55.78946711 59.49169922 40.58447266 C23.38938912 8.75394213 -29.69274456 12.75713806 -62.46875 47.02734375 Z " fill="#C9C7CC" transform="translate(255,153)"/>
<path d="M0 0 C18.50852338 5.29210773 34.51744266 23.60915181 43.75 39.75 C56.70963401 63.33523877 61.00757973 89.75512605 54 116 C45.51677713 145.07668538 27.19301058 167.64719994 0.66015625 182.21484375 C-23.52041163 194.43413482 -51.15875529 197.79490222 -77.203125 189.78125 C-101.29566769 181.62856047 -121.67521011 165.7061193 -135 144 C-135.36254883 143.41202637 -135.72509766 142.82405273 -136.09863281 142.21826172 C-144.0884536 128.98845606 -148.26792118 114.5394286 -148 99 C-147.67 99 -147.34 99 -147 99 C-146.81824219 99.95519531 -146.63648438 100.91039062 -146.44921875 101.89453125 C-145.7873817 105.29874949 -145.10122127 108.69567716 -144.39257812 112.09033203 C-144.07212928 113.6491323 -143.77486058 115.2126828 -143.484375 116.77734375 C-140.37028801 130.85746563 -131.79324133 144.60203021 -122 155 C-121.19691406 155.87011719 -120.39382812 156.74023438 -119.56640625 157.63671875 C-102.77437364 175.16225668 -78.88717718 186.31168256 -54.52734375 187.3359375 C-27.52385602 187.76854781 -2.43558557 180.29659513 18 162 C18.89332031 161.20078125 19.78664063 160.4015625 20.70703125 159.578125 C40.53707254 140.82972233 50.48144309 115.03511963 51.25 88 C50.57464365 64.24334707 42.86510415 42.61287405 28 24 C27.5565625 23.39285156 27.113125 22.78570312 26.65625 22.16015625 C19.84894124 13.33971045 9.44410286 6.66646172 0 1 C0 0.67 0 0.34 0 0 Z " fill="#FAFBFC" transform="translate(301,165)"/>
<path d="M0 0 C0.495 0.99 0.495 0.99 1 2 C-0.67598294 5.51415778 -2.89462494 8.72955901 -5 12 C-5.51949219 12.84691406 -6.03898437 13.69382812 -6.57421875 14.56640625 C-11.03100626 21.46201695 -16.47380096 26.09676361 -23 31 C-24.0209375 31.78761719 -25.041875 32.57523437 -26.09375 33.38671875 C-37.29728261 41.94497283 -37.29728261 41.94497283 -43 45 C-45.21875 44.6171875 -45.21875 44.6171875 -47 44 C-45.65808594 43.27296875 -45.65808594 43.27296875 -44.2890625 42.53125 C-36.58656059 38.28830112 -29.70561422 33.73378607 -23 28 C-22.4121875 27.5565625 -21.824375 27.113125 -21.21875 26.65625 C-12.44052586 19.86554831 -5.51529728 9.50913325 0 0 Z " fill="#9D9FA9" transform="translate(345,304)"/>
<path d="M0 0 C0.33 0 0.66 0 1 0 C1.18175781 0.95519531 1.36351562 1.91039062 1.55078125 2.89453125 C4.54192363 18.31593231 4.54192363 18.31593231 10 33 C8.515 33.495 8.515 33.495 7 34 C4.21176945 28.1121629 2.45728289 22.25028781 1.25 15.875 C1.12262451 15.21886719 0.99524902 14.56273437 0.86401367 13.88671875 C0.02646567 9.18189411 -0.10590386 4.75508343 0 0 Z " fill="#E8EEF3" transform="translate(153,264)"/>
<path d="M0 0 C5.80342274 1.48805711 10.17590879 4.59097555 15 8 C14.34 8.66 13.68 9.32 13 10 C11.39320484 8.89966185 9.78966207 7.79457336 8.1875 6.6875 C7.29417969 6.07261719 6.40085937 5.45773438 5.48046875 4.82421875 C3.43899254 3.32284963 1.71537213 1.85214599 0 0 Z " fill="#F1F3F6" transform="translate(301,165)"/>
</svg>
