<?xml version="1.0" encoding="UTF-8"?>
<svg version="1.1" xmlns="http://www.w3.org/2000/svg" width="512" height="512">
<path d="M0 0 C2.50284736 1.97935105 4.94105869 4.01816897 7.37109375 6.0859375 C8.38623047 6.88257813 8.38623047 6.88257813 9.421875 7.6953125 C17.0629233 13.8816522 23.69473976 22.45965345 28.37109375 31.0859375 C28.37109375 31.7459375 28.37109375 32.4059375 28.37109375 33.0859375 C29.08652344 32.49425781 29.80195313 31.90257812 30.5390625 31.29296875 C44.22918723 20.43650502 58.0682751 16.9444179 75.37109375 18.0859375 C89.02064493 20.19737843 101.80805579 27.65252056 110.07006836 38.72851562 C117.34687026 49.06136284 119.9708647 58.49873392 120.37109375 71.0859375 C121.21027344 71.03373047 121.21027344 71.03373047 122.06640625 70.98046875 C143.42090241 70.25949701 162.59529321 80.39958809 177.86523438 94.609375 C193.24679724 109.69168567 199.57160729 129.98023017 199.80859375 150.9609375 C199.68830565 172.29553552 192.88210744 190.32580725 178.37109375 206.0859375 C177.56285156 207.03146484 177.56285156 207.03146484 176.73828125 207.99609375 C163.93775548 222.11526665 143.8719904 229.29009274 125.37109375 231.0859375 C122.73278215 231.16840305 120.12308596 231.21336516 117.48632812 231.19946289 C116.37266876 231.19968193 116.37266876 231.19968193 115.23651123 231.1999054 C112.81259105 231.19921559 110.3887503 231.19146742 107.96484375 231.18359375 C106.27233929 231.18172625 104.57983429 231.18030392 102.8873291 231.17930603 C98.45522543 231.17550698 94.02315506 231.16569927 89.59106445 231.15460205 C85.05941213 231.1443315 80.52775438 231.13979637 75.99609375 231.13476562 C67.1210792 231.12407442 58.24608926 231.10702972 49.37109375 231.0859375 C49.4316108 250.55725142 49.50909831 270.0284272 49.60680866 289.49959087 C49.65178094 298.54032412 49.69119229 307.58101785 49.7175293 316.62182617 C49.74049779 324.50147602 49.77388292 332.38100095 49.81979531 340.26055175 C49.84374308 344.43301965 49.86246165 348.60536372 49.86870766 352.77789879 C49.87475152 356.70547144 49.89472584 360.63272719 49.92536926 364.56018257 C49.93416073 366.00129878 49.93786977 367.44245639 49.93610191 368.88359833 C49.93444932 370.85246358 49.95291417 372.82131499 49.97236633 374.79008484 C49.9769753 375.89162745 49.98158426 376.99317007 49.98633289 378.12809277 C50.49912314 382.07016201 51.87359019 384.91096638 55.02832031 387.38623047 C58.60764665 388.45525395 62.1563258 388.32966563 65.85546875 388.28125 C66.67106262 388.2784201 67.48665649 388.27559021 68.32696533 388.27267456 C70.92515903 388.26150308 73.5230047 388.23640425 76.12109375 388.2109375 C77.88541168 388.20090377 79.64973503 388.19177861 81.4140625 388.18359375 C85.73320648 388.16157369 90.05209116 388.12706483 94.37109375 388.0859375 C94.99274414 386.97444336 95.61439453 385.86294922 96.25488281 384.71777344 C99.75606447 378.45775501 105.27737486 373.68463128 112.1796875 371.5234375 C120.53908826 369.85453753 127.92147685 370.9292672 135.37109375 375.0859375 C138.24609375 377.5234375 138.24609375 377.5234375 140.37109375 380.0859375 C141.09296875 380.9109375 141.81484375 381.7359375 142.55859375 382.5859375 C146.62578331 388.19585414 147.84748416 394.56400945 147.125 401.421875 C145.36339275 410.55728961 141.00872596 416.84522178 133.37109375 422.0859375 C126.1354639 425.71658156 118.63999667 426.16304002 110.87109375 424.0859375 C102.95966225 421.15731987 97.94577783 415.50438832 94.37109375 408.0859375 C93.12086426 408.08182861 91.87063477 408.07771973 90.58251953 408.07348633 C85.90421404 408.05156717 81.22673439 407.9971461 76.54882812 407.93334961 C74.53165658 407.91028055 72.51436648 407.89580017 70.49707031 407.89038086 C47.45243905 407.81630069 47.45243905 407.81630069 39.26025391 400.09692383 C31.02659934 391.59585707 30.94387182 383.20822557 31.03051758 371.97094727 C31.03136458 370.43298865 31.03088728 368.89502883 31.02919006 367.35707092 C31.02833154 363.19635396 31.04593409 359.03589799 31.06691194 354.87524152 C31.08570257 350.52173524 31.08743106 346.16822258 31.09098816 341.81468201 C31.10030162 333.57710361 31.12490592 325.33964507 31.15503663 317.10211939 C31.19488222 305.96619521 31.21104116 294.83023811 31.22854328 283.6942606 C31.25672753 266.15806317 31.3165017 248.62211864 31.37109375 231.0859375 C5.30109375 231.0859375 -20.76890625 231.0859375 -47.62890625 231.0859375 C-47.62890625 292.1359375 -47.62890625 353.1859375 -47.62890625 416.0859375 C-53.56890625 416.0859375 -59.50890625 416.0859375 -65.62890625 416.0859375 C-65.62890625 355.0359375 -65.62890625 293.9859375 -65.62890625 231.0859375 C-91.69890625 231.0859375 -117.76890625 231.0859375 -144.62890625 231.0859375 C-144.54189453 247.80378906 -144.54189453 247.80378906 -144.453125 264.859375 C-144.42757515 271.92318289 -144.40329813 278.98695723 -144.38476562 286.05078125 C-144.35511818 297.26102153 -144.32029907 308.47107365 -144.25170898 319.68115234 C-144.20177496 327.84607356 -144.16959179 336.01084187 -144.15846378 344.17591155 C-144.15196188 348.49682466 -144.13674854 352.81730043 -144.10025597 357.13807297 C-144.06613805 361.21095554 -144.0558848 365.28322359 -144.06336784 369.3562355 C-144.0620003 370.84529722 -144.05216181 372.334381 -144.03287888 373.82331848 C-143.91264286 383.59242897 -144.68986751 391.78224304 -151.61887646 399.22282982 C-158.66709452 405.9553895 -165.08213184 407.51553719 -174.54296875 407.31640625 C-176.45703021 407.31430847 -178.37109379 407.31370192 -180.28515625 407.31445312 C-183.27898511 407.29992715 -186.27124271 407.27312963 -189.26464844 407.2199707 C-192.17096701 407.17499083 -195.07390111 407.17965997 -197.98046875 407.19140625 C-199.3196788 407.14816475 -199.3196788 407.14816475 -200.6859436 407.10404968 C-203.23478927 407.1336575 -205.22095945 407.24199415 -207.62890625 408.0859375 C-209.36233218 409.96137625 -210.43997585 411.75259144 -211.55697632 414.04389954 C-214.18364432 419.04773012 -218.82537713 422.02124454 -224.00390625 423.9609375 C-231.77410182 426.17346776 -239.38366673 425.81455474 -246.62890625 422.0859375 C-253.43027302 417.32169508 -258.17281384 412.07330255 -260.15234375 403.93359375 C-261.27388776 396.84294328 -260.26273732 390.07190463 -256.81640625 383.7734375 C-251.85501269 377.67801113 -246.59059585 372.63691599 -238.62890625 371.0859375 C-230.07522815 370.25243213 -222.47700249 371.31519598 -215.5546875 376.69921875 C-211.88628945 380.16766219 -209.85339702 383.54129553 -207.62890625 388.0859375 C-202.45112223 388.16024882 -197.27365056 388.21461558 -192.09545898 388.25073242 C-190.33498729 388.26579303 -188.57455295 388.28624576 -186.81420898 388.31225586 C-184.27969122 388.34875979 -181.74567073 388.36569104 -179.2109375 388.37890625 C-178.03565239 388.40213203 -178.03565239 388.40213203 -176.83662415 388.42582703 C-172.25299881 388.42722982 -169.20285767 388.0491213 -165.62890625 385.0859375 C-163.44534662 381.70750622 -163.37036196 378.88277493 -163.35043335 374.91033936 C-163.33926987 373.64271759 -163.32810638 372.37509583 -163.31660461 371.06906128 C-163.31423973 369.66680938 -163.31206406 368.26455715 -163.31005859 366.86230469 C-163.30075923 365.38389538 -163.29059055 363.90549133 -163.27961731 362.42709351 C-163.25230407 358.41507277 -163.237164 354.40308717 -163.22418928 350.39099789 C-163.20856453 346.19757492 -163.18177222 342.00422376 -163.15615845 337.81085205 C-163.10935904 329.87075239 -163.07262056 321.93063924 -163.03948557 313.99047208 C-163.0012724 304.9506037 -162.95186013 295.91080742 -162.90150142 286.87099981 C-162.79816428 268.27603181 -162.70890967 249.6810198 -162.62890625 231.0859375 C-163.76070816 231.09259933 -164.89251007 231.09926117 -166.05860901 231.10612488 C-176.78197501 231.16722971 -187.50530518 231.21205017 -198.2288065 231.24137402 C-203.74042136 231.25695702 -209.25189444 231.27805909 -214.76342773 231.31225586 C-220.09323944 231.34511405 -225.4229157 231.36284573 -230.75282097 231.37056923 C-232.77514716 231.37606563 -234.79746685 231.38679713 -236.81973457 231.40312767 C-251.25759926 231.51496562 -265.87929178 231.48477189 -278.94140625 224.4609375 C-279.60382324 224.11683838 -280.26624023 223.77273926 -280.94873047 223.41821289 C-286.98256982 220.14847461 -291.88869623 216.04492644 -296.62890625 211.0859375 C-297.17546875 210.5703125 -297.72203125 210.0546875 -298.28515625 209.5234375 C-302.09300284 205.6345729 -304.43069945 200.95517522 -306.87890625 196.1484375 C-307.39155029 195.14574829 -307.39155029 195.14574829 -307.91455078 194.12280273 C-314.35709917 180.96324763 -315.07827729 163.80865178 -310.94140625 149.7734375 C-310.21869105 147.85874411 -309.45104607 145.96009176 -308.62890625 144.0859375 C-308.27828125 143.22355469 -307.92765625 142.36117187 -307.56640625 141.47265625 C-300.60314382 125.92620575 -287.59922154 115.41142688 -272.00390625 109.23828125 C-263.01149273 106.16795487 -254.10373791 105.48591134 -244.62890625 106.0859375 C-243.96890625 106.4159375 -243.30890625 106.7459375 -242.62890625 107.0859375 C-242.61472656 106.29832031 -242.60054688 105.51070313 -242.5859375 104.69921875 C-241.91605557 89.40056376 -235.82726522 76.32027648 -224.703125 65.74609375 C-212.15314845 55.70138559 -198.47420991 52.11250588 -182.62890625 53.0859375 C-171.60973068 54.72975889 -161.61445096 59.59637743 -152.62890625 66.0859375 C-152.61472656 65.53808594 -152.60054687 64.99023438 -152.5859375 64.42578125 C-151.50103525 46.39294652 -142.27084572 29.47910091 -130.62890625 16.0859375 C-130.18546875 15.49941406 -129.74203125 14.91289062 -129.28515625 14.30859375 C-99.9729351 -23.67218061 -37.13536953 -27.03763903 0 0 Z " fill="#3D9AE2" transform="translate(312.62890625,16.9140625)"/>
<path d="M0 0 C5.94 0 11.88 0 18 0 C18.00879936 2.82095467 18.00879936 2.82095467 18.01777649 5.69889832 C18.07492859 23.40095024 18.14747289 41.10287965 18.23571491 58.8048048 C18.28068764 67.90607229 18.32009889 77.00730051 18.34643555 86.10864258 C18.36940368 94.04102964 18.4027884 101.97329262 18.44870156 109.9055813 C18.47264982 114.10599475 18.49136807 118.30628519 18.49761391 122.50676537 C18.50365755 126.46060189 18.52363107 130.41412359 18.55427551 134.36784363 C18.56306734 135.81863533 18.56677594 137.26946815 18.56500816 138.72028542 C18.5633557 140.70228761 18.5818196 142.68427606 18.60127258 144.66618347 C18.60588155 145.77510043 18.61049051 146.88401739 18.61523914 148.0265379 C19.12652915 151.97782721 20.4950218 154.81916413 23.65722656 157.30029297 C27.2365529 158.36931645 30.78523205 158.24372813 34.484375 158.1953125 C35.29996887 158.1924826 36.11556274 158.18965271 36.95587158 158.18673706 C39.55406528 158.17556558 42.15191095 158.15046675 44.75 158.125 C46.51431793 158.11496627 48.27864128 158.10584111 50.04296875 158.09765625 C54.36211273 158.07563619 58.68099741 158.04112733 63 158 C63.62165039 156.88850586 64.24330078 155.77701172 64.88378906 154.63183594 C68.38497072 148.37181751 73.90628111 143.59869378 80.80859375 141.4375 C89.16799451 139.76860003 96.5503831 140.8433297 104 145 C106.875 147.4375 106.875 147.4375 109 150 C109.721875 150.825 110.44375 151.65 111.1875 152.5 C115.25468956 158.10991664 116.47639041 164.47807195 115.75390625 171.3359375 C113.992299 180.47135211 109.63763221 186.75928428 102 192 C94.76437015 195.63064406 87.26890292 196.07710252 79.5 194 C71.5885685 191.07138237 66.57468408 185.41845082 63 178 C61.74977051 177.99589111 60.49954102 177.99178223 59.21142578 177.98754883 C54.53312029 177.96562967 49.85564064 177.9112086 45.17773438 177.84741211 C43.16056283 177.82434305 41.14327273 177.80986267 39.12597656 177.80444336 C16.0813453 177.73036319 16.0813453 177.73036319 7.88916016 170.01098633 C-0.36823196 161.48541107 -0.42689902 153.06166902 -0.34057617 141.79321289 C-0.33972918 140.24540219 -0.34020645 138.69759028 -0.34190369 137.14978027 C-0.34276225 132.96220536 -0.32515903 128.77488974 -0.30418181 124.58737493 C-0.28539187 120.20584135 -0.28366275 115.82430142 -0.28010559 111.44273376 C-0.27079193 103.15203179 -0.24618735 94.8614489 -0.21605712 86.57079929 C-0.18249197 77.12947911 -0.16602179 67.68815316 -0.15097082 58.24678814 C-0.11963718 38.83112278 -0.06628357 19.41557534 0 0 Z " fill="#FE9711" transform="translate(344,247)"/>
<path d="M0 0 C5.94 0 11.88 0 18 0 C18.11588628 20.29749448 18.20504524 40.59489512 18.25906086 60.89265251 C18.2848111 70.3178727 18.31990063 79.74288318 18.37719727 89.16796875 C18.42712982 97.38562767 18.45931412 105.60313467 18.47044247 113.82094109 C18.47694461 118.16979863 18.49215956 122.51822166 18.52865028 126.86693954 C18.56276586 130.96608591 18.57302191 135.0646217 18.56553841 139.16389656 C18.56690605 140.6626334 18.57674593 142.16139214 18.59602737 143.66000557 C18.7158141 153.45653523 17.96079133 161.67384084 11.01002979 169.13653374 C3.96249307 175.86978322 -2.45346735 177.4295946 -11.9140625 177.23046875 C-13.82812396 177.22837097 -15.74218754 177.22776442 -17.65625 177.22851562 C-20.65007886 177.21398965 -23.64233646 177.18719213 -26.63574219 177.1340332 C-29.54206076 177.08905333 -32.44499486 177.09372247 -35.3515625 177.10546875 C-36.69077255 177.06222725 -36.69077255 177.06222725 -38.05703735 177.01811218 C-40.60588302 177.04772 -42.5920532 177.15605665 -45 178 C-46.73342593 179.87543875 -47.8110696 181.66665394 -48.92807007 183.95796204 C-51.55473807 188.96179262 -56.19647088 191.93530704 -61.375 193.875 C-69.14519557 196.08753026 -76.75476048 195.72861724 -84 192 C-90.80136677 187.23575758 -95.54390759 181.98736505 -97.5234375 173.84765625 C-98.64498151 166.75700578 -97.63383107 159.98596713 -94.1875 153.6875 C-89.22610644 147.59207363 -83.9616896 142.55097849 -76 141 C-67.4463219 140.16649463 -59.84809624 141.22925848 -52.92578125 146.61328125 C-49.2573832 150.08172469 -47.22449077 153.45535803 -45 158 C-39.82221598 158.07431132 -34.64474431 158.12867808 -29.46655273 158.16479492 C-27.70608104 158.17985553 -25.9456467 158.20030826 -24.18530273 158.22631836 C-21.65078497 158.26282229 -19.11676448 158.27975354 -16.58203125 158.29296875 C-15.40674614 158.31619453 -15.40674614 158.31619453 -14.2077179 158.33988953 C-9.62409256 158.34129232 -6.57395142 157.9631838 -3 155 C-0.8075279 151.61245267 -0.74138087 148.77042874 -0.7215271 144.78643799 C-0.71036362 143.51040207 -0.69920013 142.23436615 -0.68769836 140.91966248 C-0.68533347 139.50796538 -0.68315781 138.09626796 -0.68115234 136.68457031 C-0.67185305 135.19630895 -0.66168438 133.70805281 -0.65071106 132.21980286 C-0.62339702 128.1809234 -0.60825751 124.14207885 -0.59528303 120.10313129 C-0.57965864 115.88168138 -0.55286621 111.6603028 -0.5272522 107.43890381 C-0.48045216 99.44568002 -0.44371398 91.45244283 -0.41057932 83.45915198 C-0.37236659 74.35882555 -0.32295421 65.25857075 -0.27259517 56.15830469 C-0.16925709 37.43892138 -0.08040005 18.71949492 0 0 Z " fill="#FE9711" transform="translate(150,247)"/>
<path d="M0 0 C5.94 0 11.88 0 18 0 C18 61.38 18 122.76 18 186 C12.06 186 6.12 186 0 186 C0 124.62 0 63.24 0 0 Z " fill="#FE9811" transform="translate(247,247)"/>
<path d="M0 0 C6.9361785 4.65635887 10.94548084 10.15917338 12.9609375 18.31640625 C14.13356804 26.77868852 12.57199007 34.43306572 7.453125 41.35546875 C2.4428075 46.83186229 -3.01791929 49.86443534 -10.41015625 50.6953125 C-19.88523587 51.01148846 -26.72500967 49.55117808 -33.8515625 43.19140625 C-39.61484881 36.89200029 -41.78795579 29.50080793 -41.41796875 21.05078125 C-40.39939593 13.70025573 -37.55896778 7.7499135 -32 2.7890625 C-22.85120147 -4.08164875 -10.28424981 -5.48620761 0 0 Z " fill="#FF4F22" transform="translate(270.0390625,461.68359375)"/>
<path d="M0 0 C2.875 2.4375 2.875 2.4375 5 5 C5.721875 5.825 6.44375 6.65 7.1875 7.5 C11.25468956 13.10991664 12.47639041 19.47807195 11.75390625 26.3359375 C9.992299 35.47135211 5.63763221 41.75928428 -2 47 C-9.23562985 50.63064406 -16.73109708 51.07710252 -24.5 49 C-31.66814283 46.30096198 -37.37016519 41.23042224 -40.5625 34.25 C-43.07377093 26.76226556 -43.35047688 18.18769438 -40.10546875 10.875 C-36.12475441 4.12325836 -30.73284567 -1.24335164 -23.11328125 -3.578125 C-14.86018656 -5.22569289 -7.33393429 -4.09212275 0 0 Z " fill="#FF5022" transform="translate(448,392)"/>
<path d="M0 0 C5.77391349 4.4908216 9.4718271 9.77836878 11 17 C11.7172461 25.72371424 10.6825487 34.08879212 5 41 C-0.73313505 47.09145599 -7.11753256 50.02451356 -15.5 50.375 C-24.02863076 49.99002708 -29.8970123 47.0571549 -36.05078125 41.171875 C-41.06799867 35.58154858 -43.11141014 29.48923688 -43 22 C-42.11410996 12.9911798 -38.83039346 7.03616166 -32 1 C-22.01585588 -5.7010697 -10.47540898 -6.08537387 0 0 Z " fill="#FF5022" transform="translate(95,392)"/>
<path d="M0 0 C37.95 0 75.9 0 115 0 C115 5.94 115 11.88 115 18 C77.05 18 39.1 18 0 18 C0 12.06 0 6.12 0 0 Z " fill="#1E81CE" transform="translate(203,203)"/>
<path d="M0 0 C5.61 0 11.22 0 17 0 C17.85111669 12.76675039 13.65414108 22.8973568 6 33 C5.2575 34.03125 4.515 35.0625 3.75 36.125 C-3.64111496 43.85207474 -15.70279719 51.69981177 -26.69921875 52.09765625 C-30.84960938 52.04882812 -30.84960938 52.04882812 -35 52 C-35 46.39 -35 40.78 -35 35 C-32.73125 34.484375 -30.4625 33.96875 -28.125 33.4375 C-18.10931146 30.88718381 -10.62195215 26.35635144 -5.1796875 17.33203125 C-2.30956846 11.6583191 -1.04518005 6.27108027 0 0 Z " fill="#94C7EE" transform="translate(468,168)"/>
<path d="M0 0 C6.27 0 12.54 0 19 0 C19 6.27 19 12.54 19 19 C12.73 19 6.46 19 0 19 C0 12.73 0 6.46 0 0 Z " fill="#FFA733" transform="translate(379,308)"/>
<path d="M0 0 C6.27 0 12.54 0 19 0 C19 6.27 19 12.54 19 19 C12.73 19 6.46 19 0 19 C0 12.73 0 6.46 0 0 Z " fill="#FFA633" transform="translate(114,308)"/>
<path d="M0 0 C6.27 0 12.54 0 19 0 C19 6.27 19 12.54 19 19 C12.73 19 6.46 19 0 19 C0 12.73 0 6.46 0 0 Z " fill="#FFA732" transform="translate(379,273)"/>
<path d="M0 0 C6.27 0 12.54 0 19 0 C19 6.27 19 12.54 19 19 C12.73 19 6.46 19 0 19 C0 12.73 0 6.46 0 0 Z " fill="#FFA633" transform="translate(114,273)"/>
<path d="M0 0 C6.27 0 12.54 0 19 0 C19 5.94 19 11.88 19 18 C12.73 18 6.46 18 0 18 C0 12.06 0 6.12 0 0 Z " fill="#FFA732" transform="translate(379,344)"/>
<path d="M0 0 C6.27 0 12.54 0 19 0 C19 5.94 19 11.88 19 18 C12.73 18 6.46 18 0 18 C0 12.06 0 6.12 0 0 Z " fill="#FFA733" transform="translate(114,344)"/>
<path d="M0 0 C5.94 0 11.88 0 18 0 C18 5.94 18 11.88 18 18 C12.06 18 6.12 18 0 18 C0 12.06 0 6.12 0 0 Z " fill="#92C6EE" transform="translate(397,203)"/>
<path d="M0 0 C5.94 0 11.88 0 18 0 C18 5.94 18 11.88 18 18 C12.06 18 6.12 18 0 18 C0 12.06 0 6.12 0 0 Z " fill="#1F81CE" transform="translate(335,203)"/>
<path d="M0 0 C5.94 0 11.88 0 18 0 C18 5.94 18 11.88 18 18 C12.06 18 6.12 18 0 18 C0 12.06 0 6.12 0 0 Z " fill="#91C5EE" transform="translate(388,79)"/>
<path d="M0 0 C5.94 0 11.88 0 18 0 C18 5.94 18 11.88 18 18 C12.06 18 6.12 18 0 18 C0 12.06 0 6.12 0 0 Z " fill="#92C6EE" transform="translate(353,79)"/>
<path d="M0 0 C5.61 0 11.22 0 17 0 C17 5.94 17 11.88 17 18 C11.39 18 5.78 18 0 18 C0 12.06 0 6.12 0 0 Z " fill="#1E81CE" transform="translate(168,203)"/>
</svg>
