<?xml version="1.0" encoding="UTF-8"?>
<svg version="1.1" xmlns="http://www.w3.org/2000/svg" width="660" height="233">
<path d="M0 0 C3.04370902 2.91962496 3.59898645 4.85981906 3.78027344 9.11743164 C3.72914078 13.86121586 2.91316334 18.355485 1.984375 22.99609375 C1.81392166 23.87346695 1.64346832 24.75084015 1.46784973 25.65480042 C1.10745492 27.50015597 0.7433558 29.34479158 0.37573242 31.1887207 C-0.1809184 33.9865532 -0.72313936 36.78690474 -1.26367188 39.58789062 C-1.61762992 41.39079399 -1.97242043 43.19353416 -2.328125 44.99609375 C-2.56738457 46.23400917 -2.56738457 46.23400917 -2.81147766 47.49693298 C-5.60061437 61.34936139 -10.48687731 73.11845148 -22.37109375 81.5625 C-23.42296875 82.3359375 -23.42296875 82.3359375 -24.49609375 83.125 C-34.96475623 88.35933124 -45.92192611 89.02826336 -57.12109375 85.9375 C-62.74723634 84.03295652 -67.0088833 81.56462233 -71.37109375 77.5625 C-72.16 76.85673828 -72.16 76.85673828 -72.96484375 76.13671875 C-74.37109375 74.8125 -74.37109375 74.8125 -76.37109375 72.5625 C-76.37109375 71.9025 -76.37109375 71.2425 -76.37109375 70.5625 C-77.03109375 70.5625 -77.69109375 70.5625 -78.37109375 70.5625 C-84.02939146 60.22147315 -85.93064612 49.18462846 -87.98730469 37.69580078 C-88.64050386 34.06497741 -89.3184777 30.43883071 -89.99609375 26.8125 C-90.23585938 25.51828125 -90.475625 24.2240625 -90.72265625 22.890625 C-91.07825577 21.06549978 -91.45613557 19.24241205 -91.93359375 17.4453125 C-93.25520079 11.75768219 -93.35504254 6.27647531 -90.43359375 1.1875 C-81.96276511 -7.06917848 -69.63689246 -9.56580876 -58.37109375 -11.4375 C-57.63890625 -11.56253906 -56.90671875 -11.68757813 -56.15234375 -11.81640625 C-37.24104251 -14.3746131 -15.463348 -11.49598397 0 0 Z M-71.37109375 22.5625 C-71.70109375 23.2225 -72.03109375 23.8825 -72.37109375 24.5625 C-71.46359375 24.954375 -70.55609375 25.34625 -69.62109375 25.75 C-61.83059342 30.09470211 -58.95822801 38.48571318 -56.49609375 46.625 C-54.78077415 51.93912738 -52.77268348 56.01614144 -48.37109375 59.5625 C-45.90194189 60.87491113 -45.90194189 60.87491113 -43.37109375 60.5625 C-37.65396131 58.19198167 -35.20179957 53.5392319 -32.87890625 48.01171875 C-32.41452731 46.75908294 -31.95367495 45.50513494 -31.49609375 44.25 C-25.90448117 29.72179231 -25.90448117 29.72179231 -18.99609375 25.5 C-18.12984375 25.190625 -17.26359375 24.88125 -16.37109375 24.5625 C-16.86609375 23.5725 -16.86609375 23.5725 -17.37109375 22.5625 C-34.13642066 17.50739451 -54.60576684 17.50739451 -71.37109375 22.5625 Z " fill="#2583FE" transform="translate(102.37109375,73.4375)"/>
<path d="M0 0 C4.62 0 9.24 0 14 0 C14.33 11.88 14.66 23.76 15 36 C16.65 34.35 18.3 32.7 20 31 C26.64010537 25.70913979 34.91693964 26.10188218 43 27 C46.24713973 27.99123213 49.10045726 29.23984398 52 31 C52 31.66 52 32.32 52 33 C52.99 33.33 53.98 33.66 55 34 C62.9109812 42.40541753 64.47478775 54.26137613 64.1875 65.4296875 C63.37747636 76.5337615 60.93331136 84.69721603 53.953125 93.359375 C47.99283668 98.36601719 42.14084973 99.66674915 34.5 99.5625 C33.69691406 99.58634766 32.89382813 99.61019531 32.06640625 99.63476562 C26.06030434 99.62016408 21.53099897 98.06149373 17 94 C17 93.34 17 92.68 17 92 C16.34 92 15.68 92 15 92 C14.67 93.98 14.34 95.96 14 98 C9.38 98 4.76 98 0 98 C0 65.66 0 33.32 0 0 Z M18.5 45.71875 C14.20634229 51.47615466 13.76777367 56.17158152 13.6875 63.1875 C13.65849609 64.01314453 13.62949219 64.83878906 13.59960938 65.68945312 C13.5325303 72.23740332 14.87135816 77.70349489 19.48339844 82.56298828 C24.24309128 86.70601096 28.25857194 87.40507832 34.359375 87.3515625 C39.43471447 86.67585162 43.2138254 83.95958961 46.609375 80.234375 C51.34599912 72.62384411 51.47367119 63.13276823 49.73828125 54.62109375 C48.01825661 48.51455125 45.76662718 44.30495096 40.16796875 40.87890625 C32.51289747 37.77549897 23.90847097 39.52154368 18.5 45.71875 Z " fill="#243757" transform="translate(441,59)"/>
<path d="M0 0 C2.96983263 2.84876032 3.59148639 5.33423883 4.25390625 9.375 C4.18188405 12.13756578 3.83644583 13.29635468 2.12109375 15.49609375 C0.02241418 17.40959571 -1.98419975 19.01543907 -4.37109375 20.5625 C-4.94134277 20.9430957 -5.5115918 21.32369141 -6.09912109 21.71582031 C-10.93430298 24.58765464 -14.00240778 24.79093727 -19.42236328 23.49023438 C-20.27169434 23.26658203 -21.12102539 23.04292969 -21.99609375 22.8125 C-38.63750369 19.08879613 -54.10854015 19.62560855 -70.59765625 23.78515625 C-76.21482095 24.94231544 -79.41805737 23.33620038 -84.37109375 20.5625 C-87.5865103 18.21570309 -90.14144214 15.90697741 -92.37109375 12.5625 C-92.93091972 7.68401651 -93.00294258 5.60199323 -90.43359375 1.375 C-82.19614741 -7.14011307 -69.60513676 -9.57108463 -58.37109375 -11.4375 C-57.63890625 -11.56253906 -56.90671875 -11.68757813 -56.15234375 -11.81640625 C-37.24104251 -14.3746131 -15.463348 -11.49598397 0 0 Z " fill="#136CE6" transform="translate(102.37109375,73.4375)"/>
<path d="M0 0 C8.43617379 5.17712878 11.63798694 12.977729 13.94140625 22.19140625 C13.94140625 27.80140625 13.94140625 33.41140625 13.94140625 39.19140625 C-2.55859375 39.19140625 -19.05859375 39.19140625 -36.05859375 39.19140625 C-30.33377296 50.68034895 -30.33377296 50.68034895 -20.37109375 55.44140625 C-11.52083676 57.30197164 -3.47437183 56.09742556 5.19140625 53.84765625 C7.94140625 53.19140625 7.94140625 53.19140625 10.94140625 53.19140625 C10.94140625 57.48140625 10.94140625 61.77140625 10.94140625 66.19140625 C3.66919877 69.60988782 -2.97929527 69.67500598 -10.93359375 69.62890625 C-12.14917969 69.64888672 -13.36476563 69.66886719 -14.6171875 69.68945312 C-24.17531662 69.68429772 -33.02961865 68.22038135 -40.05859375 61.19140625 C-40.05859375 60.53140625 -40.05859375 59.87140625 -40.05859375 59.19140625 C-41.04859375 58.86140625 -42.03859375 58.53140625 -43.05859375 58.19140625 C-48.21587095 50.53363102 -49.43327821 42.89168004 -49.37109375 33.81640625 C-49.3669043 32.98077148 -49.36271484 32.14513672 -49.35839844 31.28417969 C-49.18904811 22.03476898 -46.9806891 14.99886784 -42.05859375 7.19140625 C-41.39859375 7.19140625 -40.73859375 7.19140625 -40.05859375 7.19140625 C-39.83042969 6.58683594 -39.60226562 5.98226562 -39.3671875 5.359375 C-37.68228303 2.5679661 -36.05498023 1.86960671 -33.12109375 0.50390625 C-32.24582031 0.08753906 -31.37054687 -0.32882813 -30.46875 -0.7578125 C-21.47096214 -4.68067301 -8.83862467 -4.29219168 0 0 Z M-32.05859375 17.19140625 C-35.15377427 22.36165324 -35.15377427 22.36165324 -36.05859375 28.19140625 C-23.84859375 28.19140625 -11.63859375 28.19140625 0.94140625 28.19140625 C-0.0773026 21.06044427 -1.2294167 15.72521062 -7.05859375 11.19140625 C-16.71843019 7.67873845 -25.4139649 8.88562019 -32.05859375 17.19140625 Z " fill="#243757" transform="translate(597.05859375,88.80859375)"/>
<path d="M0 0 C1.89492187 -0.04253906 1.89492187 -0.04253906 3.828125 -0.0859375 C12.17169586 -0.1032838 17.46963674 1.176683 24.625 5.5 C24.625 10.12 24.625 14.74 24.625 19.5 C18.625 17.5 18.625 17.5 16.6875 16.4375 C7.93354856 12.45843117 -5.56134178 13.21355117 -14.375 16.5 C-21.02567791 19.92678997 -25.09377078 23.79599833 -28.375 30.5 C-29.2721875 32.2015625 -29.2721875 32.2015625 -30.1875 33.9375 C-32.98819395 42.06595084 -32.70223946 53.1720818 -29.625 61.1875 C-28.91273638 62.64406678 -28.16662871 64.08499815 -27.375 65.5 C-26.818125 66.5725 -26.26125 67.645 -25.6875 68.75 C-20.73012959 74.64525129 -14.11866123 78.71187293 -6.375 79.5 C1.84201621 80.01181868 9.29973044 79.82437725 17.16015625 77.25390625 C19.95883145 76.39789308 22.73342638 75.93226717 25.625 75.5 C25.75996251 77.60241603 25.85697307 79.7072961 25.9375 81.8125 C25.99550781 82.98425781 26.05351562 84.15601563 26.11328125 85.36328125 C25.625 88.5 25.625 88.5 23.41796875 90.29296875 C22.49628906 90.69128906 21.57460937 91.08960938 20.625 91.5 C19.87347656 91.87769531 19.12195313 92.25539063 18.34765625 92.64453125 C14.59460488 93.82375399 10.97737013 94.01251313 7.0625 94.1875 C5.86258423 94.24393677 5.86258423 94.24393677 4.63842773 94.30151367 C-9.2139953 94.8546075 -21.365663 93.60416108 -32.37109375 84.4296875 C-35.50356386 81.4132348 -37.98144161 78.11744909 -40.375 74.5 C-41.2103125 73.3553125 -41.2103125 73.3553125 -42.0625 72.1875 C-48.28761553 59.44083488 -48.60312669 42.52055853 -44.5625 29 C-43.1303223 25.00526681 -41.31179309 21.27369428 -39.375 17.5 C-38.715 17.5 -38.055 17.5 -37.375 17.5 C-37.148125 16.943125 -36.92125 16.38625 -36.6875 15.8125 C-32.57161929 8.56071018 -24.57428061 3.899346 -16.90649414 1.11962891 C-11.3693892 -0.23567752 -5.66803772 -0.01149703 0 0 Z " fill="#243757" transform="translate(193.375,64.5)"/>
<path d="M0 0 C4.29 0 8.58 0 13 0 C13.01981934 1.22517334 13.03963867 2.45034668 13.06005859 3.71264648 C13.13657763 8.2919444 13.22522098 12.87094359 13.31738281 17.44995117 C13.35548235 19.42547677 13.39036713 21.40106726 13.421875 23.37670898 C13.46794159 26.22923858 13.52586417 29.08132875 13.5859375 31.93359375 C13.59748871 32.80584091 13.60903992 33.67808807 13.62094116 34.57676697 C13.78341283 41.44689758 13.94916479 48.394885 18.3125 53.9375 C22.49029181 57.14371232 24.59663302 58.08910267 29.9375 57.75 C33.44304404 57.17902124 36.73331435 56.43415467 40 55 C40.33 54.01 40.66 53.02 41 52 C41.66 52 42.32 52 43 52 C43.144375 51.21625 43.28875 50.4325 43.4375 49.625 C44 47 44 47 45 45 C45.11767472 43.5505207 45.17689268 42.09606004 45.20532227 40.64208984 C45.22526749 39.74130707 45.24521271 38.84052429 45.26576233 37.91244507 C45.28247482 36.93844757 45.29918732 35.96445007 45.31640625 34.9609375 C45.33718735 33.96494537 45.35796844 32.96895325 45.37937927 31.94277954 C45.44489042 28.75359146 45.50376704 25.56431942 45.5625 22.375 C45.60568373 20.21613707 45.64929797 18.0572827 45.69335938 15.8984375 C45.80057342 10.5990449 45.90183648 5.29956766 46 0 C50.62 0 55.24 0 60 0 C60 22.77 60 45.54 60 69 C55.38 69 50.76 69 46 69 C45.67 67.02 45.34 65.04 45 63 C44.34 63 43.68 63 43 63 C42.67 63.99 42.34 64.98 42 66 C36.52495439 69.96419202 32.22329267 70.65243922 25.5625 70.5625 C24.35110352 70.59827148 24.35110352 70.59827148 23.11523438 70.63476562 C15.7304063 70.6169135 10.91329545 67.83455774 5.6875 62.75 C1.75106795 56.3350737 -0.13418844 48.71040267 -0.11352539 41.2097168 C-0.11344986 40.28913986 -0.11337433 39.36856293 -0.11329651 38.42008972 C-0.10813522 37.4397023 -0.10297394 36.45931488 -0.09765625 35.44921875 C-0.0962413 34.43527542 -0.09482635 33.42133209 -0.09336853 32.37666321 C-0.08778328 29.14691179 -0.07523345 25.91723038 -0.0625 22.6875 C-0.0574831 20.49414163 -0.05292052 18.30078217 -0.04882812 16.10742188 C-0.03781867 10.73825439 -0.02056414 5.36913905 0 0 Z " fill="#243757" transform="translate(275,88)"/>
<path d="M0 0 C0.84336914 -0.01861084 1.68673828 -0.03722168 2.55566406 -0.05639648 C8.64649203 0.00518138 12.55016094 1.440924 17.8125 4.5 C17.8125 8.13 17.8125 11.76 17.8125 15.5 C14.8125 16.5 14.8125 16.5 12 15.5625 C5.23425003 13.45631771 -3.75291288 13.04105893 -10.3125 15.9375 C-11.735625 16.7109375 -11.735625 16.7109375 -13.1875 17.5 C-13.950625 17.644375 -14.71375 17.78875 -15.5 17.9375 C-17.31955605 18.35443327 -17.31955605 18.35443327 -18.25 20.0625 C-18.559375 20.866875 -18.86875 21.67125 -19.1875 22.5 C-19.72375 23.634375 -20.26 24.76875 -20.8125 25.9375 C-23.09749743 32.20659551 -23.51223856 39.6689993 -21.3203125 46.0078125 C-20.3694356 47.88874418 -19.28651956 49.70160436 -18.1875 51.5 C-17.8575 52.49 -17.5275 53.48 -17.1875 54.5 C-15.36412986 55.65429646 -15.36412986 55.65429646 -13.1875 56.5 C-12.53652344 56.78101563 -11.88554687 57.06203125 -11.21484375 57.3515625 C-2.37523408 60.62304421 5.8613489 60.02448915 14.9140625 57.83984375 C15.54054688 57.72769531 16.16703125 57.61554688 16.8125 57.5 C18.54999107 59.23749107 18.106821 61.51048482 18.1875 63.875 C18.23648438 64.85210937 18.28546875 65.82921875 18.3359375 66.8359375 C17.8125 69.5 17.8125 69.5 15.64379883 71.13720703 C10.6777401 73.52752692 5.5465972 73.01212207 0.125 73 C-1.5755957 73.04253906 -1.5755957 73.04253906 -3.31054688 73.0859375 C-13.31688344 73.10900686 -21.22871576 70.09261111 -28.65234375 63.30078125 C-37.26251387 53.2008107 -37.02062725 40.04319365 -36.1875 27.5 C-34.68884451 18.50806707 -30.50731024 11.88578673 -23.48046875 6.11328125 C-16.1390483 0.94802291 -8.76406929 0.12746863 0 0 Z " fill="#243757" transform="translate(383.1875,85.5)"/>
<path d="M0 0 C4.62 0 9.24 0 14 0 C14.00586624 1.02064041 14.01173248 2.04128082 14.01777649 3.09284973 C14.07493808 12.70171324 14.14766504 22.31034901 14.23571491 31.9189806 C14.28048211 36.85913786 14.31972411 41.79921145 14.34643555 46.73950195 C14.37240534 51.50532224 14.4127625 56.27082159 14.46318626 61.03644371 C14.4798979 62.85650332 14.49138535 64.67661849 14.49761391 66.49674416 C14.5072085 69.04220009 14.5352109 71.58682694 14.56762695 74.13208008 C14.56619186 74.88805481 14.56475677 75.64402954 14.5632782 76.4229126 C14.62450151 80.44269401 14.62450151 80.44269401 16.38566589 83.95976257 C18.50833454 85.32755835 20.18011561 85.50580548 22.6875 85.6875 C23.49574219 85.75324219 24.30398438 85.81898438 25.13671875 85.88671875 C25.75160156 85.92410156 26.36648438 85.96148437 27 86 C27.02686553 87.97909398 27.04633375 89.95828971 27.0625 91.9375 C27.07410156 93.03964844 27.08570313 94.14179688 27.09765625 95.27734375 C27 98 27 98 26 99 C11.4050472 100.38622347 11.4050472 100.38622347 5.69549561 95.67735291 C0.18560837 90.22642438 -0.35307133 83.55797675 -0.45410156 76.17553711 C-0.468571 72.62545746 -0.43187146 69.07714811 -0.390625 65.52734375 C-0.38315494 63.63449199 -0.37746563 61.74163244 -0.37347412 59.84877014 C-0.358278 54.89204158 -0.31904872 49.93578965 -0.2746582 44.97924805 C-0.23357492 39.91136114 -0.21543533 34.84339643 -0.1953125 29.77539062 C-0.15254813 19.85005221 -0.08437055 9.9250659 0 0 Z " fill="#243757" transform="translate(517,59)"/>
<path d="M0 0 C1 1 1 1 1.09765625 3.94140625 C1.08605469 5.13636719 1.07445312 6.33132812 1.0625 7.5625 C1.05347656 8.76003906 1.04445313 9.95757812 1.03515625 11.19140625 C1.02355469 12.11824219 1.01195312 13.04507813 1 14 C-0.41152344 14.03867188 -0.41152344 14.03867188 -1.8515625 14.078125 C-11.30936691 14.26107051 -11.30936691 14.26107051 -19 19 C-23.77013612 25.08603573 -23.16903265 33.03671797 -23.31640625 40.43359375 C-23.33718735 41.31153091 -23.35796844 42.18946808 -23.37937927 43.0940094 C-23.44431945 45.87509985 -23.50349927 48.65627785 -23.5625 51.4375 C-23.60573814 53.33269104 -23.64935405 55.2278735 -23.69335938 57.12304688 C-23.79994322 61.74861013 -23.90136408 66.37426071 -24 71 C-27.96 71 -31.92 71 -36 71 C-36 48.23 -36 25.46 -36 2 C-32.04 2 -28.08 2 -24 2 C-23.67 4.64 -23.34 7.28 -23 10 C-22.54625 9.34 -22.0925 8.68 -21.625 8 C-21.08875 7.34 -20.5525 6.68 -20 6 C-19.34 6 -18.68 6 -18 6 C-18 5.34 -18 4.68 -18 4 C-12.02613025 1.25201992 -6.67895185 -0.38165439 0 0 Z " fill="#243757" transform="translate(267,86)"/>
<path d="M0 0 C4.29 0 8.58 0 13 0 C13 22.77 13 45.54 13 69 C8.71 69 4.42 69 0 69 C0 46.23 0 23.46 0 0 Z " fill="#243757" transform="translate(412,88)"/>
<path d="M0 0 C3.60067126 0.87838956 4.94522296 2.42198203 6.9375 5.47265625 C7.79794823 9.75205364 7.63563144 13.1715931 5.5625 17.03515625 C1.4404494 19.29246967 -2.47723542 19.19624451 -7.0625 18.47265625 C-9.6875 17.03515625 -9.6875 17.03515625 -11.0625 14.47265625 C-11.98163231 9.6895988 -11.74925061 6.52424312 -9.0625 2.41015625 C-5.74095169 0.26498963 -3.88381981 -0.28687305 0 0 Z " fill="#243757" transform="translate(421.0625,60.52734375)"/>
</svg>
