<?xml version="1.0" encoding="UTF-8"?>
<svg version="1.1" xmlns="http://www.w3.org/2000/svg" width="349" height="351">
<path d="M0 0 C115.17 0 230.34 0 349 0 C349 115.83 349 231.66 349 351 C233.83 351 118.66 351 0 351 C0 235.17 0 119.34 0 0 Z " fill="#F1F6F4" transform="translate(0,0)"/>
<path d="M0 0 C115.17 0 230.34 0 349 0 C349 115.83 349 231.66 349 351 C233.83 351 118.66 351 0 351 C0 235.17 0 119.34 0 0 Z M64.25 64.875 C47.89777249 83.89203496 36.63210702 105.55153546 31 130 C30.82122314 130.6791748 30.64244629 131.35834961 30.45825195 132.05810547 C28.45846166 140.44029996 28.64560228 148.93754907 28.6875 157.5 C28.68998749 158.30501953 28.69247498 159.11003906 28.69503784 159.93945312 C28.88754156 200.10022942 44.56902534 234.53046179 73 263 C99.32919974 287.97705824 135.63974921 300.92991555 171.67993164 300.33154297 C174.12289865 300.25331931 176.55982913 300.13973189 179 300 C179.69319336 299.96132813 180.38638672 299.92265625 181.10058594 299.8828125 C198.86604506 298.69437057 216.30487585 293.24628348 232 285 C233.11632812 284.44441406 234.23265625 283.88882812 235.3828125 283.31640625 C247.27578512 277.22934107 257.31755682 269.13585365 267 260 C267.79921875 259.27683594 268.5984375 258.55367187 269.421875 257.80859375 C287.01889441 241.24834141 298.25601704 218.92864166 305 196 C305.2259082 195.24509277 305.45181641 194.49018555 305.68457031 193.71240234 C312.39152247 170.16595203 311.12821224 142.24644767 304 119 C303.78069824 118.27264648 303.56139648 117.54529297 303.33544922 116.79589844 C291.70888834 79.6083217 264.76639263 50.91102618 230.80859375 32.94140625 C174.93357162 3.85743145 106.26583103 19.83166621 64.25 64.875 Z " fill="#FDFEFD" transform="translate(0,0)"/>
<path d="M0 0 C1.07765625 0.22816406 2.1553125 0.45632812 3.265625 0.69140625 C10.55252919 2.3262886 17.22719248 4.87784143 24 8 C24.60859863 8.27972656 25.21719727 8.55945312 25.84423828 8.84765625 C41.42119277 16.08947056 54.71710869 25.00512131 67 37 C67.92425781 37.85078125 68.84851563 38.7015625 69.80078125 39.578125 C86.72085147 55.56483915 98.63902062 77.73657217 105 100 C105.20882813 100.70511719 105.41765625 101.41023438 105.6328125 102.13671875 C115.4219601 136.64656189 108.76269508 175.26068641 91.75 206.25 C72.59167482 239.49239547 42.15830096 263.29527742 5.21801758 273.57128906 C-3.50323304 275.88421559 -11.93994126 277.92160641 -21 278 C-22.50133613 278.06035695 -24.00263499 278.12164435 -25.50390625 278.18359375 C-64.03534373 279.37272096 -100.1575219 266.04664377 -128.31176758 239.66552734 C-147.71848994 220.9155016 -160.84944006 197.97514841 -168 172 C-168.17934082 171.3517627 -168.35868164 170.70352539 -168.54345703 170.03564453 C-174.45749898 147.1018473 -173.29326518 118.39008339 -166 96 C-165.77006348 95.26990723 -165.54012695 94.53981445 -165.30322266 93.78759766 C-154.27081408 59.51920329 -128.79955227 29.54738851 -97.07250977 12.67138672 C-93.76300027 10.99941439 -90.40418408 9.46854918 -87 8 C-86.27619141 7.68691895 -85.55238281 7.37383789 -84.80664062 7.05126953 C-58.19541203 -4.17857694 -28.1439125 -6.78581001 0 0 Z M-67 21 C-67.62986816 21.20898926 -68.25973633 21.41797852 -68.90869141 21.63330078 C-96.12997801 30.8590986 -118.3173139 49.17493208 -134 73 C-134.55042969 73.79277344 -135.10085937 74.58554688 -135.66796875 75.40234375 C-151.45506669 99.48507492 -155.66863899 131.4995087 -150.875 159.5 C-145.23949819 184.45347778 -134.57337863 204.34811077 -117 223 C-116.38898438 223.67546875 -115.77796875 224.3509375 -115.1484375 225.046875 C-102.6560306 238.33666957 -84.48607703 248.95368247 -67 254 C-65.86433594 254.36996094 -64.72867188 254.73992187 -63.55859375 255.12109375 C-42.20307622 261.38345858 -14.86830409 260.56680834 6 253 C7.01779541 252.64711914 7.01779541 252.64711914 8.05615234 252.28710938 C39.09318746 241.38321995 64.65385512 218.79724656 78.90234375 189.12060547 C82.99093854 180.07906434 85.80771654 170.66501892 88 161 C88.226875 160.01386719 88.45375 159.02773437 88.6875 158.01171875 C94.54166453 127.31800888 86.83182819 95.94364862 70 70 C51.66599823 43.51076263 26.02075581 26.86293221 -5 19 C-6.2470874 18.65308105 -7.4941748 18.30616211 -8.77905273 17.94873047 C-12.85523792 16.93626296 -16.83400395 16.67875722 -21.0234375 16.6640625 C-21.76291122 16.65568359 -22.50238495 16.64730469 -23.26426697 16.63867188 C-25.63473274 16.61927152 -28.00446865 16.6190643 -30.375 16.625 C-31.18335297 16.62554382 -31.99170593 16.62608765 -32.82455444 16.62664795 C-44.66162684 16.66339763 -55.70695769 17.14764444 -67 21 Z " fill="#2F465A" transform="translate(200,22)"/>
<path d="M0 0 C0 10.56 0 21.12 0 32 C-5.625 30.875 -5.625 30.875 -8 28 C-14.05703407 30.23644335 -16.25492331 36.56302001 -19 42 C-22.98435386 50.77420887 -22.70095361 60.53363487 -23 70 C-21.948125 69.95875 -20.89625 69.9175 -19.8125 69.875 C-13.51513241 70.08147107 -8.62280353 72.70075728 -3.91015625 76.83203125 C2.04735345 83.21777632 4.70108663 89.71339015 4.41796875 98.4765625 C3.30170532 105.21587256 -0.91350348 110.64014584 -6 115 C-6.45503906 115.46535156 -6.91007812 115.93070312 -7.37890625 116.41015625 C-12.22173655 120.76748978 -17.25199668 120.67098052 -23.55859375 120.41015625 C-31.62561995 119.44870591 -36.32299568 116.36338197 -41.4921875 110.1953125 C-46.03911687 103.57517181 -46.48653616 98.29532283 -46.625 90.4375 C-46.67623657 88.39444179 -46.73080826 86.35146391 -46.7890625 84.30859375 C-46.80662598 83.40939209 -46.82418945 82.51019043 -46.84228516 81.58374023 C-47.00171736 78.97186554 -47.46685152 76.55833438 -48 74 C-49.3586434 52.17261415 -43.99015095 33.62311585 -31.2265625 15.796875 C-29.9548146 13.93380483 -28.96425781 12.03665669 -28 10 C-28.845625 9.071875 -29.69125 8.14375 -30.5625 7.1875 C-32.00390625 5.60546875 -32.00390625 5.60546875 -33 4 C-32.67 3.01 -32.34 2.02 -32 1 C-21.29548174 -0.07621728 -10.7538788 -0.07736603 0 0 Z " fill="#375768" transform="translate(133,99)"/>
<path d="M0 0 C4.53346547 0.47720689 4.53346547 0.47720689 6.328125 2.48828125 C8.60268979 4.54495549 10.3505288 4.57667167 13.375 4.9375 C35.602567 8.25424887 52.95538335 19.62120011 66.77734375 36.94921875 C72.01037469 44.13199056 76.23622263 51.54609276 79 60 C81.64 59.67 84.28 59.34 87 59 C88.39093001 63.17279003 86.60635143 65.53001732 84.75 69.25 C84.11871154 70.54634956 83.48849754 71.84322292 82.859375 73.140625 C82.54782471 73.77863037 82.23627441 74.41663574 81.9152832 75.07397461 C80.51911799 78.01191735 79.26698485 81.00430112 78 84 C77.34711373 85.34013497 76.68774405 86.67741528 76 88 C74.35 87.67 72.7 87.34 71 87 C71 86.34 71 85.68 71 85 C70.01902344 84.77570313 69.03804688 84.55140625 68.02734375 84.3203125 C63.36448643 82.98806755 59.59357445 80.50829109 55.5625 77.875 C54.83095703 77.40707031 54.09941406 76.93914062 53.34570312 76.45703125 C51.55879114 75.31247325 49.77867677 74.1573143 48 73 C48.495 71.02 48.495 71.02 49 69 C50.98 68.67 52.96 68.34 55 68 C51.37401636 54.98911754 43.9563053 44.21738385 32.13671875 37.33203125 C29.78287239 36.14345536 27.42767852 35.02788942 25 34 C25.50943616 36.97253529 25.91505832 38.86749097 27.5625 41.4375 C29.29166579 44.51992597 29.11008011 46.52051115 29 50 C21.32788798 50.02526605 13.6557866 50.04283123 5.98364258 50.05493164 C3.37133381 50.05997377 0.75902789 50.06680725 -1.85327148 50.07543945 C-5.59880268 50.08751036 -9.34429672 50.09322935 -13.08984375 50.09765625 C-14.26586655 50.10281754 -15.44188934 50.10797882 -16.65354919 50.11329651 C-17.73459427 50.11337204 -18.81563934 50.11344757 -19.92944336 50.11352539 C-20.88652695 50.115746 -21.84361053 50.11796661 -22.82969666 50.12025452 C-25 50 -25 50 -26 49 C-26.3290576 45.18885564 -25.75822717 42.96405488 -23.83203125 39.69140625 C-23.35677002 38.87188477 -22.88150879 38.05236328 -22.3918457 37.20800781 C-21.87066162 36.33499023 -21.34947754 35.46197266 -20.8125 34.5625 C-20.28164795 33.65467773 -19.7507959 32.74685547 -19.20385742 31.81152344 C-18.07057197 29.87744469 -16.93214224 27.94637272 -15.7890625 26.01806641 C-13.96360146 22.93859732 -12.15243235 19.85106801 -10.34375 16.76171875 C-8.07450764 12.89517761 -5.80363106 9.02966146 -3.51953125 5.171875 C-3.05651611 4.3890918 -2.59350098 3.60630859 -2.11645508 2.79980469 C-1 1 -1 1 0 0 Z " fill="#335265" transform="translate(169,76)"/>
<path d="M0 0 C2.33203125 0.0625 2.33203125 0.0625 5 1 C6.88671875 3.5625 6.88671875 3.5625 8.6875 7 C9.37589065 8.28087031 10.06607703 9.56077672 10.7578125 10.83984375 C11.11907227 11.51772949 11.48033203 12.19561523 11.85253906 12.89404297 C13.82228921 16.50916314 15.95320894 20.02767707 18.0625 23.5625 C19.71620529 26.37043315 21.36020755 29.18392258 23 32 C23.37672852 32.64517578 23.75345703 33.29035156 24.14160156 33.95507812 C25.17125687 35.73264688 26.18000001 37.52228089 27.1875 39.3125 C27.75855469 40.31925781 28.32960938 41.32601562 28.91796875 42.36328125 C30 45 30 45 29.73828125 47.29296875 C29 49 29 49 28 50 C25.85446282 50.01898705 23.70885362 50.03515625 21.56323242 50.03515625 C13.68071353 49.93136351 13.68071353 49.93136351 6.453125 52.52734375 C5.25086982 53.87057133 4.09661042 55.25796871 2.98828125 56.6796875 C-6.43651166 67.67836527 -24.08782548 74.39957934 -38 76 C-43.06677079 76.21820274 -48.11732673 76.19081353 -53.1875 76.125 C-54.53449847 76.1149393 -55.88150431 76.10581897 -57.22851562 76.09765625 C-60.48587021 76.07430604 -63.74283549 76.0415577 -67 76 C-67.66 78.31 -68.32 80.62 -69 83 C-71.60847723 82.62907461 -72.76975577 82.24500122 -74.59985352 80.29760742 C-75.35673462 79.21249878 -75.35673462 79.21249878 -76.12890625 78.10546875 C-76.68900391 77.31462891 -77.24910156 76.52378906 -77.82617188 75.70898438 C-78.39916016 74.87689453 -78.97214844 74.04480469 -79.5625 73.1875 C-80.70958203 71.55595205 -81.85671571 69.92444041 -83.00390625 68.29296875 C-83.50736572 67.5661792 -84.0108252 66.83938965 -84.52954102 66.09057617 C-85.54167788 64.65160424 -86.59895058 63.24368114 -87.69116211 61.86450195 C-89 60 -89 60 -88.9375 57.875 C-87.70310264 55.40620527 -86.57133403 54.90752966 -84 54 C-83.01 54 -82.02 54 -81 54 C-81 53.34 -81 52.68 -81 52 C-77.87852455 50.32666842 -74.75226502 48.66248284 -71.625 47 C-70.73554688 46.52304688 -69.84609375 46.04609375 -68.9296875 45.5546875 C-67.65351563 44.87792969 -67.65351563 44.87792969 -66.3515625 44.1875 C-65.56604004 43.76855469 -64.78051758 43.34960938 -63.97119141 42.91796875 C-62 42 -62 42 -60 42 C-59.875 48.625 -59.875 48.625 -61 52 C-50.58373953 52.42515349 -41.68833752 52.23186106 -31.72265625 48.875 C-29 48 -29 48 -26 48 C-25.93296875 47.35933594 -25.8659375 46.71867187 -25.796875 46.05859375 C-24.65071964 41.65937978 -22.47328025 38.00734 -20.25 34.0625 C-19.77062988 33.20164795 -19.29125977 32.3407959 -18.79736328 31.45385742 C-2.66466236 2.66466236 -2.66466236 2.66466236 0 0 Z " fill="#365768" transform="translate(220,170)"/>
<path d="M0 0 C4.25518391 1.6592156 5.25491082 5.01639935 7.15234375 8.99609375 C7.93671731 10.56094256 8.72316855 12.1247517 9.51171875 13.6875 C10.07729492 14.82276123 10.07729492 14.82276123 10.65429688 15.98095703 C11.95939307 18.53767173 13.39729135 20.98986394 14.90234375 23.43359375 C17.53547882 27.71243824 19.94642075 32.08828419 22.3203125 36.515625 C23.67971375 39.09333982 23.67971375 39.09333982 25.390625 41.5078125 C26.97809149 44.56567569 26.81387969 46.65952828 26.71484375 50.05859375 C19.04273173 50.0838598 11.37063035 50.10142498 3.69848633 50.11352539 C1.08617756 50.11856752 -1.52612836 50.125401 -4.13842773 50.1340332 C-7.88395893 50.14610411 -11.62945297 50.1518231 -15.375 50.15625 C-16.5510228 50.16141129 -17.72704559 50.16657257 -18.93870544 50.17189026 C-20.01975052 50.17196579 -21.10079559 50.17204132 -22.21459961 50.17211914 C-23.1716832 50.17433975 -24.12876678 50.17656036 -25.11485291 50.17884827 C-27.28515625 50.05859375 -27.28515625 50.05859375 -28.28515625 49.05859375 C-28.61421385 45.24744939 -28.04338342 43.02264863 -26.1171875 39.75 C-25.64192627 38.93047852 -25.16666504 38.11095703 -24.67700195 37.26660156 C-24.15581787 36.39358398 -23.63463379 35.52056641 -23.09765625 34.62109375 C-22.5668042 33.71327148 -22.03595215 32.80544922 -21.48901367 31.87011719 C-20.35572822 29.93603844 -19.21729849 28.00496647 -18.07421875 26.07666016 C-16.24875771 22.99719107 -14.4375886 19.90966176 -12.62890625 16.8203125 C-10.35966389 12.95377136 -8.08878731 9.08825521 -5.8046875 5.23046875 C-5.34167236 4.44768555 -4.87865723 3.66490234 -4.40161133 2.85839844 C-2.67097278 0.06848648 -2.67097278 0.06848648 0 0 Z " fill="#344E5E" transform="translate(171.28515625,75.94140625)"/>
<path d="M0 0 C2.33203125 0.0625 2.33203125 0.0625 5 1 C6.88671875 3.5625 6.88671875 3.5625 8.6875 7 C9.37589065 8.28087031 10.06607703 9.56077672 10.7578125 10.83984375 C11.11907227 11.51772949 11.48033203 12.19561523 11.85253906 12.89404297 C13.82228921 16.50916314 15.95320894 20.02767707 18.0625 23.5625 C19.71620529 26.37043315 21.36020755 29.18392258 23 32 C23.37672852 32.64517578 23.75345703 33.29035156 24.14160156 33.95507812 C25.17125687 35.73264688 26.18000001 37.52228089 27.1875 39.3125 C27.75855469 40.31925781 28.32960937 41.32601562 28.91796875 42.36328125 C30.1225606 45.2986585 29.90040711 46.0888773 29 49 C21.48861406 49.0252899 13.97723903 49.04284141 6.46582031 49.05493164 C3.90884999 49.05997017 1.35188257 49.06680107 -1.20507812 49.07543945 C-4.87370517 49.08752602 -8.54229423 49.09323301 -12.2109375 49.09765625 C-13.35992523 49.10281754 -14.50891296 49.10797882 -15.69271851 49.11329651 C-16.7536673 49.11337204 -17.81461609 49.11344757 -18.90771484 49.11352539 C-19.84481293 49.115746 -20.78191101 49.11796661 -21.74740601 49.12025452 C-24 49 -24 49 -26 48 C-25.44835812 42.72757667 -22.80352823 38.59330996 -20.25 34.0625 C-19.77062988 33.20164795 -19.29125977 32.3407959 -18.79736328 31.45385742 C-2.66466236 2.66466236 -2.66466236 2.66466236 0 0 Z " fill="#344D5C" transform="translate(220,170)"/>
<path d="M0 0 C5.23724692 2.96387807 8.8638854 7.84165621 10.75 13.5 C11.59099874 19.59123374 10.72250823 23.74333576 7.1796875 28.77734375 C3.75169974 32.90778801 -0.38200746 36.03028154 -5.73046875 36.90625 C-12.09910942 37.12680898 -16.26619815 36.24594712 -21.3671875 32.32421875 C-25.98859749 27.84662857 -27.46014412 23.36883254 -27.8125 17 C-27.57175393 11.3929464 -26.07198745 7.61026388 -22.25 3.5 C-15.74430285 -2.41427014 -8.08885208 -3.44239315 0 0 Z " fill="#B2E3D7" transform="translate(120.25,176.5)"/>
<path d="M0 0 C6.75781515 3.81402922 11.97586784 9.37409413 14.30859375 16.87109375 C15.83201039 24.21854567 15.17927235 29.64179 11.16796875 36.03515625 C9.24387861 38.70131972 7.24892702 40.85806256 4.75 43 C4.29496094 43.46535156 3.83992188 43.93070313 3.37109375 44.41015625 C-1.47173655 48.76748978 -6.50199668 48.67098052 -12.80859375 48.41015625 C-20.87561995 47.44870591 -25.57299568 44.36338197 -30.7421875 38.1953125 C-35.71323499 30.9576734 -36.39947707 24.62582791 -35.25 16 C-32.30103223 7.92004437 -26.53034764 2.46132333 -18.828125 -1.12890625 C-12.47101307 -3.27683952 -6.07488896 -2.75456797 0 0 Z M-26.69921875 11.5703125 C-30.12529856 16.54714423 -30.04605505 22.18460834 -29.25 28 C-27.67241408 34.08049672 -24.13663007 37.72955185 -18.8125 40.92578125 C-14.2377878 42.84353408 -10.08624198 42.95583543 -5.25 42 C1.36080823 39.28050364 5.8974169 34.53918415 8.75 28 C9.63835514 22.50459381 8.86726566 17.71082556 6.16015625 12.859375 C2.57010166 8.12567421 -2.48050439 4.53752735 -8.4140625 3.69140625 C-16.2873424 3.27899635 -21.36539075 5.79080076 -26.69921875 11.5703125 Z " fill="#334C5C" transform="translate(122.25,171)"/>
<path d="M0 0 C3.36848889 3.0650883 5.44414481 6.21150692 7.63671875 10.19140625 C7.96162796 10.77792465 8.28653717 11.36444305 8.62129211 11.96873474 C9.30257308 13.20159286 9.98060011 14.43625419 10.65551758 15.67260742 C11.6882225 17.56382312 12.73088559 19.44926467 13.77539062 21.33398438 C18.84113565 30.52340696 18.84113565 30.52340696 20 34 C7.13 34 -5.74 34 -19 34 C-14.71965598 25.43931197 -10.54047227 17.23216186 -5.5625 9.125 C-5.02173828 8.23425781 -4.48097656 7.34351562 -3.92382812 6.42578125 C-2.6207191 4.28084073 -1.31284238 2.1389914 0 0 Z " fill="#B3E4DA" transform="translate(170,86)"/>
<path d="M0 0 C0.66 0 1.32 0 2 0 C2.43868408 0.79172607 2.87736816 1.58345215 3.3293457 2.39916992 C4.96683596 5.3534942 6.60510607 8.30738321 8.24389648 11.26098633 C8.95123798 12.53620491 9.65827375 13.81159314 10.36499023 15.0871582 C11.38443774 16.92704902 12.40500544 18.76631462 13.42578125 20.60546875 C14.34484253 22.26292114 14.34484253 22.26292114 15.2824707 23.95385742 C16.38947739 25.91720105 17.5341606 27.85999933 18.72338867 29.7746582 C20 32 20 32 20 34 C7.46 34 -5.08 34 -18 34 C-16.56896423 30.42241058 -15.15516967 27.29011081 -13.3203125 23.9453125 C-12.80339844 23.00042969 -12.28648437 22.05554688 -11.75390625 21.08203125 C-11.21636719 20.10621094 -10.67882812 19.13039062 -10.125 18.125 C-9.33029297 16.67287109 -9.33029297 16.67287109 -8.51953125 15.19140625 C-5.72752136 10.09927903 -2.90083688 5.03091999 0 0 Z " fill="#B3E4D9" transform="translate(221,179)"/>
<path d="M0 0 C4.36350222 2.22291622 7.09544338 4.45022584 9 9 C9.40194509 13.50178498 9.24948916 17.03661434 7 21 C2.67560016 24.89195985 0.00107986 26.36015437 -5.90234375 26.28515625 C-10.11636216 25.71230086 -12.80672658 23.1109787 -15.8125 20.3125 C-17.72589556 16.58641392 -18.58838632 13.18712123 -18 9 C-13.65611675 1.76828375 -8.52116851 -1.16197752 0 0 Z " fill="#F8644C" transform="translate(174,153)"/>
<path d="M0 0 C15.06896552 0 15.06896552 0 19 3 C22.6746931 6.91967264 22.44047123 11.28885798 22.2890625 16.40234375 C21.92817066 19.64549341 21.19439379 21.57049259 19 24 C15.32373393 26.51859575 11.52929866 26.22935061 7.25 26.125 C4.8575 26.08375 2.465 26.0425 0 26 C0 17.42 0 8.84 0 0 Z " fill="#3D4F60" transform="translate(134,323)"/>
<path d="M0 0 C1.65 0 3.3 0 5 0 C5 8.58 5 17.16 5 26 C-1 26 -1 26 -2.50732422 24.62304688 C-3.02576904 23.68041992 -3.02576904 23.68041992 -3.5546875 22.71875 C-3.94140625 22.04199219 -4.328125 21.36523438 -4.7265625 20.66796875 C-5.10554687 19.95253906 -5.48453125 19.23710937 -5.875 18.5 C-6.2771875 17.78457031 -6.679375 17.06914062 -7.09375 16.33203125 C-8.08278598 14.56589558 -9.04412455 12.78430084 -10 11 C-10.33 15.95 -10.66 20.9 -11 26 C-12.65 26 -14.3 26 -16 26 C-16 17.75 -16 9.5 -16 1 C-14.02 1 -12.04 1 -10 1 C-8.03061502 3.36085294 -6.61827367 5.36899401 -5.125 8 C-4.7228125 8.66773438 -4.320625 9.33546875 -3.90625 10.0234375 C-2.91789927 11.67068871 -1.95628934 13.33393145 -1 15 C-0.67 10.05 -0.34 5.1 0 0 Z " fill="#425464" transform="translate(176,323)"/>
<path d="M0 0 C3.83625 -0.12375 3.83625 -0.12375 7.75 -0.25 C8.54889648 -0.28641602 9.34779297 -0.32283203 10.17089844 -0.36035156 C13.68287869 -0.41519861 15.62729151 -0.27586298 18.48046875 1.8359375 C20 4 20 4 20.5625 6.875 C19.96653218 10.18593236 18.97852643 12.35836951 16.7109375 14.875 C13.35669562 17.08052891 9.86783287 16.34637309 6 16 C6 18.97 6 21.94 6 25 C4.02 25 2.04 25 0 25 C0 16.75 0 8.5 0 0 Z " fill="#465868" transform="translate(186,324)"/>
<path d="M0 0 C7.6700283 0.4302337 14.65896942 1.74231361 22 4 C21.01 4.495 21.01 4.495 20 5 C20.43298464 18.76132504 20.43298464 18.76132504 24 32 C23.236875 31.67 22.47375 31.34 21.6875 31 C19.00930865 29.82563314 19.00930865 29.82563314 16 30 C14.08095109 26.50130124 12.16519979 23.00080705 10.25 19.5 C9.71117187 18.51773438 9.17234375 17.53546875 8.6171875 16.5234375 C5.63344389 11.06536992 2.73926496 5.58490915 0 0 Z " fill="#6BA0A6" transform="translate(175,80)"/>
<path d="M0 0 C17.16 0 34.32 0 52 0 C52 0.33 52 0.66 52 1 C50.72125 0.979375 49.4425 0.95875 48.125 0.9375 C38.92502182 0.68102949 38.92502182 0.68102949 30.44921875 3.53125 C28.65313341 5.48669701 28.65313341 5.48669701 27.04296875 7.65625 C24.27946029 10.82662299 21.05518743 12.79919065 17.5 15 C16.86280029 15.39767578 16.22560059 15.79535156 15.5690918 16.20507812 C14.0512985 17.14522703 12.52639093 18.07387517 11 19 C10.67 18.34 10.34 17.68 10 17 C10.66 17 11.32 17 12 17 C12 16.34 12 15.68 12 15 C13.32 14.34 14.64 13.68 16 13 C15.690625 12.278125 15.38125 11.55625 15.0625 10.8125 C14.07439461 8.19692691 13.4712246 5.74881018 13 3 C8.99745544 2.90818866 8.99745544 2.90818866 5 3 C4.67 3.33 4.34 3.66 4 4 C3.34 4 2.68 4 2 4 C1.34 2.68 0.68 1.36 0 0 Z " fill="#7AABB1" transform="translate(196,219)"/>
<path d="M0 0 C0.33 0 0.66 0 1 0 C1 4.29 1 8.58 1 13 C-1.536875 13.8353125 -1.536875 13.8353125 -4.125 14.6875 C-13.05031845 17.9830022 -16.82741903 22.52559882 -21 31 C-21.33 31 -21.66 31 -22 31 C-22.33 26.38 -22.66 21.76 -23 17 C-22.34 17.66 -21.68 18.32 -21 19 C-17.68099155 15.90728758 -15.01794037 13.32863371 -13 9.25 C-11 6 -11 6 -7.8125 4.5625 C-5.05392902 4.0107858 -3.8299237 4 -1 4 C-0.67 2.68 -0.34 1.36 0 0 Z " fill="#6CA8A9" transform="translate(109,156)"/>
<path d="M0 0 C6.75 0.75 6.75 0.75 9 3 C8.84254085 5.62332886 8.57745977 8.09788695 8.1875 10.6875 C8.04344727 11.73067383 8.04344727 11.73067383 7.89648438 12.79492188 C7.60849042 14.86499925 7.30551847 16.93244448 7 19 C6.80788948 20.33974295 6.61643162 21.67957973 6.42578125 23.01953125 C6.28527344 24.00308594 6.14476562 24.98664063 6 26 C5.01 26 4.02 26 3 26 C-0.75058597 17.40490715 -0.28499689 9.19378855 0 0 Z " fill="#52818C" transform="translate(195,85)"/>
<path d="M0 0 C7 0 7 0 8.9140625 1.15625 C10.40495043 3.68754174 10.39858353 5.57564203 10.375 8.5 C10.38273438 9.4590625 10.39046875 10.418125 10.3984375 11.40625 C10 14 10 14 8.9140625 15.84375 C7 17 7 17 0 17 C0 11.39 0 5.78 0 0 Z " fill="#F9FAFA" transform="translate(140,328)"/>
<path d="M0 0 C2.97 0 5.94 0 9 0 C9 0.66 9 1.32 9 2 C9.66 2.33 10.32 2.66 11 3 C8.69 3 6.38 3 4 3 C4.33 8.94 4.66 14.88 5 21 C7.97 21.33 10.94 21.66 14 22 C13.67 22.66 13.34 23.32 13 24 C8.68026501 24.60809019 4.35840246 24.74611248 0 25 C0 16.75 0 8.5 0 0 Z " fill="#32485C" transform="translate(135,324)"/>
<path d="M0 0 C3.14905037 3.14905037 5.05207662 5.40629126 7.25 9.125 C7.77078125 9.99382812 8.2915625 10.86265625 8.828125 11.7578125 C10 14 10 14 10 16 C11.98 16 13.96 16 16 16 C15.67 16.66 15.34 17.32 15 18 C12.60408962 18.02712351 10.20849043 18.0468982 7.8125 18.0625 C7.13896484 18.07087891 6.46542969 18.07925781 5.77148438 18.08789062 C2.04565869 18.10606538 -1.3788042 17.89299392 -5 17 C-5 16.67 -5 16.34 -5 16 C-3.35 16 -1.7 16 0 16 C0 10.72 0 5.44 0 0 Z " fill="#EDF0F0" transform="translate(165,333)"/>
<path d="M0 0 C0.33 0 0.66 0 1 0 C1 2.64 1 5.28 1 8 C0.40832031 8.19335938 -0.18335937 8.38671875 -0.79296875 8.5859375 C-4.9146645 9.94414719 -8.9950524 11.32050585 -13 13 C-13.23861338 10.13663949 -13.20193689 8.39265507 -11.875 5.8125 C-8.41638233 2.46916959 -4.58122432 2 0 2 C0 1.34 0 0.68 0 0 Z " fill="#629FA0" transform="translate(108,158)"/>
<path d="M0 0 C3.63 0.33 7.26 0.66 11 1 C10.01 1.495 10.01 1.495 9 2 C9.47657292 4.60466582 9.95614719 7.20871714 10.4375 9.8125 C10.57220703 10.55048828 10.70691406 11.28847656 10.84570312 12.04882812 C11.41419737 15.11315076 12.01309651 18.03928953 13 21 C12.34 21 11.68 21 11 21 C9.16327681 17.68936862 7.33119238 14.37619334 5.5 11.0625 C4.97535156 10.11697266 4.45070312 9.17144531 3.91015625 8.19726562 C3.16572266 6.84858398 3.16572266 6.84858398 2.40625 5.47265625 C1.94541016 4.64000244 1.48457031 3.80734863 1.00976562 2.94946289 C0 1 0 1 0 0 Z " fill="#8CBEC1" transform="translate(175,80)"/>
<path d="M0 0 C14.625 0 14.625 0 19 3 C13 6 13 6 6 5 C6 10.61 6 16.22 6 22 C5.67 22 5.34 22 5 22 C5 16.06 5 10.12 5 4 C6.65 3.67 8.3 3.34 10 3 C10 2.34 10 1.68 10 1 C7.03 1 4.06 1 1 1 C1 9.25 1 17.5 1 26 C0.67 26 0.34 26 0 26 C0 17.42 0 8.84 0 0 Z " fill="#788693" transform="translate(134,323)"/>
<path d="M0 0 C4.42386702 -0.46635201 8.59569771 -0.7144994 13 0 C15.63203147 2.27831973 16.92348944 4.7110291 18 8 C18 8.66 18 9.32 18 10 C18.99 10.33 19.98 10.66 21 11 C21 11.66 21 12.32 21 13 C17.37 14.98 13.74 16.96 10 19 C10 18.34 10 17.68 10 17 C10.66 17 11.32 17 12 17 C12 16.34 12 15.68 12 15 C13.32 14.34 14.64 13.68 16 13 C15.690625 12.278125 15.38125 11.55625 15.0625 10.8125 C14.07439461 8.19692691 13.4712246 5.74881018 13 3 C8.99745544 2.90818866 8.99745544 2.90818866 5 3 C4.67 3.33 4.34 3.66 4 4 C3.34 4 2.68 4 2 4 C1.34 2.68 0.68 1.36 0 0 Z " fill="#62919B" transform="translate(196,219)"/>
<path d="M0 0 C2.97 0.495 2.97 0.495 6 1 C5.71889511 3.79310605 5.42563948 6.58398875 5.125 9.375 C5.04636719 10.1690625 4.96773437 10.963125 4.88671875 11.78125 C4.2265625 17.7734375 4.2265625 17.7734375 2 20 C-0.1103435 15.72115394 -0.24128739 11.86135858 -0.125 7.1875 C-0.11597656 6.49462891 -0.10695312 5.80175781 -0.09765625 5.08789062 C-0.07426157 3.39177605 -0.03839641 1.69584129 0 0 Z " fill="#446E7C" transform="translate(198,86)"/>
<path d="M0 0 C6.0546875 -0.1953125 6.0546875 -0.1953125 8 0 C8.66 0.66 9.32 1.32 10 2 C9.46428571 5.53571429 9.46428571 5.53571429 8 7 C5.32941149 7.14115161 2.67567762 7.04247107 0 7 C0 4.69 0 2.38 0 0 Z " fill="#E6E9EB" transform="translate(191,328)"/>
<path d="M0 0 C0.33 0 0.66 0 1 0 C1 4.29 1 8.58 1 13 C-9.75 17 -9.75 17 -12 17 C-10.54600704 13.16674584 -8.6919885 11.71720395 -5 10 C-3.35 10 -1.7 10 0 10 C0 6.7 0 3.4 0 0 Z " fill="#79B4B3" transform="translate(109,156)"/>
<path d="M0 0 C0.33 0 0.66 0 1 0 C1.19401633 1.81181405 1.38004375 3.62448532 1.5625 5.4375 C1.66691406 6.44683594 1.77132812 7.45617187 1.87890625 8.49609375 C1.93884766 9.73552734 1.93884766 9.73552734 2 11 C1.67 11.33 1.34 11.66 1 12 C1.66 12.33 2.32 12.66 3 13 C3 13.66 3 14.32 3 15 C-0.90028225 17.60018816 -4.47434569 17.15085514 -9 17 C-9 16.67 -9 16.34 -9 16 C-5.535 15.505 -5.535 15.505 -2 15 C-4.64 14.67 -7.28 14.34 -10 14 C-10 13.67 -10 13.34 -10 13 C-8.329375 12.814375 -8.329375 12.814375 -6.625 12.625 C-2.96896323 12.3534187 -2.96896323 12.3534187 -1 10 C-0.53837573 7.56747339 -0.53837573 7.56747339 -0.375 4.875 C-0.30023438 3.96492188 -0.22546875 3.05484375 -0.1484375 2.1171875 C-0.09945312 1.41851562 -0.05046875 0.71984375 0 0 Z " fill="#526878" transform="translate(150,332)"/>
<path d="M0 0 C0.66 0 1.32 0 2 0 C2.20496094 1.12019531 2.40992188 2.24039063 2.62109375 3.39453125 C2.89311689 4.86720824 3.16525849 6.33986336 3.4375 7.8125 C3.63956055 8.91948242 3.63956055 8.91948242 3.84570312 10.04882812 C4.41419737 13.11315076 5.01309651 16.03928953 6 19 C5.34 19 4.68 19 4 19 C-0.53574091 12.76335625 -0.44701413 7.56198897 0 0 Z " fill="#80B8BA" transform="translate(182,82)"/>
<path d="M0 0 C0.66 0.33 1.32 0.66 2 1 C0.43358249 5.30764815 -1.68336156 9.06171464 -4 13 C-4.33 13 -4.66 13 -5 13 C-5 10.36 -5 7.72 -5 5 C-4.34 5 -3.68 5 -3 5 C-2.5359375 4.0409375 -2.5359375 4.0409375 -2.0625 3.0625 C-1 1 -1 1 0 0 Z " fill="#7AB2B3" transform="translate(92,174)"/>
<path d="M0 0 C4.95 0 9.9 0 15 0 C13.35 1.65 11.7 3.3 10 5 C9.46375 4.525625 8.9275 4.05125 8.375 3.5625 C5.57157164 1.71813924 3.30379742 1.37543153 0 1 C0 0.67 0 0.34 0 0 Z " fill="#8EC3C4" transform="translate(214,220)"/>
<path d="M0 0 C2 1 2 1 3 3 C-1.455 4.485 -1.455 4.485 -6 6 C-3.62264151 1.24528302 -3.62264151 1.24528302 0 0 Z M6 -2 C6.33 -1.01 6.66 -0.02 7 1 C5.68 1.33 4.36 1.66 3 2 C3 1.34 3 0.68 3 0 C3.99 0 4.98 0 6 0 C6 -0.66 6 -1.32 6 -2 Z " fill="#548A90" transform="translate(102,160)"/>
<path d="M0 0 C2.79872437 2.52788007 4.45773019 4.20411134 5 8 C2.625 8.625 2.625 8.625 0 9 C-2 7 -2 7 -3 5 C-2.01 4.34 -1.02 3.68 0 3 C0 2.01 0 1.02 0 0 Z " fill="#47596B" transform="translate(167,327)"/>
<path d="M0 0 C9.59453303 0.59453303 9.59453303 0.59453303 13 4 C12.67 4.66 12.34 5.32 12 6 C11.13375 5.54625 10.2675 5.0925 9.375 4.625 C6.28523093 3.13733341 3.27069152 2.0123569 0 1 C0 0.67 0 0.34 0 0 Z " fill="#81B8BB" transform="translate(211,220)"/>
<path d="M0 0 C0.33 0 0.66 0 1 0 C1.33 2.31 1.66 4.62 2 7 C0.68 7.33 -0.64 7.66 -2 8 C-2.66 6.35 -3.32 4.7 -4 3 C-2.68 3.33 -1.36 3.66 0 4 C0 2.68 0 1.36 0 0 Z " fill="#80B7B9" transform="translate(194,103)"/>
</svg>
