<?xml version="1.0" encoding="UTF-8"?>
<svg version="1.1" xmlns="http://www.w3.org/2000/svg" width="225" height="225">
<path d="M0 0 C74.25 0 148.5 0 225 0 C225 74.25 225 148.5 225 225 C150.75 225 76.5 225 0 225 C0 150.75 0 76.5 0 0 Z " fill="#0065A8" transform="translate(0,0)"/>
<path d="M0 0 C74.25 0 148.5 0 225 0 C225 74.25 225 148.5 225 225 C150.75 225 76.5 225 0 225 C0 150.75 0 76.5 0 0 Z M86 18 C85.02675781 18.24363281 84.05351563 18.48726562 83.05078125 18.73828125 C58.0996295 25.92067282 37.43874069 44.63912695 25 67 C13.03606195 89.51558733 10.48156556 115.32677468 17 140 C24.03676182 162.8004084 38.70184632 183.28678423 59 196 C59.92425781 196.59554687 60.84851562 197.19109375 61.80078125 197.8046875 C69.19660582 202.36952756 76.69002991 205.48768346 85 208 C86.54494141 208.48146484 86.54494141 208.48146484 88.12109375 208.97265625 C112.82101976 215.47263678 140.11420578 210.69420123 162 198 C185.06125085 184.0550198 201.13889658 162.02774861 208 136 C213.78943218 110.2658224 209.60984372 83.86799671 195.8671875 61.40234375 C180.69766009 38.59368157 160.27028657 24.40726117 134 17 C133.13890625 16.75378906 132.2778125 16.50757812 131.390625 16.25390625 C116.85419603 12.89756517 100.27318966 14.12270411 86 18 Z " fill="#FEFEFE" transform="translate(0,0)"/>
<path d="M0 0 C0 2.31 0 4.62 0 7 C7.92 7 15.84 7 24 7 C24 36.37 24 65.74 24 96 C16.08 96 8.16 96 0 96 C0 97.98 0 99.96 0 102 C-4.34048295 103.20614555 -7.55453962 102.71852644 -11.9375 101.8125 C-13.34350025 101.52870778 -14.74976722 101.24623484 -16.15625 100.96484375 C-16.92066406 100.80999512 -17.68507813 100.65514648 -18.47265625 100.49560547 C-21.27867728 99.94535212 -24.09052879 99.43960724 -26.90625 98.94140625 C-28.40490601 98.67589966 -28.40490601 98.67589966 -29.93383789 98.4050293 C-31.92224148 98.05415356 -33.91100803 97.70532802 -35.90014648 97.35864258 C-36.80837158 97.1964624 -37.71659668 97.03428223 -38.65234375 96.8671875 C-39.46695068 96.72394043 -40.28155762 96.58069336 -41.12084961 96.43310547 C-43 96 -43 96 -44 95 C-44.09514592 92.29161914 -44.12554932 89.60881487 -44.11352539 86.90014648 C-44.11367142 86.05143982 -44.11381744 85.20273315 -44.1139679 84.32830811 C-44.11326848 81.50921109 -44.10547478 78.69017929 -44.09765625 75.87109375 C-44.09579217 73.92196183 -44.09436822 71.97282945 -44.09336853 70.0236969 C-44.08954255 64.88293168 -44.07971159 59.74219453 -44.06866455 54.60144043 C-44.05845215 49.35994852 -44.05387128 44.1184521 -44.04882812 38.87695312 C-44.03808939 28.58462306 -44.02101201 18.29231386 -44 8 C-40.51998106 6.56370796 -37.37142383 5.59113871 -33.6484375 5 C-32.63136719 4.835 -31.61429688 4.67 -30.56640625 4.5 C-29.51324219 4.335 -28.46007812 4.17 -27.375 4 C-25.29934868 3.66748014 -23.22382689 3.33415074 -21.1484375 3 C-19.62041504 2.75636719 -19.62041504 2.75636719 -18.06152344 2.5078125 C-14.14894319 1.85883587 -10.25498756 1.12328423 -6.36181641 0.3671875 C-4 0 -4 0 0 0 Z " fill="#F8FBFC" transform="translate(121,62)"/>
<path d="M0 0 C5.28 0 10.56 0 16 0 C16 24.09 16 48.18 16 73 C10.72 73 5.44 73 0 73 C0 48.91 0 24.82 0 0 Z " fill="#0063A7" transform="translate(121,77)"/>
<path d="M0 0 C4 2 4 2 5 4 C5.46194226 11.16010499 5.46194226 11.16010499 3.625 14.5 C2 16 2 16 0 16 C0 10.72 0 5.44 0 0 Z " fill="#2274B0" transform="translate(112,105)"/>
</svg>
