<svg version="1.1" id="Layer_1" xmlns:x="ns_extend;" xmlns:i="ns_ai;" xmlns:graph="ns_graphs;" xmlns="http://www.w3.org/2000/svg" xmlns:xlink="http://www.w3.org/1999/xlink" x="0px" y="0px" viewBox="0 0 280 280" style="enable-background:new 0 0 280 280;" xml:space="preserve">
 <metadata>
  <sfw xmlns="ns_sfw;">
   <slices>
   </slices>
   <sliceSourceBounds bottomLeftOrigin="true" height="280" width="280" x="820" y="399.5">
   </sliceSourceBounds>
  </sfw>
 </metadata>
 <path d="M140,0C62.7,0,0,62.7,0,140s62.7,140,140,140s140-62.7,140-140S217.3,0,140,0z M133.9,56.6c3.9-1.9,8-1.8,11.8,0.4
	c13.1,7.5,26.1,15,39.1,22.6c4.2,2.5,6.3,6.4,6.3,11.2c0.1,16.9,0,33.8,0,50.7c0,0.6-0.4,1.5-0.9,1.8c-5,3-10.1,5.9-15.6,9.1
	c0-1.1,0-1.9,0-2.7c0-17.4,0-34.8,0-52.2c0-3.3-1.1-5.5-4.1-7.2c-15.2-8.6-30.3-17.4-45.4-26.1c-0.7-0.4-1.3-0.8-2.3-1.4
	C126.7,60.6,130.2,58.4,133.9,56.6z M131.2,229.7c-0.8-0.4-1.5-0.7-2.1-1.1c-20-11.5-40-23.2-60.1-34.6c-5.6-3.2-8.2-7.8-8.2-14.2
	c0.1-13.7,0.1-27.3,0-41c0-6.2,2.5-10.7,7.9-13.7c14.1-8,28.1-16.2,42.2-24.3c1.2-0.7,2.1-0.8,3.4-0.1c4.8,2.9,9.8,5.7,14.9,8.7
	c-1,0.6-1.7,1-2.5,1.5c-15.2,8.8-30.3,17.6-45.6,26.3c-2.5,1.4-3.7,3.3-3.6,6.2c0.1,10.8,0.1,21.5,0,32.3c0,3,1.2,4.9,3.7,6.3
	c16.1,9.2,32.1,18.5,48.1,27.7c1.4,0.8,1.9,1.6,1.9,3.2C131.1,218.3,131.2,223.8,131.2,229.7z M131.2,198.8
	c-1.4-0.8-2.4-1.4-3.4-1.9c-12.7-7.3-25.5-14.7-38.2-22c-1.4-0.8-1.9-1.6-1.9-3.2c0.1-8.3,0.1-16.6,0-24.9c0-1.1,0.2-1.9,1.3-2.5
	c4.7-2.6,9.3-5.4,14-8c0.3-0.2,0.7-0.3,1.3-0.6c0,3.3,0,6.3,0,9.3c0,5,0.1,10.1,0,15.1c-0.1,2.9,1,4.8,3.5,6.2
	c7.2,4.1,14.3,8.3,21.5,12.3c1.4,0.8,1.8,1.7,1.8,3.2C131.1,187.4,131.2,192.9,131.2,198.8z M116.5,90.1c-2.7-1.6-5-1.6-7.7,0
	c-15.1,8.8-30.3,17.6-45.5,26.3c-0.6,0.4-1.3,0.7-2.4,1.3c0.4-5.8-0.8-11.2,1.1-16.5c1.1-2.9,3.1-5,5.7-6.6
	c12.7-7.3,25.3-14.7,38-21.9c4.6-2.7,9.4-2.6,14,0.1c14.4,8.3,28.8,16.6,43.2,25c0.6,0.4,1.4,1.1,1.4,1.7c0.1,5.9,0.1,11.9,0.1,18.2
	c-5.2-3-10.1-5.8-14.9-8.6C138.4,102.8,127.4,96.5,116.5,90.1z M217.8,183.2c-0.4,4.7-3.1,8-7.1,10.3c-15.4,8.9-30.8,17.8-46.3,26.7
	c-4.8,2.8-9.7,5.6-14.5,8.4c-0.6,0.3-1.2,0.6-2,1c0-0.8-0.1-1.4-0.1-2c0-5.1,0-10.2,0-15.3c0-1.2,0.3-1.9,1.3-2.5
	c22.5-12.9,45-25.9,67.5-38.9c0.3-0.2,0.7-0.3,1.3-0.7C217.8,174.8,218.1,179,217.8,183.2z M217.9,151c0,5.3-2.9,9-7.4,11.6
	c-17.6,10.1-35.2,20.3-52.7,30.4c-3.2,1.8-6.4,3.7-9.9,5.7c0-0.9-0.1-1.5-0.1-2c0-5,0-10.1,0-15.1c0-1.4,0.5-2.2,1.7-2.9
	c16-9.2,31.9-18.5,47.9-27.6c2.8-1.6,4.1-3.6,4.1-7c-0.1-17.4-0.1-34.8-0.1-52.2c0-0.8,0-1.6,0-3c4.2,2.5,8.1,4.6,11.7,7.1
	c3.3,2.3,4.9,5.8,4.9,9.8C217.9,120.9,218,136,217.9,151z">
 </path>
</svg>