<?xml version="1.0" encoding="UTF-8"?>
<svg version="1.1" xmlns="http://www.w3.org/2000/svg" width="480" height="250">
<path d="M0 0 C1.38353165 -0.00810448 1.38353165 -0.00810448 2.79501343 -0.01637268 C5.84340512 -0.02887887 8.89085596 -0.01235744 11.93920898 0.00561523 C14.05622914 0.0054603 16.17324959 0.00397232 18.29026794 0.00120544 C22.7263544 -0.00017935 27.16211785 0.01239431 31.59814453 0.03515625 C37.29035233 0.06355825 42.98202401 0.06079984 48.67427158 0.04806614 C53.04510597 0.04111897 57.41581594 0.04888697 61.78663445 0.06132317 C63.88583843 0.0658458 65.98505573 0.06616741 68.08426094 0.06225777 C71.01478699 0.05935456 73.94456798 0.07580936 76.875 0.09765625 C78.18187523 0.09090378 78.18187523 0.09090378 79.51515198 0.08401489 C85.40829388 0.15718812 85.40829388 0.15718812 87.5952692 1.77924252 C89.89157443 4.87529335 89.28681919 8.8024527 89.26098633 12.51538086 C89.26624329 13.43758926 89.27150024 14.35979767 89.2769165 15.30995178 C89.2901391 18.36362559 89.28137035 21.41677971 89.27124023 24.47045898 C89.27326032 26.5889089 89.2761712 28.70735814 89.27993774 30.82580566 C89.28436416 35.26780817 89.27791973 39.70962982 89.26391602 44.15161133 C89.24682406 49.85167587 89.25666353 55.55131667 89.27463341 61.25136566 C89.2854626 65.62647711 89.28202886 70.00148773 89.27425003 74.37660217 C89.27224563 76.4786026 89.27471566 78.58061211 89.28168869 80.68260193 C89.28928886 83.61799444 89.27771895 86.55269618 89.26098633 89.48803711 C89.26705902 90.36085831 89.27313171 91.2336795 89.27938843 92.13294983 C89.21634862 98.08807239 89.21634862 98.08807239 87.4739933 100.18590546 C83.76466435 103.23410485 79.8595024 102.67149815 75.27978516 102.69458008 C74.39019608 102.70275757 73.50060699 102.71093506 72.58406067 102.71936035 C69.63213784 102.74422834 66.68026312 102.76073349 63.72827148 102.77514648 C62.72135065 102.78047016 61.71442982 102.78579384 60.67699623 102.79127884 C55.34798569 102.81801585 50.01899864 102.83738946 44.68994141 102.85180664 C39.18160862 102.86846071 33.67387342 102.91324347 28.16576672 102.96417809 C23.93385621 102.99780902 19.7020883 103.0093795 15.47005653 103.01503372 C13.43944033 103.02175711 11.40883387 103.03700728 9.3783474 103.06092453 C6.53640189 103.09249132 3.6960782 103.09262568 0.85400391 103.08520508 C0.01485443 103.10161041 -0.82429504 103.11801575 -1.68887329 103.13491821 C-5.73115256 103.09170235 -7.68812425 102.78814781 -11.14907837 100.53031921 C-13.84640367 96.40056392 -13.82519514 93.29698085 -13.75830078 88.46044922 C-13.76903374 87.10836868 -13.76903374 87.10836868 -13.77998352 85.72897339 C-13.79686433 82.75556446 -13.77747302 79.78366439 -13.75610352 76.81030273 C-13.7569322 74.74194718 -13.75939155 72.67359168 -13.76341248 70.60523987 C-13.76626996 66.27340846 -13.75157243 61.94209425 -13.72412109 57.61035156 C-13.69001738 52.05602682 -13.69606422 46.50262562 -13.71478367 40.94825649 C-13.72534775 36.67857658 -13.71642152 32.40911188 -13.70139885 28.13945198 C-13.69621368 26.09131573 -13.69670289 24.04315703 -13.7029438 21.99502373 C-13.70838962 19.13404806 -13.68804191 16.27439878 -13.66064453 13.41357422 C-13.66717041 12.56619186 -13.67369629 11.71880951 -13.68041992 10.8457489 C-13.62259791 7.29771531 -13.463471 5.08227504 -11.66430664 1.97607422 C-7.83097227 -0.2515534 -4.36146734 -0.04851044 0 0 Z " fill="#020101" transform="translate(202.127197265625,32.498291015625)"/>
<path d="M0 0 C3.87446686 3.14145961 5.10807453 5.93794406 5.6328125 10.91015625 C5.86780839 17.73287037 5.72879235 22.52896189 1.3125 27.875 C-2.74595994 30.61004909 -5.82905898 31.31667646 -10.6875 30.875 C-11.3475 30.545 -12.0075 30.215 -12.6875 29.875 C-13.0175 33.175 -13.3475 36.475 -13.6875 39.875 C-16.9875 39.875 -20.2875 39.875 -23.6875 39.875 C-23.6875 26.675 -23.6875 13.475 -23.6875 -0.125 C-15.6875 -0.125 -15.6875 -0.125 -13.6875 0.875 C-12.945 0.565625 -12.2025 0.25625 -11.4375 -0.0625 C-7.24282323 -1.68317057 -4.16017249 -1.74146755 0 0 Z M-13.6875 8.875 C-14.05280232 12.00057959 -14.05280232 12.00057959 -13.875 15.5 C-13.84792969 16.68851563 -13.82085937 17.87703125 -13.79296875 19.1015625 C-13.75816406 20.01679688 -13.72335938 20.93203125 -13.6875 21.875 C-10.7175 22.37 -10.7175 22.37 -7.6875 22.875 C-4.9033727 20.20687801 -4.42164066 18.03540925 -4.3125 14.3125 C-4.28461971 11.55699847 -4.3542325 10.3183822 -6.0234375 8.09765625 C-9.14440707 5.8045495 -10.64095803 6.84397202 -13.6875 8.875 Z " fill="#000000" transform="translate(176.6875,180.125)"/>
<path d="M0 0 C0.92876953 0.00064453 1.85753906 0.00128906 2.81445312 0.00195312 C3.78189453 0.01806641 4.74933594 0.03417969 5.74609375 0.05078125 C6.71740234 0.04755859 7.68871094 0.04433594 8.68945312 0.04101562 C15.91657366 0.09626116 15.91657366 0.09626116 18.18359375 2.36328125 C18.44238281 4.578125 18.44238281 4.578125 18.44921875 7.30078125 C18.45308594 8.76644531 18.45308594 8.76644531 18.45703125 10.26171875 C18.44929688 11.28523438 18.4415625 12.30875 18.43359375 13.36328125 C18.44132812 14.38679688 18.4490625 15.4103125 18.45703125 16.46484375 C18.45445312 17.44195312 18.451875 18.4190625 18.44921875 19.42578125 C18.44696289 20.32425781 18.44470703 21.22273438 18.44238281 22.1484375 C18.18359375 24.36328125 18.18359375 24.36328125 16.18359375 26.36328125 C12.72416042 26.814198 9.23154941 26.68734547 5.74609375 26.67578125 C4.77865234 26.69189453 3.81121094 26.70800781 2.81445312 26.72460938 C1.88568359 26.72525391 0.95691406 26.72589844 0 26.7265625 C-0.85134521 26.72954346 -1.70269043 26.73252441 -2.57983398 26.7355957 C-4.81640625 26.36328125 -4.81640625 26.36328125 -6.5925293 25.12573242 C-8.15088402 22.88161458 -8.20338494 21.52033769 -8.21484375 18.80078125 C-8.21871094 17.92164062 -8.22257813 17.0425 -8.2265625 16.13671875 C-8.21496094 15.22148438 -8.20335937 14.30625 -8.19140625 13.36328125 C-8.20880859 11.99042969 -8.20880859 11.99042969 -8.2265625 10.58984375 C-8.22269531 9.71070313 -8.21882812 8.8315625 -8.21484375 7.92578125 C-8.20976807 6.72115234 -8.20976807 6.72115234 -8.20458984 5.4921875 C-7.33061682 0.6990776 -4.462882 -0.01562663 0 0 Z " fill="#008C9F" transform="translate(234.81640625,39.63671875)"/>
<path d="M0 0 C2.38312703 1.89428046 3.6500559 3.30011179 5 6 C5.08471364 7.81341842 5.10721083 9.62994161 5.09765625 11.4453125 C5.09443359 12.52167969 5.09121094 13.59804687 5.08789062 14.70703125 C5.07951172 15.83496094 5.07113281 16.96289062 5.0625 18.125 C5.05798828 19.26066406 5.05347656 20.39632812 5.04882812 21.56640625 C5.03701615 24.37765638 5.02054507 27.1888023 5 30 C1.7 30 -1.6 30 -5 30 C-5.33 22.74 -5.66 15.48 -6 8 C-7.98 8.33 -9.96 8.66 -12 9 C-12.33 15.93 -12.66 22.86 -13 30 C-16.3 30 -19.6 30 -23 30 C-23 20.1 -23 10.2 -23 0 C-19 0 -15 0 -11 0 C-7.16499319 -1.2783356 -3.85497292 -1.02592021 0 0 Z " fill="#000000" transform="translate(128,180)"/>
<path d="M0 0 C3.13509812 1.82880724 4.53653563 3.18341993 6.3125 6.3125 C7.16175301 9.63230722 7.19686422 12.58768684 7 16 C6 17 6 17 4.23413086 17.11352539 C3.48526611 17.10828857 2.73640137 17.10305176 1.96484375 17.09765625 C1.15595703 17.09443359 0.34707031 17.09121094 -0.48632812 17.08789062 C-1.33646484 17.07951172 -2.18660156 17.07113281 -3.0625 17.0625 C-3.91650391 17.05798828 -4.77050781 17.05347656 -5.65039062 17.04882812 C-7.76695663 17.03700373 -9.88348685 17.01906769 -12 17 C-11.22604863 19.01227804 -11.22604863 19.01227804 -10 21 C-6.09156358 21.99626811 -3.2336335 22.03893892 0.75 21.375 C4 21 4 21 5.9375 22.4375 C6.288125 22.953125 6.63875 23.46875 7 24 C6.5 25.8125 6.5 25.8125 5 28 C0.24343423 30.66234009 -4.58340714 31.67707411 -10 31 C-14.7753102 29.57010486 -18.03785024 27.66968931 -20.5 23.25 C-22.84595145 17.63014298 -22.6349246 13.11641532 -20.875 7.25 C-16.08099219 -1.05961354 -8.6008087 -1.77237112 0 0 Z M-10 7 C-10.66 8.32 -11.32 9.64 -12 11 C-8.7 11 -5.4 11 -2 11 C-2.66 9.68 -3.32 8.36 -4 7 C-5.98 7 -7.96 7 -10 7 Z " fill="#000000" transform="translate(206,180)"/>
<path d="M0 0 C0.93199219 -0.00257812 1.86398438 -0.00515625 2.82421875 -0.0078125 C3.80003906 -0.00007813 4.77585938 0.00765625 5.78125 0.015625 C6.75707031 0.00789063 7.73289063 0.00015625 8.73828125 -0.0078125 C9.67027344 -0.00523438 10.60226563 -0.00265625 11.5625 0 C12.41908203 0.00225586 13.27566406 0.00451172 14.15820312 0.00683594 C16.28125 0.265625 16.28125 0.265625 18.28125 2.265625 C18.54003906 4.48046875 18.54003906 4.48046875 18.546875 7.203125 C18.55074219 8.66878906 18.55074219 8.66878906 18.5546875 10.1640625 C18.54695313 11.18757813 18.53921875 12.21109375 18.53125 13.265625 C18.53898437 14.28914063 18.54671875 15.31265625 18.5546875 16.3671875 C18.55210937 17.34429687 18.54953125 18.32140625 18.546875 19.328125 C18.54461914 20.22660156 18.54236328 21.12507813 18.54003906 22.05078125 C18.28125 24.265625 18.28125 24.265625 16.28125 26.265625 C14.15820312 26.52441406 14.15820312 26.52441406 11.5625 26.53125 C10.63050781 26.53382812 9.69851562 26.53640625 8.73828125 26.5390625 C7.76246094 26.53132813 6.78664062 26.52359375 5.78125 26.515625 C4.80542969 26.52335937 3.82960937 26.53109375 2.82421875 26.5390625 C1.89222656 26.53648438 0.96023437 26.53390625 0 26.53125 C-0.85658203 26.52899414 -1.71316406 26.52673828 -2.59570312 26.52441406 C-4.71875 26.265625 -4.71875 26.265625 -6.71875 24.265625 C-6.97753906 22.05078125 -6.97753906 22.05078125 -6.984375 19.328125 C-6.98695313 18.35101563 -6.98953125 17.37390625 -6.9921875 16.3671875 C-6.98445312 15.34367187 -6.97671875 14.32015625 -6.96875 13.265625 C-6.97648438 12.24210937 -6.98421875 11.21859375 -6.9921875 10.1640625 C-6.98960937 9.18695313 -6.98703125 8.20984375 -6.984375 7.203125 C-6.98211914 6.30464844 -6.97986328 5.40617187 -6.97753906 4.48046875 C-6.45419132 0.00140203 -3.87416252 0.01020284 0 0 Z " fill="#7FAB33" transform="translate(203.71875,39.734375)"/>
<path d="M0 0 C1.02996094 -0.00128906 2.05992187 -0.00257812 3.12109375 -0.00390625 C4.74724609 0.00189453 4.74724609 0.00189453 6.40625 0.0078125 C7.49035156 0.00394531 8.57445312 0.00007813 9.69140625 -0.00390625 C10.72136719 -0.00261719 11.75132812 -0.00132813 12.8125 0 C14.24045898 0.00169189 14.24045898 0.00169189 15.69726562 0.00341797 C17.90625 0.1328125 17.90625 0.1328125 18.90625 1.1328125 C19.00557153 2.82839976 19.03705007 4.52806997 19.0390625 6.2265625 C19.04099609 7.77150391 19.04099609 7.77150391 19.04296875 9.34765625 C19.03910156 10.43175781 19.03523438 11.51585938 19.03125 12.6328125 C19.03705078 14.25896484 19.03705078 14.25896484 19.04296875 15.91796875 C19.04167969 16.94792969 19.04039062 17.97789063 19.0390625 19.0390625 C19.03793457 19.99103516 19.03680664 20.94300781 19.03564453 21.92382812 C18.90625 24.1328125 18.90625 24.1328125 17.90625 25.1328125 C16.21066274 25.23213403 14.51099253 25.26361257 12.8125 25.265625 C11.78253906 25.26691406 10.75257813 25.26820312 9.69140625 25.26953125 C8.06525391 25.26373047 8.06525391 25.26373047 6.40625 25.2578125 C5.32214844 25.26167969 4.23804688 25.26554687 3.12109375 25.26953125 C2.09113281 25.26824219 1.06117188 25.26695313 0 25.265625 C-0.95197266 25.26449707 -1.90394531 25.26336914 -2.88476562 25.26220703 C-5.09375 25.1328125 -5.09375 25.1328125 -6.09375 24.1328125 C-6.19307153 22.43722524 -6.22455007 20.73755503 -6.2265625 19.0390625 C-6.22849609 17.49412109 -6.22849609 17.49412109 -6.23046875 15.91796875 C-6.22660156 14.83386719 -6.22273437 13.74976562 -6.21875 12.6328125 C-6.22261719 11.54871094 -6.22648438 10.46460937 -6.23046875 9.34765625 C-6.22917969 8.31769531 -6.22789062 7.28773437 -6.2265625 6.2265625 C-6.22543457 5.27458984 -6.22430664 4.32261719 -6.22314453 3.34179688 C-5.97719156 -0.85703793 -3.661366 0.00433811 0 0 Z " fill="#E23C2F" transform="translate(203.09375,101.8671875)"/>
<path d="M0 0 C3.3 0 6.6 0 10 0 C10.33 7.26 10.66 14.52 11 22 C12.98 21.67 14.96 21.34 17 21 C17.33 14.07 17.66 7.14 18 0 C20.97 0 23.94 0 27 0 C27 9.9 27 19.8 27 30 C23.33333333 30 19.66666667 30 16 30 C14.54128569 30.226729 13.08298279 30.45611365 11.625 30.6875 C8.40964834 31.05347499 7.14253818 31.05762182 4.0625 29.8125 C1.14830807 27.25154346 0.10503682 25.22926961 -0.22705078 21.34277344 C-0.21657715 20.35825195 -0.20610352 19.37373047 -0.1953125 18.359375 C-0.18886719 17.28945312 -0.18242188 16.21953125 -0.17578125 15.1171875 C-0.15902344 14.00601563 -0.14226562 12.89484375 -0.125 11.75 C-0.11597656 10.62335938 -0.10695313 9.49671875 -0.09765625 8.3359375 C-0.07410658 5.55707635 -0.0412168 2.7786461 0 0 Z " fill="#000000" transform="translate(73,180)"/>
<path d="M0 0 C1.35726196 0.00616333 1.35726196 0.00616333 2.74194336 0.01245117 C3.72356445 0.01438477 4.70518555 0.01631836 5.71655273 0.01831055 C6.74458008 0.03055664 7.77260742 0.04280273 8.83178711 0.05541992 C9.86368164 0.05606445 10.89557617 0.05670898 11.95874023 0.05737305 C19.62912714 0.10275995 19.62912714 0.10275995 20.76928711 1.24291992 C20.86860864 2.93850718 20.90008718 4.6381774 20.90209961 6.33666992 C20.9040332 7.88161133 20.9040332 7.88161133 20.90600586 9.45776367 C20.90213867 10.54186523 20.89827148 11.6259668 20.89428711 12.74291992 C20.90008789 14.36907227 20.90008789 14.36907227 20.90600586 16.02807617 C20.9047168 17.05803711 20.90342773 18.08799805 20.90209961 19.14916992 C20.90097168 20.10114258 20.89984375 21.05311523 20.89868164 22.03393555 C20.76928711 24.24291992 20.76928711 24.24291992 19.76928711 25.24291992 C18.07369985 25.34224146 16.37402964 25.37371999 14.67553711 25.37573242 C13.64557617 25.37702148 12.61561523 25.37831055 11.55444336 25.37963867 C9.92829102 25.37383789 9.92829102 25.37383789 8.26928711 25.36791992 C7.18518555 25.37178711 6.10108398 25.3756543 4.98413086 25.37963867 C3.95416992 25.37834961 2.92420898 25.37706055 1.86303711 25.37573242 C0.91106445 25.37460449 -0.0409082 25.37347656 -1.02172852 25.37231445 C-3.23071289 25.24291992 -3.23071289 25.24291992 -4.23071289 24.24291992 C-4.48227558 20.60392817 -4.41593515 16.95208319 -4.41821289 13.30541992 C-4.43045898 12.27739258 -4.44270508 11.24936523 -4.45532227 10.19018555 C-4.45725586 9.20856445 -4.45918945 8.22694336 -4.46118164 7.21557617 C-4.46529053 6.31073486 -4.46939941 5.40589355 -4.47363281 4.47363281 C-4.12959524 1.31436518 -3.15926763 0.34403757 0 0 Z " fill="#9175CE" transform="translate(262.230712890625,70.757080078125)"/>
<path d="M0 0 C1.02802734 -0.01224609 2.05605469 -0.02449219 3.11523438 -0.03710938 C4.58766602 -0.04000977 4.58766602 -0.04000977 6.08984375 -0.04296875 C6.99468506 -0.04707764 7.89952637 -0.05118652 8.83178711 -0.05541992 C11.0625 0.1875 11.0625 0.1875 13.0625 2.1875 C13.30541992 4.31054687 13.30541992 4.31054687 13.29296875 6.90625 C13.29103516 7.83824219 13.28910156 8.77023438 13.28710938 9.73046875 C13.26874023 11.19419922 13.26874023 11.19419922 13.25 12.6875 C13.24935547 13.66332031 13.24871094 14.63914062 13.24804688 15.64453125 C13.20284598 22.90680804 13.20284598 22.90680804 12.0625 25.1875 C8.25001574 25.21637236 4.4375593 25.23425492 0.625 25.25 C-0.46361328 25.25837891 -1.55222656 25.26675781 -2.67382812 25.27539062 C-3.70830078 25.27861328 -4.74277344 25.28183594 -5.80859375 25.28515625 C-6.76693115 25.29039307 -7.72526855 25.29562988 -8.71264648 25.30102539 C-10.9375 25.1875 -10.9375 25.1875 -11.9375 24.1875 C-12.03682153 22.49191274 -12.06830007 20.79224253 -12.0703125 19.09375 C-12.07224609 17.54880859 -12.07224609 17.54880859 -12.07421875 15.97265625 C-12.07035156 14.88855469 -12.06648437 13.80445312 -12.0625 12.6875 C-12.06636719 11.60339844 -12.07023438 10.51929687 -12.07421875 9.40234375 C-12.07292969 8.37238281 -12.07164062 7.34242187 -12.0703125 6.28125 C-12.06918457 5.32927734 -12.06805664 4.37730469 -12.06689453 3.39648438 C-11.74732812 -2.05905689 -4.17109794 0.00260531 0 0 Z " fill="#F5F5F5" transform="translate(239.9375,70.8125)"/>
<path d="M0 0 C0.97582031 -0.01224609 1.95164063 -0.02449219 2.95703125 -0.03710938 C4.35501953 -0.04000977 4.35501953 -0.04000977 5.78125 -0.04296875 C6.63783203 -0.04707764 7.49441406 -0.05118652 8.37695312 -0.05541992 C10.5 0.1875 10.5 0.1875 12.5 2.1875 C12.74291992 4.41821289 12.74291992 4.41821289 12.73046875 7.16015625 C12.72853516 8.14177734 12.72660156 9.12339844 12.72460938 10.13476562 C12.70624023 11.67680664 12.70624023 11.67680664 12.6875 13.25 C12.68685547 14.28189453 12.68621094 15.31378906 12.68554688 16.37695312 C12.64015997 24.04734003 12.64015997 24.04734003 11.5 25.1875 C9.80441274 25.28682153 8.10474253 25.31830007 6.40625 25.3203125 C5.37628906 25.32160156 4.34632813 25.32289062 3.28515625 25.32421875 C1.65900391 25.31841797 1.65900391 25.31841797 0 25.3125 C-1.08410156 25.31636719 -2.16820312 25.32023437 -3.28515625 25.32421875 C-4.31511719 25.32292969 -5.34507812 25.32164063 -6.40625 25.3203125 C-7.35822266 25.31918457 -8.31019531 25.31805664 -9.29101562 25.31689453 C-11.5 25.1875 -11.5 25.1875 -12.5 24.1875 C-12.58713831 22.47977642 -12.60700007 20.76851351 -12.59765625 19.05859375 C-12.59443359 18.02412109 -12.59121094 16.98964844 -12.58789062 15.92382812 C-12.57951172 14.83521484 -12.57113281 13.74660156 -12.5625 12.625 C-12.55798828 11.53251953 -12.55347656 10.44003906 -12.54882812 9.31445312 C-12.53699826 6.60541505 -12.52051543 3.89648401 -12.5 1.1875 C-8.72960943 -0.69769529 -4.14845405 0.00274006 0 0 Z " fill="#E57000" transform="translate(209.5,70.8125)"/>
<path d="M0 0 C1.35726196 0.00616333 1.35726196 0.00616333 2.74194336 0.01245117 C3.72356445 0.01438477 4.70518555 0.01631836 5.71655273 0.01831055 C6.74458008 0.03055664 7.77260742 0.04280273 8.83178711 0.05541992 C9.86368164 0.05606445 10.89557617 0.05670898 11.95874023 0.05737305 C19.62912714 0.10275995 19.62912714 0.10275995 20.76928711 1.24291992 C20.86860864 2.93850718 20.90008718 4.6381774 20.90209961 6.33666992 C20.9040332 7.88161133 20.9040332 7.88161133 20.90600586 9.45776367 C20.90213867 10.54186523 20.89827148 11.6259668 20.89428711 12.74291992 C20.90008789 14.36907227 20.90008789 14.36907227 20.90600586 16.02807617 C20.9047168 17.05803711 20.90342773 18.08799805 20.90209961 19.14916992 C20.90097168 20.10114258 20.89984375 21.05311523 20.89868164 22.03393555 C20.76928711 24.24291992 20.76928711 24.24291992 19.76928711 25.24291992 C16.13029536 25.49448261 12.47845038 25.42814218 8.83178711 25.43041992 C7.80375977 25.44266602 6.77573242 25.45491211 5.71655273 25.4675293 C4.24412109 25.47042969 4.24412109 25.47042969 2.74194336 25.47338867 C1.3846814 25.479552 1.3846814 25.479552 0 25.48583984 C-2.23071289 25.24291992 -2.23071289 25.24291992 -4.23071289 23.24291992 C-4.48950195 21.11987305 -4.48950195 21.11987305 -4.49633789 18.52416992 C-4.49891602 17.59217773 -4.50149414 16.66018555 -4.50415039 15.69995117 C-4.49641602 14.72413086 -4.48868164 13.74831055 -4.48071289 12.74291992 C-4.48844727 11.76709961 -4.49618164 10.7912793 -4.50415039 9.78588867 C-4.50157227 8.85389648 -4.49899414 7.9219043 -4.49633789 6.96166992 C-4.49408203 6.10508789 -4.49182617 5.24850586 -4.48950195 4.3659668 C-4.11194163 1.26854743 -3.08256922 0.33568528 0 0 Z " fill="#CAD829" transform="translate(262.230712890625,101.757080078125)"/>
<path d="M0 0 C2.64 0 5.28 0 8 0 C10.28082938 5.67743017 12.55943188 11.35574684 14.8359375 17.03491211 C15.61136067 18.9684285 16.38740143 20.90169732 17.1640625 22.8347168 C18.27765169 25.60661643 19.3890467 28.37938681 20.5 31.15234375 C20.84998047 32.02213364 21.19996094 32.89192352 21.56054688 33.78807068 C21.88087891 34.58882523 22.20121094 35.38957977 22.53125 36.21459961 C22.81548828 36.9229747 23.09972656 37.63134979 23.39257812 38.3611908 C24 40 24 40 24 41 C21.69 41 19.38 41 17 41 C16.32880451 39.5437455 15.66318193 38.08492133 15 36.625 C14.62875 35.81289062 14.2575 35.00078125 13.875 34.1640625 C13 32 13 32 13 30 C7.06 30 1.12 30 -5 30 C-5.474375 31.629375 -5.94875 33.25875 -6.4375 34.9375 C-7.875 39.875 -7.875 39.875 -9 41 C-11.33297433 41.04092937 -13.66705225 41.04241723 -16 41 C-5.29949685 13.05485809 -5.29949685 13.05485809 0 0 Z M3 9 C2.1605118 11.10171867 1.32860344 13.20646625 0.5 15.3125 C0.0359375 16.48425781 -0.428125 17.65601563 -0.90625 18.86328125 C-2.16462513 21.91846448 -2.16462513 21.91846448 -2 25 C1.96 25 5.92 25 10 25 C9.39363767 19.23955788 7.24341721 14.27985631 5 9 C4.34 9 3.68 9 3 9 Z " fill="#000000" transform="translate(264,169)"/>
<path d="M0 0 C2.475 0.495 2.475 0.495 5 1 C5.33 1.66 5.66 2.32 6 3 C6.474375 2.505 6.94875 2.01 7.4375 1.5 C11.23216537 -0.72126753 14.70472931 -0.69031136 19 0 C23.1252292 2.36981252 24.54323601 4.56609387 26 9 C26.63774566 14.44308502 26.92570358 20.07800009 24.375 25.0625 C21.68738408 28.38665653 20.08453551 29.74321984 16 31 C12.48203243 30.97374651 9.18442083 30.59221042 6 29 C6 32.63 6 36.26 6 40 C4.02 40 2.04 40 0 40 C0 26.8 0 13.6 0 0 Z M6 8 C5.50216439 10.74582625 5.34136219 12.77176479 5.4375 15.5 C5.42654297 16.17675781 5.41558594 16.85351562 5.40429688 17.55078125 C5.45225052 20.79244764 5.59567927 22.56655447 7.84375 24.9765625 C10.92890637 26.44089396 12.7752461 25.96056499 16 25 C18.13912234 23.35333748 18.90343649 22.35508479 19.6171875 19.73046875 C20.15778664 14.39819539 20.5154719 10.42269046 17 6 C12.37495604 4.29074462 9.74253557 4.8572698 6 8 Z " fill="#000000" transform="translate(291,180)"/>
<path d="M0 0 C3.3 0 6.6 0 10 0 C10.09943798 4.5714698 10.17173349 9.14229975 10.21972656 13.71459961 C10.2397487 15.26744565 10.26697517 16.82021719 10.30175781 18.37280273 C10.3506961 20.61460832 10.37306168 22.85541093 10.390625 25.09765625 C10.41127014 25.78336197 10.43191528 26.46906769 10.45318604 27.17555237 C10.455684 32.63372227 9.04852565 35.63215156 6 40 C1.24962372 42.77852198 -2.54324781 43.41975017 -8 43 C-8.99 42.67 -9.98 42.34 -11 42 C-11.04241723 39.66705225 -11.04092937 37.33297433 -11 35 C-10 34 -10 34 -6.5625 33.6875 C-3.02913769 33.4229362 -3.02913769 33.4229362 -1.80322266 31.37792969 C-0.75744629 28.28192307 -0.67191506 25.53277214 -0.5859375 22.265625 C-0.54726563 20.97011719 -0.50859375 19.67460937 -0.46875 18.33984375 C-0.43729733 16.97656716 -0.40604993 15.61328582 -0.375 14.25 C-0.33679531 12.87106972 -0.29774213 11.49216266 -0.2578125 10.11328125 C-0.16351996 6.74232282 -0.0779178 3.37137022 0 0 Z " fill="#000000" transform="translate(58,168)"/>
<path d="M0 0 C2.87029869 1.79393668 4.49131638 2.98263276 6 6 C6.08471364 7.81341842 6.10721083 9.62994161 6.09765625 11.4453125 C6.09443359 12.52167969 6.09121094 13.59804687 6.08789062 14.70703125 C6.07951172 15.83496094 6.07113281 16.96289062 6.0625 18.125 C6.05798828 19.26066406 6.05347656 20.39632812 6.04882812 21.56640625 C6.03701615 24.37765638 6.02054507 27.1888023 6 30 C5.21625 29.835 4.4325 29.67 3.625 29.5 C0.11681613 28.82004139 0.11681613 28.82004139 -3.125 30.0625 C-7.21261178 31.39541688 -9.783742 30.8840541 -14 30 C-16 28.9375 -16 28.9375 -17 27 C-17.75590551 20.19685039 -17.75590551 20.19685039 -15.5 16.625 C-10.80682713 13.57443764 -5.56499884 12.65218757 0 13 C-0.33 10.69 -0.66 8.38 -1 6 C-8.04207705 6.7187807 -8.04207705 6.7187807 -15 8 C-15.33 6.68 -15.66 5.36 -16 4 C-10.70530473 0.39510109 -6.44465486 -1.23100149 0 0 Z M-6.625 18.5 C-7.85089844 18.91765625 -7.85089844 18.91765625 -9.1015625 19.34375 C-9.72804688 19.5603125 -10.35453125 19.776875 -11 20 C-11 21.65 -11 23.3 -11 25 C-6.20061268 26.08777852 -6.20061268 26.08777852 -1.5625 24.9375 C0.59592703 22.26105048 0.29697766 20.34099864 0 17 C-2.46620289 17 -4.29344126 17.70060843 -6.625 18.5 Z " fill="#000000" transform="translate(403,180)"/>
<path d="M0 0 C1 1 1 1 1.1328125 2.8125 C1.13023437 3.534375 1.12765625 4.25625 1.125 5 C1.12886719 6.0828125 1.12886719 6.0828125 1.1328125 7.1875 C1 9 1 9 0 10 C-1.155 10.144375 -2.31 10.28875 -3.5 10.4375 C-5.2325 10.7159375 -5.2325 10.7159375 -7 11 C-8.11823815 13.23647631 -8.19396061 14.64891529 -8.31640625 17.1328125 C-8.35830078 17.93847656 -8.40019531 18.74414062 -8.44335938 19.57421875 C-8.50233398 20.83685547 -8.50233398 20.83685547 -8.5625 22.125 C-8.60568359 22.97449219 -8.64886719 23.82398438 -8.69335938 24.69921875 C-8.79954236 26.79928223 -8.90028497 28.89961948 -9 31 C-12.3 31 -15.6 31 -19 31 C-19 21.1 -19 11.2 -19 1 C-16.03 1 -13.06 1 -10 1 C-9.67 1.66 -9.34 2.32 -9 3 C-8.443125 2.505 -7.88625 2.01 -7.3125 1.5 C-4.60483847 -0.25632099 -3.16620913 -0.34229288 0 0 Z " fill="#000000" transform="translate(235,179)"/>
<path d="M0 0 C3 1.5 3 1.5 5 3 C4.67 4.32 4.34 5.64 4 7 C-1.445 6.505 -1.445 6.505 -7 6 C-7 7.32 -7 8.64 -7 10 C-6.22914063 10.32613281 -5.45828125 10.65226563 -4.6640625 10.98828125 C-3.66117187 11.42527344 -2.65828125 11.86226562 -1.625 12.3125 C-0.62726563 12.74175781 0.37046875 13.17101562 1.3984375 13.61328125 C4 15 4 15 6 18 C6.37462902 21.44658697 6.19169538 23.55607385 4.8125 26.75 C2.63114673 29.45788682 1.3622645 30.15943388 -2 31 C-7.23864685 31.47624062 -10.51879649 30.77407836 -15 28 C-15.33 27.34 -15.66 26.68 -16 26 C-15.67 25.34 -15.34 24.68 -15 24 C-14.15695312 24.08378906 -13.31390625 24.16757813 -12.4453125 24.25390625 C-11.34960938 24.35574219 -10.25390625 24.45757812 -9.125 24.5625 C-8.03445313 24.66691406 -6.94390625 24.77132812 -5.8203125 24.87890625 C-3.04847977 25.22639404 -3.04847977 25.22639404 -1 24 C-0.34786708 21.97536745 -0.34786708 21.97536745 0 20 C-0.60328125 19.80664062 -1.2065625 19.61328125 -1.828125 19.4140625 C-2.62734375 19.15367187 -3.4265625 18.89328125 -4.25 18.625 C-5.43335938 18.24214844 -5.43335938 18.24214844 -6.640625 17.8515625 C-10.67513325 16.39539893 -12.55922036 15.66116945 -15 12 C-15.50326079 8.14166724 -15.31669325 6.49142057 -13.1875 3.1875 C-9.44333486 -0.55666514 -5.0635245 -0.5910729 0 0 Z " fill="#000000" transform="translate(336,180)"/>
<path d="M0 0 C1.32 0 2.64 0 4 0 C4 3.3 4 6.6 4 10 C6.64 10 9.28 10 12 10 C12 11.65 12 13.3 12 15 C9.36 15 6.72 15 4 15 C4.33 20.94 4.66 26.88 5 33 C6.98 33 8.96 33 11 33 C11.66 34.32 12.32 35.64 13 37 C9.86548114 39.3746355 8.37243096 40.01284245 4.375 39.875 C0.98025836 38.9948818 0.02185011 38.7075046 -2 36 C-2.34057617 33.73168945 -2.34057617 33.73168945 -2.29296875 31.11328125 C-2.28330078 30.17548828 -2.27363281 29.23769531 -2.26367188 28.27148438 C-2.23853516 27.29501953 -2.21339844 26.31855469 -2.1875 25.3125 C-2.17396484 24.32443359 -2.16042969 23.33636719 -2.14648438 22.31835938 C-2.11112203 19.87835769 -2.06177033 17.43945281 -2 15 C-3.65 14.67 -5.3 14.34 -7 14 C-6.67 12.68 -6.34 11.36 -6 10 C-4.68 10 -3.36 10 -2 10 C-1.93941406 9.36191406 -1.87882812 8.72382813 -1.81640625 8.06640625 C-1.73261719 7.24011719 -1.64882813 6.41382813 -1.5625 5.5625 C-1.48128906 4.73878906 -1.40007812 3.91507813 -1.31640625 3.06640625 C-1 1 -1 1 0 0 Z " fill="#000000" transform="translate(351,171)"/>
<path d="M0 0 C3.3 0 6.6 0 10 0 C10 9.9 10 19.8 10 30 C6.7 30 3.4 30 0 30 C0 20.1 0 10.2 0 0 Z " fill="#000000" transform="translate(138,180)"/>
<path d="M0 0 C2.475 0.495 2.475 0.495 5 1 C5.33 1.66 5.66 2.32 6 3 C6.350625 2.505 6.70125 2.01 7.0625 1.5 C9.94374289 -0.73063966 12.47009026 -0.19980621 16 0 C16.33 1.65 16.66 3.3 17 5 C10.25 7 10.25 7 8 7 C7.0699111 9.7902667 6.81301231 11.76529542 6.68359375 14.66796875 C6.64169922 15.56064453 6.59980469 16.45332031 6.55664062 17.37304688 C6.49766602 18.76620117 6.49766602 18.76620117 6.4375 20.1875 C6.39431641 21.12787109 6.35113281 22.06824219 6.30664062 23.03710938 C6.20061335 25.35792854 6.09854971 27.67885325 6 30 C4.02 30 2.04 30 0 30 C0 20.1 0 10.2 0 0 Z " fill="#000000" transform="translate(368,180)"/>
<path d="M0 0 C1.95803507 -0.05389087 3.91648909 -0.09274217 5.875 -0.125 C7.51082031 -0.15980469 7.51082031 -0.15980469 9.1796875 -0.1953125 C12 0 12 0 14 2 C14.66 1.34 15.32 0.68 16 0 C16.99 0 17.98 0 19 0 C19 2.97 19 5.94 19 9 C17.9275 8.814375 16.855 8.62875 15.75 8.4375 C12.59608454 8.0695432 10.90181508 7.95534657 8 9 C8 7.02 8 5.04 8 3 C7.01 3 6.02 3 5 3 C5 4.98 5 6.96 5 9 C4.01 9 3.02 9 2 9 C2 7.02 2 5.04 2 3 C1.34 3 0.68 3 0 3 C0 2.01 0 1.02 0 0 Z " fill="#000000" transform="translate(415,168)"/>
<path d="M0 0 C3.625 0.25 3.625 0.25 5.625 1.375 C7.16797074 4.26807013 6.53756088 6.18640275 5.625 9.25 C2.625 11.25 2.625 11.25 -0.4375 11.0625 C-3.375 10.25 -3.375 10.25 -5.375 7.25 C-4.68470149 0.34701493 -4.68470149 0.34701493 0 0 Z " fill="#000000" transform="translate(142.375,166.75)"/>
</svg>
