<?xml version="1.0" standalone="no"?>
<!DOCTYPE svg PUBLIC "-//W3C//DTD SVG 20010904//EN"
 "http://www.w3.org/TR/2001/REC-SVG-20010904/DTD/svg10.dtd">
<svg version="1.0" xmlns="http://www.w3.org/2000/svg"
 width="302.000000pt" height="302.000000pt" viewBox="0 0 302.000000 302.000000"
 preserveAspectRatio="xMidYMid meet">

<g transform="translate(0.000000,302.000000) scale(0.100000,-0.100000)"
fill="#000000" stroke="none">
<path d="M1317 2910 c-323 -41 -589 -166 -816 -385 -289 -279 -433 -616 -433
-1015 0 -569 340 -1075 866 -1290 621 -254 1321 -40 1697 516 165 246 249 540
235 829 -17 374 -151 680 -411 940 -205 206 -439 332 -717 386 -114 22 -323
32 -421 19z m387 -205 c479 -99 848 -465 952 -945 14 -64 19 -126 19 -255 -1
-153 -3 -181 -29 -280 -54 -213 -163 -402 -326 -565 -175 -176 -373 -282 -625
-335 -109 -24 -331 -24 -448 -1 -240 46 -465 166 -634 338 -114 114 -163 183
-233 323 -164 328 -168 712 -11 1041 123 258 308 447 561 574 133 66 249 101
396 120 92 12 286 4 378 -15z"/>
<path d="M960 2098 c-25 -13 -55 -38 -67 -57 -21 -32 -23 -45 -23 -193 0 -118
-3 -159 -12 -162 -77 -20 -73 -15 -76 -98 l-3 -76 -109 -4 c-98 -3 -111 -6
-134 -27 -26 -24 -26 -26 -26 -176 0 -214 -38 -195 382 -195 l336 0 26 31 c21
25 26 41 26 85 l0 54 193 -2 192 -3 5 -63 c8 -106 -8 -102 387 -102 199 0 342
4 353 10 29 16 40 66 40 187 0 138 -13 177 -62 192 -19 5 -164 8 -353 5 -373
-5 -356 0 -365 -107 l-5 -62 -192 -3 -193 -2 0 50 c0 60 -22 108 -53 115 -12
3 -65 6 -117 8 l-95 2 -3 70 c-3 77 -21 105 -68 105 l-24 0 0 145 c0 111 4
153 15 175 31 60 27 60 554 60 l481 0 32 -29 c32 -29 33 -31 36 -126 l4 -96
-46 -49 c-25 -27 -46 -56 -46 -64 0 -29 22 -28 54 3 18 17 35 28 39 25 4 -4 7
-45 7 -91 0 -75 2 -84 18 -81 14 3 17 17 20 91 1 48 6 87 9 87 4 0 19 -12 34
-26 26 -25 59 -28 59 -5 0 5 -23 34 -50 64 l-50 55 0 88 c0 111 -22 157 -90
192 -44 22 -46 22 -520 22 -474 0 -476 0 -520 -22z m-2 -535 l3 -53 -65 0 -66
0 0 55 0 56 63 -3 62 -3 3 -52z m260 -252 c2 -101 -1 -136 -10 -143 -22 -13
-622 -10 -636 4 -17 17 -17 249 0 266 9 9 91 12 328 10 l315 -3 3 -134z m1170
0 c2 -101 -1 -136 -10 -143 -22 -13 -632 -10 -646 4 -17 17 -17 249 0 266 9 9
92 12 333 10 l320 -3 3 -134z"/>
<path d="M647 1343 c-11 -10 -8 -83 3 -83 6 0 10 10 11 23 0 21 1 21 10 -3
l10 -25 14 25 c14 25 14 25 15 3 0 -13 5 -23 10 -23 13 0 13 77 0 85 -5 3 -16
-7 -24 -22 l-14 -28 -11 28 c-11 29 -14 31 -24 20z"/>
<path d="M761 1308 c-10 -24 -16 -45 -13 -48 2 -3 7 1 9 8 3 6 12 12 22 12 9
0 23 -6 30 -12 11 -11 12 -8 6 12 -14 45 -24 70 -30 70 -3 0 -14 -19 -24 -42z"/>
<path d="M853 1343 c-20 -8 -15 -40 7 -46 11 -3 20 -11 20 -17 0 -7 -8 -10
-20 -7 -11 3 -20 1 -20 -5 0 -5 12 -8 27 -6 39 4 42 35 6 50 -27 11 -27 12 -5
16 12 2 20 8 17 13 -7 10 -13 10 -32 2z"/>
<path d="M915 1340 c-3 -5 1 -10 9 -10 10 0 16 -13 19 -37 l4 -38 1 38 c1 20
7 37 12 37 6 0 10 5 10 10 0 6 -11 10 -24 10 -14 0 -28 -4 -31 -10z"/>
<path d="M997 1343 c-4 -3 -7 -24 -7 -45 0 -37 1 -38 33 -37 23 1 26 3 10 6
-13 2 -23 11 -23 18 0 7 10 16 23 18 l22 4 -22 2 c-28 1 -31 21 -3 21 11 0 20
5 20 10 0 11 -43 14 -53 3z"/>
<path d="M1071 1303 c1 -27 3 -40 6 -30 6 22 22 22 38 0 11 -15 13 -12 13 22
0 41 -10 55 -40 55 -15 0 -18 -8 -17 -47z m44 17 c-3 -5 -13 -10 -21 -10 -8 0
-14 5 -14 10 0 6 9 10 21 10 11 0 17 -4 14 -10z"/>
<path d="M1881 1336 c-10 -12 -7 -18 13 -31 32 -21 34 -39 4 -30 -18 6 -20 4
-12 -5 16 -16 48 -9 52 13 2 11 -6 21 -25 29 -27 11 -27 12 -5 16 12 2 20 8
17 13 -9 13 -31 11 -44 -5z"/>
<path d="M2036 1311 c-12 -32 -21 -41 -40 -41 -21 0 -25 5 -29 38 l-4 37 -1
-42 c-2 -43 -2 -43 32 -43 19 0 38 5 41 10 3 6 15 10 26 10 10 0 19 -4 19 -10
0 -5 5 -10 10 -10 10 0 -13 67 -29 83 -5 5 -16 -10 -25 -32z m34 -12 c0 -5 -4
-9 -10 -9 -5 0 -10 7 -10 16 0 8 5 12 10 9 6 -3 10 -10 10 -16z"/>
<path d="M2155 1320 c-8 -37 -21 -39 -29 -5 -4 14 -11 25 -16 25 -6 0 -4 -16
5 -37 24 -57 26 -57 50 -1 8 21 11 39 6 43 -5 3 -12 -8 -16 -25z"/>
<path d="M2190 1305 c0 -44 1 -45 33 -44 l32 1 -30 13 c-21 9 -25 15 -15 18 8
3 22 8 30 10 8 3 3 6 -12 6 -32 1 -39 21 -8 21 11 0 20 5 20 10 0 6 -11 10
-25 10 -23 0 -25 -4 -25 -45z"/>
<path d="M2050 967 c0 -46 -3 -87 -7 -91 -4 -4 -19 7 -34 25 -18 22 -31 30
-43 26 -28 -11 -18 -30 44 -92 l60 -59 60 59 c33 33 60 65 60 73 0 27 -30 24
-56 -7 -14 -17 -30 -31 -34 -31 -5 0 -11 39 -12 87 -3 74 -6 88 -20 91 -16 3
-18 -6 -18 -81z"/>
</g>
</svg>
