<?xml version="1.0" encoding="UTF-8"?>
<svg version="1.1" xmlns="http://www.w3.org/2000/svg" width="300" height="300">
<path d="M0 0 C2.02546107 -0.01162834 4.05088903 -0.03224653 6.07617188 -0.06152344 C9.04569711 -0.10422811 12.01433677 -0.12035707 14.98413086 -0.13061523 C15.88010483 -0.14812332 16.7760788 -0.16563141 17.69920349 -0.18367004 C24.75083555 -0.15945396 29.8017585 1.689429 35.32397461 6.07641602 C35.86280273 6.64360352 36.40163086 7.21079102 36.95678711 7.79516602 C37.51108398 8.36235352 38.06538086 8.92954102 38.63647461 9.51391602 C41.27148089 12.76138321 42.33276746 15.42881269 42.32470703 19.61035156 C42.32778366 20.45611252 42.33086029 21.30187347 42.33403015 22.17326355 C42.32325188 23.53878105 42.32325188 23.53878105 42.31225586 24.93188477 C42.31179764 25.88472855 42.31133942 26.83757233 42.31086731 27.81929016 C42.30784544 29.84259277 42.29996109 31.86589306 42.28759766 33.88916016 C42.26962088 36.92627607 42.26708632 39.96308116 42.26733398 43.00024414 C42.2480798 53.29184479 41.99143969 63.51791014 41.30224609 73.78613281 C41.04845888 77.82564948 40.98000288 81.81139014 41.01928711 85.85766602 C41.03282227 87.71584961 41.03282227 87.71584961 41.04663086 89.61157227 C41.05823242 90.4971582 41.06983398 91.38274414 41.08178711 92.29516602 C41.74178711 92.29516602 42.40178711 92.29516602 43.08178711 92.29516602 C45.00690221 98.63672164 46.10890324 104.32916611 42.97119141 110.46801758 C42.53718018 111.24113281 42.10316895 112.01424805 41.65600586 112.81079102 C38.7625394 118.4813828 37.79088502 123.90439116 36.95678711 130.17016602 C36.79702393 131.26079346 36.63726074 132.3514209 36.47265625 133.47509766 C36.14884557 135.69387241 35.83210859 137.91369186 35.52270508 140.13452148 C35.00267892 143.86223943 34.44737667 147.58389506 33.88500977 151.30541992 C33.65579445 152.82668739 33.42971319 154.348434 33.20825195 155.87084961 C32.54516112 160.39840532 31.8104597 164.91009118 31.0411377 169.42089844 C29.299718 179.66396512 27.86274335 189.93071746 26.51928711 200.23266602 C25.24827778 209.96460037 23.98027927 219.66133776 22.08178711 229.29516602 C21.89173096 230.28637451 21.7016748 231.27758301 21.50585938 232.29882812 C20.89532106 235.46631756 20.27131589 238.63090311 19.64428711 241.79516602 C19.4399707 242.84575195 19.2356543 243.89633789 19.02514648 244.97875977 C15.50803546 262.70675243 10.88862485 277.72805155 -3.96508789 289.04516602 C-5.91821289 290.29516602 -5.91821289 290.29516602 -7.91821289 290.29516602 C-7.91821289 290.95516602 -7.91821289 291.61516602 -7.91821289 292.29516602 C-9.74605891 293.26392441 -11.5808223 294.21963474 -13.41821289 295.17016602 C-14.43915039 295.70383789 -15.46008789 296.23750977 -16.51196289 296.78735352 C-38.59727193 306.56364857 -66.40135718 298.97729 -88.40649414 292.31469727 C-92.69358125 291.07005907 -97.0174349 290.03161902 -101.35571289 288.98266602 C-109.80217433 286.92188171 -118.09039294 284.47031578 -126.39135742 281.890625 C-133.41876735 279.71796527 -140.48034756 277.76783389 -147.60302734 275.93457031 C-152.34111931 274.71506141 -157.04223656 273.42452507 -161.71508789 271.97094727 C-163.55480863 271.40663576 -165.40534058 270.87772666 -167.25805664 270.35766602 C-170.79156139 269.33193145 -174.25245694 268.18112233 -177.73071289 266.98266602 C-183.4698666 265.02618597 -189.24808967 263.35769256 -195.10571289 261.79516602 C-202.32506164 259.85067335 -209.10637 257.4033847 -215.91821289 254.29516602 C-217.66811393 253.52410805 -219.41810566 252.75325587 -221.16821289 251.98266602 C-222.41887588 251.42164166 -223.66915894 250.85976364 -224.91821289 250.29516602 C-224.91821289 249.63516602 -224.91821289 248.97516602 -224.91821289 248.29516602 C-225.66071289 248.10954102 -226.40321289 247.92391602 -227.16821289 247.73266602 C-231.70293182 245.36224476 -233.17399403 241.20003694 -234.95532227 236.640625 C-236.04247041 232.86344675 -236.19321802 229.64975761 -236.21899414 225.72094727 C-236.22725723 224.64495522 -236.22725723 224.64495522 -236.23568726 223.54722595 C-236.24733484 221.23383685 -236.24108804 218.92105523 -236.23071289 216.60766602 C-236.22955475 215.81960571 -236.22839661 215.03154541 -236.22720337 214.21960449 C-236.19456997 203.03076538 -235.71944315 192.21082002 -233.3371582 181.24047852 C-232.91604088 179.28508059 -232.54746379 177.32591206 -232.19165039 175.35766602 C-230.76127522 167.68708271 -228.89416154 160.19885561 -226.82836914 152.68188477 C-225.90515658 149.24658308 -225.10920616 145.80940795 -224.41040039 142.32250977 C-223.74633648 139.58719891 -222.81126877 136.96512691 -221.91821289 134.29516602 C-221.44281253 132.7173405 -220.97332741 131.13772694 -220.50805664 129.55688477 C-214.63391487 109.67406666 -208.34304379 89.81516196 -198.91821289 71.29516602 C-198.51876465 70.49127441 -198.11931641 69.68738281 -197.70776367 68.85913086 C-182.01482602 37.32778896 -182.01482602 37.32778896 -170.91821289 29.29516602 C-168.72290039 28.62719727 -168.72290039 28.62719727 -166.91821289 28.29516602 C-166.91821289 27.63516602 -166.91821289 26.97516602 -166.91821289 26.29516602 C-137.40831965 12.91608259 -106.92529898 8.09818254 -74.85571289 5.23266602 C-72.20150743 4.9906212 -69.54746055 4.74690871 -66.89346313 4.50259399 C-65.14254239 4.34142502 -63.39154561 4.18107991 -61.64047241 4.02157593 C-56.57500212 3.55628556 -51.51637564 3.04787698 -46.45935059 2.49850464 C-30.95541676 0.81500856 -15.59198091 0.06229165 0 0 Z " fill="#FCFBFB" transform="translate(246.918212890625,-0.29516601562500006)"/>
<path d="M0 0 C7.0533264 -0.33658504 11.92121199 -0.04299274 17.546875 4.44921875 C30.40296754 16.79958509 34.25196698 34.83097312 34.78515625 52.05224609 C34.98044535 70.98308331 30.54829603 90.34705096 18.43359375 105.26171875 C17.96308594 105.89335938 17.49257812 106.525 17.0078125 107.17578125 C8.96624259 117.45992982 -3.84336184 124.1397947 -16.56640625 126.26171875 C-19.70236658 126.47195968 -22.8085399 126.42840594 -25.94921875 126.3515625 C-27.7109349 126.33115481 -29.47265376 126.31097941 -31.234375 126.29101562 C-33.97066498 126.24748486 -36.70676076 126.19891765 -39.44287109 126.14526367 C-42.11164643 126.09679692 -44.78016161 126.06706882 -47.44921875 126.0390625 C-48.25980743 126.01730453 -49.07039612 125.99554657 -49.9055481 125.97312927 C-55.96719691 125.92061234 -60.64166295 126.84360904 -65.45922852 130.82666016 C-68.73019686 134.81988178 -70.96656511 138.6795053 -72.50390625 143.63671875 C-72.74496094 144.38872559 -72.98601562 145.14073242 -73.234375 145.91552734 C-77.33998262 159.41847281 -79.84773988 173.42584223 -82.56640625 187.26171875 C-82.70667236 187.97438904 -82.84693848 188.68705933 -82.99145508 189.42132568 C-86.00440168 204.76803065 -88.86308195 220.12761735 -91.0234375 235.62109375 C-91.4167532 238.25828968 -91.89208605 240.69725323 -92.56640625 243.26171875 C-98.00416583 242.70709139 -102.98895932 241.72169157 -108.19140625 240.01171875 C-108.87799316 239.78991943 -109.56458008 239.56812012 -110.27197266 239.33959961 C-112.37300734 238.65544626 -114.46963817 237.95881961 -116.56640625 237.26171875 C-117.819375 236.85566406 -119.07234375 236.44960937 -120.36328125 236.03125 C-129.92537092 232.80561058 -140.00541068 229.19301466 -145.56640625 220.26171875 C-148.39460825 212.53656018 -149.11500644 205.05944741 -149.06640625 196.88671875 C-149.05996094 195.71971436 -149.05351562 194.55270996 -149.046875 193.3503418 C-148.14615303 148.89793473 -131.97381195 99.05511758 -112.56640625 59.26171875 C-112.17356445 58.44848145 -111.78072266 57.63524414 -111.37597656 56.79736328 C-103.5349968 40.75109566 -93.91919755 23.25257257 -76.56640625 16.26171875 C-75.4475 15.80152344 -74.32859375 15.34132813 -73.17578125 14.8671875 C-49.67640942 5.48427989 -25.09495072 1.84157908 0 0 Z " fill="#E71E26" transform="translate(168.56640625,14.73828125)"/>
<path d="M0 0 C4.99124211 0.52791984 8.39888558 2.88747505 12.5 5.5625 C13.94502015 6.48613462 15.39033595 7.40930686 16.8359375 8.33203125 C17.90279785 9.01773193 17.90279785 9.01773193 18.99121094 9.71728516 C21.67912752 11.43365775 24.40024663 13.09286108 27.125 14.75 C28.74665426 15.75137151 30.36819546 16.75292884 31.98828125 17.75683594 C33.49922659 18.69054148 35.01267217 19.62020301 36.52734375 20.54785156 C64.85509058 37.93981674 64.85509058 37.93981674 70 48 C71.83732104 60.35707196 68.72940683 73.64809729 66.85668945 85.82958984 C66.31922357 89.33119572 65.79982268 92.83510849 65.28320312 96.33984375 C63.56939973 107.80854628 61.66651336 119.22485759 59.41796875 130.6015625 C59.2214119 131.60343597 59.02485504 132.60530945 58.82234192 133.63754272 C55.27705089 151.07519739 49.07866751 165.01624869 33.9375 175.375 C15.55119265 186.98740464 -2.43906577 184.99497345 -22.85882568 180.4005127 C-34.69597756 177.69317211 -46.39277348 174.56537766 -58 171 C-59.36433513 170.59031836 -60.72890628 170.18142161 -62.09375 169.7734375 C-70.58447802 167.20776099 -70.58447802 167.20776099 -73 166 C-76.37465994 164.92926809 -79.7842947 163.97563154 -83.1875 163 C-84.58838867 162.59007812 -84.58838867 162.59007812 -86.01757812 162.171875 C-91.01277978 160.73764398 -95.83243535 159.57179139 -101 159 C-101 158.34 -101 157.68 -101 157 C-101.763125 156.896875 -102.52625 156.79375 -103.3125 156.6875 C-108.29440864 155.75866958 -113.12637995 154.37883557 -118 153 C-117.01320617 141.49606146 -115.91581859 130.57139629 -111 120 C-111.66 119.67 -112.32 119.34 -113 119 C-112.01 118.01 -111.02 117.02 -110 116 C-108 117 -108 117 -107.125 119.3125 C-105.86641134 122.31912847 -104.31890185 123.75356384 -102 126 C-101.731875 126.60714844 -101.46375 127.21429688 -101.1875 127.83984375 C-96.87821193 135.67877895 -87.27225793 140.52274629 -79 143 C-77.66979983 143.34562466 -76.33735296 143.68317834 -75 144 C-75 144.66 -75 145.32 -75 146 C-52.68324163 148.06910343 -29.12601527 149.62850606 -10.0625 135.6875 C-2.33858145 129.13864883 2.40374618 121.39241383 6 112 C6.32097656 111.19433594 6.64195312 110.38867188 6.97265625 109.55859375 C11.83516178 95.10677499 9.46715586 79.19562864 5 65 C4.69449219 63.80503906 4.69449219 63.80503906 4.3828125 62.5859375 C2.50195996 56.11889659 -2.34327459 51.65672541 -7 47 C-7.64195312 46.35804688 -8.28390625 45.71609375 -8.9453125 45.0546875 C-13.69103034 40.62667462 -18.95986208 37.56131222 -24.65625 34.48046875 C-25.4296875 33.99191406 -26.203125 33.50335938 -27 33 C-27 32.34 -27 31.68 -27 31 C-25.09375 29.7734375 -25.09375 29.7734375 -22.5 28.375 C-11.31135692 21.81015441 -4.54901831 12.0791894 0 0 Z " fill="#4F4F51" transform="translate(199,107)"/>
<path d="M0 0 C14.00087038 -0.67025443 26.49758282 1.97856373 37.51171875 11.07421875 C42.40769462 15.71123391 46.47720932 20.68668464 49 27 C49 27.99 49 28.98 49 30 C48.34 30 47.68 30 47 30 C47.63099646 33.42003741 47.63099646 33.42003741 49 37 C49.86625 37.4125 50.7325 37.825 51.625 38.25 C54 40 54 40 54.4296875 42.19921875 C54.7793206 55.81548564 50.2484907 69.85322538 40.8125 79.8125 C36.09184408 84.19653869 30.8540531 88.25531281 25 91 C23.515 90.505 23.515 90.505 22 90 C22 89.34 22 88.68 22 88 C18.50294871 89.28432339 18.50294871 89.28432339 15 91 C14.505 92.485 14.505 92.485 14 94 C8.38196964 96.80901518 -1.12166333 95.59207421 -7.15234375 94.3515625 C-16.00002503 91.38117883 -23.77303942 85.91884508 -30 79 C-30.73669922 78.23429687 -30.73669922 78.23429687 -31.48828125 77.453125 C-36.10593484 72.45735089 -39.68623619 66.84360665 -40.25 59.9375 C-40.1675 59.298125 -40.085 58.65875 -40 58 C-39.01 58 -38.02 58 -37 58 C-37.33 56.35 -37.66 54.7 -38 53 C-39.98 53.495 -39.98 53.495 -42 54 C-42.50666097 37.82437939 -40.89325875 25.36611024 -29.5 12.875 C-25.91789094 9.48032688 -21.98392191 6.92990956 -17.75 4.4375 C-17.14736328 4.07833496 -16.54472656 3.71916992 -15.92382812 3.34912109 C-11.60707141 0.93929286 -11.60707141 0.93929286 -8.8125 1.21875 C-8.214375 1.4765625 -7.61625 1.734375 -7 2 C-5.7625 2.350625 -4.525 2.70125 -3.25 3.0625 C-2.1775 3.371875 -1.105 3.68125 0 4 C0 2.68 0 1.36 0 0 Z " fill="#646466" transform="translate(142,151)"/>
<path d="M0 0 C0.495 1.485 0.495 1.485 1 3 C1.99 3.33 2.98 3.66 4 4 C-1.38847282 16.29839679 -8.98412041 26.50492995 -21 33 C-21.66 33 -22.32 33 -23 33 C-23 33.66 -23 34.32 -23 35 C-22.12859375 35.2475 -21.2571875 35.495 -20.359375 35.75 C-9.91095345 39.63778476 3.14050073 50.84120761 8.19921875 60.88671875 C15.99506418 81.46014497 16.51356678 101.45101186 7.87109375 121.63671875 C0.93295778 135.48881601 -10.7748738 143.10341133 -25 148 C-39.58648067 152.04253893 -56.28573716 150.72847258 -71 148 C-71 147.34 -71 146.68 -71 146 C-72.11375 145.95875 -73.2275 145.9175 -74.375 145.875 C-83.19243951 144.75334692 -90.96394885 138.19527553 -97 132 C-100 127.78125 -100 127.78125 -100 125 C-101.485 124.505 -101.485 124.505 -103 124 C-103.495 121.525 -103.495 121.525 -104 119 C-104.99 119 -105.98 119 -107 119 C-107 119.99 -107 120.98 -107 122 C-107.88043728 125.77330262 -108.83822434 129.46966285 -109.96875 133.17578125 C-111.15372604 137.57006739 -111.91572313 141.94661941 -112.625 146.4375 C-112.7590625 147.26443359 -112.893125 148.09136719 -113.03125 148.94335938 C-113.35790775 150.96163765 -113.67948215 152.98073757 -114 155 C-114.33 155 -114.66 155 -115 155 C-115.13451772 148.94670256 -114.60965199 143.02031344 -114 137 C-116.2519612 139.2519612 -115.96514519 144.06781937 -116.40234375 147.1171875 C-117 150 -117 150 -119 153 C-115.54226955 120.69344385 -109.98654933 87.136109 -100.75 55.9375 C-100.52836182 55.18388184 -100.30672363 54.43026367 -100.07836914 53.65380859 C-98.17348955 47.66502018 -95.3235819 42.75465655 -90.5 38.6875 C-89.64921875 37.95080078 -89.64921875 37.95080078 -88.78125 37.19921875 C-84.41138383 34.25722551 -79.30772729 34.91783868 -74.24609375 35.0078125 C-72.48633407 35.02534644 -70.72656804 35.042253 -68.96679688 35.05859375 C-66.21100003 35.08937386 -63.45552677 35.12469454 -60.69995117 35.17138672 C-43.14047592 35.45299647 -27.2157384 33.44063671 -13.6875 20.859375 C-8.04065295 14.63738612 -2.73256221 8.01551582 0 0 Z M-53 46 C-53 47.32 -53 48.64 -53 50 C-54.0725 49.690625 -55.145 49.38125 -56.25 49.0625 C-57.4875 48.711875 -58.725 48.36125 -60 48 C-60.598125 47.7421875 -61.19625 47.484375 -61.8125 47.21875 C-65.31161567 46.86883843 -67.84130636 48.7039497 -70.75 50.4375 C-71.37326172 50.80439941 -71.99652344 51.17129883 -72.63867188 51.54931641 C-83.37843409 58.08425497 -91.18025229 67.74479343 -94.54296875 79.99609375 C-95.54864934 86.60607986 -95.20874316 93.33568124 -95 100 C-93.02 99.505 -93.02 99.505 -91 99 C-90.67 100.65 -90.34 102.3 -90 104 C-90.99 104 -91.98 104 -93 104 C-92.39958518 113.20636056 -87.83104368 121.82915581 -81 128 C-68.28122158 138.08552659 -57.19703833 142.16649272 -41 141 C-38.82482479 140.19269273 -38.82482479 140.19269273 -38.25 138.0625 C-36.44682285 135.0872577 -34.2618624 134.85092063 -31 134 C-30.67 134.99 -30.34 135.98 -30 137 C-17.81661091 132.5558812 -8.86097798 123.8262312 -3.28808594 112.33251953 C-0.96805119 107.26634864 0.50594527 102.54047093 1 97 C1.0928125 96.02546875 1.185625 95.0509375 1.28125 94.046875 C1.42727394 91.25781777 1.47842034 88.75210118 1 86 C-1.32118433 84.17394457 -1.32118433 84.17394457 -4 83 C-5.3125 79.3125 -5.3125 79.3125 -6 76 C-5.34 76 -4.68 76 -4 76 C-5.26715258 67.6014306 -11.41691638 60.15043413 -18 55 C-29.69327945 47.48507826 -39.31243602 45.57667328 -53 46 Z " fill="#FBF8F8" transform="translate(195,105)"/>
<path d="M0 0 C2.09502947 -0.00984159 4.18912842 -0.04108347 6.28393555 -0.07226562 C15.47242691 -0.14590266 24.09335355 0.04304511 31.14135742 6.61523438 C31.7678418 7.17984375 32.39432617 7.74445312 33.03979492 8.32617188 C36.79714138 12.49155596 38.14542533 15.6843913 38.12963867 21.30273438 C38.1302832 22.55006348 38.13092773 23.79739258 38.1315918 25.08251953 C38.11486259 26.46843499 38.09725549 27.85434007 38.07885742 29.24023438 C38.07008739 30.69254375 38.06163373 32.14485507 38.0534668 33.59716797 C37.85523119 56.4865918 36.73995589 79.37358388 35.76635742 102.24023438 C34.44635742 102.24023438 33.12635742 102.24023438 31.76635742 102.24023438 C31.23848633 100.42652344 31.23848633 100.42652344 30.69995117 98.57617188 C23.98918274 76.08702625 14.27740022 56.68215268 -6.92895508 44.83789062 C-13.77871927 41.5263616 -21.15517635 38.89223408 -28.67895508 37.68945312 C-31.85567602 37.17821179 -34.36496105 36.70644938 -37.23364258 35.24023438 C-39.73372653 31.48440049 -40.92203336 27.52881554 -42.23364258 23.24023438 C-45.70133206 15.23183451 -49.41489906 10.29996658 -57.23364258 6.24023438 C-55.23364258 4.24023438 -55.23364258 4.24023438 -52.26489258 4.08007812 C-50.51692383 4.12841797 -50.51692383 4.12841797 -48.73364258 4.17773438 C-44.3229256 4.46537054 -44.3229256 4.46537054 -40.23364258 3.24023438 C-37.67486365 2.92903153 -35.11512646 2.73058771 -32.54614258 2.52148438 C-30.21095803 2.3688739 -30.21095803 2.3688739 -28.23364258 1.24023438 C-18.87112737 0.16731312 -9.41502512 0.02668091 0 0 Z " fill="#525254" transform="translate(242.233642578125,8.759765625)"/>
<path d="M0 0 C7.1236867 8.90460838 5.90031154 23.29311651 5 34 C4.18507303 37.77068913 3.01642831 40.72743603 1 44 C0.63777344 44.64839844 0.27554688 45.29679687 -0.09765625 45.96484375 C-3.92206668 52.09686454 -10.18250537 55.84710696 -17 58 C-29.3211768 60.70270975 -47.29079264 61.35845082 -59 56 C-60.796875 54.66015625 -60.796875 54.66015625 -62 53 C-63.54075863 38.99310332 -55.5327925 23.88512148 -49 12 C-48.56816406 11.10539062 -48.13632813 10.21078125 -47.69140625 9.2890625 C-43.47754475 3.5862384 -36.48492658 2.01078996 -29.9375 0.3125 C-29.16083984 0.10044922 -28.38417969 -0.11160156 -27.58398438 -0.33007812 C-8.06563302 -5.56912756 -8.06563302 -5.56912756 0 0 Z " fill="#FEFBFA" transform="translate(167,52)"/>
<path d="M0 0 C14.00087038 -0.67025443 26.49758282 1.97856373 37.51171875 11.07421875 C42.40769462 15.71123391 46.47720932 20.68668464 49 27 C49 27.99 49 28.98 49 30 C48.34 30 47.68 30 47 30 C47.63099646 33.42003741 47.63099646 33.42003741 49 37 C50.299375 37.61875 50.299375 37.61875 51.625 38.25 C54 40 54 40 54.4296875 42.19921875 C54.7793206 55.81548564 50.2484907 69.85322538 40.8125 79.8125 C36.09184408 84.19653869 30.8540531 88.25531281 25 91 C23.515 90.505 23.515 90.505 22 90 C22 89.34 22 88.68 22 88 C21.34 88 20.68 88 20 88 C20 87.34 20 86.68 20 86 C18.02 86 16.04 86 14 86 C14.33 85.01 14.66 84.02 15 83 C17.61497339 81.76132839 20.25511949 80.91496017 23 80 C23.185625 78.39125 23.185625 78.39125 23.375 76.75 C23.91682099 73.49907407 24.54350842 71.82195244 26 69 C27.1324412 63.81165236 27.19149828 58.7212252 27.1875 53.4375 C27.18814453 52.55868164 27.18878906 51.67986328 27.18945312 50.77441406 C27.1324086 43.68792775 26.42133366 36.95438254 25 30 C26.6045556 30.14148989 28.20863767 30.28835686 29.8125 30.4375 C30.70582031 30.51871094 31.59914062 30.59992188 32.51953125 30.68359375 C35 31 35 31 38 32 C37.45337414 28.99355776 36.90173636 26.74030018 34.47265625 24.74609375 C30.36874026 22.4717354 27.11211273 21.87688861 22.4375 21.8125 C18.97034678 21.63052235 17.51766929 21.48408006 14.953125 19.0859375 C13.78149881 17.49439219 12.6464265 15.87524408 11.55078125 14.23046875 C8.83905246 10.33022407 5.74743758 8.45585328 1.125 7.25 C0.42375 7.1675 -0.2775 7.085 -1 7 C-0.67 4.69 -0.34 2.38 0 0 Z " fill="#4E4E50" transform="translate(142,151)"/>
<path d="M0 0 C3.33888765 -0.40884339 5.94018122 -0.65304187 8.8828125 1.16015625 C12.33994279 4.08599596 15.41057346 7.27122578 18 11 C18 11.66 18 12.32 18 13 C18.68964844 12.94199219 19.37929687 12.88398438 20.08984375 12.82421875 C26.42651357 12.51998906 30.75084102 13.28782447 36.3203125 16.3203125 C38 18 38 18 39 24 C34.71 23.34 30.42 22.68 26 22 C26.66 23.98 27.32 25.96 28 28 C29.0609569 33.63591119 29.18319118 39.16150779 29.1875 44.875 C29.19974609 45.72191406 29.21199219 46.56882813 29.22460938 47.44140625 C29.24348648 55.65924085 28.57152042 63.60913834 23 70 C21.68 70 20.36 70 19 70 C19.02356567 68.75464478 19.02356567 68.75464478 19.04760742 67.48413086 C19.54653745 46.05014879 19.54653745 46.05014879 16 25 C16 24.34 16 23.68 16 23 C1.63341076 23.06328894 -11.83920484 28.53552448 -23.59375 36.4609375 C-26 38 -26 38 -28 38 C-28 38.66 -28 39.32 -28 40 C-28.66 40 -29.32 40 -30 40 C-30.30952058 36.96250141 -30.39049934 35.50553015 -28.48828125 33.04296875 C-18.39019047 24.43149097 -4.0088101 13.17595235 10 14 C7.20307439 8.72887096 4.01764453 4.40601683 0 0 Z " fill="#F7F7F8" transform="translate(141,159)"/>
<path d="M0 0 C0.33 0 0.66 0 1 0 C1.33 2.64 1.66 5.28 2 8 C2.66 5.36 3.32 2.72 4 0 C4.66 0 5.32 0 6 0 C6.66 1.98 7.32 3.96 8 6 C7.34 6 6.68 6 6 6 C6 6.99 6 7.98 6 9 C5.11956272 12.77330262 4.16177566 16.46966285 3.03125 20.17578125 C1.84627396 24.57006739 1.08427687 28.94661941 0.375 33.4375 C0.2409375 34.26443359 0.106875 35.09136719 -0.03125 35.94335938 C-0.35790775 37.96163765 -0.67948215 39.98073757 -1 42 C-1.33 42 -1.66 42 -2 42 C-2.13451772 35.94670256 -1.60965199 30.02031344 -1 24 C-3.2519612 26.2519612 -2.96514519 31.06781937 -3.40234375 34.1171875 C-4 37 -4 37 -6 40 C-4.50024459 26.58113579 -2.28951384 13.30384172 0 0 Z " fill="#EADADC" transform="translate(82,218)"/>
<path d="M0 0 C1.83884766 0.23009766 1.83884766 0.23009766 3.71484375 0.46484375 C9.65256546 1.12459061 15.59492399 1.34307737 21.5625 1.5625 C22.66658203 1.60568359 23.77066406 1.64886719 24.90820312 1.69335938 C27.60537185 1.79844387 30.30261703 1.90059413 33 2 C33 2.66 33 3.32 33 4 C29.0001407 4.08783475 25.00053296 4.14067102 21 4.1875 C19.87464844 4.21263672 18.74929687 4.23777344 17.58984375 4.26367188 C10.96916466 4.32174801 6.01937992 3.8105193 0 1 C0 0.67 0 0.34 0 0 Z " fill="#D8373E" transform="translate(111,109)"/>
<path d="M0 0 C0.33 0 0.66 0 1 0 C0.10380982 8.66317174 -2.73027544 15.96854065 -6 24 C-6.99 24 -7.98 24 -9 24 C-6.80148049 15.63019764 -3.50929804 7.88172441 0 0 Z " fill="#C53D42" transform="translate(53,80)"/>
<path d="M0 0 C2.96404505 2.80804268 5.44499019 5.18315774 7 9 C6.34 9 5.68 9 5 9 C5.33 11.64 5.66 14.28 6 17 C3.86875056 14.19033482 1.80606146 11.34662302 -0.1875 8.4375 C-0.71730469 7.67308594 -1.24710938 6.90867187 -1.79296875 6.12109375 C-3 4 -3 4 -3 1 C-2.67 1.66 -2.34 2.32 -2 3 C-1.34 2.67 -0.68 2.34 0 2 C0 1.34 0 0.68 0 0 Z " fill="#ECDAD8" transform="translate(191,18)"/>
<path d="M0 0 C0.33 0.99 0.66 1.98 1 3 C1.99 3.33 2.98 3.66 4 4 C3.34 5.65 2.68 7.3 2 9 C1.34 8.34 0.68 7.68 0 7 C-1.72989835 9.12305706 -2.94074905 10.82224715 -3.8125 13.4375 C-5.48569313 17.04807466 -7.84833474 18.60199382 -11 21 C-11.66 20.67 -12.32 20.34 -13 20 C-12.48050781 19.39414063 -11.96101562 18.78828125 -11.42578125 18.1640625 C-6.65725024 12.43477386 -3.01638474 6.81586936 0 0 Z " fill="#FADEDD" transform="translate(195,105)"/>
<path d="M0 0 C1.1818957 3.48468603 1.07087961 3.8556156 -0.6875 7.4375 C-2.57195196 10.48261787 -4.70678022 13.24813626 -7 16 C-7.66 16.99 -8.32 17.98 -9 19 C-9.66 19 -10.32 19 -11 19 C-9.41467191 14.44435939 -7.00996919 10.68524231 -4.375 6.6875 C-3.95476562 6.04232422 -3.53453125 5.39714844 -3.1015625 4.73242188 C-2.07161759 3.15239276 -1.03634372 1.57583953 0 0 Z " fill="#B74A4B" transform="translate(72,47)"/>
<path d="M0 0 C0 0.66 0 1.32 0 2 C-3.63 2.66 -7.26 3.32 -11 4 C-11.33 4.99 -11.66 5.98 -12 7 C-15.65257704 8.62336757 -18.19362399 9.46399077 -22 8 C-22 8.66 -22 9.32 -22 10 C-23.32 9.67 -24.64 9.34 -26 9 C-20.79232553 6.59128235 -15.52197917 4.36332075 -10.1875 2.25 C-8.56908203 1.60804687 -8.56908203 1.60804687 -6.91796875 0.953125 C-4 0 -4 0 0 0 Z " fill="#C04243" transform="translate(112,25)"/>
<path d="M0 0 C0.66 0 1.32 0 2 0 C2.66 1.98 3.32 3.96 4 6 C3.34 6 2.68 6 2 6 C2 6.99 2 7.98 2 9 C0.82206241 14.04830396 -0.54874447 19.02426674 -2 24 C-2.33 24 -2.66 24 -3 24 C-2.45423097 15.89963866 -1.45852964 7.98651182 0 0 Z " fill="#A1A2A3" transform="translate(86,218)"/>
<path d="M0 0 C-2.19758195 4.94455938 -5.34933005 9.14958939 -10 12 C-10.99 12 -11.98 12 -13 12 C-11.50198648 8.38522825 -9.42462583 6.31379537 -6.5 3.75 C-5.7059375 3.04359375 -4.911875 2.3371875 -4.09375 1.609375 C-2 0 -2 0 0 0 Z " fill="#B73435" transform="translate(86,35)"/>
<path d="M0 0 C0.93045933 2.55144824 1.08564091 3.74006478 0.22265625 6.359375 C-0.16019531 7.14828125 -0.54304687 7.9371875 -0.9375 8.75 C-1.31777344 9.54921875 -1.69804687 10.3484375 -2.08984375 11.171875 C-2.39019531 11.77515625 -2.69054687 12.3784375 -3 13 C-3.66 13 -4.32 13 -5 13 C-5 12.34 -5 11.68 -5 11 C-5.66 10.67 -6.32 10.34 -7 10 C-6.21718695 8.66144944 -5.42348123 7.32926356 -4.625 6 C-4.18414062 5.2575 -3.74328125 4.515 -3.2890625 3.75 C-2.86367187 3.1725 -2.43828125 2.595 -2 2 C-1.34 2 -0.68 2 0 2 C0 1.34 0 0.68 0 0 Z " fill="#373738" transform="translate(192,210)"/>
<path d="M0 0 C0.33 1.32 0.66 2.64 1 4 C-2.3171411 5.4216319 -5.44219804 6.39009109 -9 7 C-7.32482761 3.46352496 -6.50719183 2.2088437 -2.8125 0.6875 C-1.884375 0.460625 -0.95625 0.23375 0 0 Z " fill="#373635" transform="translate(126,156)"/>
<path d="M0 0 C0.33 0 0.66 0 1 0 C1.57042254 10.88028169 1.57042254 10.88028169 -2 15 C-2.66 15 -3.32 15 -4 15 C-3.52229477 13.06213915 -3.04278429 11.12472326 -2.5625 9.1875 C-2.29566406 8.10855469 -2.02882812 7.02960938 -1.75390625 5.91796875 C-1.23922588 3.9259157 -0.65062825 1.95188476 0 0 Z " fill="#CA363A" transform="translate(43,105)"/>
<path d="M0 0 C0.33 0 0.66 0 1 0 C0.91253716 1.43861294 0.80434652 2.87597508 0.6875 4.3125 C0.62949219 5.11300781 0.57148437 5.91351563 0.51171875 6.73828125 C-0.08973329 9.39660743 -0.98591226 10.23443722 -3 12 C-3.33 12.66 -3.66 13.32 -4 14 C-4.66 14 -5.32 14 -6 14 C-4.50829734 9.0276578 -2.39542583 4.58154261 0 0 Z " fill="#BB4042" transform="translate(60,66)"/>
<path d="M0 0 C0.99773437 0.02320313 1.99546875 0.04640625 3.0234375 0.0703125 C4.52777344 0.09738281 4.52777344 0.09738281 6.0625 0.125 C6.83335937 0.14820313 7.60421875 0.17140625 8.3984375 0.1953125 C8.7284375 1.8453125 9.0584375 3.4953125 9.3984375 5.1953125 C8.4084375 5.6903125 8.4084375 5.6903125 7.3984375 6.1953125 C7.3984375 5.2053125 7.3984375 4.2153125 7.3984375 3.1953125 C5.96117879 3.02657772 4.52361912 2.86040513 3.0859375 2.6953125 C1.88517578 2.55609375 1.88517578 2.55609375 0.66015625 2.4140625 C-1.72052805 2.14717787 -1.72052805 2.14717787 -4.6015625 2.1953125 C-2.6015625 0.1953125 -2.6015625 0.1953125 0 0 Z " fill="#A3A5A5" transform="translate(148.6015625,181.8046875)"/>
<path d="M0 0 C6.90352555 -0.51137226 11.74827614 1.13035626 18 4 C18 4.33 18 4.66 18 5 C11.69632197 4.41632611 6.01339937 2.95928381 0 1 C0 0.67 0 0.34 0 0 Z " fill="#DB4347" transform="translate(58,253)"/>
<path d="M0 0 C0.33 0 0.66 0 1 0 C1.3152595 5.98993047 0.68219822 9.63560356 -2 15 C-2.66 15 -3.32 15 -4 15 C-3.79503906 14.25234375 -3.59007812 13.5046875 -3.37890625 12.734375 C-3.10949219 11.74953125 -2.84007812 10.7646875 -2.5625 9.75 C-2.29566406 8.77546875 -2.02882812 7.8009375 -1.75390625 6.796875 C-1.14455416 4.53627347 -0.55761745 2.27377991 0 0 Z " fill="#FCCFD0" transform="translate(200,90)"/>
<path d="M0 0 C0 0.66 0 1.32 0 2 C-0.99 2.33 -1.98 2.66 -3 3 C-3.33 4.65 -3.66 6.3 -4 8 C-5.65 8 -7.3 8 -9 8 C-8.01437243 4.68470727 -7.34552581 3.25050621 -4.5 1.1875 C-2 0 -2 0 0 0 Z " fill="#FCD9D6" transform="translate(128,56)"/>
<path d="M0 0 C1.88343932 3.76687864 2.22057835 5.02958963 2 9 C2.66 9.33 3.32 9.66 4 10 C4 9.34 4 8.68 4 8 C4.66 8.33 5.32 8.66 6 9 C4.71034824 10.37562854 3.37310707 11.70766393 2 13 C1.34 13 0.68 13 0 13 C0 8.71 0 4.42 0 0 Z " fill="#4A4A4A" transform="translate(100,192)"/>
<path d="M0 0 C0.75 1.5625 0.75 1.5625 1 4 C-0.36068323 7.22897886 -1.76639367 10.38319684 -5 12 C-4.54738642 10.56068883 -4.08767021 9.12361001 -3.625 7.6875 C-3.24214844 6.48673828 -3.24214844 6.48673828 -2.8515625 5.26171875 C-2 3 -2 3 0 0 Z " fill="#B73237" transform="translate(72,47)"/>
<path d="M0 0 C-0.66 0 -1.32 0 -2 0 C-2 0.66 -2 1.32 -2 2 C-3.3921875 2.185625 -3.3921875 2.185625 -4.8125 2.375 C-8.13925235 2.81533082 -8.13925235 2.81533082 -11 5 C-13.1875 4.625 -13.1875 4.625 -15 4 C-13.06767179 3.13419713 -11.12892806 2.28270059 -9.1875 1.4375 C-8.10855469 0.96183594 -7.02960938 0.48617187 -5.91796875 -0.00390625 C-3 -1 -3 -1 0 0 Z " fill="#A4A5A6" transform="translate(142,185)"/>
<path d="M0 0 C1.65 0 3.3 0 5 0 C4.01 0.495 4.01 0.495 3 1 C3 4.96 3 8.92 3 13 C2.67 13 2.34 13 2 13 C1.34 8.71 0.68 4.42 0 0 Z " fill="#989999" transform="translate(167,181)"/>
<path d="M0 0 C4.75 0.75 4.75 0.75 7 3 C4.09399739 4.25664978 2.20395416 5 -1 5 C-0.67 3.35 -0.34 1.7 0 0 Z " fill="#656A68" transform="translate(199,107)"/>
<path d="M0 0 C0.33 0 0.66 0 1 0 C1.02705729 1.77074917 1.04642195 3.54161711 1.0625 5.3125 C1.07410156 6.29863281 1.08570312 7.28476563 1.09765625 8.30078125 C1 11 1 11 0 14 C-0.66 14 -1.32 14 -2 14 C-1.43393721 9.30976546 -0.81462495 4.65499974 0 0 Z " fill="#FBCAC7" transform="translate(82,218)"/>
<path d="M0 0 C0.66 0 1.32 0 2 0 C2.33 0.99 2.66 1.98 3 3 C2.319375 3.5878125 2.319375 3.5878125 1.625 4.1875 C-0.27642919 6.30832487 -1.06204028 8.33042235 -2 11 C-3.13643966 7.59068103 -2.86747764 6.99664544 -1.5625 3.8125 C-1.13130859 2.73935547 -1.13130859 2.73935547 -0.69140625 1.64453125 C-0.46324219 1.10183594 -0.23507813 0.55914062 0 0 Z " fill="#3D3D3D" transform="translate(105,174)"/>
<path d="M0 0 C5.28 0 10.56 0 16 0 C16 0.33 16 0.66 16 1 C15.31292969 1.06058594 14.62585938 1.12117187 13.91796875 1.18359375 C12.56638672 1.30927734 12.56638672 1.30927734 11.1875 1.4375 C9.84751953 1.55931641 9.84751953 1.55931641 8.48046875 1.68359375 C5.87256441 1.93489767 5.87256441 1.93489767 3 3 C2.01 2.67 1.02 2.34 0 2 C0 1.34 0 0.68 0 0 Z " fill="#BCBCBE" transform="translate(196,11)"/>
<path d="M0 0 C0.33 0 0.66 0 1 0 C1 3.3 1 6.6 1 10 C0.01 10.33 -0.98 10.66 -2 11 C-1.125 3.375 -1.125 3.375 0 0 Z " fill="#D64445" transform="translate(34,133)"/>
<path d="M0 0 C1.21816406 0.03480469 1.21816406 0.03480469 2.4609375 0.0703125 C3.68683594 0.09738281 3.68683594 0.09738281 4.9375 0.125 C5.87722656 0.15980469 5.87722656 0.15980469 6.8359375 0.1953125 C6.5059375 0.8553125 6.1759375 1.5153125 5.8359375 2.1953125 C4.1859375 1.8653125 2.5359375 1.5353125 0.8359375 1.1953125 C1.1659375 2.5153125 1.4959375 3.8353125 1.8359375 5.1953125 C-0.1440625 4.2053125 -2.1240625 3.2153125 -4.1640625 2.1953125 C-2.1640625 0.1953125 -2.1640625 0.1953125 0 0 Z " fill="#A1A2A3" transform="translate(189.1640625,12.8046875)"/>
<path d="M0 0 C0.33 0.66 0.66 1.32 1 2 C0.34 2 -0.32 2 -1 2 C-1 3.32 -1 4.64 -1 6 C-3.31 6.33 -5.62 6.66 -8 7 C-5.42215154 4.35247996 -3.08351902 2.05567935 0 0 Z " fill="#FEE1DE" transform="translate(181,126)"/>
<path d="M0 0 C0.33 0.99 0.66 1.98 1 3 C-1.31 5.31 -3.62 7.62 -6 10 C-6 6.41087588 -5.33563446 5.89142971 -3 3.3125 C-2.443125 2.68988281 -1.88625 2.06726563 -1.3125 1.42578125 C-0.879375 0.95527344 -0.44625 0.48476562 0 0 Z " fill="#6B6B6C" transform="translate(198,233)"/>
<path d="M0 0 C0.33 0 0.66 0 1 0 C1.390625 5.95703125 1.390625 5.95703125 1 8 C-0.32 8.99 -1.64 9.98 -3 11 C-2.01 7.37 -1.02 3.74 0 0 Z " fill="#D44D4E" transform="translate(38,120)"/>
<path d="M0 0 C0.6875 1.8125 0.6875 1.8125 1 4 C-0.3125 5.75 -0.3125 5.75 -2 7 C-2.66 7 -3.32 7 -4 7 C-3.43628586 3.73045798 -2.50037734 2.17424117 0 0 Z " fill="#363637" transform="translate(185,223)"/>
<path d="M0 0 C1.125 1.6875 1.125 1.6875 2 4 C1.1144582 7.0993963 0.28724116 8.71275884 -2 11 C-1.125 3.375 -1.125 3.375 0 0 Z " fill="#FBC3C5" transform="translate(109,83)"/>
<path d="M0 0 C0.33 0.99 0.66 1.98 1 3 C-1.97 5.475 -1.97 5.475 -5 8 C-5.66 7.67 -6.32 7.34 -7 7 C-4.69 4.69 -2.38 2.38 0 0 Z " fill="#757674" transform="translate(188,126)"/>
<path d="M0 0 C0.33 0.66 0.66 1.32 1 2 C0.2884375 2.6496875 0.2884375 2.6496875 -0.4375 3.3125 C-2.23686957 5.02309613 -2.23686957 5.02309613 -3 8 C-3.99 8 -4.98 8 -6 8 C-4.55746343 4.63408134 -2.66735273 2.48952921 0 0 Z " fill="#B24144" transform="translate(79,39)"/>
<path d="M0 0 C2.97 0.99 5.94 1.98 9 3 C4.70600835 4.07349791 3.80504787 3.79682816 0 2 C0 1.34 0 0.68 0 0 Z " fill="#FDD2D3" transform="translate(45,249)"/>
<path d="M0 0 C3.3 0 6.6 0 10 0 C10 0.33 10 0.66 10 1 C6.37 1.66 2.74 2.32 -1 3 C-0.67 2.01 -0.34 1.02 0 0 Z " fill="#DB3942" transform="translate(142,49)"/>
<path d="M0 0 C-3.08888522 2.05925681 -3.70935927 2.2390374 -7.1875 2.125 C-9.0746875 2.063125 -9.0746875 2.063125 -11 2 C-7.00042393 -0.06874624 -4.43559483 -1.37656391 0 0 Z " fill="#CA4042" transform="translate(123,23)"/>
</svg>
