<svg xmlns="http://www.w3.org/2000/svg" width="2256" height="1081" viewBox="0 0 2256 1081" version="1.1"><path d="M 1095.248 550.750 L 1095.500 748.500 1126 748.500 L 1156.500 748.500 1156.756 670.716 L 1157.012 592.931 1222.256 593.216 L 1287.500 593.500 1292.757 595.876 C 1298.731 598.576, 1303.326 603.319, 1306.394 609.949 C 1308.452 614.396, 1308.511 616.030, 1309 681.500 L 1309.500 748.500 1340.500 748.500 L 1371.500 748.500 1371.500 678.500 C 1371.500 623.427, 1371.213 607.221, 1370.152 602.500 C 1365.672 582.554, 1351.330 568.898, 1331.560 565.752 L 1324 564.549 1324 560.497 C 1324 556.460, 1324.024 556.435, 1330.617 553.562 C 1351.793 544.337, 1371.012 524.832, 1378.300 505.169 C 1383.249 491.817, 1384.501 483.195, 1384.492 462.500 C 1384.483 439.057, 1382.243 427.582, 1374.732 412.500 C 1357.930 378.762, 1323.871 358.399, 1277 354.069 C 1269.951 353.418, 1232.507 353.006, 1180.248 353.003 L 1094.995 353 1095.248 550.750 M 1522.995 355.250 C 1521.902 357.807, 1412.150 742.012, 1411.298 746.264 L 1410.744 749.028 1442.594 748.764 L 1474.443 748.500 1482.537 719.500 C 1486.988 703.550, 1492.795 682.735, 1495.441 673.244 L 1500.252 655.988 1577.334 656.244 L 1654.417 656.500 1666.969 701.500 C 1673.872 726.250, 1679.880 747.063, 1680.319 747.750 C 1681.292 749.273, 1743 749.597, 1743 748.080 C 1743 747.389, 1640.846 387.385, 1632.383 358.250 L 1630.858 353 1577.408 353 L 1523.957 353 1522.995 355.250 M 1699 353.980 C 1699 354.519, 1729.487 410.882, 1766.750 479.230 L 1834.500 603.500 1835 676 L 1835.500 748.500 1866.500 748.500 L 1897.500 748.500 1897.757 676.415 L 1898.013 604.329 1966.007 479.517 C 2003.403 410.871, 2034 354.316, 2034 353.840 C 2034 353.364, 2018.438 353.092, 1999.417 353.237 L 1964.835 353.500 1917.667 442.710 L 1870.500 531.920 1866.450 531.960 L 1862.400 532 1814.978 442.500 L 1767.556 353 1733.278 353 C 1711.552 353, 1699 353.359, 1699 353.980 M 1571.555 397.250 C 1570.730 400.137, 1558.100 445.700, 1543.488 498.500 C 1528.877 551.300, 1516.684 595.288, 1516.394 596.250 C 1515.894 597.903, 1519.239 598, 1576.933 598 C 1610.520 598, 1638.019 597.663, 1638.042 597.250 C 1638.066 596.837, 1625.353 550.488, 1609.792 494.251 L 1581.500 392.002 1577.278 392.001 L 1573.056 392 1571.555 397.250 M 1157 472.973 L 1157 537.105 1214.250 536.765 C 1269.536 536.436, 1271.768 536.349, 1279.314 534.237 C 1296.379 529.459, 1309.641 518.958, 1316.237 505 C 1321.355 494.170, 1322.473 488.416, 1322.452 473 C 1322.423 451.048, 1318.557 440.401, 1306.080 427.914 C 1297.555 419.382, 1290.387 415.347, 1277.500 411.826 C 1269.809 409.724, 1267.324 409.624, 1213.250 409.240 L 1157 408.841 1157 472.973" stroke="none" fill="#000000" fill-rule="evenodd"/><path d="" stroke="none" fill="#040404" fill-rule="evenodd"/><path d="M 434 282 L 434 348 490.252 348 L 546.505 348 622.252 423.752 L 698 499.505 698 516.752 L 698 534 632 534 L 566 534 566 507 L 566 480 500 480 L 434 480 434 507 L 434 534 368 534 L 302 534 302 507 L 302 480 236 480 L 170 480 170 546 L 170 612 236 612 L 302 612 302 587 L 302 562 368 562 L 434 562 434 587 L 434 612 500 612 L 566 612 566 587 L 566 562 632 562 L 698 562 698 577.252 L 698 592.505 622.248 668.252 L 546.495 744 490.248 744 L 434 744 434 810 L 434 876 500 876 L 566 876 566 819.748 L 566 763.495 641.752 687.748 L 717.505 612 773.752 612 L 830 612 830 546 L 830 480 773.748 480 L 717.495 480 641.748 404.248 L 566 328.495 566 272.248 L 566 216 500 216 L 434 216 434 282" stroke="none" fill="#04a4cc" fill-rule="evenodd"/></svg>