<svg xmlns="http://www.w3.org/2000/svg" width="512" height="512" viewBox="0 0 512 512" version="1.1"><path d="" stroke="none" fill="#4864fc" fill-rule="evenodd"/><path d="M 178 0.625 C 103.458 2.991, 98.861 3.479, 79.400 11.086 C 53.231 21.316, 29.003 43.001, 16.332 67.536 C 1.865 95.550, 0.553 111.213, 0.553 256 C 0.553 388.261, 1.778 408.786, 11.086 432.600 C 21.316 458.769, 43.001 482.997, 67.536 495.668 C 95.550 510.135, 111.213 511.447, 256 511.447 C 356.314 511.447, 395.764 510.308, 412.317 506.936 C 434.328 502.452, 454.506 491.956, 470.830 476.500 C 490.575 457.804, 501.708 437.966, 506.984 412.080 C 509.066 401.864, 510.949 366.891, 510.984 337.809 C 510.993 329.779, 511.413 323.862, 512 323.500 C 512.651 323.098, 513 299.137, 513 254.882 C 513 209.803, 512.663 187.090, 512 187.500 C 511.352 187.900, 510.994 183.256, 510.984 174.309 C 510.975 166.714, 510.524 149.094, 509.983 135.154 C 508.850 105.967, 507.104 95.236, 500.914 79.400 C 490.684 53.231, 468.999 29.003, 444.464 16.332 C 425.212 6.390, 411.303 3.386, 377.821 1.941 C 354.652 0.941, 200.105 -0.077, 178 0.625 M 161.120 97.127 C 149.120 99.121, 138.434 107.642, 132.665 119.820 C 129.768 125.934, 129.500 127.347, 129.500 136.500 C 129.500 145.694, 129.760 147.049, 132.728 153.315 C 134.833 157.759, 137.861 161.961, 141.432 165.392 L 146.908 170.654 135.704 210.352 L 124.500 250.050 120.941 251.012 C 118.983 251.541, 115.281 253.366, 112.713 255.067 C 94.551 267.096, 91.161 292.840, 105.619 308.921 C 108.492 312.116, 112.551 315.130, 116.794 317.219 C 122.749 320.151, 124.367 320.500, 132 320.500 C 139.622 320.500, 141.256 320.149, 147.163 317.240 C 154.870 313.447, 160.158 308.025, 163.865 300.120 C 166.138 295.272, 166.500 293.182, 166.500 284.909 C 166.500 276.152, 166.232 274.798, 163.415 269.339 L 160.330 263.360 171.495 223.930 C 177.635 202.243, 183.073 184.500, 183.579 184.500 C 184.086 184.500, 187.962 185.965, 192.193 187.755 C 207.403 194.191, 225.410 197, 251.461 197 C 260.534 197, 267 197.393, 267 197.944 C 267 198.463, 257.174 221.975, 245.164 250.194 C 233.155 278.412, 222.467 304.875, 221.414 309 C 218.605 320.005, 218.793 345.404, 221.763 356.175 C 229.519 384.298, 251.392 406.620, 278 413.565 C 287.557 416.059, 302.483 415.856, 312.455 413.095 C 342.283 404.840, 363.657 379.846, 374.539 340.500 C 376.060 335, 377.631 330.128, 378.029 329.673 C 378.428 329.218, 380.797 332.593, 383.294 337.173 C 389.584 348.708, 393.467 352, 400.786 352 C 408.443 352, 415.333 344.644, 415.333 336.470 C 415.333 332.841, 412.930 327.778, 399.436 302.977 C 381.550 270.104, 380.637 269, 371.336 269 C 366.534 269, 364.017 270.146, 338.392 284.005 C 323.133 292.257, 309.781 299.794, 308.721 300.752 C 301.449 307.333, 302.747 319.827, 311.241 325.005 C 316.715 328.343, 322.095 327.671, 331.773 322.438 C 336.413 319.929, 340.421 318.088, 340.679 318.346 C 341.589 319.256, 333.838 343.584, 330.435 350.500 C 319.554 372.612, 298.432 382.317, 280.393 373.491 C 262.921 364.943, 253.856 343.373, 258.097 320.434 C 258.780 316.738, 269.984 289.245, 287.819 247.501 C 313.580 187.205, 316.448 179.950, 316.472 175 C 316.513 166.951, 312.792 161.024, 305.440 157.427 L 299.877 154.705 283.854 156.454 C 255.119 159.591, 226.540 158.573, 211.314 153.870 C 205.454 152.060, 204.868 151.641, 205.445 149.679 C 211.316 129.728, 203.086 109.665, 185.343 100.674 C 181.004 98.475, 170.535 95.791, 167.566 96.117 C 166.980 96.181, 164.079 96.636, 161.120 97.127 M 0.473 256 C 0.473 293.675, 0.597 309.087, 0.750 290.250 C 0.902 271.412, 0.902 240.587, 0.750 221.750 C 0.597 202.912, 0.473 218.325, 0.473 256" stroke="none" fill="#4464fc" fill-rule="evenodd"/></svg>