<?xml version="1.0" encoding="utf-8"?>
<!-- Generator: Adobe Illustrator 19.2.1, SVG Export Plug-In . SVG Version: 6.00 Build 0)  -->
<svg version="1.1" id="layer" xmlns="http://www.w3.org/2000/svg" xmlns:xlink="http://www.w3.org/1999/xlink" x="0px" y="0px"
	 viewBox="0 0 652 652" style="enable-background:new 0 0 652 652;" xml:space="preserve">
<style type="text/css">
	.st0{fill:#000101;}
	.st1{fill:#989899;}
	.st2{fill:#85CEE1;}
	.st3{fill:#2A8DBF;}
	.st4{fill:#0C2D4A;}
</style>
<path class="st0" d="M117.4,345.3c9.1,0.8,16.6,1.2,16.6,1.2s-8-3.9-16.1-8C117.8,340.9,117.7,343.1,117.4,345.3"/>
<path class="st0" d="M114.6,356.1c-0.4,1-0.9,2-1.4,3.1c5.1,0.3,10.2,0.5,15.3,0.7C123.6,358.8,118.9,357.5,114.6,356.1"/>
<path class="st0" d="M162.2,348c28.4,8.8,5.5-15.8,5.5-15.8c5.6,0.3,16.6,8.5,16.6,8.5c18.9,15.7,28.9,12.9,28.9,12.9
	c0.8-4.3,1-13.2,1-17.7c-43.7-60.2-91-73.4-103.8-76c-1.1-0.2-2.2-0.4-3.3-0.6c0,0,1.2,0.1,3.3,0.6c57.7,10.5,93.7,59.7,103.8,75.3
	c0-1.3,0-2.1,0-2.1c0.4,1.5,0.9,2.8,1.3,4c1.1,1.8,1.7,2.8,1.7,2.8c-0.5-0.7-0.9-1.3-1.4-2c4.8,13.8,9.5,14.4,12.4,12.8
	c-6.9-15.9-45.7-93.8-146-109.2c0,0,35.1,52.1,35.9,93.5C136,340.6,162.2,348,162.2,348"/>
<path class="st1" d="M215.3,337.3c-0.4-0.6-0.8-1.3-1.3-2C204,319.7,168,270.5,110.2,260c12.8,2.6,60.1,15.8,103.8,76
	c0.5,0.7,1,1.4,1.5,2.2c0.5,0.7,0.9,1.3,1.4,2C217,340.1,216.5,339.1,215.3,337.3"/>
<path class="st1" d="M110.2,260c-2.2-0.4-3.3-0.6-3.3-0.6C108,259.6,109.1,259.8,110.2,260"/>
<path class="st2" d="M349.3,374.1c0,0-145.8,39.5-279.9,2.9c0,0,152,54.5,295.6,21c0,0,135.1-31.2,261-13.2
	C626,384.8,537.9,335.7,349.3,374.1"/>
<path class="st3" d="M328.9,367c0,0,103.3-29.3,179.8-13.6c0,0-79-42.3-195.6-17.5c0,0-88.4,26.2-184.5,23.8
	c-5.1-0.1-10.2-0.4-15.3-0.7c-29.5-1.7-59.4-6.4-87.3-15.6C26,343.6,163.3,411.9,328.9,367"/>
<rect x="282.2" y="266.5" class="st4" width="12.6" height="40.6"/>
<path class="st4" d="M288.4,261.5c4.2,0,6.8-2.8,6.8-6.3c-0.1-3.6-2.6-6.3-6.6-6.3c-4.1,0-6.7,2.7-6.7,6.3
	C281.8,258.6,284.4,261.5,288.4,261.5"/>
<path class="st4" d="M323.8,275.1c3.5,0,5.9,2.2,6.8,5.6c0.2,0.7,0.3,1.6,0.3,2.3v6c0,1.1-0.1,2.4-0.4,3.4c-0.8,2.9-3.4,5.1-6.7,5.1
	c-5.2,0-8.2-4.7-8.2-10.8C315.4,279.3,319.1,275.1,323.8,275.1 M319.8,306.8c4.7,0,8.6-1.9,11-5.2h0.2v2.6c0,7.6-4.6,10.7-10.6,10.7
	c-4.8,0-9.2-1.6-11.8-3.1l-2.5,9.6c3.7,2,9.2,3.1,14.6,3.1c6,0,12.1-1.2,16.5-5c4.6-4.1,6.2-10.5,6.2-18.3v-22.6
	c0-6.1,0.2-9.5,0.3-12.1h-11l-0.4,4.9h-0.2c-2.1-3.4-5.6-5.8-11.1-5.8c-10.1,0-18.5,8.3-18.5,21.5
	C302.6,298.6,309.8,306.8,319.8,306.8"/>
<path class="st4" d="M245,260.6c0.9-0.3,2.7-0.4,5.7-0.4c5.8,0,9.3,2.7,9.3,7.7c0,4.9-3.7,8.1-10.1,8.1h-5V260.6z M245,285.1h3.7
	c5.2,0.1,7.6,1.9,9.2,9c1.6,6.9,3,11.4,3.8,13h13c-1.1-2.1-2.7-9.5-4.5-15.9c-1.4-5.2-3.6-8.8-7.5-10.4v-0.2
	c4.8-1.7,9.9-6.7,9.9-13.7c0-5.2-1.8-9.2-5.2-11.8c-4-3.2-9.8-4.4-18.1-4.4c-6.8,0-12.8,0.5-16.9,1.2v55.3H245V285.1z"/>
<path class="st4" d="M525.8,307.1l3.8-7.3c1-2,2.1-4,3.1-6.2h0.3c1,2.1,2,4.1,3.2,6.2l4.1,7.3h14.3L541,285.8l13.4-19.4h-13.7
	l-3.6,6.6c-1.1,2-2.1,4-3.2,6.2h-0.2c-1.1-2-2.2-4-3.3-6.1l-4-6.8h-14.1l13.5,20L512,307.1H525.8z"/>
<path class="st4" d="M494.5,287.9v4.4c0,0.7-0.1,1.5-0.3,2.2c-0.8,2.6-3.5,4.7-6.6,4.7c-2.8,0-5-1.6-5-4.8
	C482.7,289.5,487.8,287.9,494.5,287.9 M470.2,295.6c0,6.5,4.9,12.5,13.1,12.5c4.8,0,9-1.8,11.6-5h0.2l0.7,4.1h11.4
	c-0.5-2.2-0.7-6-0.7-9.8v-14.2c0-9.6-4.2-17.6-17.8-17.6c-7.4,0-13,2.1-15.8,3.7l2.3,8.1c2.7-1.7,7.1-3.1,11.2-3.1
	c6.2,0,7.4,3.1,7.4,5.3v0.5C479.7,280,470.2,285,470.2,295.6"/>
<path class="st4" d="M366.2,283c0-0.9,0.1-2,0.4-2.7c0.9-2.3,3-4.5,6.3-4.5c4.7,0,6.6,3.7,6.6,9v22.3h12.6v-23.7
	c0-12.3-6.2-17.9-14.2-17.9c-2.3,0-4.7,0.6-6.6,1.6c-2,1-3.7,2.4-5,4.2h-0.2v-23.3h-12.6v59h12.6V283z"/>
<polygon class="st4" points="445.5,284.6 465.6,284.6 465.6,274.3 445.5,274.3 445.5,261.5 467,261.5 467,251.1 432.8,251.1 
	432.8,307.1 445.5,307.1 "/>
<path class="st4" d="M403.6,292.4c0,5.7,1.2,9.6,3.5,12.1c2.1,2.1,5.5,3.5,9.6,3.5c3.5,0,6.6-0.5,8.1-1.1l-0.1-9.5
	c-1.2,0.2-2,0.3-3.7,0.3c-3.7,0-5-2.2-5-7.1v-14.7h9.1v-9.3H416v-11l-12.4,3.4v7.6h-5.4v9.3h5.4V292.4z"/>
</svg>
