<svg width="800px" height="800px" viewBox="0 0 16 16" xmlns="http://www.w3.org/2000/svg" fill="none">
    <g fill="#C22E33">
        <path
            d="m7.754 2 0.463 0.41q0.516 0.455 1.026 0.915C11.44 5.32 13.3 7.565 14.7 10.149q0.106 0.2 0.202 0.403l0.098 0.203 -0.108 0.057 -0.081 -0.115 -0.21 -0.299 -0.147 -0.214c-1.019 -1.479 -2.04 -2.96 -3.442 -4.145a6.6 6.6 0 0 0 -1.393 -0.904c-1.014 -0.485 -1.916 -0.291 -2.69 0.505 -0.736 0.757 -1.118 1.697 -1.463 2.653q-0.068 0.184 -0.139 0.367l-0.082 0.215 -0.172 -0.055q0.148 -0.522 0.284 -1.049c0.21 -0.795 0.42 -1.59 0.712 -2.356 0.31 -0.816 0.702 -1.603 1.093 -2.39q0.255 -0.511 0.5 -1.025z" />
        <path
            d="M8.448 11.822c-1.626 0.77 -5.56 1.564 -7.426 1.36C0.717 11.576 3.71 4.05 5.18 2.91l-0.095 0.218a5 5 0 0 1 -0.138 0.303l-0.066 0.129c-0.76 1.462 -1.519 2.926 -1.908 4.53a7.5 7.5 0 0 0 -0.228 1.689c-0.01 1.34 0.824 2.252 2.217 2.309 0.67 0.027 1.347 -0.043 2.023 -0.114 0.294 -0.03 0.587 -0.061 0.88 -0.084 0.108 -0.008 0.214 -0.021 0.352 -0.039l0.231 -0.028z" />
        <path
            d="M3.825 14.781q-0.668 0.05 -1.333 0.108c4.097 0.39 8.03 -0.277 11.91 -1.644 -1.265 -2.23 -2.97 -3.991 -4.952 -5.522 0.026 0.098 0.084 0.169 0.141 0.239l0.048 0.06q0.257 0.338 0.527 0.67c0.409 0.509 0.818 1.018 1.126 1.578 0.778 1.42 0.356 2.648 -1.168 3.296 -1.002 0.427 -2.097 0.718 -3.18 0.892 -1.03 0.164 -2.075 0.243 -3.119 0.323" />
    </g>
</svg>