<?xml version="1.0" encoding="UTF-8"?>
<svg version="1.1" xmlns="http://www.w3.org/2000/svg" width="404" height="392">
<path d="M0 0 C4.59344803 1.53114934 8.7571571 3.21844324 13.06640625 5.34375 C13.73432693 5.66885056 14.40224762 5.99395111 15.09040833 6.3289032 C18.73971558 8.10705933 22.38002929 9.90330922 26.02001953 11.70043945 C27.50651796 12.43244947 28.99333341 13.16381605 30.48046875 13.89453125 C31.57890106 14.43428337 31.57890106 14.43428337 32.69952393 14.98493958 C36.99342835 17.07666346 41.31482539 19.01650114 45.73828125 20.82421875 C46.70628662 21.23285156 47.67429199 21.64148438 48.67163086 22.0625 C50.41250584 22.78696057 52.16970455 23.47392901 53.94360352 24.11328125 C56.44291583 25.17764311 58.02948355 26.12670119 60 28 C60.88682556 30.39733887 60.88682556 30.39733887 61.49584961 33.38476562 C61.73756897 34.55339645 61.97928833 35.72202728 62.22833252 36.92607117 C62.4880225 38.28357774 62.74509126 39.6415875 63 41 C63.14096352 41.73998545 63.28192703 42.47997089 63.42716217 43.24238014 C64.59325602 49.39985721 65.6952235 55.56832095 66.79296875 61.73828125 C67.14712253 63.71515377 67.50156368 65.69197483 67.85627747 67.66874695 C68.78137083 72.82854275 69.70260265 77.98902044 70.62298584 83.1496582 C71.56595191 88.43287822 72.51263215 93.71543255 73.45898438 98.99804688 C75.3095908 109.3313892 77.15611158 119.66545695 79 130 C79.21075668 129.00441574 79.42151337 128.00883148 79.63865662 126.983078 C81.62321201 117.60944133 83.60959007 108.23619252 85.59776211 98.86332226 C86.61988743 94.04441121 87.64136579 89.22536489 88.66137695 84.40600586 C89.6454116 79.75674564 90.63113083 75.10784554 91.61802864 70.45919228 C91.99461185 68.68387944 92.3705836 66.90843678 92.74593925 65.132864 C93.27099327 62.6496736 93.79820186 60.16694991 94.32592773 57.68432617 C94.48129501 56.94705292 94.63666229 56.20977966 94.79673767 55.45016479 C95.41091411 52.56989573 96.06769397 49.79691809 97 47 C101.23920056 47.63230426 104.59261961 49.09863488 108.42578125 50.9921875 C109.04252213 51.29427124 109.659263 51.59635498 110.29469299 51.90759277 C111.61730224 52.55584006 112.93869636 53.20657145 114.25897217 53.85955811 C117.7278564 55.57487471 121.20555777 57.27208452 124.68359375 58.96875 C125.3826886 59.31014008 126.08178345 59.65153015 126.80206299 60.00326538 C134.45483342 63.72862612 142.19099554 67.26372134 149.95043945 70.76123047 C150.87171631 71.17775879 151.79299316 71.59428711 152.7421875 72.0234375 C153.5451123 72.38356934 154.34803711 72.74370117 155.17529297 73.11474609 C157 74 157 74 158 75 C158.09766542 77.40328529 158.12996828 79.77779352 158.12025452 82.18153381 C158.12153615 83.32212656 158.12153615 83.32212656 158.12284368 84.48576158 C158.12450078 87.0531125 158.11897339 89.62039917 158.11352539 92.18774414 C158.11324354 94.02038064 158.11340121 95.85301725 158.1139679 97.68565369 C158.11425596 102.67718062 158.10835777 107.66868375 158.10139394 112.66020513 C158.09516191 117.87059106 158.09455672 123.08097749 158.09336853 128.29136658 C158.09025477 138.16531025 158.08204078 148.03924291 158.07201904 157.91318172 C158.06085929 169.15120001 158.0553478 180.38921881 158.05032361 191.62724125 C158.0398582 214.75150029 158.02225789 237.87574953 158 261 C154.86204109 260.40384554 152.18460713 259.77935608 149.32714844 258.34179688 C148.65004822 258.00474731 147.972948 257.66769775 147.27532959 257.32043457 C146.20318207 256.77510071 146.20318207 256.77510071 145.109375 256.21875 C144.36415588 255.84520386 143.61893677 255.47165771 142.85113525 255.08679199 C141.28313234 254.29943966 139.71656703 253.5092186 138.15136719 252.71630859 C135.74724771 251.49860595 133.33891585 250.28958949 130.9296875 249.08203125 C129.4059984 248.31560415 127.88255219 247.54869395 126.359375 246.78125 C125.63651306 246.41769409 124.91365112 246.05413818 124.16888428 245.67956543 C119.11720696 243.11720696 119.11720696 243.11720696 118 242 C117.87457722 238.86510797 117.81386331 235.75120163 117.79467773 232.61499023 C117.78477814 231.62973358 117.77487854 230.64447693 117.76467896 229.62936401 C117.73296006 226.3557988 117.70826563 223.08221905 117.68359375 219.80859375 C117.66303318 217.54557405 117.64203696 215.28255827 117.62062073 213.01954651 C117.56530734 207.05025395 117.51593907 201.08092621 117.46777344 195.11157227 C117.4176259 189.02552136 117.3619047 182.93952184 117.30664062 176.85351562 C117.19894578 164.90238759 117.09752613 152.95121504 117 141 C116.7538797 142.12308563 116.5077594 143.24617126 116.25418091 144.40328979 C113.93738611 154.97057134 111.6128283 165.53611873 109.28059578 176.1000042 C108.08173183 181.5314721 106.88564204 186.96352045 105.69580078 192.39697266 C104.54812858 197.63737662 103.39328913 202.87615314 102.23339462 208.1138649 C101.7914379 210.11563599 101.3520973 212.11798647 100.91537857 214.12090683 C100.30476442 216.91924571 99.68500547 219.71540765 99.06298828 222.51123047 C98.88316406 223.34560638 98.70333984 224.1799823 98.51806641 225.03964233 C97.22810432 230.77189568 97.22810432 230.77189568 95 233 C90.18168056 230.71459197 85.37719807 228.40301063 80.58349609 226.06640625 C78.95159785 225.27557572 77.31617875 224.49196756 75.67724609 223.71582031 C73.31942384 222.5976778 70.97555998 221.4540161 68.6328125 220.3046875 C67.53273361 219.7933577 67.53273361 219.7933577 66.41043091 219.271698 C65.7298764 218.9317984 65.0493219 218.5918988 64.34814453 218.24169922 C63.44879684 217.80867996 63.44879684 217.80867996 62.53128052 217.36691284 C58.2177392 213.51638712 58.06357623 205.41128793 57.12060547 199.95556641 C56.85682098 198.46195587 56.85682098 198.46195587 56.58770752 196.93817139 C56.00986853 193.66004698 55.43849652 190.38083069 54.8671875 187.1015625 C54.4668801 184.82320264 54.06616852 182.54491376 53.66506958 180.26669312 C52.6121928 174.28006085 51.56480255 168.29248132 50.51855469 162.3046875 C49.26116666 155.11525184 47.99696267 147.92701197 46.73390198 140.73857117 C44.81738008 129.82662095 42.90951864 118.91318836 41 108 C40.67 140.34 40.34 172.68 40 206 C25.99642903 201.33214301 13.20269333 193.60134666 0 187 C0 125.29 0 63.58 0 0 Z " fill="#F9BF3C" transform="translate(21,111)"/>
<path d="M0 0 C0.33 43.56 0.66 87.12 1 132 C15.8394307 125.08490008 15.8394307 125.08490008 30 117 C32.48674011 116.75949097 32.48674011 116.75949097 35.48120117 116.77294922 C36.60213669 116.77310028 37.7230722 116.77325134 38.87797546 116.77340698 C40.69214714 116.78889084 40.69214714 116.78889084 42.54296875 116.8046875 C44.40106926 116.80893234 44.40106926 116.80893234 46.29670715 116.81326294 C49.58638087 116.82256814 52.87585863 116.84053209 56.16546631 116.8626709 C59.52369794 116.8831473 62.88195828 116.89226848 66.24023438 116.90234375 C72.82690963 116.92441732 79.41341674 116.95895423 86 117 C86 124.92 86 132.84 86 141 C74.52317268 147.47410772 62.93858208 153.65852939 51.22387695 159.69067383 C44.22043565 163.30555732 37.27365192 167.00187842 30.375 170.8125 C21.17386946 175.88916426 11.85269137 180.71091099 2.5 185.5 C-6.89403872 190.31033771 -16.25575557 195.15530245 -25.5 200.25 C-33.51994968 204.66560703 -41.58092994 208.9952088 -49.6875 213.25 C-50.7703125 213.82395508 -51.853125 214.39791016 -52.96875 214.98925781 C-54.47501953 215.77574707 -54.47501953 215.77574707 -56.01171875 216.578125 C-56.90334717 217.04637695 -57.79497559 217.51462891 -58.71362305 217.99707031 C-61 219 -61 219 -64 219 C-64 157.29 -64 95.58 -64 32 C-51.65565673 25.26672185 -39.50771788 18.66720337 -26.9296875 12.46875 C-20.87961048 9.46919316 -14.92944525 6.27931567 -9.0012207 3.04638672 C-8.25702881 2.64693848 -7.51283691 2.24749023 -6.74609375 1.8359375 C-6.09310303 1.48063965 -5.4401123 1.1253418 -4.76733398 0.75927734 C-3 0 -3 0 0 0 Z " fill="#3E0099" transform="translate(247,154)"/>
<path d="M0 0 C0.97388672 -0.020625 1.94777344 -0.04125 2.95117188 -0.0625 C15.06017113 -0.12644191 25.41028732 3.53988403 36.4375 8.25 C38.02304687 8.90742187 38.02304687 8.90742187 39.640625 9.578125 C44.12758169 11.46856868 48.12733671 13.17341541 51.9375 16.25 C48.85452588 17.87568217 45.77105811 19.50042584 42.6875 21.125 C41.81480469 21.58519531 40.94210938 22.04539062 40.04296875 22.51953125 C38.77646484 23.18662109 38.77646484 23.18662109 37.484375 23.8671875 C36.70932617 24.27565918 35.93427734 24.68413086 35.13574219 25.10498047 C34.41032227 25.48283691 33.68490234 25.86069336 32.9375 26.25 C32.23044922 26.63236816 31.52339844 27.01473633 30.79492188 27.40869141 C28.10009736 28.62929673 26.75474548 28.11932146 23.9375 27.25 C21.31853944 26.15803651 18.75651524 24.95384828 16.1875 23.75 C10.3530729 21.09054025 5.4338343 19.36600597 -1.0625 19.25 C1.7918705 22.39181296 4.3701487 24.17379222 8.25 25.875 C9.15363281 26.27976562 10.05726563 26.68453125 10.98828125 27.1015625 C18.59412288 30.06330745 25.01889792 30.55549368 33.16015625 30.59375 C34.33783066 30.6083728 35.51550507 30.62299561 36.72886658 30.63806152 C40.48587661 30.68440736 44.2428367 30.71866017 48 30.75 C82.28166791 31.03880933 119.69737783 36.03621835 147.44140625 58.64453125 C149.6705998 61.03669457 150.79765262 63.10367526 151.1953125 66.36328125 C150.91442605 71.01443034 150.04790903 73.74788061 146.625 77 C133.05894392 87.42240672 115.60114288 88.57404548 99.1640625 86.85546875 C81.89919538 84.14141763 65.75315471 76.40842929 49.9375 69.25 C51.65089606 64.10981183 56.98217545 62.76629121 61.625 60.4375 C63.11676758 59.64569336 63.11676758 59.64569336 64.63867188 58.83789062 C71.97270848 55.13427533 71.97270848 55.13427533 75.93359375 55.609375 C76.92488281 56.15078125 77.91617188 56.6921875 78.9375 57.25 C80.7118112 58.04233107 82.49105935 58.82364274 84.2734375 59.59765625 C87.30456677 60.95609542 90.33187272 62.32137709 93.3515625 63.70507812 C99.68019929 66.52562894 104.95837352 68.25 111.9375 68.25 C107.71671537 63.24110206 103.11230679 61.30300112 97.0625 59 C96.18980469 58.649375 95.31710937 58.29875 94.41796875 57.9375 C85.58963983 54.48582253 77.36699871 54.10155773 67.96875 54.0390625 C65.59895163 54.01097677 63.22916006 53.98231221 60.859375 53.953125 C57.15820638 53.91206608 53.45716236 53.87514082 49.75585938 53.84863281 C23.03401534 53.64109841 23.03401534 53.64109841 10.9375 50.25 C10.06077637 50.00475586 9.18405273 49.75951172 8.28076172 49.50683594 C6.03812801 48.83079828 3.83323559 48.09272944 1.625 47.3125 C0.91794922 47.07337891 0.21089844 46.83425781 -0.51757812 46.58789062 C-4.50437217 45.22047439 -8.4262161 43.72244912 -12.33666992 42.15014648 C-13.22521164 41.79331284 -14.11375336 41.43647919 -15.02922058 41.0688324 C-15.70020279 40.79861771 -16.371185 40.52840302 -17.0625 40.25 C-16.52680893 40.60221115 -15.99111786 40.9544223 -15.43919373 41.31730652 C-9.84110518 44.99837803 -4.24428923 48.68137841 1.35180664 52.36547852 C3.43774671 53.73836517 5.52400584 55.11076716 7.6105957 56.48266602 C10.61754946 58.45981162 13.62333436 60.4387233 16.62890625 62.41796875 C18.01838219 63.33076851 18.01838219 63.33076851 19.43592834 64.26200867 C23.24710783 66.77379609 27.02921734 69.29223882 30.70629883 71.99731445 C33.73191509 74.10667307 36.57593474 75.64765324 39.9453125 77.125 C41.08395752 77.62942627 42.22260254 78.13385254 43.39575195 78.65356445 C44.60577881 79.18038818 45.81580566 79.70721191 47.0625 80.25 C48.33133974 80.80930943 49.59980702 81.3694645 50.86791992 81.93041992 C53.52072725 83.1031634 56.17512182 84.27220616 58.83056641 85.43896484 C65.00316923 88.15552954 71.15260552 90.92383959 77.30389404 93.68823242 C80.40614123 95.08188426 83.50976757 96.47245213 86.61328125 97.86328125 C88.38802083 98.65885417 90.16276042 99.45442708 91.9375 100.25 C90.24250795 105.33497616 85.45502465 106.88673776 80.9375 109.375 C80.03515625 109.94476563 79.1328125 110.51453125 78.203125 111.1015625 C74.53583494 113.08716706 71.29347651 114.67939206 67.03869629 113.90393066 C62.550557 112.52807864 58.37866548 110.48774358 54.19458008 108.38079834 C51.96583633 107.26419651 49.71776573 106.20970897 47.45117188 105.17236328 C42.07879523 102.71098035 36.72948577 100.20131177 31.39599609 97.65673828 C19.16810445 91.8360429 6.87223811 87.24420192 -6.0625 83.25 C-6.74294876 83.03987274 -7.42339752 82.82974548 -8.12446594 82.61325073 C-21.0900658 78.61364646 -34.0757634 74.68030203 -47.0625 70.75 C-54.31355255 68.55554365 -61.56396374 66.35900555 -68.8125 64.15625 C-69.67491302 63.89422791 -70.53732605 63.63220581 -71.4258728 63.36224365 C-84.04128327 59.52475516 -96.60099154 55.56597474 -109.0625 51.25 C-105.58954581 47.50049323 -101.3792061 45.37294468 -96.9375 42.9375 C-96.12023437 42.45732422 -95.30296875 41.97714844 -94.4609375 41.48242188 C-93.64625 41.03833984 -92.8315625 40.59425781 -91.9921875 40.13671875 C-91.26241699 39.72639404 -90.53264648 39.31606934 -89.78076172 38.89331055 C-82.69627781 37.21667905 -74.66062328 41.306698 -68.06640625 43.7265625 C-67.15165024 44.05667328 -66.23689423 44.38678406 -65.29441833 44.72689819 C-62.40270403 45.77108242 -59.513684 46.82246456 -56.625 47.875 C-53.71103377 48.93383795 -50.79651269 49.9910589 -47.88059998 51.04452515 C-46.07312989 51.69779426 -44.26682269 52.3542916 -42.46180725 53.01431274 C-41.65013596 53.30816864 -40.83846466 53.60202454 -40.00219727 53.90478516 C-39.28765884 54.16522614 -38.57312042 54.42566711 -37.83692932 54.69400024 C-36.05433261 55.3496684 -36.05433261 55.3496684 -34.0625 55.25 C-34.75174561 54.86779297 -35.44099121 54.48558594 -36.15112305 54.09179688 C-71.43815036 34.49869927 -71.43815036 34.49869927 -73.0625 31.25 C-69.53423002 29.36947955 -65.98809105 27.52547935 -62.4375 25.6875 C-60.93896484 24.88795898 -60.93896484 24.88795898 -59.41015625 24.07226562 C-58.43691406 23.57275391 -57.46367188 23.07324219 -56.4609375 22.55859375 C-55.57067871 22.09251709 -54.68041992 21.62644043 -53.76318359 21.14624023 C-50.42034227 20.03689559 -48.43958127 20.34131552 -45.0625 21.25 C-41.6875 23.3125 -41.6875 23.3125 -39.0625 25.25 C-39.18109375 24.66992188 -39.2996875 24.08984375 -39.421875 23.4921875 C-40.10728717 19.33858974 -40.36152437 16.9260551 -38.625 13 C-28.70044942 2.3492628 -13.89297954 0.07156718 0 0 Z " fill="#932B49" transform="translate(182.0625,26.75)"/>
<path d="M0 0 C7.5507555 5.99683191 13.71239382 13.88506746 15.71875 23.51171875 C17.17257467 36.37402866 16.46250485 48.14333268 8.70703125 58.91796875 C1.00765868 68.30873667 -10.19465074 74.04372907 -20.3984375 80.32421875 C-21.33405518 80.90091309 -22.26967285 81.47760742 -23.23364258 82.07177734 C-25.08784019 83.21274817 -26.94437315 84.34993441 -28.8034668 85.48291016 C-29.66367432 86.01062012 -30.52388184 86.53833008 -31.41015625 87.08203125 C-32.55689819 87.78162964 -32.55689819 87.78162964 -33.72680664 88.49536133 C-36.26219255 90.17354663 -38.62578798 92.10063039 -41 94 C-22.19 94.33 -3.38 94.66 16 95 C16 106.22 16 117.44 16 129 C-21.29 129 -58.58 129 -97 129 C-97 111.4721597 -91.96460011 99.46982511 -79.859375 86.72265625 C-69.89840708 77.23796412 -58.34055495 69.41621223 -46.8359375 61.9453125 C-33.64846322 53.57607721 -33.64846322 53.57607721 -25 41 C-24.11116237 35.6979802 -25.03917389 31.49228789 -28 27 C-31.22188444 23.59400788 -34.09519498 22.26864963 -38.8125 21.90234375 C-44.16216557 22.14116811 -48.59532661 23.63134387 -52.4375 27.375 C-56.57323427 34.32303358 -56.68228945 39.43488144 -58 48 C-69.88 48 -81.76 48 -94 48 C-94 32.392978 -93.49559772 21.13036522 -84 9 C-83.13375 7.700625 -83.13375 7.700625 -82.25 6.375 C-61.98911472 -15.01149001 -23.81641693 -15.32328072 0 0 Z " fill="#1176BB" transform="translate(359,136)"/>
<path d="M0 0 C0 0.66 0 1.32 0 2 C-19.10684919 14.34377521 -19.10684919 14.34377521 -26.85644531 13.79931641 C-31.99415067 12.34883716 -36.32635838 9.77232504 -40.86279297 7.02587891 C-44.49863687 5.28064061 -48.00379007 5.20079478 -52 5 C-48.76374905 8.78657788 -45.1873369 10.45866171 -40.625 12.1875 C-39.97789063 12.44724609 -39.33078125 12.70699219 -38.6640625 12.97460938 C-31.8730741 15.62391634 -25.70084187 16.13553995 -18.47265625 16.02734375 C-16.7871957 16.01268504 -15.10172982 15.99862915 -13.41625977 15.98510742 C-12.10396896 15.97258438 -12.10396896 15.97258438 -10.76516724 15.95980835 C32.83980778 15.59988427 32.83980778 15.59988427 53 23 C53.77907715 23.28117676 54.5581543 23.56235352 55.36083984 23.85205078 C91.79348396 37.19022594 91.79348396 37.19022594 99 48 C99.7723279 51.83193461 99.78861376 55.43519159 98.0078125 58.96875 C94.05415188 64.06160097 88.90875372 66.68234229 83 69 C82.1853125 69.32097656 81.370625 69.64195312 80.53125 69.97265625 C52.07609192 78.9695077 23.25351656 66.16592768 -2 54 C1.49255386 50.20299541 5.80833933 48.15675151 10.3125 45.75 C11.15490234 45.27820313 11.99730469 44.80640625 12.86523438 44.3203125 C13.68958984 43.87945312 14.51394531 43.43859375 15.36328125 42.984375 C16.10876221 42.57928711 16.85424316 42.17419922 17.62231445 41.75683594 C22.55675363 40.18616529 26.98017177 42.22833746 31.51171875 44.25 C33.01895508 44.91515625 33.01895508 44.91515625 34.55664062 45.59375 C35.58982422 46.0578125 36.62300781 46.521875 37.6875 47 C39.7534726 47.9176436 41.81986016 48.8343537 43.88671875 49.75 C44.79639404 50.15734375 45.70606934 50.5646875 46.64331055 50.984375 C49.9876436 52.42562907 52.57212084 53.12176851 56.1875 53.0625 C57.445625 53.041875 58.70375 53.02125 60 53 C56.36689999 48.50908472 51.70924782 46.90641334 46.5 44.8125 C45.64535156 44.45736328 44.79070312 44.10222656 43.91015625 43.73632812 C38.49038802 41.50838908 33.93633761 39.89128188 28.02636719 39.82641602 C27.03723328 39.81292618 26.04809937 39.79943634 25.0289917 39.78553772 C23.96239319 39.77509933 22.89579468 39.76466095 21.796875 39.75390625 C19.51301761 39.72092557 17.22916353 39.68771475 14.9453125 39.65429688 C11.36493566 39.60723799 7.78456789 39.56288319 4.20410156 39.52319336 C-29.84183436 39.12758584 -29.84183436 39.12758584 -44.3125 34.6875 C-45.1159082 34.44314209 -45.91931641 34.19878418 -46.74707031 33.94702148 C-54.51165636 31.4227292 -61.88293386 28.054102 -69.25 24.5625 C-70.39251221 24.02520264 -71.53502441 23.48790527 -72.7121582 22.93432617 C-88.86344102 15.02400534 -88.86344102 15.02400534 -92 7 C-91.8036267 1.59973415 -90.65452468 -1.08923152 -87 -5 C-58.48007665 -23.65789378 -28.17878753 -12.41627826 0 0 Z " fill="#932B49" transform="translate(124,97)"/>
<path d="M0 0 C6.875 0.875 6.875 0.875 8 2 C8.1875 4.9375 8.1875 4.9375 8 8 C6 10 6 10 2.375 10.125 C1.26125 10.08375 0.1475 10.0425 -1 10 C-2.1875 7.25 -2.1875 7.25 -3 4 C-1.625 1.625 -1.625 1.625 0 0 Z M5 4 C6 7 6 7 6 7 Z " fill="#3E0099" transform="translate(340,276)"/>
</svg>
