<?xml version="1.0" encoding="UTF-8"?>
<svg version="1.1" xmlns="http://www.w3.org/2000/svg" width="210" height="210">
<path d="M0 0 C69.3 0 138.6 0 210 0 C210 69.3 210 138.6 210 210 C140.7 210 71.4 210 0 210 C0 140.7 0 71.4 0 0 Z " fill="#181818" transform="translate(0,0)"/>
<path d="M0 0 C69.3 0 138.6 0 210 0 C210 69.3 210 138.6 210 210 C140.7 210 71.4 210 0 210 C0 140.7 0 71.4 0 0 Z M32.640625 46.69921875 C16.81065137 65.86090352 11.16317298 89.55913538 13 114 C14.39853839 127.30461391 18.27298427 138.49928974 25 150 C25.8353125 151.49080078 25.8353125 151.49080078 26.6875 153.01171875 C38.84851223 173.50419369 58.63663844 187.35386014 81.18359375 194.125 C98.14638192 198.01411418 116.50932641 197.39660584 133 192 C133.95519531 191.72285156 134.91039062 191.44570312 135.89453125 191.16015625 C149.65838279 186.78716096 160.97854471 178.14005239 171 168 C171.72703125 167.28328125 172.4540625 166.5665625 173.203125 165.828125 C183.37698535 155.17360983 189.58941331 141.89696331 194 128 C194.37511719 126.8346875 194.75023437 125.669375 195.13671875 124.46875 C196.66149266 118.08912067 196.39320505 111.4586659 196.375 104.9375 C196.37478851 104.24369232 196.37457703 103.54988464 196.37435913 102.83505249 C196.343399 92.69142724 195.79724676 83.56159185 192 74 C191.63777344 72.96875 191.27554688 71.9375 190.90234375 70.875 C186.02495556 57.91272087 177.59162423 47.72983207 168 38 C166.90558594 36.88625 166.90558594 36.88625 165.7890625 35.75 C159.61393079 29.87329473 152.45064176 25.99141523 145 22 C144.19046875 21.51402344 143.3809375 21.02804688 142.546875 20.52734375 C106.04557544 -0.33965792 58.10775371 17.39231784 32.640625 46.69921875 Z " fill="#FDFDFD" transform="translate(0,0)"/>
<path d="M0 0 C1.38832031 -0.06864258 1.38832031 -0.06864258 2.8046875 -0.13867188 C9.08811398 -0.24073318 12.57560556 0.89821831 17.40966797 4.94506836 C20.10317107 7.68838466 20.09060719 9.95457719 20.1875 13.6875 C20.12778582 18.75657063 19.47443039 21.6486259 15.875 25.4375 C10.30968286 29.71851318 3.55270347 28.70500444 -3.125 28.4375 C-3.09019531 29.12457031 -3.05539063 29.81164062 -3.01953125 30.51953125 C-2.99246094 31.42058594 -2.96539062 32.32164062 -2.9375 33.25 C-2.90269531 34.14332031 -2.86789063 35.03664062 -2.83203125 35.95703125 C-3.125 38.4375 -3.125 38.4375 -4.47265625 40.27734375 C-6.125 41.4375 -6.125 41.4375 -8.75 41.1875 C-11.125 40.4375 -11.125 40.4375 -12.125 39.4375 C-12.21361992 36.6258662 -12.24022355 33.83891745 -12.22265625 31.02734375 C-12.2212413 30.18530899 -12.21982635 29.34327423 -12.21836853 28.47572327 C-12.21275263 25.77544665 -12.20019748 23.07525172 -12.1875 20.375 C-12.18248705 18.54882932 -12.17792379 16.72265734 -12.17382812 14.89648438 C-12.16277804 10.41012458 -12.14550279 5.92382616 -12.125 1.4375 C-8.41970893 -0.41514553 -4.07931127 0.08036687 0 0 Z " fill="#F5F5F5" transform="translate(142.125,112.5625)"/>
<path d="M0 0 C2.875 1.625 2.875 1.625 4.875 3.625 C5 6.75 5 6.75 4.875 9.625 C-0.32371274 10.98656762 -2.4655151 10.05181505 -7.125 7.625 C-11.13363557 7.04040731 -12.77785594 7.43807628 -16.375 9.375 C-19.60934472 11.97410854 -19.60934472 11.97410854 -21.125 15.625 C-21.60959952 20.85867486 -20.95235806 24.18200877 -18.125 28.625 C-15.51230932 31.52798965 -14.16144383 31.62152916 -10.1875 32 C-6.41110012 31.87412 -4.29786101 30.683072 -1.125 28.625 C1.5625 28.3125 1.5625 28.3125 3.875 28.625 C5.875 30.625 5.875 30.625 5.875 33 C4.46287167 36.70683688 2.27081856 37.72334161 -1.125 39.625 C-7.2638636 41.67128787 -14.62516765 41.73071965 -20.5625 39 C-25.23930051 36.23864585 -28.08558119 32.80282988 -30.4375 27.875 C-31.97902945 20.58776987 -31.88110473 14.23056349 -28.125 7.625 C-20.78727047 -1.13951027 -10.93111214 -4.45934491 0 0 Z " fill="#F5F5F5" transform="translate(116.125,113.375)"/>
<path d="M0 0 C0.72614502 0.00008057 1.45229004 0.00016113 2.20043945 0.00024414 C4.4150722 -0.00194063 6.62920561 -0.02008844 8.84375 -0.0390625 C10.245441 -0.04199669 11.64713437 -0.04398131 13.04882812 -0.04492188 C14.33072021 -0.04903076 15.6126123 -0.05313965 16.93334961 -0.05737305 C19.99023438 0.18554688 19.99023438 0.18554688 21.99023438 2.18554688 C21.43467882 6.74110243 21.43467882 6.74110243 19.99023438 8.18554688 C18.13735936 8.25781189 16.2818956 8.26935907 14.42773438 8.24804688 C13.41582031 8.23902344 12.40390625 8.23 11.36132812 8.22070312 C10.18763672 8.20330078 10.18763672 8.20330078 8.99023438 8.18554688 C9.00070801 9.07862549 9.01118164 9.9717041 9.02197266 10.8918457 C9.0560703 14.20730165 9.08114075 17.52257108 9.10009766 20.83813477 C9.11015137 22.272735 9.12379632 23.70731476 9.14111328 25.1418457 C9.16538986 27.20464125 9.17672356 29.26716572 9.18554688 31.33007812 C9.19602051 32.57120361 9.20649414 33.8123291 9.21728516 35.09106445 C8.99023438 38.18554688 8.99023438 38.18554688 6.99023438 41.18554688 C4.49023438 41.56054688 4.49023438 41.56054688 1.99023438 41.18554688 C-0.46262859 37.50625243 -0.24205441 35.71176781 -0.20507812 31.33007812 C-0.20224823 30.66844162 -0.19941833 30.00680511 -0.19650269 29.32511902 C-0.18532481 27.2159095 -0.16022543 25.10712763 -0.13476562 22.99804688 C-0.12473269 21.56641239 -0.11560739 20.13477124 -0.10742188 18.703125 C-0.08539358 15.19712711 -0.05088048 11.69137874 -0.00976562 8.18554688 C-1.16605469 8.22035156 -1.16605469 8.22035156 -2.34570312 8.25585938 C-3.34859375 8.27390625 -4.35148437 8.29195312 -5.38476562 8.31054688 C-6.3825 8.33375 -7.38023438 8.35695313 -8.40820312 8.38085938 C-11.00976562 8.18554688 -11.00976562 8.18554688 -13.00976562 6.18554688 C-12.01423673 -1.97779007 -7.02864191 0.02466754 0 0 Z " fill="#F6F6F6" transform="translate(60.009765625,112.814453125)"/>
<path d="M0 0 C0.87398438 0.52851562 1.74796875 1.05703125 2.6484375 1.6015625 C8.31761117 5.12732257 13.74214413 8.88712134 19 13 C18.67 14.32 18.34 15.64 18 17 C14.41624615 16.37530896 12.1651464 14.88529832 9.25 12.75 C8.36183594 12.11835937 7.47367187 11.48671875 6.55859375 10.8359375 C5.06632344 9.76514812 3.57752203 8.68943098 2.09765625 7.6015625 C-10.92570929 -1.34665802 -26.46551833 -2.93756392 -41.75 -0.4375 C-52.63513468 2.60519513 -63.06028592 9.06028592 -71 17 C-73.125 16.625 -73.125 16.625 -75 16 C-74.10929722 10.548899 -70.22993923 8.16417989 -66 5 C-46.69100882 -7.98129084 -20.81354966 -12.61670771 0 0 Z " fill="#E5E5E5" transform="translate(133,50)"/>
<path d="M0 0 C1.06250977 0.01450195 1.06250977 0.01450195 2.14648438 0.02929688 C11.0889538 0.23458772 17.39668416 2.191619 25.375 6.0625 C26.06142578 6.39378906 26.74785156 6.72507812 27.45507812 7.06640625 C31.71963183 9.23411683 34.99761654 11.53127892 38.125 15.25 C37.9375 17.5625 37.9375 17.5625 37.125 19.25 C33.51551898 18.62910304 31.29209994 17.1067447 28.375 14.9375 C16.43238 6.37188006 4.67689362 4.58224317 -9.82421875 6.67578125 C-16.98218874 8.55460429 -24.39865576 12.65238794 -29.5546875 17.98828125 C-29.99039063 18.40464844 -30.42609375 18.82101563 -30.875 19.25 C-33.0625 18.9375 -33.0625 18.9375 -34.875 18.25 C-34.12260893 14.02573205 -32.41456278 12.47337678 -29.16796875 9.8359375 C-20.31812703 3.71492261 -10.82545768 -0.15628668 0 0 Z " fill="#EBEBEB" transform="translate(102.875,62.75)"/>
<path d="M0 0 C5.00323147 2.05328672 10.01489383 4.49389774 13.86181641 8.34082031 C13.86181641 9.66082031 13.86181641 10.98082031 13.86181641 12.34082031 C9.8522789 11.76597623 7.14246207 10.50710257 3.73681641 8.34082031 C-2.57427302 4.35083064 -7.71368412 3.45879753 -15.13818359 4.34082031 C-19.59875264 5.94985567 -23.55642336 8.09615652 -27.28271484 11.02832031 C-29.13818359 12.34082031 -29.13818359 12.34082031 -31.38818359 12.02832031 C-31.96568359 11.80144531 -32.54318359 11.57457031 -33.13818359 11.34082031 C-32.97802734 9.57128906 -32.97802734 9.57128906 -32.13818359 7.34082031 C-29.70458984 5.45410156 -29.70458984 5.45410156 -26.70068359 3.65332031 C-25.21761719 2.75033203 -25.21761719 2.75033203 -23.70458984 1.82910156 C-17.01018901 -2.05303956 -7.44265383 -2.2944925 0 0 Z " fill="#ECECEC" transform="translate(114.13818359375,83.6591796875)"/>
<path d="M0 0 C1.5675 -0.061875 3.135 -0.12375 4.75 -0.1875 C6.07257813 -0.23970703 6.07257813 -0.23970703 7.421875 -0.29296875 C10.44671583 0.05076316 11.75583602 1.00227459 14 3 C13.6875 6.375 13.6875 6.375 13 10 C8.61501596 12.92332269 5.2225328 12.1356502 0 12 C0 8.04 0 4.08 0 0 Z " fill="#191919" transform="translate(139,121)"/>
<path d="M0 0 C1.32 0.66 2.64 1.32 4 2 C4 4 4 4 2.609375 5.54296875 C1.99578125 6.08566406 1.3821875 6.62835938 0.75 7.1875 C0.14671875 7.73792969 -0.4565625 8.28835937 -1.078125 8.85546875 C-3 10 -3 10 -5.234375 9.67578125 C-5.81703125 9.45277344 -6.3996875 9.22976562 -7 9 C-6.82374165 6.62051228 -6.30280227 5.29774151 -4.59765625 3.62109375 C-3.09350908 2.37884514 -1.54870149 1.18623944 0 0 Z " fill="#EBEBEB" transform="translate(65,57)"/>
<path d="M0 0 C1.98 1.65 3.96 3.3 6 5 C5.67 6.32 5.34 7.64 5 9 C0.75177626 8.52797514 -1.19989709 6.03344482 -4 3 C-1.525 3.495 -1.525 3.495 1 4 C0.67 2.68 0.34 1.36 0 0 Z " fill="#DEDEDE" transform="translate(135,73)"/>
<path d="M0 0 C-2.35968744 2.09749995 -3.54616994 2.96905704 -6.75 3.1875 C-7.86375 3.0946875 -7.86375 3.0946875 -9 3 C-5.83583464 -0.30799106 -4.50236011 -1.35070803 0 0 Z " fill="#393939" transform="translate(67,23)"/>
</svg>
