<?xml version="1.0" encoding="UTF-8"?>
<svg version="1.1" xmlns="http://www.w3.org/2000/svg" width="1024" height="1024">
<path d="M0 0 C0.33 0.66 0.66 1.32 1 2 C2.00731159 1.9981014 3.01462318 1.9962028 4.05245936 1.99424666 C48.48615363 1.91082802 92.91985616 1.83369956 137.35360718 1.7882843 C138.36406232 1.78724887 138.36406232 1.78724887 139.39493071 1.78619253 C154.0379703 1.77122492 168.68101076 1.75737445 183.32405249 1.74467335 C190.50591149 1.73843715 197.68777025 1.73195431 204.86962891 1.7253418 C205.5842767 1.724688 206.29892449 1.72403421 207.03522828 1.7233606 C230.16235451 1.70208731 253.2894193 1.6645559 276.41650838 1.6185139 C300.20006765 1.57125143 323.98359297 1.54054978 347.76719841 1.53042505 C351.13324481 1.52898446 354.49929111 1.52735628 357.86533737 1.52561378 C358.85898076 1.52510811 358.85898076 1.52510811 359.87269775 1.52459222 C371.15240208 1.51834132 382.43199111 1.49178021 393.71164934 1.46041767 C403.76260881 1.43390215 413.81347761 1.42601892 423.86446948 1.43249311 C429.65552783 1.43568228 435.44627871 1.43093934 441.2372818 1.40397263 C446.55424306 1.37939608 451.87069408 1.37856853 457.18768029 1.39550553 C459.09654861 1.39759453 461.00545059 1.39146043 462.91425402 1.37558409 C495.20250308 1.1229618 523.27956632 12.30641246 547 34 C548.21623047 35.09248047 548.21623047 35.09248047 549.45703125 36.20703125 C567.58020833 53.31454867 579.94556579 78.98273774 581.19652176 103.91712379 C581.30949561 108.5208977 581.31326947 113.1248196 581.31884766 117.72973633 C581.32817637 119.51313653 581.33834423 121.29653251 581.34927177 123.07992363 C581.37665379 127.96373196 581.39178422 132.84751119 581.4046917 137.73137641 C581.42070446 143.0297543 581.44768491 148.3280791 581.47302246 153.62641907 C581.52088469 164.04543042 581.55747979 174.46445339 581.58992171 184.88352305 C581.61654957 193.38596718 581.64729935 201.88838761 581.68060303 210.39080811 C581.98476456 288.51139261 582.10097518 366.63233187 582.12139618 444.7534675 C582.123207 451.63140278 582.12544964 458.50933724 582.12897491 465.38727188 C582.1369849 481.12827893 582.14003638 496.86927137 582.13444519 512.61028099 C582.13289013 517.39897135 582.1335061 522.1876533 582.13612366 526.97634315 C582.13901266 532.51977169 582.13704557 538.0631778 582.13136172 543.60660398 C582.13008159 545.60416483 582.13043299 547.60172762 582.13267446 549.59928763 C582.14239268 559.16330408 582.0538764 568.70809715 581.59347534 578.26242065 C581.55997644 579.0103391 581.52647753 579.75825754 581.49196351 580.52884018 C579.99959769 607.76966609 567.20850548 632.10284641 548 651 C547.10410156 651.89460937 546.20820312 652.78921875 545.28515625 653.7109375 C520.47404272 677.39261708 489.35449122 683.33004056 456.12141418 683.26069641 C454.04779587 683.26372254 451.97417867 683.26761432 449.90056342 683.27228898 C444.24224481 683.28251834 438.58398992 683.28040013 432.92566621 683.27610838 C426.807554 683.2736319 420.68945676 683.28266677 414.5713501 683.29014587 C402.60026031 683.30286962 390.62919827 683.30469519 378.65810487 683.30234561 C368.92277533 683.30050847 359.18745236 683.30228138 349.45212364 683.30657005 C348.05033002 683.30717247 346.6485364 683.30777367 345.24674278 683.30837366 C343.13401213 683.30928097 341.02128149 683.31018965 338.90855085 683.31110601 C319.28062861 683.31952823 299.65270883 683.32387632 280.02478504 683.31969929 C279.28579217 683.31954291 278.54679931 683.31938654 277.78541272 683.31922542 C274.04044886 683.31841972 270.29548502 683.31757394 266.55052117 683.31671212 C265.8068451 683.31654103 265.06316903 683.31636994 264.29695732 683.31619367 C262.79306559 683.31584701 261.28917386 683.31549848 259.78528213 683.31514808 C236.39354231 683.30979292 213.00184021 683.31771849 189.61010742 683.33618164 C163.28963653 683.35693244 136.969189 683.36761845 110.64870948 683.36360615 C107.83812472 683.36321085 105.02753995 683.3628493 102.21695518 683.36250877 C101.52499038 683.36241804 100.83302558 683.36232731 100.12009215 683.36223383 C89.70833029 683.36107151 79.29659214 683.36768823 68.8848362 683.37832069 C57.03251228 683.3904124 45.18024209 683.39160986 33.32791279 683.37953053 C27.28784417 683.37366021 21.24787691 683.37249109 15.20781517 683.38453293 C9.66527346 683.39545389 4.12291701 683.39221513 -1.41961626 683.37827124 C-3.41142301 683.37564131 -5.40324458 683.37793644 -7.39503672 683.38600711 C-43.00223345 683.52012926 -73.47157986 675.26160397 -99.5625 649.9375 C-113.46580768 635.95139758 -129 613.43244884 -129 593 C-129.99 592.67 -130.98 592.34 -132 592 C-131.34 592 -130.68 592 -130 592 C-130.14127245 591.14340398 -130.28254489 590.28680797 -130.42809832 589.4042545 C-132.0364693 578.72717917 -132.28738354 568.28444696 -132.26742554 557.50120544 C-132.27116917 555.56528089 -132.27577352 553.62935785 -132.28115618 551.69343716 C-132.29331343 546.41104365 -132.29313436 541.12871382 -132.29076743 535.84630954 C-132.29035741 530.13443279 -132.30141599 524.42257596 -132.31088257 518.71070862 C-132.32745356 507.53391383 -132.33299035 496.35714014 -132.33410732 485.18033408 C-132.33505965 476.08953489 -132.33917915 466.99874263 -132.34550858 457.90794563 C-132.36024941 436.29420535 -132.37255946 414.6804715 -132.37151146 393.06672573 C-132.3714803 392.37652645 -132.37144914 391.68632718 -132.37141704 390.97521277 C-132.37125085 387.47755218 -132.37105277 383.9798916 -132.37084763 380.48223101 C-132.37080774 379.78767081 -132.37076785 379.09311061 -132.37072675 378.37750312 C-132.37064587 376.97293461 -132.37056228 375.5683661 -132.37047596 374.16379759 C-132.36925113 352.32295756 -132.38425596 330.48217968 -132.41162109 308.64135742 C-132.4424044 284.0626906 -132.45952452 259.48406859 -132.45769465 234.90538079 C-132.4570322 221.90678046 -132.46246067 208.90825024 -132.48405075 195.90966606 C-132.50231798 184.84125643 -132.50656449 173.7729487 -132.4930319 162.70453047 C-132.4865302 157.06531238 -132.48628328 151.42628947 -132.5037384 145.7870903 C-132.51959868 140.60955249 -132.51647496 135.43236251 -132.49917014 130.25483251 C-132.4961285 128.39689206 -132.49962341 126.5389248 -132.51089029 124.68101602 C-132.70892962 89.66257546 -121.83813002 59.8495401 -97.75 34.3125 C-69.86518492 7.61849552 -37.3245238 1.25724236 0 2 C0 1.34 0 0.68 0 0 Z " fill="#944BEE" transform="translate(287,161)"/>
<path d="M0 0 C46.93978448 -0.06789487 93.87955712 -0.12156971 140.81938102 -0.15319599 C146.3677873 -0.15694787 151.91619348 -0.16083086 157.46459961 -0.16479492 C158.56913379 -0.16558185 159.67366797 -0.16636878 160.81167289 -0.16717956 C178.66909847 -0.18021445 196.52649491 -0.20385769 214.38390324 -0.23145839 C232.72296442 -0.259566 251.0620104 -0.27618756 269.40109223 -0.28226548 C280.70676263 -0.28637083 292.01235066 -0.29931209 303.31799569 -0.3237494 C311.08282829 -0.33967278 318.84761865 -0.34438549 326.61246637 -0.34050413 C331.08464003 -0.33859281 335.55667031 -0.34141122 340.02881813 -0.35761642 C390.67790924 -0.53181677 431.64035704 11.35505553 469 47 C470.18916016 48.10988281 470.18916016 48.10988281 471.40234375 49.2421875 C493.93234486 70.86148557 508.79868307 101.36688256 516.375 131.3125 C516.73295654 132.72402344 516.73295654 132.72402344 517.09814453 134.1640625 C520.40251235 147.98363116 521.38059435 161.54794229 521.3125 175.6875 C521.30976578 176.87096512 521.30976578 176.87096512 521.30697632 178.07833862 C521.25966815 190.26581709 520.72114397 202.07591556 518 214 C517.82307617 214.79067871 517.64615234 215.58135742 517.46386719 216.39599609 C511.91493463 240.53241518 502.05713225 263.21690653 487 283 C486.37609375 283.845625 485.7521875 284.69125 485.109375 285.5625 C470.31309994 304.66950087 452.0456781 320.28589615 431 332 C430.39381836 332.34272949 429.78763672 332.68545898 429.16308594 333.03857422 C412.88826527 342.12411681 394.43478889 348.29294969 376 351 C374.86433594 351.17273438 373.72867187 351.34546875 372.55859375 351.5234375 C366.99583275 352.20965684 361.44057722 352.12412322 355.84375 352.09765625 C354.82958008 352.09664917 353.81541016 352.09564209 352.77050781 352.09460449 C349.01366023 352.08940694 345.25682887 352.07544589 341.5 352.0625 C333.085 352.041875 324.67 352.02125 316 352 C316 331.21 316 310.42 316 289 C337.625 288.625 337.625 288.625 344.35791016 288.52197266 C372.4983535 288.01222246 396.94630053 282.299207 419 264 C420.27423828 262.97132813 420.27423828 262.97132813 421.57421875 261.921875 C443.51506135 243.32210262 456.3078348 215.33892962 459 187 C460.92181244 155.36629808 452.56701943 124.23714575 431.39697266 100.17822266 C412.548708 79.58726956 387.96355697 66.3251791 359.76409101 64.88587928 C353.63736024 64.6958611 347.50938809 64.71664998 341.38037109 64.7253418 C339.33555924 64.72098634 337.29074901 64.71580044 335.24594116 64.70985413 C329.73426207 64.69655328 324.2226519 64.69587466 318.71095991 64.69841743 C314.1028303 64.69949163 309.49471439 64.69459314 304.88658774 64.689812 C294.02317683 64.67875116 283.15980052 64.67826234 272.29638672 64.68432617 C261.08875086 64.69038556 249.88123991 64.67799742 238.67362535 64.6567561 C229.03768342 64.63916511 219.40178137 64.63313415 209.76582396 64.63639385 C204.01576747 64.63820832 198.26580044 64.63555264 192.51575851 64.62167931 C187.11971372 64.60914373 181.72386527 64.61100438 176.32782364 64.62409019 C174.34604578 64.62646356 172.36425426 64.62369423 170.38249207 64.61546707 C167.68252907 64.60506374 164.98323313 64.61304785 162.28329468 64.6257782 C161.10112037 64.61471677 161.10112037 64.61471677 159.89506376 64.60343188 C155.57142089 64.64647584 153.11047071 64.94199463 150 68 C149.40068649 70.19414269 149.40068649 70.19414269 149.49219131 72.69515514 C149.48074373 73.66602886 149.46929614 74.63690258 149.45750165 75.63719672 C149.46526207 76.70625087 149.47302248 77.77530503 149.48101807 78.87675476 C149.47351681 80.01046204 149.46601556 81.14416932 149.458287 82.31223136 C149.4379022 86.13110746 149.44613398 89.94939593 149.45410156 93.76831055 C149.44759072 96.49780111 149.43506491 99.22725622 149.42277527 101.95672607 C149.39943026 107.84333068 149.39071617 113.729812 149.39188385 119.6164608 C149.39355106 128.12758021 149.37323913 136.63853495 149.34752855 145.1496105 C149.3064154 158.95756108 149.28312649 172.76548211 149.27099609 186.57348633 C149.25917312 199.98822879 149.23898707 213.40291557 149.20751953 226.81762695 C149.20558343 227.64423656 149.20364733 228.47084616 149.20165256 229.32250454 C149.19188819 233.46928071 149.18195904 237.61605647 149.17194796 241.76283205 C149.0890834 276.17519672 149.03512447 310.58755424 149 345 C137.59716815 343.31138934 128.58299707 336.32879151 120 329 C118.72382813 327.99839844 118.72382813 327.99839844 117.421875 326.9765625 C99.17553816 312.08519727 88.25183544 286.83783327 85 264 C84.90646879 261.28973307 84.8580531 258.60543596 84.86196899 255.89570618 C84.85914771 255.09640361 84.85632643 254.29710105 84.85341966 253.4735772 C84.84510917 250.80439635 84.84373851 248.13525716 84.84228516 245.46606445 C84.83761458 243.54888798 84.83247061 241.63171261 84.82688904 239.71453857 C84.81562731 235.59106361 84.80718411 231.46759579 84.80076981 227.34411049 C84.79008038 220.82762084 84.76983549 214.31118291 84.74765015 207.79472351 C84.68574945 189.26641188 84.63164141 170.73810413 84.59863281 152.2097168 C84.58031604 141.9729839 84.55142334 131.73633841 84.5106281 121.49966973 C84.48952025 116.08209201 84.47409538 110.66462457 84.47182083 105.24700356 C84.46968114 100.15718371 84.45388171 95.06759405 84.42743111 89.97784424 C84.42021248 88.10693314 84.41814947 86.23599422 84.42153358 84.36507225 C84.42540665 81.81755353 84.41104504 79.27077797 84.39199829 76.7233429 C84.39752799 75.97743922 84.40305768 75.23153555 84.40875494 74.46302873 C84.3716642 70.51113074 84.3716642 70.51113074 82.60050011 67.07979107 C78.98537176 64.64081385 75.751185 64.82796017 71.52099609 64.79467773 C70.75017197 64.78477814 69.97934784 64.77487854 69.18516541 64.76467896 C66.6312876 64.7330317 64.07739118 64.70829383 61.5234375 64.68359375 C59.75509145 64.663027 57.98675035 64.64203061 56.21841431 64.62062073 C51.55940757 64.56537119 46.90035625 64.51597464 42.24127197 64.46777344 C36.65368767 64.40875762 31.06618501 64.34251381 25.47866821 64.27747345 C16.98582858 64.17942767 8.49293709 64.09059647 0 64 C0 42.88 0 21.76 0 0 Z " fill="#9549EE" transform="translate(255,326)"/>
<path d="M0 0 C0.96203894 -0.00827125 0.96203894 -0.00827125 1.94351301 -0.0167096 C4.09572836 -0.03032054 6.24679184 -0.01540029 8.39898586 -0.00063419 C9.95647659 -0.00452663 11.51396377 -0.01016661 13.07144254 -0.01740509 C17.35425763 -0.03218856 21.63670613 -0.02196111 25.91950953 -0.00766838 C30.53813446 0.00342255 35.15670717 -0.00849558 39.77532864 -0.01751041 C48.82859886 -0.03146267 57.88172983 -0.02386967 66.93499345 -0.00883483 C77.48858312 0.00802329 88.04213806 0.00481473 98.59573703 0.00107109 C117.44322157 -0.00481226 136.2906394 0.00937679 155.13810635 0.03401852 C173.398223 0.05788948 191.65825033 0.0650433 209.91837978 0.05452633 C229.81062883 0.0430898 249.70283651 0.04122471 269.59508508 0.05562443 C271.72139386 0.05715018 273.84770264 0.05867053 275.97401142 0.06018543 C277.5431205 0.06132215 277.5431205 0.06132215 279.14392876 0.06248184 C286.48589237 0.0672076 293.82783744 0.06538502 301.16980076 0.06112003 C310.13926339 0.05616763 319.10864189 0.06229003 328.07808537 0.08201433 C332.64761436 0.09181817 337.2170159 0.09706746 341.78655148 0.08912182 C383.77227375 0.02378992 383.77227375 0.02378992 404.00602627 6.18807125 C404.86510586 6.44370846 405.72418545 6.69934566 406.60929775 6.96272945 C452.89327355 21.13991733 493.17420763 51.89546007 516.50602627 94.6919775 C533.1694176 126.10180628 542.19759264 158.62164314 541.94352627 194.25057125 C541.9389642 195.61922329 541.9389642 195.61922329 541.93430996 197.01552486 C541.82723272 218.81692721 538.65245714 238.873686 531.50602627 259.50057125 C531.28221279 260.15251461 531.05839931 260.80445797 530.82780361 261.47615719 C518.26298939 297.22816778 493.17499355 329.41553531 462.50602627 351.50057125 C461.90822353 351.93208492 461.3104208 352.36359859 460.69450283 352.80818844 C451.44806922 359.4001435 441.83548793 364.79907267 431.50602627 369.50057125 C430.5051498 369.95859127 430.5051498 369.95859127 429.48405361 370.42586422 C421.20298129 374.15882414 412.7843591 377.19414146 404.06852627 379.75057125 C403.28389004 379.98469723 402.49925381 380.2188232 401.69084072 380.46004391 C398.97700994 381.22047254 396.25210793 381.86538899 393.50602627 382.50057125 C392.42279079 382.7555035 391.33955532 383.01043575 390.22349453 383.27309322 C374.74542123 386.37025272 359.06803266 385.97699964 343.35430026 385.9694109 C340.03345155 385.96928996 336.71264544 385.97790116 333.39180881 385.98618841 C325.56404734 386.0052908 317.73639252 386.00835015 309.90861416 386.00154781 C301.84657186 385.9948718 293.78498296 386.01794339 285.72303265 386.05486155 C278.77145473 386.08553346 271.82002319 386.09692267 264.86837894 386.09302473 C260.7284746 386.09095971 256.58892596 386.09640263 252.44908619 386.12091732 C248.56877716 386.14314903 244.68921398 386.14133758 240.80890179 386.1209898 C239.38709274 386.11757666 237.96523363 386.12268217 236.54349232 386.13697338 C234.6019797 386.15514422 232.6602383 386.13942145 230.71871853 386.12203121 C229.09041119 386.12309998 229.09041119 386.12309998 227.42920876 386.12419033 C223.31224788 385.24589574 221.92677965 383.93568016 219.50602627 380.50057125 C218.7973934 377.34151728 218.83507622 374.26964794 218.87783718 371.04267025 C218.87074279 370.08566914 218.86364841 369.12866802 218.85633904 368.14266688 C218.83872567 364.9333544 218.85688142 361.72524764 218.87492275 358.51595211 C218.86978527 356.21630965 218.8625053 353.91667112 218.85324001 351.61704159 C218.83469732 345.36918667 218.84768265 339.1217575 218.86733031 332.8739202 C218.88369226 326.34147075 218.87490743 319.80904878 218.86981106 313.27658749 C218.86436924 302.30682994 218.88107173 291.33723321 218.90910244 280.36751461 C218.93794648 269.07935668 218.94502024 257.79144148 218.92961025 246.5032568 C218.91106635 232.90077214 218.91278037 219.29846298 218.93182468 205.69597721 C218.93870649 200.49945804 218.93765115 195.30302905 218.93027973 190.10651112 C218.92263305 183.99069483 218.9346905 177.87522927 218.96212864 171.75947285 C218.96903019 169.51164192 218.96909161 167.26377835 218.96191311 165.0159483 C218.95325979 161.95406695 218.96910505 158.89327832 218.99136257 155.83148861 C218.9831218 154.93606867 218.97488104 154.04064874 218.96639055 153.11809486 C219.04668887 147.15809277 219.04668887 147.15809277 221.28872585 143.94871426 C223.63585317 142.41577989 224.73225177 142.00021909 227.4974966 141.99936581 C228.28117611 141.98953167 229.06485561 141.97969753 229.87228298 141.96956539 C230.72280743 141.97923336 231.57333187 141.98890133 232.44962978 141.99886227 C233.35247707 141.99345928 234.25532436 141.9880563 235.18553066 141.98248959 C238.16899833 141.96998493 241.15150438 141.98650367 244.13493252 142.0044775 C246.20711219 142.00432257 248.27929216 142.00283452 250.35146999 142.00006771 C254.69340232 141.99868298 259.03500462 142.01125538 263.37687588 142.03401852 C268.94801895 142.0624209 274.51861426 142.05966193 280.08979797 142.04692841 C284.36798709 142.03998096 288.6460491 142.04774954 292.92422199 142.06018543 C294.97876848 142.06470777 297.03332857 142.06502993 299.08787632 142.06112003 C301.95614233 142.05821654 304.82364732 142.07467291 307.69181728 142.09651852 C308.9706403 142.08976604 308.9706403 142.08976604 310.27529812 142.08287716 C315.99349046 142.15540824 315.99349046 142.15540824 318.22500896 143.65820599 C320.046271 146.27755383 319.87502494 148.19008172 319.86678982 151.36609554 C319.87297581 153.20236004 319.87297581 153.20236004 319.87928677 155.07572079 C319.86866937 156.43438082 319.85776494 157.79303863 319.84660244 159.1516943 C319.84575633 160.58068988 319.84623099 162.00968678 319.84792995 163.4386816 C319.84879197 167.32072544 319.83113302 171.20249213 319.81020808 175.08447146 C319.79147557 179.14037824 319.78969355 183.1962911 319.78613186 187.25223446 C319.7768013 194.93391925 319.75217389 202.6154762 319.72208339 210.29710466 C319.68857079 219.04185076 319.67206128 227.78660291 319.65699708 236.53139722 C319.62562518 254.52119442 319.57284509 272.51087256 319.50602627 290.50057125 C326.08596557 290.43288358 332.66534238 290.34282145 339.2447958 290.23812008 C341.47714938 290.20512567 343.70958128 290.1770169 345.94206142 290.1541357 C375.22514528 289.84596174 398.61957646 283.40506117 420.50602627 262.87557125 C439.04643621 243.66096459 447.89736686 218.38558585 447.74040127 191.92952633 C447.26132972 165.46830868 437.44985505 142.04191408 419.38102627 122.87557125 C398.85160572 103.08852196 374.22299817 98.04195018 346.51383877 98.0681982 C344.56075841 98.05915964 342.60768369 98.04882737 340.65461636 98.03731441 C335.40364978 98.00996404 330.15279147 98.00049005 324.90176296 97.99446034 C319.39513342 97.98501895 313.88858296 97.95881131 308.38200283 97.93445492 C297.97734033 97.89094384 287.57269331 97.86230263 277.1679678 97.83913153 C265.31287915 97.81199694 253.45787066 97.76809081 241.60283947 97.72284281 C217.23727865 97.6302172 192.8716927 97.5584358 168.50602627 97.50057125 C168.50830459 98.39391767 168.50830459 98.39391767 168.51062894 99.3053115 C168.60007796 134.57777607 168.66874043 169.85022116 168.71028759 205.12277548 C168.71529061 209.35490877 168.72046788 213.58704182 168.72575283 217.81917477 C168.72680207 218.6617412 168.72785131 219.50430764 168.72893235 220.37240639 C168.74635307 234.02771923 168.77789989 247.68296494 168.81463745 261.33823792 C168.85200058 275.34249189 168.8742523 289.34671063 168.88238025 303.35101241 C168.88787766 311.99733637 168.90526078 320.6434706 168.93769214 329.28973617 C168.95878296 335.21316143 168.9652387 341.13648814 168.96003178 347.05994824 C168.95746146 350.48112534 168.96149095 353.90197015 168.98284817 357.32308865 C169.00261691 361.02699431 168.99801273 364.73007419 168.98704433 368.43399715 C168.9986957 369.52250605 169.01034707 370.61101494 169.0223515 371.73250896 C169.01438731 372.72079966 169.00642312 373.70909035 168.99821758 374.72732925 C169.0004959 376.01059411 169.0004959 376.01059411 169.00282025 377.31978351 C168.50602627 379.50057125 168.50602627 379.50057125 166.71745181 381.29889888 C162.10594339 383.80475864 157.01824354 381.94148279 152.26383877 380.55525875 C123.926844 371.02544537 100.24248442 350.23896278 86.49430752 323.73104 C76.78650989 304.08932347 73.02110513 284.50144552 73.1654501 262.79354 C73.16629865 260.97839529 73.16581678 259.16324955 73.16412258 257.34810543 C73.16327012 252.47308253 73.18077291 247.59828603 73.20184445 242.72331524 C73.22073776 237.60912158 73.22237158 232.49492138 73.22592068 227.3806982 C73.23520427 217.71970571 73.25976759 208.0588164 73.28996915 198.39786911 C73.32362863 187.38925778 73.34002806 176.38064123 73.35505545 165.37199116 C73.38632086 142.74812757 73.43900882 120.12435522 73.50602627 97.50057125 C71.99718868 97.51389492 71.99718868 97.51389492 70.45786953 97.52748775 C60.981982 97.60854644 51.50616473 97.66852355 42.03000927 97.70781994 C37.15809851 97.72870181 32.28646745 97.75703039 27.41471767 97.80232906 C22.71387639 97.84576544 18.01330426 97.86970384 13.31227779 97.88008022 C11.51808083 97.88747557 9.72389873 97.90191692 7.92981625 97.92349148 C5.41811099 97.95249662 2.90752028 97.95652855 0.39567471 97.95467281 C-0.34735401 97.96905392 -1.09038273 97.98343502 -1.85592747 97.99825191 C-5.26023256 97.9710061 -7.16870883 97.7370025 -9.95491028 95.71174526 C-12.30777361 92.33138415 -12.05935881 88.91177285 -12.027421 84.94002438 C-12.03603657 84.07779766 -12.04465214 83.21557095 -12.05352879 82.32721615 C-12.07622311 79.47844543 -12.06944404 76.63065559 -12.06037998 73.78182125 C-12.0656138 71.80171573 -12.07188938 69.82161271 -12.07916355 67.84151363 C-12.08957398 63.69210227 -12.08499666 59.54303372 -12.07038975 55.39363766 C-12.05319541 50.07346693 -12.07670196 44.7543755 -12.11187935 39.43432522 C-12.1338277 35.34565211 -12.13241818 31.25723833 -12.12411404 27.16852474 C-12.12329322 25.20689364 -12.13018147 23.24524374 -12.14488506 21.28366756 C-12.16228507 18.54214036 -12.14782752 15.80256632 -12.12507725 13.06111813 C-12.13676945 12.24956768 -12.14846165 11.43801723 -12.16050816 10.60187435 C-12.09827676 6.92041538 -11.96697925 4.9901791 -9.36058527 2.2923016 C-5.93491027 0.15113745 -4.01696328 0.00037768 0 0 Z M4.50602627 17.50057125 C4.50602627 38.62057125 4.50602627 59.74057125 4.50602627 81.50057125 C10.16243252 81.54955563 15.81883877 81.59854 21.64665127 81.64900875 C25.22870049 81.68439153 28.81072537 81.72034948 32.39274502 81.75838375 C38.07907039 81.81870684 43.76536168 81.876892 49.45182705 81.92244625 C54.03604586 81.95930357 58.6200788 82.00566483 63.20413876 82.05863476 C64.95360207 82.07717632 66.70310522 82.09228517 68.45262814 82.10391521 C70.9019365 82.12078176 73.3508194 82.14981756 75.79997158 82.18172359 C76.52429882 82.18388378 77.24862606 82.18604397 77.99490261 82.18826962 C81.62594186 82.24875011 84.47690659 82.38313461 87.50602627 84.50057125 C89.02244484 87.53340839 88.64155478 90.67619445 88.63059902 94.00272274 C88.63200917 94.78590742 88.63341932 95.5690921 88.6348722 96.37600964 C88.63853871 99.0156111 88.63518267 101.65515928 88.63200283 104.2947607 C88.63339714 106.1821411 88.63529615 108.06952117 88.63766384 109.9569006 C88.64216965 114.03239156 88.64401713 118.10787243 88.64412594 122.18336582 C88.64526637 128.64566882 88.65810938 135.10791467 88.67368984 141.57019711 C88.6762627 142.66153102 88.67883555 143.75286493 88.68148637 144.87726957 C88.68675369 147.10994693 88.69203918 149.34262425 88.6973424 151.57530153 C88.73239557 166.6212819 88.75901723 181.66719315 88.75651455 196.71321774 C88.75491795 206.85710612 88.77115563 217.00080083 88.80722117 227.14462727 C88.82556658 232.50590621 88.83512579 237.8668624 88.82274532 243.22816563 C88.8111717 248.29019835 88.82332697 253.35165792 88.8523798 258.41361523 C88.85893411 260.25438883 88.85730521 262.09521639 88.84608173 263.93596745 C88.68310892 293.12939699 97.99233098 319.46295054 118.50602627 340.50057125 C119.35165127 341.38744625 120.19727627 342.27432125 121.06852627 343.18807125 C121.87290127 343.95119625 122.67727627 344.71432125 123.50602627 345.50057125 C124.29106533 346.27787594 124.29106533 346.27787594 125.09196377 347.07088375 C131.16696648 352.78702554 138.20249183 356.58796352 145.50602627 360.50057125 C146.22274502 360.90662594 146.93946377 361.31268063 147.67790127 361.73104 C149.78989345 362.75921722 149.78989345 362.75921722 153.50602627 362.50057125 C153.5069219 361.6230946 153.5069219 361.6230946 153.50783563 360.72789115 C153.54370457 326.08162695 153.60030491 291.43546048 153.68394722 256.78927837 C153.69396506 252.632252 153.70380913 248.47522524 153.7135458 244.3181982 C153.71645786 243.07677816 153.71645786 243.07677816 153.71942875 241.81027893 C153.75047703 228.39750051 153.76743727 214.98473922 153.77922049 201.57193162 C153.79161743 187.81622721 153.81908575 174.06061288 153.86063933 160.30496532 C153.88581663 151.81223423 153.89914048 143.31965247 153.89745584 134.82688353 C153.89742616 129.0085328 153.91199326 123.19033455 153.93819055 117.37204321 C153.95288546 114.01158399 153.95884018 110.6517019 153.95182896 107.2911768 C153.94524663 103.65288757 153.96297196 100.01552211 153.98704433 96.37732601 C153.97928392 95.30827186 153.9715235 94.2392177 153.96352792 93.13776797 C153.97497551 92.16689425 153.9864231 91.19602053 153.99821758 90.19572639 C153.99973646 89.3554053 154.00125535 88.51508421 154.00282025 87.64929885 C154.50602627 85.50057125 154.50602627 85.50057125 156.30711901 83.73071927 C159.66002169 81.8549846 163.02092915 82.0877398 166.76240444 82.11962032 C167.60250085 82.11494035 168.44259725 82.11026038 169.30815113 82.10543859 C172.12833828 82.09345602 174.94804238 82.10295905 177.7682333 82.11238766 C179.7888559 82.10832298 181.80947628 82.10298168 183.83009243 82.09645748 C189.3268118 82.08275358 194.82336264 82.08809847 200.32008505 82.09759474 C206.08258074 82.10518995 211.84506199 82.09814475 217.60755825 82.09343624 C227.3004658 82.08797216 236.99330489 82.09518102 246.68620205 82.10945797 C257.8558678 82.12572129 269.02536871 82.12054475 280.19503033 82.10397875 C289.80212112 82.09030528 299.40916263 82.08847466 309.01626003 82.09629476 C314.74566551 82.10094751 320.47499396 82.10166399 326.20439434 82.0916853 C331.60692706 82.08293475 337.00925082 82.08918328 342.41176128 82.10636806 C344.38119569 82.11029293 346.35064807 82.10926871 348.32007504 82.10258007 C377.7006682 82.01210225 404.33144523 88.12481316 426.50602627 108.50057125 C426.99554775 108.94771481 427.48506924 109.39485836 427.98942471 109.85555172 C450.98051068 131.08986797 462.30380412 159.46059899 463.79118252 190.434165 C464.60565203 218.83045603 455.59725758 245.60221296 437.50602627 267.50057125 C436.68489346 268.49830563 435.86376064 269.49604 435.01774502 270.52400875 C417.63789219 290.89418977 392.08130204 303.26556292 365.50602627 305.50057125 C357.72171514 305.926009 349.92464091 306.00631295 342.13102627 306.12557125 C334.99477627 306.24932125 327.85852627 306.37307125 320.50602627 306.50057125 C320.50602627 327.29057125 320.50602627 348.08057125 320.50602627 369.50057125 C328.69415127 369.56244625 336.88227627 369.62432125 345.31852627 369.68807125 C349.13121059 369.72903927 349.13121059 369.72903927 353.02091885 369.77083492 C369.53949917 369.87467953 385.52722111 368.91247592 401.38102627 363.87557125 C402.19361904 363.62251217 403.00621181 363.36945309 403.84342861 363.10872555 C441.30396709 351.0338092 474.97286911 326.77908686 496.50602627 293.50057125 C497.08803799 292.61305172 497.08803799 292.61305172 497.68180752 291.7076025 C522.35712667 253.66304689 532.34976052 204.82169867 523.53337002 160.05525875 C523.19838274 158.53536602 522.85564128 157.01716603 522.50602627 155.50057125 C522.31798428 154.65526852 522.12994228 153.80996578 521.93620205 152.93904781 C514.22364366 119.25412692 498.22724631 90.37806938 474.50602627 65.50057125 C473.76739346 64.70908688 473.02876064 63.9176025 472.26774502 63.10213375 C446.69020162 36.44911778 408.52407164 19.08731904 371.68806851 17.3170917 C367.66316767 17.25114808 363.64279554 17.24281049 359.61761379 17.26006222 C358.07436631 17.25918769 356.53111912 17.25743219 354.98787349 17.25488389 C350.79174087 17.25045483 346.59571217 17.25835208 342.39959276 17.26844001 C337.85789193 17.27713702 333.31619622 17.27414996 328.7744894 17.27263546 C320.92044167 17.27159054 313.06642736 17.27782592 305.21238804 17.28911114 C293.85699379 17.30541665 282.50161558 17.3105793 271.1462109 17.31308712 C252.71950935 17.31745632 234.29282559 17.33074433 215.86613369 17.34969234 C197.97420751 17.36807125 180.08228617 17.3822179 162.19035244 17.39070797 C161.08611793 17.39123342 159.98188343 17.39175886 158.84418727 17.39230023 C153.30415638 17.39491045 147.76412546 17.39743783 142.22409451 17.39992404 C96.31805882 17.42063239 50.41204486 17.45639005 4.50602627 17.50057125 Z " fill="#070C31" transform="translate(250.49397373199463,308.4994287490845)"/>
<path d="M0 0 C22.77 0 45.54 0 69 0 C69 69.63 69 139.26 69 211 C46.23 211 23.46 211 0 211 C0 141.37 0 71.74 0 0 Z " fill="#A141EA" transform="translate(486,467)"/>
<path d="M0 0 C22.77 0 45.54 0 69 0 C69 69.63 69 139.26 69 211 C46.23 211 23.46 211 0 211 C0 141.37 0 71.74 0 0 Z M2 1 C2 69.64 2 138.28 2 209 C23.45 209 44.9 209 67 209 C67 140.36 67 71.72 67 1 C45.55 1 24.1 1 2 1 Z " fill="#C752F2" transform="translate(486,467)"/>
<path d="M0 0 C25.74690222 -0.04668458 51.49379811 -0.08197145 77.2407341 -0.10362434 C89.19500899 -0.11394459 101.1492576 -0.12801922 113.10351562 -0.15087891 C123.52071756 -0.17078987 133.93790047 -0.18371099 144.3551209 -0.18817699 C149.8728669 -0.19078826 155.39055846 -0.19694142 160.90828705 -0.21146011 C166.09890619 -0.22500778 171.28944833 -0.22922835 176.48008347 -0.22621536 C178.3876754 -0.22676679 180.29526985 -0.23076095 182.20284653 -0.23841095 C184.80270514 -0.24832813 187.40227117 -0.2459807 190.00213623 -0.24050903 C190.76089263 -0.24633472 191.51964902 -0.2521604 192.30139804 -0.25816262 C196.34710944 -0.23507109 198.26902938 0.13451469 202 2 C136 2 70 2 2 2 C2.03480469 22.17769531 2.06960938 42.35539062 2.10546875 63.14453125 C2.12078872 75.89127681 2.13537208 88.63801674 2.14648438 101.38476562 C2.15235828 108.07788108 2.15841981 114.77099633 2.16479492 121.46411133 C2.16598179 122.72247715 2.16598179 122.72247715 2.16719264 124.00626451 C2.18025211 137.56221517 2.2039099 151.11812778 2.23145839 164.67405585 C2.2594809 178.57887055 2.27616957 192.48366529 2.28226548 206.38850707 C2.28638849 214.97337625 2.2994257 223.55813794 2.3237494 232.14297404 C2.33956769 238.02434053 2.34440926 243.90565118 2.34050413 249.78703741 C2.33857646 253.18385483 2.34159831 256.580484 2.35761642 259.97726822 C2.37244291 263.6547827 2.36898942 267.33182935 2.36076355 271.00935364 C2.36950207 272.09008064 2.3782406 273.17080763 2.38724393 274.28428394 C2.38127078 275.26560784 2.37529764 276.24693175 2.36914349 277.25799274 C2.37028265 278.10742712 2.37142181 278.9568615 2.37259549 279.83203632 C1.9210364 282.45945328 1.03365414 283.3426713 -1 285 C-1.66 284.67 -2.32 284.34 -3 284 C-2.34 283.34 -1.68 282.68 -1 282 C-0.69295915 279.85980639 -0.69295915 279.85980639 -0.73828697 277.34980583 C-0.73082148 276.36350618 -0.72335599 275.37720653 -0.71566427 274.36101902 C-0.717599 273.26959728 -0.71953374 272.17817554 -0.7215271 271.05368042 C-0.7157347 269.9004098 -0.7099423 268.74713919 -0.70397437 267.55892098 C-0.68986517 264.34816231 -0.68474055 261.13753054 -0.68332577 257.92674565 C-0.6796417 254.46796358 -0.66449127 251.00922999 -0.65071106 247.55047607 C-0.62840305 241.55475239 -0.61341111 235.55904588 -0.60334396 229.56328964 C-0.58877794 220.89436669 -0.56324703 212.22550354 -0.53501268 203.55661561 C-0.48950683 189.49300043 -0.45290774 175.42937666 -0.421875 161.36572266 C-0.39170496 147.7016448 -0.35736184 134.03758798 -0.31738281 120.37353516 C-0.31492126 119.53172785 -0.31245972 118.68992054 -0.30992357 117.82260393 C-0.29754927 113.5996369 -0.28509268 109.37667012 -0.27259517 105.15370345 C-0.16897061 70.10249782 -0.07978612 35.05126769 0 0 Z " fill="#9E4EDB" transform="translate(419,406)"/>
<path d="M0 0 C0.99 0.66 1.98 1.32 3 2 C2.71729594 4.41802195 2.42420736 6.8340122 2.125 9.25 C2.04636719 9.93191406 1.96773437 10.61382812 1.88671875 11.31640625 C1.43354167 14.90696311 0.90614262 17.892507 -1 21 C-0.34 21.33 0.32 21.66 1 22 C1 108.13 1 194.26 1 283 C0.34 283 -0.32 283 -1 283 C-1 307.42 -1 331.84 -1 357 C-1.33 357 -1.66 357 -2 357 C-2.04580263 313.39772169 -2.081032 269.79544594 -2.10213066 226.1931483 C-2.104632 221.04258386 -2.10722065 215.89201946 -2.10986328 210.74145508 C-2.1103879 209.71609363 -2.11091252 208.69073219 -2.11145304 207.63429918 C-2.12014973 191.04350074 -2.13591566 174.4527162 -2.15430559 157.861926 C-2.1730251 140.8314472 -2.18412106 123.80097567 -2.18817699 106.77048701 C-2.19091779 96.26633502 -2.19956669 85.76222231 -2.21583293 75.25808241 C-2.22642513 68.04975384 -2.22959557 60.84144551 -2.22700275 53.63310973 C-2.22572495 49.47765052 -2.22764937 45.32225984 -2.23841095 41.1668129 C-2.24821042 37.35484204 -2.24859191 33.54298518 -2.24179779 29.73100885 C-2.24056507 27.71453506 -2.2491306 25.69806243 -2.25816262 23.6816085 C-2.23192403 15.61537046 -1.46102547 7.93320554 0 0 Z " fill="#7562F3" transform="translate(157,255)"/>
<path d="M0 0 C40.00941075 -0.11467535 80.01879991 -0.20266527 120.02834243 -0.25532665 C124.76173377 -0.26157949 129.49512477 -0.26805117 134.22851562 -0.2746582 C135.17076968 -0.27596976 136.11302373 -0.27728131 137.08383094 -0.2786326 C152.30092214 -0.30033448 167.517918 -0.33972693 182.73495282 -0.38576398 C198.37216471 -0.4326744 214.00932697 -0.46032608 229.64660633 -0.47044247 C239.28021925 -0.47727154 248.91356262 -0.498767 258.54709248 -0.53958233 C265.17102215 -0.56620123 271.79481436 -0.57395816 278.41879351 -0.56750689 C282.22920469 -0.56433343 286.03914798 -0.56887436 289.84947395 -0.59602737 C306.83016526 -0.71129289 322.59112558 0.24004175 339 5 C335.89442091 5.84752339 333.74960596 6.00233303 330.55859375 5.4765625 C329.31239258 5.27546875 329.31239258 5.27546875 328.04101562 5.0703125 C327.18185547 4.92335937 326.32269531 4.77640625 325.4375 4.625 C324.57447266 4.48578125 323.71144531 4.3465625 322.82226562 4.203125 C319.43008574 3.644351 316.26851295 3.08950432 313 2 C310.38455161 1.90424961 307.79599964 1.86529621 305.18054199 1.87301636 C304.3756356 1.87145637 303.57072921 1.86989638 302.74143171 1.86828911 C300.035285 1.8642898 297.32919404 1.86746465 294.62304688 1.87060547 C292.68660957 1.86925096 290.75017252 1.86747074 288.81373596 1.86529541 C283.54734481 1.86072704 278.28097319 1.8625082 273.01458168 1.8656745 C267.51065645 1.86820116 262.00673292 1.8658597 256.50280762 1.86428833 C247.25886738 1.86246754 238.01493512 1.86487059 228.77099609 1.86962891 C218.07427757 1.87507135 207.3775781 1.87330863 196.68086004 1.8678025 C187.50715391 1.86326882 178.33345353 1.86262208 169.15974665 1.86524117 C163.67619165 1.86680253 158.19264561 1.86700154 152.70909119 1.86370468 C147.55456078 1.86082228 142.40005501 1.86280851 137.24552727 1.86859894 C135.35041787 1.86992454 133.45530641 1.86953578 131.56019783 1.86733627 C128.97992294 1.86461699 126.39972777 1.86801553 123.81945801 1.87301636 C123.06372608 1.87078564 122.30799415 1.86855491 121.52936125 1.86625659 C118.41111365 1.87803552 115.98212422 2.00595859 113 3 C111.32124327 2.91548791 109.64541753 2.76347531 107.97575378 2.56959534 C102.42421319 2.00239114 96.964603 1.86454391 91.38793945 1.88647461 C90.39146896 1.88632858 89.39499847 1.88618256 88.36833191 1.8860321 C85.11662521 1.88672164 81.86497779 1.89446855 78.61328125 1.90234375 C76.34213797 1.90421134 74.07099429 1.90563363 71.79985046 1.90663147 C65.85367703 1.91042977 59.90752844 1.92023682 53.96136475 1.93133545 C47.88114762 1.94160763 41.80092644 1.94614148 35.72070312 1.95117188 C23.81379123 1.96186175 11.90689769 1.97890553 0 2 C0 1.34 0 0.68 0 0 Z " fill="#725DF6" transform="translate(451,163)"/>
<path d="M0 0 C0.33 0 0.66 0 1 0 C1 91.41 1 182.82 1 277 C-10.1509562 275.1415073 -19.79134725 268.65918918 -28 261 C-28.99 259.515 -28.99 259.515 -30 258 C-25.35098892 260.05650373 -21.68439642 263.34499315 -17.75390625 266.515625 C-14.47927664 268.8971404 -10.94548177 270.48436451 -7.26538086 272.15527344 C-6.0926915 272.68973083 -4.92000214 273.22418823 -3.71177673 273.77484131 C-2.81689041 274.17914368 -1.92200409 274.58344604 -1 275 C-1.00037972 274.42309972 -1.00075944 273.84619945 -1.00115067 273.25181735 C-1.02350955 239.09000321 -1.04067684 204.92819073 -1.05106533 170.76637087 C-1.0523161 166.66814046 -1.05361041 162.56991007 -1.05493164 158.47167969 C-1.05519395 157.65576648 -1.05545626 156.83985326 -1.05572652 155.99921541 C-1.06008252 142.77328438 -1.06796968 129.54735767 -1.0771528 116.32142921 C-1.08649128 102.75901099 -1.09205602 89.19659505 -1.09408849 75.63417375 C-1.09546332 67.25970303 -1.09981171 58.88524454 -1.10791647 50.51077758 C-1.11318632 44.7747336 -1.11480375 39.03869598 -1.11350138 33.30264975 C-1.11285838 29.98905636 -1.11441105 26.67548904 -1.11920547 23.36189842 C-1.12414161 19.77612977 -1.12299856 16.19041453 -1.12025452 12.60464478 C-1.12316736 11.54824157 -1.1260802 10.49183837 -1.12908131 9.40342295 C-1.12709026 8.44847386 -1.12509921 7.49352477 -1.12304783 6.50963783 C-1.12342755 5.68108807 -1.12380727 4.85253831 -1.1241985 3.99888098 C-1 2 -1 2 0 0 Z " fill="#AC5AF5" transform="translate(403,394)"/>
<path d="M0 0 C5.25545454 0.00257776 10.51090756 0.00016977 15.76636219 -0.00138617 C24.63239323 -0.00319938 33.49841592 -0.00083126 42.36444569 0.00395441 C51.31790179 0.00873345 60.2713412 0.00882749 69.22479725 0.00395441 C120.54620439 -0.02334121 171.85055029 0.09016652 223.16278553 1.1343255 C223.16278553 1.7943255 223.16278553 2.4543255 223.16278553 3.1343255 C187.5775507 3.15720572 151.99231716 3.17483079 116.4070765 3.18539083 C112.20756348 3.18664157 108.00805048 3.18793589 103.80853748 3.18925714 C102.9724769 3.18951946 102.13641632 3.18978177 101.27502056 3.19005203 C87.73102321 3.19440538 74.1870301 3.20229111 60.64303527 3.2114783 C46.74950893 3.22082411 32.85598481 3.22638309 18.96245545 3.228414 C10.38684655 3.22978729 1.81124963 3.23412746 -6.76435558 3.24224197 C-12.6419881 3.24752085 -18.51961441 3.24912719 -24.39724912 3.24782688 C-27.79019822 3.2471853 -31.18312636 3.24818082 -34.57607174 3.25353098 C-38.25275107 3.25848534 -41.92937861 3.25731727 -45.60605907 3.25458002 C-47.21841105 3.25894928 -47.21841105 3.25894928 -48.86333579 3.26340681 C-49.84864179 3.26141576 -50.8339478 3.25942472 -51.84911156 3.25737333 C-53.12212396 3.25794291 -53.12212396 3.25794291 -54.42085379 3.258524 C-56.9746349 3.12726223 -59.34527913 2.69495938 -61.83721447 2.1343255 C-61.83721447 1.8043255 -61.83721447 1.4743255 -61.83721447 1.1343255 C-41.24311942 -0.20024795 -20.62625968 -0.01334375 0 0 Z " fill="#C33DDF" transform="translate(540.8372144699097,840.865674495697)"/>
<path d="M0 0 C0.33 0 0.66 0 1 0 C1.85580253 5.933259 2.15352082 11.68963754 2.16494751 17.67976379 C2.17059105 18.62466114 2.1762346 19.56955849 2.18204916 20.54308909 C2.1996784 23.69384146 2.21044229 26.84457855 2.22119141 29.99536133 C2.23241531 32.26125282 2.24404792 34.52714232 2.25605774 36.79302979 C2.28733526 42.94031528 2.31249163 49.08761169 2.3362546 55.23493028 C2.35671997 60.37817997 2.38024728 65.52141377 2.40379179 70.66465014 C2.46255895 83.506716 2.51554716 96.34879624 2.5657609 109.19089773 C2.60666132 119.61321167 2.6529343 130.03549048 2.703125 140.45776367 C2.76154685 152.5894945 2.81624185 164.72123149 2.86572587 176.85300273 C2.89189192 183.2636821 2.91952652 189.67434576 2.9510994 196.08500099 C2.98063002 202.12524311 3.00478489 208.16548452 3.02499962 214.20576477 C3.03322101 216.40861464 3.0432346 218.61145877 3.05528831 220.814291 C3.11037169 231.07038659 3.08676829 241.30055424 2.5640564 251.54570007 C2.50622118 252.68634233 2.50622118 252.68634233 2.44721758 253.85002786 C2.10833314 259.6687578 1.31383799 265.32370966 0 271 C-0.66 270.34 -1.32 269.68 -2 269 C-1.97875977 267.05459595 -1.97875977 267.05459595 -1.62890625 264.54150391 C-0.8052722 257.03736682 -0.88859967 249.58754864 -0.92469788 242.04867363 C-0.93802933 239.22377332 -0.94476467 236.39891617 -0.95007324 233.57398987 C-0.95841711 229.38972091 -0.96914083 225.20546817 -0.98168945 221.02120972 C-1.01527008 209.39827448 -1.02648314 197.77532302 -1.03125 186.15234375 C-1.03179886 184.89168909 -1.03234772 183.63103443 -1.03291321 182.33217812 C-1.04136689 145.74054806 -0.77282783 109.15004371 -0.51822662 72.55947971 C-0.49993055 69.92750918 -0.48173234 67.29553799 -0.46356201 64.66356659 C-0.31467099 43.1090027 -0.16059094 21.55447996 0 0 Z " fill="#D744E7" transform="translate(866,488)"/>
<path d="M0 0 C-6.01875587 2.99417905 -11.94491775 4.88906804 -18.49609375 6.38671875 C-20.97768517 6.89651266 -20.97768517 6.89651266 -23 8 C-37.37755616 9.64604291 -52.0273011 9.23347145 -66.47356653 9.3362546 C-69.30460847 9.35692344 -72.13562483 9.38036975 -74.96664512 9.40379179 C-81.6417994 9.45898449 -88.31697671 9.50978354 -94.9921875 9.55761719 C-101.86116392 9.60690692 -108.73005721 9.66324079 -115.59894955 9.72303832 C-121.52625336 9.77442099 -127.45357992 9.82173167 -133.38094318 9.86572587 C-136.90878227 9.89193409 -140.43659362 9.91960072 -143.9643898 9.9510994 C-147.88654413 9.98588503 -151.80873045 10.0121533 -155.73095703 10.03759766 C-156.89049393 10.04897263 -158.05003082 10.0603476 -159.2447052 10.07206726 C-160.3152565 10.07766159 -161.3858078 10.08325592 -162.48880005 10.08901978 C-163.87626781 10.09951575 -163.87626781 10.09951575 -165.29176521 10.11022377 C-168.26314867 9.98928998 -171.07538721 9.52652205 -174 9 C-176.12297371 8.79080186 -178.24816729 8.60292032 -180.375 8.4375 C-181.43460937 8.35371094 -182.49421875 8.26992188 -183.5859375 8.18359375 C-184.78089844 8.09271484 -184.78089844 8.09271484 -186 8 C-185.67 7.34 -185.34 6.68 -185 6 C-184.24206587 5.99853344 -183.48413174 5.99706688 -182.7032299 5.99555588 C-164.16070981 5.95831419 -145.61837542 5.89907258 -127.07600212 5.81609726 C-118.10860821 5.77648574 -109.14129978 5.74400327 -100.17382812 5.72900391 C-92.34709434 5.71589373 -84.52055007 5.68869447 -76.69392312 5.64538693 C-72.55944201 5.62297992 -68.42519279 5.6070766 -64.2906456 5.60811615 C-45.78844858 5.60778021 -27.77666163 5.36852595 -9.79131699 0.3884201 C-6.09443006 -0.62408652 -3.66132077 -1.13815699 0 0 Z " fill="#CE4AEE" transform="translate(660,688)"/>
<path d="M0 0 C3.20468107 0.63097348 6.01351675 0.1481678 9.21484375 -0.33203125 C11.26171875 -0.5546875 11.26171875 -0.5546875 14.19921875 -0.0546875 C17.08631749 0.41667556 18.85251315 0.2901536 21.69921875 -0.1171875 C28.64573012 -0.96821493 35.40660262 0.33935376 42.26171875 1.4453125 C42.26171875 1.7753125 42.26171875 2.1053125 42.26171875 2.4453125 C-31.32828125 2.4453125 -104.91828125 2.4453125 -180.73828125 2.4453125 C-180.73828125 2.1153125 -180.73828125 1.7853125 -180.73828125 1.4453125 C-170.73947303 1.07312467 -160.73936034 0.74909896 -150.73828125 0.4453125 C-149.87789246 0.41890686 -149.01750366 0.39250122 -148.13104248 0.36529541 C-127.23834176 -0.27032342 -106.42489638 -0.76849868 -85.5324707 0.03198242 C-72.35898996 0.5147386 -59.18637908 0.5958906 -46.00479126 0.62356567 C-43.47106784 0.62968446 -40.93735036 0.63945527 -38.40365601 0.65304565 C-34.82633022 0.67105367 -31.24924113 0.67533795 -27.671875 0.67578125 C-26.06611603 0.68650665 -26.06611603 0.68650665 -24.42791748 0.69744873 C-18.934679 0.6809407 -14.01946614 0.30661933 -8.72694397 -1.21684265 C-5.61093956 -1.74620644 -2.99777952 -0.82661285 0 0 Z " fill="#A540E4" transform="translate(441.73828125,841.5546875)"/>
<path d="M0 0 C0.33 0 0.66 0 1 0 C1.15416095 28.57299996 1.30218611 57.14602606 1.4429636 85.71909523 C1.50847524 98.9869006 1.57597318 112.25469025 1.64819336 125.52246094 C1.71115605 137.09044853 1.77034483 148.65844831 1.82505554 160.22647798 C1.85413827 166.34816397 1.88507432 172.46982761 1.92053413 178.59148026 C1.95389773 184.36156216 1.98218856 190.13164739 2.00670624 195.90177345 C2.01654373 198.01157762 2.028183 200.12137434 2.04183006 202.2311573 C2.11178584 213.20979171 2.03987102 224.05964247 1 235 C0.67 235 0.34 235 0 235 C-1.10799117 227.86944202 -1.14115383 220.8586174 -1.12939453 213.65185547 C-1.1307314 212.30791077 -1.13249072 210.96396643 -1.13463593 209.62002277 C-1.13913735 205.96803063 -1.13733266 202.31606631 -1.13422441 198.66407371 C-1.13232235 195.56981958 -1.13392709 192.47557129 -1.13556135 189.38131732 C-1.13990529 181.11790587 -1.13702939 172.85451176 -1.13056505 164.5911023 C-1.1259152 158.60277755 -1.12352148 152.61445553 -1.12231445 146.62612915 C-1.11053815 97.74580856 -0.94733545 48.87268573 0 0 Z " fill="#A745E6" transform="translate(867,261)"/>
<path d="M0 0 C2.53451965 3.80177947 2.29972509 6.87240883 2.30297852 11.27929688 C2.31141785 12.12347672 2.31985718 12.96765656 2.32855225 13.8374176 C2.35436734 16.6312007 2.36647925 19.42487807 2.37890625 22.21875 C2.39507716 24.15784547 2.41225672 26.09693277 2.43040466 28.03601074 C2.47613392 33.14430975 2.51091603 38.25261962 2.54260254 43.36102295 C2.59443646 51.53822128 2.65958236 59.71529934 2.73081779 67.89234924 C2.75367568 70.75240011 2.76993158 73.6124357 2.78553772 76.47253418 C2.79894382 78.22192553 2.81255857 79.97131529 2.82641602 81.72070312 C2.82902939 82.51871841 2.83164276 83.3167337 2.83433533 84.13893127 C2.86461182 87.35078138 2.97700074 89.93100223 4 93 C45.085 93.495 45.085 93.495 87 94 C87 94.33 87 94.66 87 95 C76.5255329 95.20026888 66.05091862 95.38398134 55.57579517 95.54658794 C50.71172026 95.62261332 45.84788005 95.70432921 40.98413086 95.79907227 C36.28994629 95.89030255 31.59573496 95.96655567 26.90112877 96.03244972 C25.11050029 96.06021145 23.31994693 96.09336031 21.52952003 96.13199425 C19.02072436 96.18520699 16.5123443 96.21922055 14.00317383 96.2487793 C12.89402367 96.27898415 12.89402367 96.27898415 11.76246643 96.30979919 C7.3329925 96.33740322 4.33710513 96.01851872 1 93 C-1.05709001 87.97136689 -1.28391722 83.1059296 -1.24291992 77.74145508 C-1.24481827 76.94706528 -1.24671661 76.15267548 -1.24867249 75.33421326 C-1.25235341 72.7292163 -1.2417163 70.12450308 -1.23046875 67.51953125 C-1.22927553 65.70065849 -1.22882409 63.88178512 -1.2290802 62.06291199 C-1.22752008 58.26105868 -1.21926487 54.45930017 -1.20581055 50.6574707 C-1.18878513 45.78504049 -1.18499754 40.91271393 -1.18575573 36.04025745 C-1.18548387 32.28878287 -1.18000068 28.53733093 -1.17275429 24.78586388 C-1.16957386 22.98892068 -1.16760167 21.19197493 -1.16686058 19.39502907 C-1.16469244 16.88676196 -1.15593896 14.3786048 -1.14526367 11.87036133 C-1.14571686 11.12897919 -1.14617004 10.38759705 -1.14663696 9.62374878 C-1.12580397 6.2760815 -1.04191465 3.20074704 0 0 Z " fill="#7660EF" transform="translate(237,312)"/>
<path d="M0 0 C7.13275914 8.14694646 4.18615272 25.95237614 4.18530273 36.27294922 C4.18748545 39.2302906 4.20569342 42.18725564 4.22460938 45.14453125 C4.31318178 74.8733156 4.31318178 74.8733156 -1 88 C-1.391875 89.175625 -1.78375 90.35125 -2.1875 91.5625 C-2.455625 92.366875 -2.72375 93.17125 -3 94 C-3.66 94 -4.32 94 -5 94 C-5.10957031 94.556875 -5.21914063 95.11375 -5.33203125 95.6875 C-6.29940133 100.34346004 -7.52803948 104.67565949 -9.28125 109.09375 C-9.9624126 110.90031167 -10.48656778 112.7638082 -11 114.625 C-12.00045631 118.00154006 -13.33816318 120.90294048 -15 124 C-15.66 124 -16.32 124 -17 124 C-17.2475 124.639375 -17.495 125.27875 -17.75 125.9375 C-18.81628102 128.5498885 -19.89103001 131.15550678 -21 133.75 C-21.495 134.91789062 -21.495 134.91789062 -22 136.109375 C-23 138 -23 138 -25 139 C-25.65555119 141.52733235 -25.65555119 141.52733235 -26 144 C-26.66 144 -27.32 144 -28 144 C-28.33 144.99 -28.66 145.98 -29 147 C-30.29355827 148.37195574 -31.62298702 149.71182656 -33 151 C-33.66 150.67 -34.32 150.34 -35 150 C-34.12601563 148.77603516 -34.12601563 148.77603516 -33.234375 147.52734375 C-12.96934321 118.5281797 1.22005924 83.34777261 1.1328125 47.55859375 C1.13376923 46.67325455 1.13472595 45.78791534 1.13571167 44.87574768 C1.13638878 43.00920541 1.13456737 41.14266072 1.13037109 39.27612305 C1.12506118 36.46983314 1.13030889 33.66370657 1.13671875 30.85742188 C1.14014662 20.52685439 0.87319748 10.2963708 0 0 Z " fill="#DF53F1" transform="translate(790,467)"/>
<path d="M0 0 C-0.33 0.99 -0.66 1.98 -1 3 C-2.7634375 3.185625 -2.7634375 3.185625 -4.5625 3.375 C-20.83982099 5.08840221 -37.63480391 14.13759019 -49.96484375 24.51953125 C-52.20856357 26.15171899 -54.39508352 27.07129065 -57 28 C-57 28.66 -57 29.32 -57 30 C-57.66 30 -58.32 30 -59 30 C-59.226875 30.556875 -59.45375 31.11375 -59.6875 31.6875 C-61 34 -61 34 -63.375 36.3125 C-65.51280782 38.50120801 -66.61399326 39.90264591 -68 42.5 C-69.32246125 44.97035761 -70.30615162 46.29809499 -72.375 48.3125 C-78.0654275 54.13841387 -81.44871197 61.3461359 -84 69 C-84.66 69 -85.32 69 -86 69 C-86.03738281 69.556875 -86.07476562 70.11375 -86.11328125 70.6875 C-86.72231582 77.75707775 -88.61925845 83.75863099 -92 90 C-92.33 90 -92.66 90 -93 90 C-92.17987614 67.03653178 -75.62510843 43.59507711 -59.5546875 28.2109375 C-44.04949501 14.7920706 -21.39883771 -0.61139536 0 0 Z " fill="#6675F6" transform="translate(251,165)"/>
<path d="M0 0 C0.33 0 0.66 0 1 0 C1.15074184 29.35937957 1.2958574 58.71878254 1.4332476 88.07822772 C1.44951629 91.55369823 1.46583235 95.02916852 1.48217773 98.50463867 C1.48543066 99.19646802 1.48868358 99.88829736 1.49203508 100.60109123 C1.54464267 111.76566272 1.60107826 122.93021168 1.6589582 134.09475694 C1.71837483 145.57236721 1.77352812 157.04999151 1.82505554 168.52764004 C1.85408893 174.96527105 1.88499433 181.40288025 1.92053413 187.8404789 C1.95399968 193.91344323 1.9822561 199.98641062 2.00670624 206.05941772 C2.01651073 208.27516272 2.02813521 210.49090062 2.04183006 212.70662498 C2.10448741 223.00137967 2.09020953 233.26976926 1.56504822 243.55363464 C1.52643159 244.31358429 1.48781497 245.07353394 1.44802815 245.85651237 C1.10829285 251.67274257 0.31329002 257.32607711 -1 263 C-1.66 262.34 -2.32 261.68 -3 261 C-2.67414874 258.58870071 -2.0828199 256.31613355 -1.4669199 253.96516895 C-0.77975559 249.60134066 -0.84626643 245.28104559 -0.84178162 240.86979675 C-0.83684364 239.84055299 -0.83190566 238.81130922 -0.82681805 237.75087625 C-0.81144446 234.29770493 -0.80308276 230.84455221 -0.79467773 227.39135742 C-0.78509911 224.91774329 -0.77508903 222.44413079 -0.76467896 219.97052002 C-0.74322948 214.64274322 -0.72478552 209.31496896 -0.70907402 203.98717308 C-0.6863527 196.2840947 -0.65821302 188.58104359 -0.62875474 180.87798838 C-0.58110656 168.38001537 -0.53783487 155.8820312 -0.49731445 143.3840332 C-0.45794541 131.24405041 -0.41651581 119.10407753 -0.37231445 106.96411133 C-0.36822804 105.84147792 -0.36822804 105.84147792 -0.36405908 104.69616505 C-0.35037937 100.94151621 -0.33665914 97.18686752 -0.32291877 93.43221891 C-0.20899757 62.2881664 -0.1022515 31.14409311 0 0 Z " fill="#C13DDB" transform="translate(867,496)"/>
<path d="M0 0 C0.66 0 1.32 0 2 0 C-1.7624752 15.04990082 -12.16845437 27.34402358 -23 38 C-23.89589844 38.89460937 -24.79179688 39.78921875 -25.71484375 40.7109375 C-43.26743914 57.46451607 -66.66119708 68.1914019 -91 69 C-91.33 68.34 -91.66 67.68 -92 67 C-91.25878906 66.90203125 -90.51757812 66.8040625 -89.75390625 66.703125 C-80.34844907 65.36771125 -71.21661791 63.27380035 -62 61 C-62 60.34 -62 59.68 -62 59 C-61.2575 58.855625 -60.515 58.71125 -59.75 58.5625 C-58.8425 58.376875 -57.935 58.19125 -57 58 C-56.2575 57.855625 -55.515 57.71125 -54.75 57.5625 C-54.1725 57.376875 -53.595 57.19125 -53 57 C-52.505 56.01 -52.505 56.01 -52 55 C-51.01 55 -50.02 55 -49 55 C-48.505 54.01 -48.505 54.01 -48 53 C-47.01 53 -46.02 53 -45 53 C-44.505 52.01 -44.505 52.01 -44 51 C-42.35636866 50.27840576 -40.68949614 49.60648579 -39 49 C-39 48.34 -39 47.68 -39 47 C-37.2421875 46.05598958 -35.484375 45.11197917 -33.7265625 44.16796875 C-31.69497635 42.95236507 -31.69497635 42.95236507 -30 40 C-29.34 40 -28.68 40 -28 40 C-28 39.34 -28 38.68 -28 38 C-27.01 37.01 -27.01 37.01 -26 36 C-25.01 36 -24.02 36 -23 36 C-22.773125 35.2575 -22.54625 34.515 -22.3125 33.75 C-21 31 -21 31 -18.75 29.3125 C-15.24838668 26.36796152 -13.51249454 23.0280903 -11.33203125 19.046875 C-10.89246094 18.37140625 -10.45289063 17.6959375 -10 17 C-9.34 17 -8.68 17 -8 17 C-7.73445312 16.30519531 -7.46890625 15.61039063 -7.1953125 14.89453125 C-5.89396924 11.74323924 -4.41296617 8.72999829 -2.875 5.6875 C-2.33617187 4.61886719 -1.79734375 3.55023437 -1.2421875 2.44921875 C-0.83226562 1.64097656 -0.42234375 0.83273437 0 0 Z " fill="#DB3DDB" transform="translate(858,774)"/>
<path d="M0 0 C13.17986413 -0.11668982 26.35960208 -0.20511463 39.53988075 -0.25906086 C45.66235438 -0.28497367 51.78447038 -0.32003083 57.90673828 -0.37719727 C63.83311774 -0.43217797 69.7591568 -0.46155757 75.68577194 -0.47438622 C77.92842328 -0.48350906 80.17105946 -0.50131705 82.41356277 -0.52865028 C97.61738908 -0.70631844 111.33102725 0.92519923 126 5 C122.89442091 5.84752339 120.74960596 6.00233303 117.55859375 5.4765625 C116.72779297 5.3425 115.89699219 5.2084375 115.04101562 5.0703125 C114.18185547 4.92335937 113.32269531 4.77640625 112.4375 4.625 C111.57447266 4.48578125 110.71144531 4.3465625 109.82226562 4.203125 C106.43008574 3.644351 103.26851295 3.08950432 100 2 C97.21263664 1.91367231 94.45105457 1.88443848 91.6640625 1.90234375 C90.38780754 1.90453415 90.38780754 1.90453415 89.08576965 1.9067688 C87.23603741 1.91057652 85.38630883 1.91669491 83.53659058 1.92483521 C80.60129062 1.93760313 77.66603592 1.94411665 74.73071289 1.94897461 C67.43293945 1.96234758 60.13520846 1.98643278 52.83746338 2.01037598 C46.68198889 2.03019038 40.52653099 2.04580316 34.37103271 2.05593872 C31.49358144 2.06237457 28.61619866 2.074888 25.73876953 2.08764648 C17.10996487 2.11141982 8.57681731 2.10048271 0 1 C0 0.67 0 0.34 0 0 Z " fill="#7E53F4" transform="translate(664,163)"/>
<path d="M0 0 C0.99 0.66 1.98 1.32 3 2 C2.69188262 4.45895618 2.37871012 6.91708307 2.0625 9.375 C1.97548828 10.07367188 1.88847656 10.77234375 1.79882812 11.4921875 C1.11328125 16.7734375 1.11328125 16.7734375 0 19 C-0.10534208 20.82422981 -0.14661165 22.65229075 -0.15821838 24.47952271 C-0.1680072 25.64342529 -0.17779602 26.80732788 -0.18788147 28.00650024 C-0.19363693 29.28971161 -0.1993924 30.57292297 -0.20532227 31.89501953 C-0.21489864 33.2549062 -0.22490858 34.61478988 -0.23532104 35.97467041 C-0.26240227 39.67276204 -0.28339437 43.37086647 -0.30332303 47.06900263 C-0.32516277 50.9314321 -0.35256129 54.79382195 -0.37937927 58.65621948 C-0.42933342 65.97307007 -0.47426213 73.28994261 -0.51740164 80.6068362 C-0.56675078 88.93564986 -0.62167751 97.26442378 -0.67708123 105.59319901 C-0.79094305 122.72876263 -0.89777292 139.86436311 -1 157 C-1.33 157 -1.66 157 -2 157 C-2.04683926 138.44926249 -2.08204707 119.89853707 -2.10362434 101.34775257 C-2.11391188 92.73319833 -2.12792366 84.11868096 -2.15087891 75.50415039 C-2.17089036 67.99073198 -2.18373475 60.4773403 -2.18817699 52.96389598 C-2.1907713 48.99013152 -2.19681575 45.01644346 -2.21146011 41.04270363 C-2.22516696 37.29251024 -2.22919655 33.54242378 -2.22621536 29.79220772 C-2.22701673 27.7800878 -2.23770909 25.76797918 -2.24884033 23.75588989 C-2.23074244 15.66245197 -1.46906464 7.95944873 0 0 Z " fill="#6560ED" transform="translate(157,255)"/>
<path d="M0 0 C0.33 0 0.66 0 1 0 C1 20.79 1 41.58 1 63 C19.48 63 37.96 63 57 63 C57 63.33 57 63.66 57 64 C51.10217988 65.28542233 45.25992091 65.12621861 39.2578125 65.09765625 C38.13430389 65.0962413 37.01079529 65.09482635 35.85324097 65.09336853 C32.27713317 65.08778664 28.70108877 65.07523741 25.125 65.0625 C22.69531341 65.05748266 20.26562583 65.05292016 17.8359375 65.04882812 C11.89060349 65.03782314 5.94530628 65.02110301 0 65 C-1.37995495 62.2400901 -1.07708228 60.07725626 -1.02172852 56.98974609 C-1.00163223 55.72858978 -0.98153595 54.46743347 -0.96083069 53.1680603 C-0.93363228 51.7865172 -0.90632147 50.40497631 -0.87890625 49.0234375 C-0.85460749 47.61382807 -0.83076381 46.20421072 -0.80735779 44.79458618 C-0.74449244 41.08238724 -0.67543282 37.37032818 -0.60510254 33.65826416 C-0.53444117 29.8711993 -0.46961107 26.08403518 -0.40429688 22.296875 C-0.27525297 14.86447355 -0.13966806 7.43221019 0 0 Z " fill="#1B0C3A" transform="translate(570,615)"/>
<path d="M0 0 C1.70224112 4.07506208 0.11682851 7.40411932 -1.3125 11.3125 C-1.76842173 12.59973201 -2.22285672 13.88749159 -2.67578125 15.17578125 C-2.89830566 15.80436035 -3.12083008 16.43293945 -3.35009766 17.08056641 C-4.34679732 20.0242376 -5.17450648 23.0041949 -6 26 C-6.66 26 -7.32 26 -8 26 C-7.92007813 26.70511719 -7.84015625 27.41023437 -7.7578125 28.13671875 C-8.08060326 31.95293854 -9.58827473 33.77302709 -11.875 36.8125 C-12.59429688 37.78832031 -13.31359375 38.76414062 -14.0546875 39.76953125 C-14.69664062 40.50558594 -15.33859375 41.24164062 -16 42 C-16.66 42 -17.32 42 -18 42 C-18.33 43.32 -18.66 44.64 -19 46 C-19.66 46 -20.32 46 -21 46 C-21.07347656 46.5775 -21.14695312 47.155 -21.22265625 47.75 C-22.2739818 50.79303274 -23.96322646 51.97307512 -26.4375 54 C-29.51646096 56.53038204 -31.31880557 58.41144148 -33 62 C-37.28571429 65 -37.28571429 65 -40 65 C-38.51888526 61.39728847 -36.54822921 59.5804637 -33.5625 57.125 C-16.1745856 41.76651077 -7.14170958 21.59121501 0 0 Z " fill="#C54AE9" transform="translate(712,529)"/>
<path d="M0 0 C0.33 0 0.66 0 1 0 C1.50574443 25.88374075 0.91946635 51.97082549 -10 76 C-11 74 -11 74 -10.12890625 71.328125 C-9.75636719 70.22984375 -9.38382813 69.1315625 -9 68 C-8.5976057 65.59089423 -8.24425929 63.17314064 -7.9375 60.75 C-7.101983 54.20396601 -7.101983 54.20396601 -6 52 C-5.34 52 -4.68 52 -4 52 C-4.02320313 51.34257813 -4.04640625 50.68515625 -4.0703125 50.0078125 C-4.19617814 43.37289522 -3.78974724 36.89965655 -3.0625 30.3125 C-2.97564941 29.51021973 -2.88879883 28.70793945 -2.79931641 27.88134766 C-2.12938977 22.12938977 -2.12938977 22.12938977 -1 21 C-0.84313751 19.44051458 -0.74923361 17.87457332 -0.68359375 16.30859375 C-0.64169922 15.36435547 -0.59980469 14.42011719 -0.55664062 13.44726562 C-0.49766602 11.95743164 -0.49766602 11.95743164 -0.4375 10.4375 C-0.39431641 9.44041016 -0.35113281 8.44332031 -0.30664062 7.41601562 C-0.20019702 4.9441585 -0.09818072 2.4721969 0 0 Z " fill="#D650EF" transform="translate(775,490)"/>
<path d="M0 0 C0.33 0 0.66 0 1 0 C1.33 23.1 1.66 46.2 2 70 C-9.1509562 68.1415073 -18.79134725 61.65918918 -27 54 C-27.66 53.01 -28.32 52.02 -29 51 C-24.35098892 53.05650373 -20.68439642 56.34499315 -16.75390625 59.515625 C-11.53367795 62.97042749 -5.68374189 65.37673451 0 68 C0 45.56 0 23.12 0 0 Z " fill="#C657F7" transform="translate(402,601)"/>
<path d="M0 0 C0 5.65462194 -5.42798735 9.4224908 -9.234375 13.2421875 C-20.34287259 23.73354634 -36.61533746 34.54964863 -52.4375 35.125 C-53.283125 35.08375 -54.12875 35.0425 -55 35 C-51.27534407 32.99109993 -47.50856077 31.96493618 -43.4375 30.87890625 C-40.8301263 29.93874746 -39.15856919 28.71544828 -37 27 C-33.01103182 24.72058961 -28.88778043 22.91253236 -24.5625 21.375 C-20.93694489 20.43505738 -20.93694489 20.43505738 -20 18 C-19.01 17.67 -18.02 17.34 -17 17 C-16.67 16.34 -16.34 15.68 -16 15 C-15.29875 14.608125 -14.5975 14.21625 -13.875 13.8125 C-9.25385435 10.89916905 -4.75645659 7.26936978 -3 2 C-2.01 1.34 -1.02 0.68 0 0 Z " fill="#D953F0" transform="translate(677,562)"/>
<path d="M0 0 C6.14407216 2.19116552 10.8562795 6.0754303 16 10 C17.25103516 10.93779297 17.25103516 10.93779297 18.52734375 11.89453125 C31.16603027 21.76789653 42.88997803 33.36016416 52.1875 46.4375 C52.69853271 47.15292969 53.20956543 47.86835938 53.73608398 48.60546875 C55.10546875 50.62109375 55.10546875 50.62109375 57 54 C56.67 54.99 56.34 55.98 56 57 C55.27296875 55.92363281 54.5459375 54.84726562 53.796875 53.73828125 C47.18004956 44.07633853 40.18697936 35.36266562 32 27 C31.31550781 26.26523437 30.63101563 25.53046875 29.92578125 24.7734375 C21.79878346 16.22049643 12.05918594 9.37463816 1.94921875 3.375 C1.30597656 2.92125 0.66273438 2.4675 0 2 C0 1.34 0 0.68 0 0 Z " fill="#060416" transform="translate(692,347)"/>
<path d="M0 0 C0.33 0 0.66 0 1 0 C1.17054587 7.76959012 1.32995636 15.53935566 1.48217773 23.30932617 C1.53428174 25.94418542 1.5903176 28.57887459 1.64819336 31.21362305 C2.53358054 71.73355981 2.53358054 71.73355981 -1 87 C-1.66 86.34 -2.32 85.68 -3 85 C-2.6875 82.6875 -2.6875 82.6875 -2 80 C-0.99901439 75.84188912 -0.8305261 71.8037771 -0.79467773 67.54760742 C-0.78477814 66.8153595 -0.77487854 66.08311157 -0.76467896 65.32867432 C-0.73322375 62.92097143 -0.70837011 60.51324884 -0.68359375 58.10546875 C-0.6630104 56.43109133 -0.64201357 54.75671895 -0.62062073 53.08235168 C-0.56554262 48.68478484 -0.51607071 44.28717221 -0.46777344 39.88952637 C-0.41745401 35.39831488 -0.36182255 30.90716953 -0.30664062 26.41601562 C-0.19923359 17.61073307 -0.09775018 8.80539503 0 0 Z " fill="#D23CD6" transform="translate(867,672)"/>
<path d="M0 0 C0.99 0 1.98 0 3 0 C2.76577818 2.90036387 2.52603836 5.80005286 2.27734375 8.69921875 C2.10917567 10.70065573 1.95231196 12.70314499 1.81640625 14.70703125 C1.36680521 20.53349375 0.03900855 25.53836995 -2 31 C-2.391875 32.175625 -2.78375 33.35125 -3.1875 34.5625 C-3.455625 35.366875 -3.72375 36.17125 -4 37 C-6.57954195 29.26137414 -3.28727574 19.22563912 -1.9375 11.375 C-1.75123047 10.27542969 -1.56496094 9.17585937 -1.37304688 8.04296875 C-0.91835544 5.36145514 -0.46062096 2.68050027 0 0 Z " fill="#C849E9" transform="translate(791,524)"/>
<path d="M0 0 C-5.625 3 -5.625 3 -9 3 C-9 3.66 -9 4.32 -9 5 C-16.34937998 7.86501253 -23.14120137 8.64775091 -31 9 C-31.66 8.01 -32.32 7.02 -33 6 C-32.175 5.91363281 -31.35 5.82726562 -30.5 5.73828125 C-22.69810226 4.78916646 -15.65108411 3.17961812 -8.24414062 0.58911133 C-3.29774761 -1.0992492 -3.29774761 -1.0992492 0 0 Z " fill="#CA4BE8" transform="translate(649,608)"/>
<path d="M0 0 C13.24122952 5.69645572 21.62462222 22.37785302 27.3203125 34.79296875 C28 37 28 37 27 40 C27 39.34 27 38.68 27 38 C25.515 37.505 25.515 37.505 24 37 C23.90460937 36.14664063 23.80921875 35.29328125 23.7109375 34.4140625 C21.50946357 23.84214922 13.83574221 15.16081448 6.515625 7.62109375 C4.17568563 5.18305133 2.06694435 2.67060801 0 0 Z " fill="#D55FF4" transform="translate(664,427)"/>
<path d="M0 0 C1.20086231 3.60258694 0.764089 4.1460181 -0.80859375 7.46484375 C-1.22254395 8.34245361 -1.63649414 9.22006348 -2.06298828 10.12426758 C-2.51657715 11.05263428 -2.97016602 11.98100098 -3.4375 12.9375 C-4.1178833 14.35035278 -4.1178833 14.35035278 -4.81201172 15.79174805 C-8.33085231 22.95813725 -12.23884139 29.57642567 -17 36 C-17.33 35.34 -17.66 34.68 -18 34 C-17.06421005 31.64018187 -16.06652192 29.30368736 -15 27 C-14.34 27 -13.68 27 -13 27 C-12.34 24.03 -11.68 21.06 -11 18 C-9.68 17.67 -8.36 17.34 -7 17 C-5.95103425 14.44776515 -5.95103425 14.44776515 -5 11 C-3.40009105 7.30243265 -1.70226969 3.65143345 0 0 Z " fill="#DD52F0" transform="translate(763,567)"/>
<path d="M0 0 C1.43704345 3.42153203 0.63588387 5.71846548 -0.69018555 9.07739258 C-1.0910437 10.02908325 -1.0910437 10.02908325 -1.5 11 C-1.77046143 11.65701904 -2.04092285 12.31403809 -2.31958008 12.9909668 C-9.14309543 29.09539695 -9.14309543 29.09539695 -15 33 C-14.505 28.545 -14.505 28.545 -14 24 C-13.01 23.67 -12.02 23.34 -11 23 C-10.34 22.01 -9.68 21.02 -9 20 C-8.34 20 -7.68 20 -7 20 C-6.74476563 19.21689453 -6.74476563 19.21689453 -6.484375 18.41796875 C-4.44759342 12.2317864 -2.25037295 6.11141892 0 0 Z " fill="#D351F0" transform="translate(694,528)"/>
<path d="M0 0 C8.41048962 1.45342563 16.00571995 9.72634907 22.375 15.125 C22.95749512 15.61524658 23.53999023 16.10549316 24.14013672 16.6105957 C27.85035832 19.80429207 30.95920244 23.16198959 34 27 C33.01 27 32.02 27 31 27 C30.67 26.01 30.34 25.02 30 24 C28.68024086 23.30684919 27.34490535 22.64300219 26 22 C24.87633907 20.91527781 23.79668291 19.78417686 22.75 18.625 C17.01205978 12.69070441 10.23188364 8.03099478 3.56884766 3.20166016 C2 2 2 2 0 0 Z " fill="#070418" transform="translate(706,340)"/>
<path d="M0 0 C0.99 0.66 1.98 1.32 3 2 C2.69188262 4.45895618 2.37871012 6.91708307 2.0625 9.375 C1.97548828 10.07367188 1.88847656 10.77234375 1.79882812 11.4921875 C1.11328125 16.7734375 1.11328125 16.7734375 0 19 C-0.15344209 20.88472859 -0.24959571 22.77427874 -0.31640625 24.6640625 C-0.35830078 25.78554688 -0.40019531 26.90703125 -0.44335938 28.0625 C-0.48267578 29.238125 -0.52199219 30.41375 -0.5625 31.625 C-0.60568359 32.80835938 -0.64886719 33.99171875 -0.69335938 35.2109375 C-0.79967426 38.14050328 -0.90170642 41.07015588 -1 44 C-1.33 44 -1.66 44 -2 44 C-2.05022543 39.82317579 -2.0861004 35.64652132 -2.10986328 31.46948242 C-2.11979131 30.05473765 -2.13333825 28.64001266 -2.15087891 27.2253418 C-2.26249384 17.97771618 -1.73959592 9.11865977 0 0 Z " fill="#6266EC" transform="translate(157,255)"/>
<path d="M0 0 C15.76665465 -0.70991449 29.78767857 0.77996691 45 5 C41.91638788 5.956152 39.66463282 5.99125064 36.48828125 5.4765625 C35.64845703 5.3425 34.80863281 5.2084375 33.94335938 5.0703125 C32.64108398 4.84988281 32.64108398 4.84988281 31.3125 4.625 C30.43271484 4.48578125 29.55292969 4.3465625 28.64648438 4.203125 C22.13953773 3.13953773 22.13953773 3.13953773 21 2 C19.44051458 1.84313751 17.87457332 1.74923361 16.30859375 1.68359375 C15.36435547 1.64169922 14.42011719 1.59980469 13.44726562 1.55664062 C12.45404297 1.51732422 11.46082031 1.47800781 10.4375 1.4375 C9.44041016 1.39431641 8.44332031 1.35113281 7.41601562 1.30664062 C4.9441585 1.20019702 2.4721969 1.09818072 0 1 C0 0.67 0 0.34 0 0 Z " fill="#804DEB" transform="translate(745,163)"/>
<path d="M0 0 C5.95233879 0.8717384 9.82883609 6.03126022 14 10 C14.7940625 10.74121094 15.588125 11.48242188 16.40625 12.24609375 C21.72846662 17.35870252 25.98416678 22.81484208 30 29 C29.01 29 28.02 29 27 29 C25.08984375 26.7265625 25.08984375 26.7265625 22.9375 23.625 C16.89732703 15.21051769 9.91849041 8.00242513 1.3984375 2.05859375 C0.93695312 1.70925781 0.47546875 1.35992187 0 1 C0 0.67 0 0.34 0 0 Z " fill="#050311" transform="translate(667,410)"/>
<path d="M0 0 C0.42667969 0.32871094 0.85335938 0.65742187 1.29296875 0.99609375 C11.44024632 8.7163936 21.38661747 15.66412154 33 21 C31.40234375 21.70703125 31.40234375 21.70703125 29 22 C21.36623946 18.68573369 14.36708158 13.7594731 7.75 8.75 C7.20158447 8.33838623 6.65316895 7.92677246 6.08813477 7.50268555 C3.24600401 5.27913354 1.28260924 3.40986358 0 0 Z " fill="#060415" transform="translate(369,650)"/>
<path d="M0 0 C-6.01875587 2.99417905 -11.94491775 4.88906804 -18.49609375 6.38671875 C-20.97768517 6.89651266 -20.97768517 6.89651266 -23 8 C-23.33 7.01 -23.66 6.02 -24 5 C-20.94299387 1.94299387 -17.26564387 1.7099635 -13.125 0.8125 C-12.30902344 0.62236328 -11.49304688 0.43222656 -10.65234375 0.23632812 C-9.46705078 -0.02567383 -9.46705078 -0.02567383 -8.2578125 -0.29296875 C-7.5373877 -0.4530542 -6.81696289 -0.61313965 -6.07470703 -0.77807617 C-3.79475966 -1.02195381 -2.17416288 -0.68237244 0 0 Z " fill="#CD4AE8" transform="translate(660,688)"/>
<path d="M0 0 C0.33 0.66 0.66 1.32 1 2 C-4.30513265 9.09841692 -9.50448331 15.92810397 -16 22 C-16 18.67941669 -15.56938028 16.91456338 -14 14 C-11.375 12.6875 -11.375 12.6875 -9 12 C-9 11.34 -9 10.68 -9 10 C-8.01 9.34 -7.02 8.68 -6 8 C-5.67 7.01 -5.34 6.02 -5 5 C-4.34 4.67 -3.68 4.34 -3 4 C-2.67 3.01 -2.34 2.02 -2 1 C-1.34 0.67 -0.68 0.34 0 0 Z " fill="#DB50EF" transform="translate(743,604)"/>
<path d="M0 0 C1.70224112 4.07506208 0.11682851 7.40411932 -1.3125 11.3125 C-1.76842173 12.59973201 -2.22285672 13.88749159 -2.67578125 15.17578125 C-2.89830566 15.80436035 -3.12083008 16.43293945 -3.35009766 17.08056641 C-4.34679732 20.0242376 -5.17450648 23.0041949 -6 26 C-6.66 26 -7.32 26 -8 26 C-8.99 28.475 -8.99 28.475 -10 31 C-11 28 -11 28 -9.9609375 25.390625 C-9.43757812 24.35421875 -8.91421875 23.3178125 -8.375 22.25 C-4.88954222 15.02663305 -2.38967066 7.64483135 0 0 Z " fill="#DB54EF" transform="translate(712,529)"/>
<path d="M0 0 C2 1 2 1 3.21875 4.09765625 C3.65463658 5.41639359 4.0812195 6.73823108 4.5 8.0625 C4.72067139 8.74626709 4.94134277 9.43003418 5.16870117 10.13452148 C9.34007017 23.19859667 9.34007017 23.19859667 9 30 C6.99902872 26.27405349 5.9188728 22.49337258 4.78125 18.4375 C4.07267606 16.00793754 4.07267606 16.00793754 2.94140625 13.90234375 C1.52995783 11.05016375 1.38553782 8.13937943 1 5 C0.68033861 3.33065717 0.35268934 1.6626783 0 0 Z " fill="#D156F0" transform="translate(763,436)"/>
<path d="M0 0 C1.9375 0.6875 1.9375 0.6875 4 2 C4.11730469 2.71542969 4.23460937 3.43085937 4.35546875 4.16796875 C5.20548648 7.90289516 7.17196682 10.57142869 9.375 13.625 C9.77460938 14.19734375 10.17421875 14.7696875 10.5859375 15.359375 C12.54048109 18.12402547 14.49050447 20.71716858 17 23 C16.67 23.66 16.34 24.32 16 25 C0 8.53191489 0 8.53191489 0 0 Z " fill="#C35CF1" transform="translate(351,622)"/>
<path d="M0 0 C0.66 0.33 1.32 0.66 2 1 C-5.26277372 8.26277372 -5.26277372 8.26277372 -9.875 10.0625 C-11.17050781 10.57490234 -11.17050781 10.57490234 -12.4921875 11.09765625 C-14.65359745 11.87535983 -16.76183502 12.49511162 -19 13 C-16.42157528 10.07362177 -13.44200355 8.40488704 -10.0625 6.5 C-6.53149952 4.50478783 -3.18426751 2.51672227 0 0 Z " fill="#DB53F2" transform="translate(669,594)"/>
<path d="M0 0 C0.33 0.66 0.66 1.32 1 2 C3.64 2 6.28 2 9 2 C8.67 2.66 8.34 3.32 8 4 C0.41 4 -7.18 4 -15 4 C-15 3.34 -15 2.68 -15 2 C-10.05 2 -5.1 2 0 2 C0 1.34 0 0.68 0 0 Z " fill="#6372F8" transform="translate(287,161)"/>
<path d="M0 0 C0.66 0.33 1.32 0.66 2 1 C-2.42012051 6.84087353 -6.23608249 9.22196245 -13 12 C-14.34013497 12.65288627 -15.67741528 13.31225595 -17 14 C-17 13.34 -17 12.68 -17 12 C-15.54711914 10.77905273 -15.54711914 10.77905273 -13.53515625 9.43359375 C-12.45911133 8.7055957 -12.45911133 8.7055957 -11.36132812 7.96289062 C-10.60271484 7.45951172 -9.84410156 6.95613281 -9.0625 6.4375 C-7.5737254 5.43693159 -6.08541934 4.43566557 -4.59765625 3.43359375 C-3.93258057 2.99072021 -3.26750488 2.54784668 -2.58227539 2.09155273 C-1.03252619 1.09269727 -1.03252619 1.09269727 0 0 Z " fill="#E052F1" transform="translate(718,655)"/>
<path d="M0 0 C3.88146462 1.3140375 6.18819881 2.84763705 9 5.8125 C9.68320312 6.52535156 10.36640625 7.23820312 11.0703125 7.97265625 C11.70710937 8.64167969 12.34390625 9.31070312 13 10 C13.94875 10.9075 14.8975 11.815 15.875 12.75 C17.8337039 14.82392178 18.8133789 16.45571331 20 19 C14.70739391 14.58949493 9.82408159 9.91491157 5 5 C4.001207 3.99879446 3.00141343 2.99858457 2 2 C1.34 1.34 0.68 0.68 0 0 Z " fill="#080418" transform="translate(659,421)"/>
<path d="M0 0 C0.66 0.33 1.32 0.66 2 1 C-3.0570671 4.63678443 -8.16001191 8.18893972 -13.4375 11.5 C-14.24058594 12.0053125 -15.04367187 12.510625 -15.87109375 13.03125 C-18 14 -18 14 -21 13 C-20.13375 12.51789062 -19.2675 12.03578125 -18.375 11.5390625 C-16.704375 10.59160156 -16.704375 10.59160156 -15 9.625 C-13.88625 8.99851562 -12.7725 8.37203125 -11.625 7.7265625 C-10.75875 7.15679688 -9.8925 6.58703125 -9 6 C-9 5.34 -9 4.68 -9 4 C-7.6078125 3.566875 -7.6078125 3.566875 -6.1875 3.125 C-2.90208333 2.1125 -2.90208333 2.1125 0 0 Z " fill="#E758F2" transform="translate(701,646)"/>
<path d="M0 0 C0.66 0.33 1.32 0.66 2 1 C0.576875 2.36125 0.576875 2.36125 -0.875 3.75 C-2.70769295 5.56560491 -3.92949725 6.85484728 -5.0625 9.1875 C-6.43404183 11.83914754 -8.38316752 12.69158376 -11 14 C-11.66 14 -12.32 14 -13 14 C-11.45493286 10.14174662 -9.04184365 8.01484232 -5.9375 5.3125 C-5.03902344 4.52488281 -4.14054688 3.73726562 -3.21484375 2.92578125 C-2.48394531 2.29027344 -1.75304687 1.65476562 -1 1 C-0.67 0.67 -0.34 0.34 0 0 Z " fill="#D951F2" transform="translate(685,580)"/>
<path d="M0 0 C0.66 0.33 1.32 0.66 2 1 C-1.18025577 4.68405866 -4.201622 6.11258392 -8.75 7.75 C-9.92046875 8.17796875 -11.0909375 8.6059375 -12.296875 9.046875 C-13.63492188 9.51867187 -13.63492188 9.51867187 -15 10 C-15 9.34 -15 8.68 -15 8 C-12.54665445 6.63603538 -10.08808766 5.28365831 -7.625 3.9375 C-6.92632813 3.54755859 -6.22765625 3.15761719 -5.5078125 2.75585938 C-3.70389816 1.77584822 -1.85416518 0.88124929 0 0 Z " fill="#DB50EF" transform="translate(698,669)"/>
<path d="M0 0 C0.33 0.66 0.66 1.32 1 2 C0.01 3.485 0.01 3.485 -1 5 C-1.38499891 6.65549531 -1.72793135 8.3222433 -2 10 C-2.66 10 -3.32 10 -4 10 C-4.33 10.99 -4.66 11.98 -5 13 C-6.29355827 14.37195574 -7.62298702 15.71182656 -9 17 C-9.66 16.67 -10.32 16.34 -11 16 C-7.37 10.72 -3.74 5.44 0 0 Z " fill="#DE52EF" transform="translate(766,601)"/>
<path d="M0 0 C3.53548434 3.13495016 5.35051934 6.28314268 7.3125 10.5625 C7.84488281 11.69816406 8.37726562 12.83382813 8.92578125 14.00390625 C10 17 10 17 9 20 C9 19.34 9 18.68 9 18 C8.01 17.67 7.02 17.34 6 17 C5.9071875 15.7934375 5.9071875 15.7934375 5.8125 14.5625 C4.88043961 10.47577367 3.20035815 7.52070989 1.05859375 3.953125 C0 2 0 2 0 0 Z " fill="#CC58F2" transform="translate(682,447)"/>
<path d="M0 0 C3.17175425 3.43535849 3.45766505 6.15330091 3.6875 10.75 C3.75324219 11.92046875 3.81898438 13.0909375 3.88671875 14.296875 C3.92410156 15.18890625 3.96148438 16.0809375 4 17 C3.01 16.34 2.02 15.68 1 15 C0.61588725 12.390379 0.39706803 9.9941926 0.3125 7.375 C0.27833984 6.66859375 0.24417969 5.9621875 0.20898438 5.234375 C0.12648692 3.49014312 0.06156665 1.74509605 0 0 Z " fill="#C84DEC" transform="translate(790,467)"/>
<path d="M0 0 C0.33 4.29 0.66 8.58 1 13 C0.01 13.33 -0.98 13.66 -2 14 C-2.33 9.71 -2.66 5.42 -3 1 C-1 0 -1 0 0 0 Z " fill="#AB44DB" transform="translate(716,480)"/>
<path d="M0 0 C3.15282724 1.42089299 5.53777964 3.15031851 8.125 5.4375 C8.80820312 6.03433594 9.49140625 6.63117188 10.1953125 7.24609375 C12 9 12 9 14 12 C13.01 12 12.02 12 11 12 C10.67 11.01 10.34 10.02 10 9 C8.6756885 8.31558691 7.34107242 7.65095851 6 7 C4.296875 5.2734375 4.296875 5.2734375 2.75 3.375 C2.22921875 2.74335938 1.7084375 2.11171875 1.171875 1.4609375 C0.78515625 0.97882813 0.3984375 0.49671875 0 0 Z " fill="#0B0725" transform="translate(726,355)"/>
<path d="M0 0 C1.485 0.99 1.485 0.99 3 2 C2.7186941 4.45993028 2.42547269 6.91740248 2.125 9.375 C2.04636719 10.07367188 1.96773437 10.77234375 1.88671875 11.4921875 C1.2265625 16.7734375 1.2265625 16.7734375 -1 19 C-1.0272616 16.95840905 -1.04651345 14.91671037 -1.0625 12.875 C-1.07410156 11.73804688 -1.08570313 10.60109375 -1.09765625 9.4296875 C-1.005327 6.1870844 -0.61389906 3.18067388 0 0 Z " fill="#6975F6" transform="translate(157,255)"/>
<path d="M0 0 C0.66 0.33 1.32 0.66 2 1 C0.5625 2.5625 0.5625 2.5625 -2 4 C-5.07129699 4.0644328 -8.03042686 3.80112216 -11 3 C-11.33 2.34 -11.66 1.68 -12 1 C-11.21753906 1.01160156 -10.43507813 1.02320313 -9.62890625 1.03515625 C-8.61699219 1.04417969 -7.60507812 1.05320312 -6.5625 1.0625 C-5.04849609 1.07990234 -5.04849609 1.07990234 -3.50390625 1.09765625 C-1.05978933 1.28612676 -1.05978933 1.28612676 0 0 Z " fill="#09051C" transform="translate(417,687)"/>
<path d="M0 0 C0.66 0 1.32 0 2 0 C1.49202991 4.3177458 0.80317221 8.03302114 -1 12 C-1.66 11.67 -2.32 11.34 -3 11 C-2.01 7.37 -1.02 3.74 0 0 Z " fill="#D93DDA" transform="translate(862,762)"/>
<path d="M0 0 C2 3 2 3 2.875 6.125 C3.24625 7.07375 3.6175 8.0225 4 9 C6.03243548 9.96877057 6.03243548 9.96877057 8 10 C8 10.66 8 11.32 8 12 C3.25 10.125 3.25 10.125 1 9 C0.5859375 6.93359375 0.5859375 6.93359375 0.375 4.4375 C0.30023438 3.61121094 0.22546875 2.78492188 0.1484375 1.93359375 C0.09945312 1.29550781 0.05046875 0.65742188 0 0 Z " fill="#896EF6" transform="translate(237,396)"/>
<path d="M0 0 C0.66 0 1.32 0 2 0 C4.29612756 9.41002278 4.29612756 9.41002278 4 14 C1.37548383 11.37548383 1.4167132 9.5122172 0.875 5.875 C0.70742188 4.77929688 0.53984375 3.68359375 0.3671875 2.5546875 C0.24601563 1.71164062 0.12484375 0.86859375 0 0 Z " fill="#BD4DEC" transform="translate(782,434)"/>
<path d="M0 0 C2.9375 1.625 2.9375 1.625 6 4 C6.875 7.25 6.875 7.25 7 10 C3.60582235 6.87378374 1.3937282 4.43458973 0 0 Z " fill="#C356F1" transform="translate(691,430)"/>
<path d="M0 0 C0.66 0.33 1.32 0.66 2 1 C0.8803014 2.00593243 -0.2459412 3.0045849 -1.375 4 C-2.00148438 4.556875 -2.62796875 5.11375 -3.2734375 5.6875 C-5 7 -5 7 -7 7 C-7 6.01 -7 5.02 -7 4 C-6.030625 3.525625 -5.06125 3.05125 -4.0625 2.5625 C-1.19522563 1.29806053 -1.19522563 1.29806053 0 0 Z " fill="#DF53F1" transform="translate(711,638)"/>
<path d="M0 0 C0.75 1.5625 0.75 1.5625 1 4 C-0.13084437 6.50286409 -1.52139516 8.67007722 -3 11 C-4.46841427 8.06317146 -3.76696084 6.13175678 -3 3 C-1.4375 1.125 -1.4375 1.125 0 0 Z " fill="#BE41E4" transform="translate(778,580)"/>
<path d="M0 0 C2.125 0.375 2.125 0.375 4 1 C-2.14285714 6.57142857 -2.14285714 6.57142857 -7 7 C-4.66666667 4.66666667 -2.33333333 2.33333333 0 0 Z " fill="#C548E9" transform="translate(649,584)"/>
<path d="M0 0 C0.66 0.33 1.32 0.66 2 1 C-2.455 3.97 -2.455 3.97 -7 7 C-7.66 6.01 -8.32 5.02 -9 4 C-7.6078125 3.566875 -7.6078125 3.566875 -6.1875 3.125 C-2.90208333 2.1125 -2.90208333 2.1125 0 0 Z " fill="#DA50EB" transform="translate(701,646)"/>
<path d="M0 0 C1.65 0 3.3 0 5 0 C5 0.33 5 0.66 5 1 C3.35 1 1.7 1 0 1 C0 0.67 0 0.34 0 0 Z " fill="#CD3ED3" transform="translate(751,845)"/>
<path d="M0 0 C4 1 4 1 4 1 Z " fill="#7B4CE5" transform="translate(684,161)"/>
<path d="M0 0 C4 1 4 1 4 1 Z " fill="#7452E8" transform="translate(588,161)"/>
<path d="M0 0 C4 1 4 1 4 1 Z " fill="#7553E9" transform="translate(580,161)"/>
<path d="M0 0 C4 1 4 1 4 1 Z " fill="#6366ED" transform="translate(340,161)"/>
<path d="M0 0 C3 1 3 1 3 1 Z " fill="#CC3ED2" transform="translate(761,845)"/>
<path d="M0 0 C3 1 3 1 3 1 Z " fill="#A73FDB" transform="translate(425,845)"/>
<path d="M0 0 C3 1 3 1 3 1 Z " fill="#9844DB" transform="translate(253,844)"/>
<path d="M0 0 C3 1 3 1 3 1 Z " fill="#6269EC" transform="translate(308,161)"/>
<path d="M0 0 C3 1 3 1 3 1 Z " fill="#636DEB" transform="translate(260,161)"/>
<path d="" fill="#B43ED7" transform="translate(0,0)"/>
<path d="" fill="#A041DD" transform="translate(0,0)"/>
<path d="M0 0 C2 1 2 1 2 1 Z " fill="#CB3ED4" transform="translate(714,845)"/>
<path d="M0 0 C2 1 2 1 2 1 Z " fill="#A042DD" transform="translate(306,845)"/>
<path d="M0 0 C2 1 2 1 2 1 Z " fill="#9A43DE" transform="translate(264,845)"/>
<path d="M0 0 C2 1 2 1 2 1 Z " fill="#CB3ED0" transform="translate(772,844)"/>
<path d="M0 0 C2 1 2 1 2 1 Z " fill="#9745DB" transform="translate(225,837)"/>
<path d="" fill="#9047DF" transform="translate(0,0)"/>
<path d="" fill="#8D4AE1" transform="translate(0,0)"/>
<path d="M0 0 C2 1 2 1 2 1 Z " fill="#824BE3" transform="translate(769,162)"/>
<path d="M0 0 C2 1 2 1 2 1 Z " fill="#7F4BE2" transform="translate(758,161)"/>
<path d="M0 0 C2 1 2 1 2 1 Z " fill="#744FE7" transform="translate(612,161)"/>
<path d="M0 0 C2 1 2 1 2 1 Z " fill="#7255E8" transform="translate(556,161)"/>
<path d="M0 0 C2 1 2 1 2 1 Z " fill="#6F57E9" transform="translate(532,161)"/>
<path d="M0 0 C2 1 2 1 2 1 Z " fill="#6A5AEA" transform="translate(492,161)"/>
<path d="M0 0 C2 1 2 1 2 1 Z " fill="#685EEA" transform="translate(452,161)"/>
<path d="M0 0 C2 1 2 1 2 1 Z " fill="#6760EC" transform="translate(436,161)"/>
<path d="M0 0 C2 1 2 1 2 1 Z " fill="#6661EB" transform="translate(420,161)"/>
<path d="M0 0 C2 1 2 1 2 1 Z " fill="#6365EC" transform="translate(356,161)"/>
<path d="M0 0 C2 1 2 1 2 1 Z " fill="#616CEB" transform="translate(268,161)"/>
<path d="" fill="#200A1D" transform="translate(0,0)"/>
<path d="" fill="#CC3FD5" transform="translate(0,0)"/>
<path d="" fill="#CD40D4" transform="translate(0,0)"/>
<path d="" fill="#CD3ED5" transform="translate(0,0)"/>
<path d="" fill="#CC3ED5" transform="translate(0,0)"/>
<path d="" fill="#CC3ED4" transform="translate(0,0)"/>
<path d="" fill="#C93ED5" transform="translate(0,0)"/>
<path d="" fill="#C93DD5" transform="translate(0,0)"/>
<path d="" fill="#CA3FD5" transform="translate(0,0)"/>
<path d="" fill="#C83ED6" transform="translate(0,0)"/>
<path d="" fill="#C83FD5" transform="translate(0,0)"/>
<path d="" fill="#C43FD6" transform="translate(0,0)"/>
<path d="" fill="#C740D6" transform="translate(0,0)"/>
<path d="" fill="#C43ED6" transform="translate(0,0)"/>
<path d="" fill="#C43ED5" transform="translate(0,0)"/>
<path d="" fill="#C33FD6" transform="translate(0,0)"/>
<path d="" fill="#C13FD7" transform="translate(0,0)"/>
<path d="" fill="#BF3ED8" transform="translate(0,0)"/>
<path d="" fill="#C03ED8" transform="translate(0,0)"/>
<path d="" fill="#BF3FD7" transform="translate(0,0)"/>
<path d="" fill="#BE3FD7" transform="translate(0,0)"/>
<path d="" fill="#BD3FD8" transform="translate(0,0)"/>
<path d="" fill="#BB3ED8" transform="translate(0,0)"/>
<path d="" fill="#BC3ED8" transform="translate(0,0)"/>
<path d="" fill="#BD3ED8" transform="translate(0,0)"/>
<path d="" fill="#BA3FD6" transform="translate(0,0)"/>
<path d="" fill="#BC40D8" transform="translate(0,0)"/>
<path d="" fill="#B83ED8" transform="translate(0,0)"/>
<path d="" fill="#BA3ED8" transform="translate(0,0)"/>
<path d="" fill="#B73FD7" transform="translate(0,0)"/>
<path d="" fill="#B73FD8" transform="translate(0,0)"/>
<path d="" fill="#B43ED6" transform="translate(0,0)"/>
<path d="" fill="#B840D9" transform="translate(0,0)"/>
<path d="" fill="#B43ED7" transform="translate(0,0)"/>
<path d="" fill="#B33FD9" transform="translate(0,0)"/>
<path d="" fill="#AF40D8" transform="translate(0,0)"/>
<path d="" fill="#AE3FD8" transform="translate(0,0)"/>
<path d="" fill="#AE3FD9" transform="translate(0,0)"/>
<path d="" fill="#AB3ED8" transform="translate(0,0)"/>
<path d="" fill="#AB3FD9" transform="translate(0,0)"/>
<path d="" fill="#AB3FD9" transform="translate(0,0)"/>
<path d="" fill="#AA40DB" transform="translate(0,0)"/>
<path d="" fill="#A940DC" transform="translate(0,0)"/>
<path d="" fill="#A940DB" transform="translate(0,0)"/>
<path d="" fill="#A73FDA" transform="translate(0,0)"/>
<path d="" fill="#A940DB" transform="translate(0,0)"/>
<path d="" fill="#A840DB" transform="translate(0,0)"/>
<path d="" fill="#A941DB" transform="translate(0,0)"/>
<path d="" fill="#A741DC" transform="translate(0,0)"/>
<path d="" fill="#A540DC" transform="translate(0,0)"/>
<path d="" fill="#A541DB" transform="translate(0,0)"/>
<path d="" fill="#A441DD" transform="translate(0,0)"/>
<path d="" fill="#A242DB" transform="translate(0,0)"/>
<path d="" fill="#A541DB" transform="translate(0,0)"/>
<path d="" fill="#A340DA" transform="translate(0,0)"/>
<path d="" fill="#A341DC" transform="translate(0,0)"/>
<path d="" fill="#A442DC" transform="translate(0,0)"/>
<path d="" fill="#A342DD" transform="translate(0,0)"/>
<path d="" fill="#A242DB" transform="translate(0,0)"/>
<path d="" fill="#A343DC" transform="translate(0,0)"/>
<path d="" fill="#A042DC" transform="translate(0,0)"/>
<path d="" fill="#A142DC" transform="translate(0,0)"/>
<path d="" fill="#A142DD" transform="translate(0,0)"/>
<path d="" fill="#9E41DD" transform="translate(0,0)"/>
<path d="" fill="#A043DD" transform="translate(0,0)"/>
<path d="" fill="#9F43DD" transform="translate(0,0)"/>
<path d="" fill="#9F43E0" transform="translate(0,0)"/>
<path d="" fill="#9F42DC" transform="translate(0,0)"/>
<path d="" fill="#9C43DD" transform="translate(0,0)"/>
<path d="" fill="#9B43DC" transform="translate(0,0)"/>
<path d="" fill="#CD3FD0" transform="translate(0,0)"/>
<path d="" fill="#9846DC" transform="translate(0,0)"/>
<path d="" fill="#9444DB" transform="translate(0,0)"/>
<path d="" fill="#D23FD1" transform="translate(0,0)"/>
<path d="" fill="#9346DB" transform="translate(0,0)"/>
<path d="" fill="#CF3ECF" transform="translate(0,0)"/>
<path d="" fill="#8F45DD" transform="translate(0,0)"/>
<path d="" fill="#CC3FCF" transform="translate(0,0)"/>
<path d="" fill="#904ADF" transform="translate(0,0)"/>
<path d="" fill="#8F4CE1" transform="translate(0,0)"/>
<path d="" fill="#CE3FCF" transform="translate(0,0)"/>
<path d="" fill="#D240D4" transform="translate(0,0)"/>
<path d="" fill="#8C4CE8" transform="translate(0,0)"/>
<path d="" fill="#8C4BE5" transform="translate(0,0)"/>
<path d="" fill="#8A4CE7" transform="translate(0,0)"/>
<path d="" fill="#785AEB" transform="translate(0,0)"/>
<path d="" fill="#765BEB" transform="translate(0,0)"/>
<path d="" fill="#745CEC" transform="translate(0,0)"/>
<path d="" fill="#715EEC" transform="translate(0,0)"/>
<path d="" fill="#6B68EE" transform="translate(0,0)"/>
<path d="" fill="#6967EC" transform="translate(0,0)"/>
<path d="" fill="#686BEE" transform="translate(0,0)"/>
<path d="" fill="#6769EA" transform="translate(0,0)"/>
<path d="" fill="#9048DD" transform="translate(0,0)"/>
<path d="" fill="#676DEC" transform="translate(0,0)"/>
<path d="" fill="#8E49DB" transform="translate(0,0)"/>
<path d="" fill="#8E47DC" transform="translate(0,0)"/>
<path d="" fill="#8D45DB" transform="translate(0,0)"/>
<path d="" fill="#656DE7" transform="translate(0,0)"/>
<path d="" fill="#8647D7" transform="translate(0,0)"/>
<path d="" fill="#8749DB" transform="translate(0,0)"/>
<path d="" fill="#8747DC" transform="translate(0,0)"/>
<path d="" fill="#6571E8" transform="translate(0,0)"/>
<path d="" fill="#854ADC" transform="translate(0,0)"/>
<path d="" fill="#636DE9" transform="translate(0,0)"/>
<path d="" fill="#834CDE" transform="translate(0,0)"/>
<path d="" fill="#844BDD" transform="translate(0,0)"/>
<path d="" fill="#834CE2" transform="translate(0,0)"/>
<path d="" fill="#656FEC" transform="translate(0,0)"/>
<path d="" fill="#834CE3" transform="translate(0,0)"/>
<path d="" fill="#626EEC" transform="translate(0,0)"/>
<path d="" fill="#7C4AE4" transform="translate(0,0)"/>
<path d="" fill="#7D4EE5" transform="translate(0,0)"/>
<path d="" fill="#7C4BE5" transform="translate(0,0)"/>
<path d="" fill="#7B4FE5" transform="translate(0,0)"/>
<path d="" fill="#7B4DE4" transform="translate(0,0)"/>
<path d="" fill="#7B4CE6" transform="translate(0,0)"/>
<path d="" fill="#7A4CE7" transform="translate(0,0)"/>
<path d="" fill="#7C4DE6" transform="translate(0,0)"/>
<path d="" fill="#7B4FE7" transform="translate(0,0)"/>
<path d="" fill="#7A4FE7" transform="translate(0,0)"/>
<path d="" fill="#7B4EE7" transform="translate(0,0)"/>
<path d="" fill="#7950E6" transform="translate(0,0)"/>
<path d="" fill="#794FE8" transform="translate(0,0)"/>
<path d="" fill="#794FE6" transform="translate(0,0)"/>
<path d="" fill="#784EE9" transform="translate(0,0)"/>
<path d="" fill="#774FE7" transform="translate(0,0)"/>
<path d="" fill="#7850E8" transform="translate(0,0)"/>
<path d="" fill="#7A4FE9" transform="translate(0,0)"/>
<path d="" fill="#7952E7" transform="translate(0,0)"/>
<path d="" fill="#774FE7" transform="translate(0,0)"/>
<path d="" fill="#7650E7" transform="translate(0,0)"/>
<path d="" fill="#774FE7" transform="translate(0,0)"/>
<path d="" fill="#7651E8" transform="translate(0,0)"/>
<path d="" fill="#7452E9" transform="translate(0,0)"/>
<path d="" fill="#7352E8" transform="translate(0,0)"/>
<path d="" fill="#7453E8" transform="translate(0,0)"/>
<path d="" fill="#7452E9" transform="translate(0,0)"/>
<path d="" fill="#7253EA" transform="translate(0,0)"/>
<path d="" fill="#7254E9" transform="translate(0,0)"/>
<path d="" fill="#7155E9" transform="translate(0,0)"/>
<path d="" fill="#7254E9" transform="translate(0,0)"/>
<path d="" fill="#7155E8" transform="translate(0,0)"/>
<path d="" fill="#7055E9" transform="translate(0,0)"/>
<path d="" fill="#6E57EA" transform="translate(0,0)"/>
<path d="" fill="#6D57E9" transform="translate(0,0)"/>
<path d="" fill="#6E58EA" transform="translate(0,0)"/>
<path d="" fill="#6C59EA" transform="translate(0,0)"/>
<path d="" fill="#6B59EA" transform="translate(0,0)"/>
<path d="" fill="#6B5AEB" transform="translate(0,0)"/>
<path d="" fill="#6B5CEB" transform="translate(0,0)"/>
<path d="" fill="#6C5CEC" transform="translate(0,0)"/>
<path d="" fill="#6A5DEB" transform="translate(0,0)"/>
<path d="" fill="#6B5DEB" transform="translate(0,0)"/>
<path d="" fill="#685DEA" transform="translate(0,0)"/>
<path d="" fill="#685DEB" transform="translate(0,0)"/>
<path d="" fill="#665EEA" transform="translate(0,0)"/>
<path d="" fill="#675EEB" transform="translate(0,0)"/>
<path d="" fill="#6860EC" transform="translate(0,0)"/>
<path d="" fill="#6760EB" transform="translate(0,0)"/>
<path d="" fill="#6761EC" transform="translate(0,0)"/>
<path d="" fill="#6461EA" transform="translate(0,0)"/>
<path d="" fill="#6663EC" transform="translate(0,0)"/>
<path d="" fill="#6564EC" transform="translate(0,0)"/>
<path d="" fill="#6365ED" transform="translate(0,0)"/>
<path d="" fill="#6365EC" transform="translate(0,0)"/>
<path d="" fill="#6266EE" transform="translate(0,0)"/>
<path d="" fill="#6267EB" transform="translate(0,0)"/>
<path d="" fill="#6268EC" transform="translate(0,0)"/>
<path d="" fill="#6269ED" transform="translate(0,0)"/>
<path d="" fill="#6469EE" transform="translate(0,0)"/>
<path d="" fill="#636BEE" transform="translate(0,0)"/>
<path d="" fill="#616BED" transform="translate(0,0)"/>
<path d="" fill="#616BEE" transform="translate(0,0)"/>
<path d="" fill="#636CEC" transform="translate(0,0)"/>
<path d="" fill="#646EEA" transform="translate(0,0)"/>
</svg>
