<svg version="1.1" id="Layer_1" xmlns:x="ns_extend;" xmlns:i="ns_ai;" xmlns:graph="ns_graphs;" xmlns="http://www.w3.org/2000/svg" xmlns:xlink="http://www.w3.org/1999/xlink" x="0px" y="0px" viewBox="0 0 253.5 44" style="enable-background:new 0 0 253.5 44;" xml:space="preserve">
 <metadata>
  <sfw xmlns="ns_sfw;">
   <slices>
   </slices>
   <sliceSourceBounds bottomLeftOrigin="true" height="44" width="253.5" x="72.3" y="-222.8">
   </sliceSourceBounds>
  </sfw>
 </metadata>
 <g>
  <path d="M29.5,0l13.9,43.4h-7.8L21.7,0H29.5z M0,43.4h7.8L21.7,0h-7.8L0,43.4z M76.1,27.7c0,8.8-4.7,16.3-13.2,16.3
		c-4.8,0-8.4-2.9-9.9-7.2h-0.2v6.6h-6.7V0h6.7v18.5H53c1.5-4.3,5.2-7.2,9.9-7.2C71.3,11.3,76.1,18.9,76.1,27.7z M68.9,27.7
		c0-6.7-3-11.3-8.2-11.3c-5.3,0-8.2,4.5-8.2,11.3c0,6.7,2.9,11.3,8.2,11.3C65.9,38.9,68.9,34.3,68.9,27.7z M95.6,11.3
		c-4.6,0-7.9,2.4-9.2,6.8h-0.1v-6.2h-6.7v31.4h6.9V24.5c0-5.2,2.1-8,6.3-8c4.2,0,6.3,2.6,6.3,8.5v18.4h6.9V22.9
		C105.9,16,102.5,11.3,95.6,11.3z M140.1,27.6c0,8.5-5.8,16.3-15.4,16.3s-15.4-7.8-15.4-16.3c0-8.5,5.8-16.3,15.4-16.3
		S140.1,19.2,140.1,27.6L140.1,27.6z M133,27.6c0-6.7-3-11.3-8.2-11.3c-5.2,0-8.2,4.5-8.2,11.3c0,6.7,3,11.3,8.2,11.3
		C130,38.9,133,34.3,133,27.6L133,27.6z M198.1,11.3c-4.6,0-7.9,2.4-9.2,6.8h-0.1c-1.3-4.1-4.5-6.8-9.7-6.8c-4.5,0-7.5,2.4-8.8,6.8
		h-0.1v-6.2h-6.7v31.4h6.9V24.5c0-5.2,1.9-8,6.2-8c4.1,0,6.1,2.6,6.1,8.5v18.4h6.9V24.5c0-5.2,1.8-8,6.1-8c4.1,0,6.1,2.6,6.1,8.5
		v18.4h6.9V22.9C208.5,16,205.1,11.3,198.1,11.3z M235.3,11.9h6.7v31.4h-6.7v-6.6h-0.2c-1.5,4.3-5.2,7.2-9.9,7.2
		c-8.5,0-13.2-7.5-13.2-16.3c0-8.8,4.8-16.3,13.2-16.3c4.8,0,8.4,2.8,9.9,7.2h0.2L235.3,11.9z M235.6,27.7c0-6.7-3.2-11.3-8.2-11.3
		s-8.1,4.5-8.1,11.3c0,6.7,3.1,11.3,8.1,11.3C232.4,38.9,235.6,34.3,235.6,27.7z M246.7,0v43.4h6.9V0H246.7z M143.6,43.4h6.9V17h9.4
		v-5.1h-16.2V43.4z">
  </path>
 </g>
</svg>