<?xml version="1.0" encoding="UTF-8"?>
<svg version="1.1" xmlns="http://www.w3.org/2000/svg" width="2000" height="375">
<path d="M0 0 C36.63 0 73.26 0 111 0 C118.96082159 20.47068408 118.96082159 20.47068408 121.875 29.0625 C124.66843549 37.18923262 127.51921405 45.29223225 130.4375 53.375 C130.81100586 54.40979492 131.18451172 55.44458984 131.56933594 56.51074219 C132.7120766 59.674123 133.85598564 62.83707962 135 66 C136.54321525 70.27027575 138.08483671 74.54112256 139.625 78.8125 C140.00060059 79.8535791 140.37620117 80.8946582 140.76318359 81.96728516 C143.07205585 88.38059465 145.33201573 94.80907724 147.5625 101.25 C150.17798224 108.7999548 152.95937353 116.27509838 155.89672852 123.70605469 C158.21881533 129.67129822 160.25075445 135.71531355 162.25390625 141.79296875 C165.60973989 151.96090745 169.21694799 162.02423672 172.90890503 172.0743103 C174.67541943 176.8842295 176.43169347 181.6978823 178.1875 186.51171875 C178.52655869 187.441017 178.86561737 188.37031525 179.21495056 189.32777405 C181.9959309 196.96216864 184.69463349 204.6214672 187.33789062 212.3046875 C190.6511832 221.9286637 194.11828306 231.49644318 197.57983398 241.06787109 C203.8642208 258.45830889 210.11242377 275.86190065 216.35717773 293.26660156 C217.1620687 295.50927527 217.96740876 297.75178784 218.77319336 299.99414062 C223.37547224 312.80209784 227.94706705 325.61835999 232.37220764 338.48880005 C234.47799117 344.59164964 236.73099683 350.60265348 239.1875 356.57421875 C240 359 240 359 240 363 C218.22 363 196.44 363 174 363 C163.82606241 334.73906224 163.82606241 334.73906224 159.9375 322.8125 C156.63516649 312.76765841 153.20131881 302.78915747 149.42358398 292.91137695 C149.11751221 292.09628662 148.81144043 291.28119629 148.49609375 290.44140625 C148.22982178 289.74732666 147.9635498 289.05324707 147.68920898 288.33813477 C146.79483414 285.30397681 146.44734821 282.13143744 146 279 C101.45 279.33 56.9 279.66 11 280 C8.69 286.93 6.38 293.86 4 301 C2.24460262 305.98572921 0.47858274 310.9648264 -1.3125 315.9375 C-5.69965992 328.17168221 -9.87703022 340.46643066 -13.9152832 352.82006836 C-14.30675537 354.01124268 -14.69822754 355.20241699 -15.1015625 356.4296875 C-15.44525879 357.48397949 -15.78895508 358.53827148 -16.14306641 359.62451172 C-17 362 -17 362 -18 363 C-19.9943173 363.09405142 -21.99199543 363.11743249 -23.98852539 363.11352539 C-25.26977798 363.11344986 -26.55103058 363.11337433 -27.87110901 363.11329651 C-29.27995848 363.10818909 -30.68880756 363.10297309 -32.09765625 363.09765625 C-33.53112234 363.09579202 -34.96458907 363.09436814 -36.39805603 363.09336853 C-40.17759957 363.08954372 -43.9571049 363.07971377 -47.7366333 363.06866455 C-51.59069298 363.05844963 -55.44475882 363.05387074 -59.29882812 363.04882812 C-66.86590287 363.03809146 -74.43294609 363.02101549 -82 363 C-81.05454312 354.4970274 -81.05454312 354.4970274 -79.6171875 350.51171875 C-79.19566406 349.32545898 -79.19566406 349.32545898 -78.765625 348.11523438 C-78.47171875 347.31408203 -78.1778125 346.51292969 -77.875 345.6875 C-77.60429688 344.92888672 -77.33359375 344.17027344 -77.0546875 343.38867188 C-75.54363626 339.17594198 -73.99248668 334.97802002 -72.44238281 330.77954102 C-68.23873591 319.39365883 -64.09534529 307.98777202 -60 296.5625 C-59.69496552 295.71248413 -59.38993103 294.86246826 -59.07565308 293.98669434 C-55.42944947 283.8255381 -51.80646351 273.657535 -48.26733398 263.45849609 C-46.42913874 258.17726701 -44.51040931 252.92916654 -42.5625 247.6875 C-39.99542166 240.77928191 -37.5322463 233.84048555 -35.125 226.875 C-31.29597389 215.80162196 -27.33749663 204.7780874 -23.35595703 193.75878906 C-20.36606538 185.47064144 -17.39386881 177.17612296 -14.41833496 168.8828125 C-13.51200837 166.35675451 -12.60563166 163.83071452 -11.69921875 161.3046875 C-11.39601715 160.45968689 -11.09281555 159.61468628 -10.78042603 158.74407959 C-8.61335018 152.70582901 -6.44212488 146.66907961 -4.26953125 140.6328125 C3.57937417 118.81881469 3.57937417 118.81881469 11.24023438 96.93823242 C14.28810536 88.12502303 17.45578044 79.35609195 20.625 70.5859375 C22.3225048 65.88636402 24.0090601 61.18297391 25.6875 56.4765625 C25.91225006 55.84640732 26.13700012 55.21625214 26.36856079 54.56700134 C27.45938836 51.50765274 28.54921613 48.44795066 29.63818359 45.38793945 C31.71075878 39.57281564 33.80991131 33.77194342 36 28 C25.10092882 18.89512481 13.41908761 10.60169927 1.37109375 3.0859375 C0.91863281 2.72757813 0.46617188 2.36921875 0 2 C0 1.34 0 0.68 0 0 Z M78 84 C77.69408936 84.92820557 77.38817871 85.85641113 77.07299805 86.81274414 C71.47059508 103.79401416 65.80051109 120.74035186 59.76141357 137.57180786 C56.14164464 147.67062751 52.68397639 157.81569112 49.3125 168 C43.36827355 185.94835806 37.22599555 203.8129771 30.70043945 221.55932617 C29.1895669 225.67620828 27.69865571 229.79926273 26.26953125 233.9453125 C26.02436768 234.65445801 25.7792041 235.36360352 25.52661133 236.09423828 C24.86682778 238.15240869 24.86682778 238.15240869 25 241 C27.84082004 239.64483009 30.42139 238.12215438 33.01953125 236.34765625 C33.78692627 235.82405518 34.55432129 235.3004541 35.3449707 234.76098633 C36.15925537 234.20048584 36.97354004 233.63998535 37.8125 233.0625 C38.6583667 232.48201904 39.5042334 231.90153809 40.37573242 231.3034668 C45.57886803 227.71599273 50.725713 224.06291044 55.8125 220.3125 C56.41022217 219.87333252 57.00794434 219.43416504 57.6237793 218.98168945 C60.72315763 216.69880268 63.80113443 214.39118159 66.86328125 212.05859375 C68.1169426 211.12206792 69.37084037 210.18585845 70.625 209.25 C71.19323486 208.80696533 71.76146973 208.36393066 72.34692383 207.9074707 C74.69691529 206.1707654 76.42717968 205.03098864 79.3828125 204.87109375 C83.42438598 206.61439932 86.74566971 209.17437907 90.25 211.8125 C91.86520147 213.00483332 93.48110358 214.19621802 95.09765625 215.38671875 C95.91508301 215.99177246 96.73250977 216.59682617 97.57470703 217.22021484 C101.24049336 219.91032782 104.96243615 222.5179294 108.6875 225.125 C116.53975358 230.64039354 124.28475712 236.2949878 132 242 C133.43837086 237.68488741 131.59556188 234.67448791 130 230.625 C127.31401062 223.59010471 124.78528937 216.53004173 122.4375 209.375 C120.00024084 201.95253175 117.47418327 194.57225891 114.77709961 187.23974609 C113.73096297 184.34535088 113 182.10505885 113 179 C115.41725777 177.07231343 117.81333413 175.34234436 120.375 173.625 C121.93697852 172.55191661 123.49814976 171.47765739 125.05859375 170.40234375 C125.87183105 169.84530762 126.68506836 169.28827148 127.52294922 168.71435547 C131.53964395 165.93441949 135.48707621 163.06045949 139.4375 160.1875 C145.05863569 156.1082647 150.70205537 152.07806335 156.4453125 148.171875 C156.95835937 147.78515625 157.47140625 147.3984375 158 147 C158 146.67 158 146.34 158 146 C138.86 146 119.72 146 100 146 C99.01 142.37 98.02 138.74 97 135 C95.95271434 132.01886508 94.88265995 129.07192631 93.75 126.125 C90.78340142 118.25017403 88.06287439 110.3141037 85.43041992 102.32202148 C83.40139311 96.17100722 81.28540469 90.06129069 79 84 C78.67 84 78.34 84 78 84 Z " fill="#4E008E" transform="translate(82,6)"/>
<path d="M0 0 C19.8 0 39.6 0 60 0 C60.33 47.52 60.66 95.04 61 144 C64.3 140.7 67.6 137.4 71 134 C73.49355577 132.19966289 75.72892208 130.66005238 78.375 129.1875 C79.0151001 128.81987549 79.6552002 128.45225098 80.31469727 128.07348633 C96.37772258 119.03191529 112.60739793 115.28205423 130.88085938 115.42358398 C133.36724998 115.43745676 135.84986076 115.40320658 138.3359375 115.36523438 C153.80284955 115.29237351 168.28751148 118.70612313 182 126 C183.45792969 126.76957031 183.45792969 126.76957031 184.9453125 127.5546875 C208.71329893 140.74561603 221.47464189 161.52916561 228.8125 187 C230.63550659 193.71750306 231.12541364 200.44406133 231.12025452 207.37792969 C231.12153615 208.42336331 231.12153615 208.42336331 231.12284368 209.4899168 C231.12447691 211.80059658 231.11901284 214.11120203 231.11352539 216.421875 C231.11324303 218.08805845 231.11340222 219.75424203 231.1139679 221.42042542 C231.11425395 225.92601732 231.10838829 230.43158242 231.10139394 234.93716812 C231.09512839 239.65236524 231.09455407 244.36756303 231.09336853 249.08276367 C231.09026464 258.00378532 231.08206398 266.92479466 231.07201904 275.84581089 C231.06082861 286.00541449 231.05534007 296.16501869 231.05032361 306.32462692 C231.03988056 327.21642633 231.02154681 348.10820889 231 369 C211.2 369 191.4 369 171 369 C170.97812622 362.35520508 170.97812622 362.35520508 170.95581055 355.57617188 C170.90535491 340.89985587 170.8388881 326.22364412 170.76428509 311.54743195 C170.71946399 302.65386649 170.68001839 293.76033985 170.65356445 284.86669922 C170.63047286 277.1081672 170.59695207 269.34975946 170.55129844 261.59132624 C170.52751549 257.48949038 170.50868959 253.38777646 170.50238609 249.28587341 C170.49626678 245.4116191 170.47602593 241.53767618 170.44572449 237.66353798 C170.43705236 236.25445546 170.43319868 234.84533205 170.43499184 233.43622398 C170.45043188 215.67742781 168.11002511 196.18852825 155 183 C142.74872728 173.25029605 127.53336997 169.40545568 112 171 C102.15619653 172.56600342 93.37146762 175.47669466 85 181 C84.19949219 181.52464844 83.39898438 182.04929688 82.57421875 182.58984375 C76.64344272 186.82611234 72.74675906 191.78974686 69 198 C68.525625 198.78246094 68.05125 199.56492188 67.5625 200.37109375 C61.28534455 211.748438 60.55128062 224.3472239 60.56762695 237.08349609 C60.55858268 238.5338269 60.54824907 239.98415014 60.53674316 241.4344635 C60.50945932 245.32402722 60.49992819 249.21344482 60.49388909 253.10309172 C60.48442986 257.18569815 60.45822117 261.26819857 60.43388367 265.35073853 C60.39042072 273.06030705 60.36175027 280.76985477 60.33856028 288.47950804 C60.31139948 297.26570066 60.26749526 306.05178556 60.22227156 314.83790088 C60.12971505 332.89189087 60.06011179 350.94587081 60 369 C40.2 369 20.4 369 0 369 C0 247.23 0 125.46 0 0 Z " fill="#4E008E" transform="translate(572,0)"/>
<path d="M0 0 C0.82523163 0.00359528 1.65046326 0.00719055 2.5007019 0.01089478 C15.60710345 0.09242883 27.72326654 1.25380106 40.1875 5.5625 C41.39148437 5.94664063 42.59546875 6.33078125 43.8359375 6.7265625 C55.67831696 10.8615501 66.67312319 17.4222288 76.1875 25.5625 C76.98542969 26.22765625 77.78335937 26.8928125 78.60546875 27.578125 C94.61658029 41.37995138 105.24918399 58.75437384 112.1875 78.5625 C112.56519531 79.61566406 112.94289063 80.66882813 113.33203125 81.75390625 C120.98497604 104.6554152 120.1875 128.63394005 120.1875 152.5625 C59.1375 152.5625 -1.9125 152.5625 -64.8125 152.5625 C-62.2530413 167.91925219 -58.02703015 179.67780897 -46.8125 190.5625 C-46.8125 191.2225 -46.8125 191.8825 -46.8125 192.5625 C-45.760625 192.93375 -45.760625 192.93375 -44.6875 193.3125 C-41.8125 194.5625 -41.8125 194.5625 -39.3125 196.375 C-24.70971733 206.38406843 -4.52422043 208.73906972 12.625 205.90625 C30.97604173 202.31901453 44.70384357 193.40434631 55.59375 178.140625 C57.47182756 175.26809855 57.47182756 175.26809855 59.1875 170.5625 C78.3275 170.5625 97.4675 170.5625 117.1875 170.5625 C112.17053442 198.15581067 96.90940318 221.86145915 74.10839844 238.24414062 C55.72964078 250.85792956 33.39779702 259.5709602 10.95703125 259.80078125 C10.17302444 259.8105751 9.38901764 259.82036896 8.58125305 259.83045959 C-23.96281341 260.15361385 -23.96281341 260.15361385 -37.8125 255.5625 C-38.49812012 255.34287598 -39.18374023 255.12325195 -39.89013672 254.89697266 C-70.96896923 244.71510613 -93.51588622 225.05367815 -108.63842773 196.203125 C-112.62679133 188.25639214 -115.46636055 180.12581854 -117.8125 171.5625 C-118.02277832 170.83836914 -118.23305664 170.11423828 -118.44970703 169.36816406 C-125.61710548 143.75166637 -124.43092813 111.8560861 -116.8125 86.5625 C-116.58788086 85.78519531 -116.36326172 85.00789063 -116.13183594 84.20703125 C-111.20095019 67.52671322 -102.9255835 52.86535364 -91.8125 39.5625 C-91.20277344 38.77746094 -90.59304688 37.99242187 -89.96484375 37.18359375 C-68.62728623 10.96888022 -32.65912368 -0.35576748 0 0 Z M-48.8125 70.5625 C-58.18207654 82.63925459 -61.57966743 94.47594801 -64.8125 109.5625 C-24.2225 109.5625 16.3675 109.5625 58.1875 109.5625 C60.95094086 98.50873655 54.71086492 85.63293302 49.25 76.1875 C41.47800342 64.03884878 30.27273285 56.05417529 16.18359375 52.4765625 C10.42743761 51.25145863 4.73993019 51.23221671 -1.125 51.25 C-2.7018457 51.22583008 -2.7018457 51.22583008 -4.31054688 51.20117188 C-21.54950883 51.19057632 -37.233199 57.54059505 -48.8125 70.5625 Z " fill="#4E008E" transform="translate(1509.8125,115.4375)"/>
<path d="M0 0 C0.85056976 0.00459229 1.70113953 0.00918457 2.57748413 0.01391602 C34.8512669 0.25305675 61.81251986 11.29043975 85.25 33.75 C90.91673182 39.51305021 95.29535745 45.78729396 99.6875 52.5625 C100.38101562 53.57699219 101.07453125 54.59148437 101.7890625 55.63671875 C107.30684535 64.14046228 110.5006275 74.00188251 113.6875 83.5625 C114.120625 84.8309375 114.120625 84.8309375 114.5625 86.125 C121.16950373 107.59776211 119.6875 130.42985478 119.6875 152.5625 C58.6375 152.5625 -2.4125 152.5625 -65.3125 152.5625 C-61.80483624 168.93159754 -56.76572558 184.72627703 -42.3125 194.5625 C-23.31686346 206.20917145 -2.6155381 209.51458389 19.07324219 204.54443359 C35.17695506 200.34086503 46.626748 191.33110664 55.6875 177.5625 C57.0075 175.2525 58.3275 172.9425 59.6875 170.5625 C78.4975 170.5625 97.3075 170.5625 116.6875 170.5625 C115.99578916 176.78789756 115.37789841 181.49265059 113.1875 187.125 C112.92686768 187.80264404 112.66623535 188.48028809 112.39770508 189.1784668 C107.44182567 201.57459411 100.69416394 212.686772 91.6875 222.5625 C90.67816406 223.69365234 90.67816406 223.69365234 89.6484375 224.84765625 C76.77867529 238.51274084 60.60253196 247.49632403 43.125 253.875 C42.50189941 254.10550049 41.87879883 254.33600098 41.23681641 254.57348633 C28.61377285 258.92554351 16.18184287 260.07719112 2.93701172 260.00854492 C0.45325075 260.00005385 -2.02818379 260.02889542 -4.51171875 260.06054688 C-36.36736639 260.20008878 -65.02195076 247.99704472 -88.0625 226.25 C-96.37610144 217.59580408 -103.01937671 207.29180396 -108.3125 196.5625 C-108.75207031 195.68207031 -109.19164062 194.80164063 -109.64453125 193.89453125 C-117.51248083 177.42175464 -121.90256347 158.77794038 -122.3125 140.5625 C-122.3431958 139.43569824 -122.3431958 139.43569824 -122.37451172 138.28613281 C-122.98175377 113.58493127 -120.3365456 89.04290672 -109.3125 66.5625 C-108.73886719 65.3765625 -108.16523437 64.190625 -107.57421875 62.96875 C-94.41642732 36.62956874 -71.95198631 17.22968973 -44.5 6.8125 C-29.69621806 1.98152627 -15.56526638 -0.16967992 0 0 Z M-47.3125 68.5625 C-53.55566018 76.17197478 -58.06082487 84.2410313 -61.3125 93.5625 C-61.63089844 94.47386719 -61.94929687 95.38523438 -62.27734375 96.32421875 C-63.85017404 101.1731748 -64.3125 104.26394083 -64.3125 109.5625 C-23.7225 109.5625 16.8675 109.5625 58.6875 109.5625 C58.6875 92.10542888 52.27836917 77.47948846 40.1640625 64.87109375 C36.89752041 61.82609947 33.68066966 59.53947201 29.6875 57.5625 C28.97980469 57.19640625 28.27210938 56.8303125 27.54296875 56.453125 C18.3097448 51.99013059 8.9549372 51.19356355 -1.1875 51.25 C-2.24743164 51.25563965 -3.30736328 51.2612793 -4.39941406 51.26708984 C-20.73133329 51.52109721 -35.56982507 56.80057478 -47.3125 68.5625 Z " fill="#4E008E" transform="translate(1038.3125,115.4375)"/>
<path d="M0 0 C0.92060211 0.00392761 1.84120422 0.00785522 2.78970337 0.01190186 C16.45304706 0.09407623 29.23739977 0.85082809 42.1875 5.5625 C42.86619141 5.79243652 43.54488281 6.02237305 44.24414062 6.25927734 C56.76500867 10.53270404 68.053824 16.95981533 78.5625 24.9375 C79.12855957 25.36643555 79.69461914 25.79537109 80.27783203 26.23730469 C81.62333707 27.29397521 82.91185461 28.42247139 84.1875 29.5625 C84.1875 30.2225 84.1875 30.8825 84.1875 31.5625 C84.74824219 31.78035156 85.30898438 31.99820313 85.88671875 32.22265625 C103.11633772 42.25620346 111.55801182 69.17276714 116.70703125 86.8671875 C117.1875 89.5625 117.1875 89.5625 117.1875 97.5625 C98.7075 97.5625 80.2275 97.5625 61.1875 97.5625 C59.5375 94.2625 57.8875 90.9625 56.1875 87.5625 C51.30687158 77.65634166 51.30687158 77.65634166 43.1875 70.5625 C43.1875 69.9025 43.1875 69.2425 43.1875 68.5625 C42.63707031 68.30210937 42.08664062 68.04171875 41.51953125 67.7734375 C39.1875 66.5625 39.1875 66.5625 36.69921875 64.9765625 C21.3530214 55.25518161 3.61970691 52.99944699 -14.16796875 56.2578125 C-31.53556917 60.47135878 -44.43499912 70.40778876 -53.8125 85.5625 C-55.71552447 89.15049405 -57.32819907 92.78376442 -58.8125 96.5625 C-59.10898437 97.28824219 -59.40546875 98.01398438 -59.7109375 98.76171875 C-67.41145092 119.38537103 -66.22320144 146.85414601 -57.5625 167 C-49.55378327 184.46685084 -37.64680519 194.70578661 -19.953125 201.69140625 C-2.51920018 206.52693515 18.17990331 204.74186554 34.1875 196.5625 C47.50135724 188.29992367 54.71753249 178.14908002 60.1875 163.5625 C78.9975 163.5625 97.8075 163.5625 117.1875 163.5625 C114.31047149 192.33278509 99.19882068 216.37576285 77.25 234.875 C48.85527992 257.81213275 11.46004273 262.79332707 -23.89990234 259.25341797 C-29.05448629 258.49887708 -33.87411319 257.20862894 -38.8125 255.5625 C-39.48684082 255.34287598 -40.16118164 255.12325195 -40.85595703 254.89697266 C-56.06889153 249.86398824 -69.551185 242.87956556 -81.8125 232.5625 C-82.7715625 231.7684375 -83.730625 230.974375 -84.71875 230.15625 C-109.48732531 208.72725788 -121.68183716 176.53236508 -124.8125 144.5625 C-127.45000093 104.46693329 -118.27535284 67.23743322 -91.8125 36.5625 C-91.23242188 35.88445312 -90.65234375 35.20640625 -90.0546875 34.5078125 C-67.16693135 9.77261415 -32.68806227 -0.32113344 0 0 Z " fill="#4E008E" transform="translate(435.8125,115.4375)"/>
<path d="M0 0 C0.85496063 0.00392761 1.70992126 0.00785522 2.59078979 0.01190186 C15.19241084 0.09352678 26.81476725 0.81473036 38.625 5.5625 C39.26034668 5.79775391 39.89569336 6.03300781 40.55029297 6.27539062 C60.99044087 13.84465733 76.98773298 27.33000778 86.4375 47.0625 C90.95389503 57.86734784 92.625 65.51702573 92.625 77.5625 C74.475 77.5625 56.325 77.5625 37.625 77.5625 C35.15 71.1275 35.15 71.1275 32.625 64.5625 C26.57059992 55.71376142 17.56973358 52.19655496 7.4375 49.8125 C-4.74637465 48.72948892 -15.54214449 51.06650752 -25.25 58.875 C-29.59344388 64.36817902 -32.72558496 70.40247641 -32.375 77.5625 C-31.0559778 83.90894289 -28.64497605 90.01191868 -23.421875 94.0859375 C-13.51249301 100.55000456 -1.67591512 103.32369334 9.6796875 106.17578125 C10.55882309 106.39692093 11.43795868 106.61806061 12.34373474 106.84590149 C15.96728508 107.75282863 19.59168286 108.65513023 23.22216797 109.53393555 C39.7719551 113.55887477 55.08037221 118.88133379 68.625 129.5625 C69.99398438 130.59503906 69.99398438 130.59503906 71.390625 131.6484375 C84.1254901 141.56493081 92.55174885 153.59293622 95.625 169.5625 C96.0025259 174.02204362 96.09986845 178.44813498 96.07104492 182.92285156 C96.06253698 184.92878193 96.09140194 186.93184879 96.12304688 188.9375 C96.11406049 207.16188539 89.22033265 222.47397662 76.625 235.5625 C64.55619344 246.49580057 50.35976166 253.50839049 34.625 257.5625 C33.4486499 257.9018457 32.2722998 258.24119141 31.06030273 258.59082031 C26.23205617 259.78968024 21.55326583 259.88604069 16.59765625 259.8984375 C15.65047226 259.9050943 14.70328827 259.9117511 13.72740173 259.91860962 C11.72803675 259.9286915 9.72863842 259.93342803 7.72924805 259.93310547 C4.7271089 259.93744278 1.72648563 259.97371094 -1.27539062 260.01171875 C-27.55320286 260.16606474 -53.03830641 252.57096 -72.6796875 234.4453125 C-74.375 232.5625 -74.375 232.5625 -74.375 230.5625 C-75.035 230.5625 -75.695 230.5625 -76.375 230.5625 C-78.08554941 228.34635457 -79.65133875 226.14611586 -81.1875 223.8125 C-81.63746338 223.12945801 -82.08742676 222.44641602 -82.55102539 221.74267578 C-90.87586892 208.80364557 -94.375 195.93055156 -94.375 180.5625 C-75.895 180.5625 -57.415 180.5625 -38.375 180.5625 C-36.89 185.5125 -36.89 185.5125 -35.375 190.5625 C-30.98776065 198.74410852 -25.30265578 204.38852253 -16.375 207.5625 C-3.68257743 210.89683371 10.39351078 212.50582727 22.625 206.5625 C28.23733516 202.53872627 33.33625161 198.0145399 35.3125 191.1875 C36.30359314 182.86231759 35.08923437 176.33132903 30.5 169.3125 C24.5430814 163.61457786 17.44037487 160.80792151 9.625 158.5625 C8.36042969 158.19382812 7.09585937 157.82515625 5.79296875 157.4453125 C-1.50481216 155.35455662 -8.80988136 153.43935977 -16.21948242 151.78540039 C-41.28429572 146.14195755 -66.91412688 135.45842108 -81.765625 113.33984375 C-84.51957803 108.58726946 -86.59724788 103.75434425 -88.375 98.5625 C-88.85453125 97.17998047 -88.85453125 97.17998047 -89.34375 95.76953125 C-94.93920916 76.98847621 -90.78374217 56.81754331 -82.375 39.5625 C-70.6736597 20.13432529 -52.21295857 8.61881491 -30.64089966 2.93186951 C-20.37802705 0.39981109 -10.53946954 -0.11155049 0 0 Z " fill="#4E008E" transform="translate(1904.375,115.4375)"/>
<path d="M0 0 C21.45 0 42.9 0 65 0 C74.03203312 23.70908695 74.03203312 23.70908695 76.875 32.125 C80.23847291 41.93612274 83.80931077 51.66189024 87.43139648 61.38012695 C89.65079716 67.34083969 91.84499783 73.30605891 93.9375 79.3125 C96.8726108 87.73239223 99.95755106 96.0969171 103.03533936 104.46539307 C106.24508654 113.19403275 109.4253902 121.93243145 112.5625 130.6875 C117.27355877 143.82938209 122.1285414 156.91687324 127 170 C129.94325028 164.29551148 132.6433666 158.66711782 134.8125 152.625 C137.08537026 146.38440363 139.50258389 140.21653034 142 134.0625 C144.53494494 127.79906107 146.92637762 121.51422148 149.125 115.125 C150.84370232 110.13544062 152.68395614 105.27191879 154.8125 100.4375 C157.44995556 94.42845176 159.78393494 88.34104787 162.0625 82.1875 C165.73347544 72.28379499 169.55027666 62.4451899 173.4375 52.625 C177.9372441 41.25465421 182.38803755 29.86854379 186.75366211 18.44580078 C187.12499268 17.47497559 187.49632324 16.50415039 187.87890625 15.50390625 C188.1941626 14.67705322 188.50941895 13.8502002 188.83422852 12.99829102 C190.52380336 8.65281066 192.26843253 4.32891867 194 0 C214.46 0 234.92 0 256 0 C255.13966984 5.16198095 253.84031765 9.35875339 251.875 14.125 C251.36308105 15.38582397 251.36308105 15.38582397 250.84082031 16.67211914 C245.90591327 28.77063485 240.84537456 40.81863397 235.80859375 52.875 C230.98762034 64.41508289 226.21025429 75.9730463 221.43408203 87.53173828 C220.00869789 90.97896454 218.58091877 94.42518873 217.15234375 97.87109375 C211.71507282 110.99008512 206.30578267 124.12009062 200.92080688 137.26062012 C185.18761109 175.65128902 185.18761109 175.65128902 178.41748047 191.30078125 C175.16727076 198.81527698 172.05136516 206.3340065 169.24389648 214.02514648 C166.13621901 222.47411097 162.54680498 230.72824625 159 239 C158.01 241.31 157.02 243.62 156 246 C136.53 246 117.06 246 97 246 C91.37877211 234.75754422 91.37877211 234.75754422 89.3515625 229.49609375 C88.90707764 228.35172852 88.46259277 227.20736328 88.00463867 226.02832031 C87.54935791 224.84334961 87.09407715 223.65837891 86.625 222.4375 C85.65735716 219.94046781 84.6862247 217.44479875 83.71484375 214.94921875 C83.01657471 213.15363525 83.01657471 213.15363525 82.30419922 211.32177734 C80.65020113 207.10906712 78.93327492 202.92533256 77.1875 198.75 C74.51583912 192.34443277 72.03985943 185.88387163 69.65234375 179.3671875 C68.22716648 175.53797623 66.70697624 171.74793963 65.18359375 167.95703125 C62.35443302 160.91621473 59.60353303 153.84734092 56.87744141 146.76608276 C52.3721532 135.06888838 47.80229473 123.40047366 43.11621094 111.77441406 C40.51617347 105.31185375 37.93541766 98.84153753 35.34979248 92.37319946 C34.5770425 90.44016688 33.80418827 88.50717605 33.03125 86.57421875 C32.77695221 85.93827286 32.52265442 85.30232697 32.26065063 84.64710999 C30.58447962 80.45695006 28.90293847 76.26897688 27.21875 72.08203125 C23.3979189 62.57525419 19.59919447 53.06900243 16.04101562 43.46044922 C12.83097713 34.80562163 9.33283239 26.26394126 5.84375 17.71875 C5.10414598 15.89584172 4.36456249 14.07292512 3.625 12.25 C3.26680176 11.37956055 2.90860352 10.50912109 2.53955078 9.61230469 C2.20938965 8.79665039 1.87922852 7.98099609 1.5390625 7.140625 C1.24209473 6.41391602 0.94512695 5.68720703 0.63916016 4.93847656 C0 3 0 3 0 0 Z " fill="#4E008E" transform="translate(1146,123)"/>
<path d="M0 0 C2.25139161 0.00315287 4.50145619 -0.02033749 6.75268555 -0.0456543 C8.22208497 -0.04792902 9.69148784 -0.04862998 11.16088867 -0.04760742 C12.46517822 -0.05058838 13.76946777 -0.05356934 15.11328125 -0.05664062 C19.45385742 0.31567383 19.45385742 0.31567383 31.45385742 3.31567383 C31.45385742 21.79567383 31.45385742 40.27567383 31.45385742 59.31567383 C26.50385742 58.65567383 21.55385742 57.99567383 16.45385742 57.31567383 C12.02734158 57.11785507 7.68729358 56.98973633 3.26635742 57.00317383 C1.65857422 56.97900391 1.65857422 56.97900391 0.01831055 56.9543457 C-16.40096725 56.94442469 -30.81316002 62.68280204 -42.54614258 74.31567383 C-45.21490694 77.81778799 -47.42572467 81.46140213 -49.54614258 85.31567383 C-49.93415039 85.9834082 -50.3221582 86.65114258 -50.72192383 87.33911133 C-55.82629864 96.68070847 -58.63620416 107.62526283 -58.70436096 118.23825073 C-58.71414978 119.39923782 -58.7239386 120.56022491 -58.73402405 121.75639343 C-58.73977951 123.01587296 -58.74553497 124.27535248 -58.75146484 125.57299805 C-58.76105346 126.92362257 -58.77106411 128.27424415 -58.78146362 129.62486267 C-58.80841226 133.27933063 -58.82947593 136.93381136 -58.84946561 140.58832312 C-58.87138738 144.41202445 -58.89874568 148.23568683 -58.92552185 152.05935669 C-58.97536524 159.29461764 -59.02033493 166.52990031 -59.06354421 173.7652036 C-59.12223828 183.5460911 -59.1884801 193.32692731 -59.2542944 203.10776901 C-59.35773835 218.51036935 -59.45111435 233.91301394 -59.54614258 249.31567383 C-79.67614258 249.31567383 -99.80614258 249.31567383 -120.54614258 249.31567383 C-120.54614258 168.13567383 -120.54614258 86.95567383 -120.54614258 3.31567383 C-102.06614258 3.31567383 -83.58614258 3.31567383 -64.54614258 3.31567383 C-63.55614258 10.90567383 -62.56614258 18.49567383 -61.54614258 26.31567383 C-58.16584857 22.95585126 -58.16584857 22.95585126 -54.87817383 19.50708008 C-46.39453994 10.41279902 -35.20709412 5.95786761 -23.54614258 2.31567383 C-22.91635498 2.11627197 -22.28656738 1.91687012 -21.63769531 1.71142578 C-14.55400145 -0.19471023 -7.2797773 -0.02127899 0 0 Z " fill="#4E008E" transform="translate(1769.546142578125,119.684326171875)"/>
<path d="M0 0 C19.47 0 38.94 0 59 0 C59 81.18 59 162.36 59 246 C39.53 246 20.06 246 0 246 C0 164.82 0 83.64 0 0 Z " fill="#4E008E" transform="translate(834,123)"/>
<path d="M0 0 C3.91445362 2.85490226 7.4160866 6.07966674 10.703125 9.640625 C11.38375 10.32125 12.064375 11.001875 12.765625 11.703125 C18.76527382 20.79936676 19.83122435 30.98123723 18.703125 41.640625 C16.28207989 52.49452385 9.80738689 61.32534474 0.703125 67.640625 C-9.53014582 72.7264373 -18.74266844 74.12415467 -29.859375 71.078125 C-40.37075326 67.54551139 -48.06606277 60.41785336 -53.359375 50.6875 C-57.50301458 41.52368169 -57.86482398 30.25173069 -54.671875 20.765625 C-50.49783643 10.8121484 -43.18414411 2.42726811 -33.109375 -1.734375 C-22.41914693 -5.70651144 -10.05749934 -5.95239757 0 0 Z " fill="#4E008E" transform="translate(882.296875,5.359375)"/>
</svg>
