<?xml version="1.0" encoding="UTF-8"?>
<svg version="1.1" xmlns="http://www.w3.org/2000/svg" width="400" height="400">
<path d="M0 0 C132 0 264 0 400 0 C400 132 400 264 400 400 C268 400 136 400 0 400 C0 268 0 136 0 0 Z " fill="#FEFEFE" transform="translate(0,0)"/>
<path d="M0 0 C1.98684692 -0.36076355 1.98684692 -0.36076355 4.44970703 -0.34057617 C5.83091232 -0.34023628 5.83091232 -0.34023628 7.24002075 -0.33988953 C8.73382767 -0.31666374 8.73382767 -0.31666374 10.2578125 -0.29296875 C11.27600067 -0.28872391 12.29418884 -0.28447906 13.3432312 -0.28010559 C16.60408673 -0.26327579 19.86433041 -0.22561546 23.125 -0.1875 C25.33202234 -0.17245874 27.53905434 -0.15876937 29.74609375 -0.14648438 C35.16427223 -0.1133583 40.58209242 -0.06311653 46 0 C54.6974946 15.1245696 54.6974946 15.1245696 58.5 22.375 C59.06533447 23.44766113 59.06533447 23.44766113 59.64208984 24.54199219 C62.35650402 29.71545356 64.97976215 34.9303189 67.57397461 40.16479492 C70.99596377 47.04386638 74.52829777 53.86564443 78.0625 60.6875 C78.38407074 61.30824402 78.70564148 61.92898804 79.03695679 62.56854248 C80.69617702 65.77081024 82.35620212 68.97265995 84.01660156 72.17431641 C86.8532208 77.64464216 89.68419308 83.11788739 92.51489258 88.59127808 C93.43742648 90.37485787 94.36028615 92.15826879 95.28320312 93.94165039 C98.62509047 100.40042076 101.9604723 106.86249127 105.2890625 113.328125 C106.36535187 115.41761076 107.44171948 117.5070562 108.51809692 119.59649658 C109.52857771 121.55911407 110.53762828 123.52246211 111.54663086 125.48583984 C112.17814462 126.71195426 112.80973454 127.93802945 113.44140625 129.1640625 C114.03711426 130.32196289 114.63282227 131.47986328 115.24658203 132.67285156 C117.37605611 136.71357459 119.63454906 140.67338483 121.94897461 144.61083984 C123 147 123 147 123 152 C106.5 152 90 152 73 152 C61.375 128.75 61.375 128.75 60.3034668 126.60473633 C58.13207488 122.25790462 55.95237601 117.91531106 53.76953125 113.57421875 C47.66107932 101.41140191 41.61725726 89.22618805 35.78662109 76.92675781 C32.71880064 70.46345199 29.56276643 64.05132943 26.28369141 57.69238281 C24 53.21222853 24 53.21222853 24 51 C23.34 51 22.68 51 22 51 C21.61714844 52.25683594 21.61714844 52.25683594 21.2265625 53.5390625 C19.88850781 57.31459261 18.19932014 60.81936427 16.375 64.375 C15.73673083 65.6326865 15.09872586 66.8905071 14.4609375 68.1484375 C14.0894458 68.87877197 13.7179541 69.60910645 13.33520508 70.36157227 C11.33715022 74.3098222 9.36225506 78.26961388 7.38496399 82.22828674 C4.96022337 87.08179699 2.52995174 91.93250009 0.09643555 96.78161621 C-1.77321802 100.50779889 -3.64093931 104.23494873 -5.50854492 107.9621582 C-6.45867026 109.85737661 -7.40951293 111.75223557 -8.36108398 113.64672852 C-9.77266624 116.45750008 -11.18147113 119.26965034 -12.58984375 122.08203125 C-12.99951889 122.89622025 -13.40919403 123.71040924 -13.83128357 124.54927063 C-18.37335948 133.6325937 -22.64878392 142.8140994 -27 152 C-43.5 152 -60 152 -77 152 C-76.14604048 146.02228339 -75.43382494 143.28797006 -72.75390625 138.203125 C-72.42739075 137.57663055 -72.10087524 136.95013611 -71.76446533 136.30465698 C-70.70688394 134.28115208 -69.63492111 132.26567298 -68.5625 130.25 C-67.82352848 128.84277545 -67.08549745 127.43505663 -66.34838867 126.02685547 C-64.55613101 122.60811007 -62.75286742 119.19533787 -60.94506836 115.78479004 C-59.68155922 113.39861501 -58.42615784 111.00822292 -57.171875 108.6171875 C-55.61516633 105.65125112 -54.05357256 102.68797739 -52.48828125 99.7265625 C-49.46571326 93.99815899 -46.48448345 88.24830905 -43.5 82.5 C-39.72973025 75.23853786 -35.94675663 67.98449583 -32.125 60.75 C-27.86931923 52.69106964 -23.68165334 44.59748347 -19.5 36.5 C-15.08238924 27.94792144 -10.66067038 19.39820303 -6.1875 10.875 C-5.58421875 9.72161133 -5.58421875 9.72161133 -4.96875 8.54492188 C-3.41841919 5.59929334 -1.84819292 2.77228938 0 0 Z " fill="#0138FC" transform="translate(176,82)"/>
<path d="M0 0 C7.51542717 4.38675815 11.06212777 9.90122705 13.7734375 18.03515625 C14.64545531 26.62667596 13.4169056 33.99035426 8.30078125 41.07421875 C3.41882236 46.49861752 -2.55480719 49.3303969 -9.73828125 50.4140625 C-17.40982647 50.78740301 -24.24025051 48.56702946 -30.1015625 43.59765625 C-30.8028125 42.75203125 -31.5040625 41.90640625 -32.2265625 41.03515625 C-32.9484375 40.25140625 -33.6703125 39.46765625 -34.4140625 38.66015625 C-38.71303437 32.43405906 -38.90180841 25.35735409 -38.2265625 18.03515625 C-36.68692046 11.03459635 -32.96546263 6.08933135 -27.2265625 1.78515625 C-19.0046983 -3.0109312 -8.86340915 -4.02032272 0 0 Z " fill="#0238FB" transform="translate(211.2265625,267.96484375)"/>
<path d="M0 0 C3.6297578 1.4317808 4.90238825 3.00805819 6.6875 6.4375 C7.10386719 7.21996094 7.52023438 8.00242187 7.94921875 8.80859375 C10.8380544 14.83326586 10.90172972 21.24641425 9.3515625 27.69921875 C6.85302346 34.67163751 3.16228007 39.64254053 -3.32421875 43.31640625 C-11.16931777 46.8510113 -18.21713334 47.25081827 -26.3125 44.3125 C-31.79311433 41.87762739 -35.69494006 38.65787439 -38 33 C-36.515 32.505 -36.515 32.505 -35 32 C-34.34 33.32 -33.68 34.64 -33 36 C-32.67 35.34 -32.34 34.68 -32 34 C-31.2575 34.474375 -30.515 34.94875 -29.75 35.4375 C-27.38949985 36.77869327 -25.63351523 37.512312 -23 38 C-23.495 40.475 -23.495 40.475 -24 43 C-19.32798795 44.20568053 -14.78503708 44.09382426 -10 44 C-10 43.34 -10 42.68 -10 42 C-8.02 42 -6.04 42 -4 42 C-4.33 40.35 -4.66 38.7 -5 37 C-4.01 37 -3.02 37 -2 37 C-2.33 37.99 -2.66 38.98 -3 40 C-2.34 40 -1.68 40 -1 40 C-0.67 38.68 -0.34 37.36 0 36 C0.66 36 1.32 36 2 36 C2 35.01 2 34.02 2 33 C2.99 33 3.98 33 5 33 C5 31.35 5 29.7 5 28 C5.66 27.67 6.32 27.34 7 27 C7 22.71 7 18.42 7 14 C6.34 14 5.68 14 5 14 C4.67 10.7 4.34 7.4 4 4 C2.68 4 1.36 4 0 4 C0 2.68 0 1.36 0 0 Z " fill="#0F40E0" transform="translate(215,272)"/>
<path d="M0 0 C0.99 0 1.98 0 3 0 C1.32896584 5.6131976 -1.14985973 10.74155143 -3.6875 16 C-4.09677734 16.85722656 -4.50605469 17.71445313 -4.92773438 18.59765625 C-8.53000446 26.11206911 -12.27206168 33.54412335 -16 41 C-32.5 41 -49 41 -66 41 C-65.16454174 35.15179215 -64.70382643 32.82999875 -61.9375 28.0625 C-61.38964844 27.10472656 -60.84179688 26.14695313 -60.27734375 25.16015625 C-59.85582031 24.44730469 -59.43429688 23.73445313 -59 23 C-58.67 23 -58.34 23 -58 23 C-58 25.31 -58 27.62 -58 30 C-58.99 30 -59.98 30 -61 30 C-61.495 32.475 -61.495 32.475 -62 35 C-62.66 35 -63.32 35 -64 35 C-64.495 37.475 -64.495 37.475 -65 40 C-49.16 40 -33.32 40 -17 40 C-17.495 37.03 -17.495 37.03 -18 34 C-17.01 34 -16.02 34 -15 34 C-14.731875 32.72125 -14.46375 31.4425 -14.1875 30.125 C-13.42809901 26.50324145 -13.29922197 26.19948132 -10 24 C-9.63239269 21.67182036 -9.29758419 19.3381615 -9 17 C-8.34 16.67 -7.68 16.34 -7 16 C-5.94647157 13.69034152 -4.94280904 11.3570226 -4 9 C-3.34 9 -2.68 9 -2 9 C-1.34 6.03 -0.68 3.06 0 0 Z " fill="#254ACA" transform="translate(165,193)"/>
<path d="M0 0 C1.90465128 -0.03983892 3.81006856 -0.04997884 5.71508789 -0.03637695 C7.22601768 -0.04710991 7.22601768 -0.04710991 8.76747131 -0.05805969 C10.89835726 -0.06584625 13.02932277 -0.06080444 15.16015625 -0.04394531 C18.42283663 -0.02474593 21.68124467 -0.0640607 24.94360352 -0.10864258 C27.01326751 -0.10893298 29.08293542 -0.10579195 31.15258789 -0.09887695 C32.12872543 -0.11415939 33.10486298 -0.12944183 34.11058044 -0.14518738 C40.73558112 -0.03111665 40.73558112 -0.03111665 43.02835083 2.0496521 C44.14697266 3.71044922 44.14697266 3.71044922 45.50024414 6.6628418 C45.17024414 7.3228418 44.84024414 7.9828418 44.50024414 8.6628418 C43.84024414 8.0028418 43.18024414 7.3428418 42.50024414 6.6628418 C38.45831436 3.96822194 36.29509454 4.43083291 31.50024414 4.6628418 C30.51024414 4.3328418 29.52024414 4.0028418 28.50024414 3.6628418 C26.06244037 3.51014998 23.64740513 3.40601483 21.20727539 3.34643555 C20.5012468 3.32565445 19.7952182 3.30487335 19.0677948 3.28346252 C16.81620864 3.21816688 14.56450752 3.15917533 12.31274414 3.1003418 C10.78473754 3.05713754 9.2567425 3.01352264 7.72875977 2.96948242 C3.98603852 2.86250606 0.24320184 2.76118258 -3.49975586 2.6628418 C-3.49975586 3.6528418 -3.49975586 4.6428418 -3.49975586 5.6628418 C-4.15975586 5.6628418 -4.81975586 5.6628418 -5.49975586 5.6628418 C-5.49975586 6.9828418 -5.49975586 8.3028418 -5.49975586 9.6628418 C-6.48975586 10.1578418 -6.48975586 10.1578418 -7.49975586 10.6628418 C-8.2213501 12.30647313 -8.89327007 13.97334566 -9.49975586 15.6628418 C-10.15975586 15.6628418 -10.81975586 15.6628418 -11.49975586 15.6628418 C-11.60288086 16.5909668 -11.70600586 17.5190918 -11.81225586 18.4753418 C-12.50677506 21.69538538 -12.97716525 22.68864045 -15.49975586 24.6628418 C-15.49975586 20.47757758 -13.55919265 17.42680824 -11.68725586 13.7878418 C-11.33083008 13.08014648 -10.9744043 12.37245117 -10.60717773 11.64331055 C-9.58969259 9.63821138 -8.5689275 7.64091861 -7.49975586 5.6628418 C-7.17330078 4.77218018 -6.8468457 3.88151855 -6.51049805 2.96386719 C-4.11899691 0.22711413 -3.50099569 0.26790138 0 0 Z " fill="#0C3BD8" transform="translate(180.499755859375,81.337158203125)"/>
<path d="M0 0 C0.66 0.99 1.32 1.98 2 3 C0.84858407 6.87294449 -1.16262776 10.40877243 -3 14 C-3.66 14 -4.32 14 -5 14 C-5.103125 15.2375 -5.20625 16.475 -5.3125 17.75 C-5.76126881 21.2715886 -6.30858996 23.50795367 -9 26 C-11.125 26.625 -11.125 26.625 -13 27 C-13.33 27.66 -13.66 28.32 -14 29 C-14.99 28.67 -15.98 28.34 -17 28 C-17 27.67 -17 27.34 -17 27 C-38.78 26.505 -38.78 26.505 -61 26 C-61 25.67 -61 25.34 -61 25 C-44.5 25 -28 25 -11 25 C-10.01 22.03 -9.02 19.06 -8 16 C-7.36171098 14.52119322 -6.69176571 13.05442819 -5.95703125 11.62109375 C-5.60576172 10.92822266 -5.25449219 10.23535156 -4.89257812 9.52148438 C-4.53615234 8.83376953 -4.17972656 8.14605469 -3.8125 7.4375 C-3.26045898 6.3537207 -3.26045898 6.3537207 -2.69726562 5.24804688 C-1.80375687 3.49584138 -0.90269225 1.74749212 0 0 Z " fill="#D5E6FC" transform="translate(160,209)"/>
<path d="M0 0 C0.33 0.66 0.66 1.32 1 2 C3.32156597 2.40729228 5.6568787 2.74438677 8 3 C8 4.32 8 5.64 8 7 C8.66 7.33 9.32 7.66 10 8 C10 10.64 10 13.28 10 16 C7.25207517 12.59780735 4 8.51535412 4 4 C3.34 4 2.68 4 2 4 C1.74863281 4.83015625 1.49726563 5.6603125 1.23828125 6.515625 C-0.15842031 10.44577576 -1.91350479 14.04429719 -3.8125 17.75 C-4.16634766 18.44867188 -4.52019531 19.14734375 -4.88476562 19.8671875 C-5.5917536 21.26313461 -6.30021666 22.65833578 -7.01025391 24.05273438 C-8.35337893 26.6952517 -9.67737648 29.34717345 -11 32 C-11.66666667 33.33333333 -12.33333333 34.66666667 -13 36 C-14 33 -14 33 -13.2578125 31.0546875 C-12.88398438 30.33539063 -12.51015625 29.61609375 -12.125 28.875 C-9.88717479 24.17556706 -9.32853569 20.17443709 -9 15 C-7.68 15 -6.36 15 -5 15 C-5 14.01 -5 13.02 -5 12 C-4 11 -3 10 -2 9 C-0.35116058 5.61554014 0 3.86245304 0 0 Z " fill="#1B45DC" transform="translate(196,129)"/>
<path d="M0 0 C0.66 0 1.32 0 2 0 C2.67154933 1.28913487 3.33708859 2.58140204 4 3.875 C4.37125 4.59429687 4.7425 5.31359375 5.125 6.0546875 C6 8 6 8 6 10 C4.68 9.67 3.36 9.34 2 9 C1.7525 9.804375 1.505 10.60875 1.25 11.4375 C0.8375 12.283125 0.425 13.12875 0 14 C-1.32303717 14.3721042 -2.65737935 14.70630173 -4 15 C-5.08431094 16.74867483 -5.08431094 16.74867483 -6 19 C-9.65714286 24.82857143 -9.65714286 24.82857143 -12 26 C-10.43395325 20.86956561 -8.30016999 16.14202359 -6 11.3125 C-5.64421875 10.55388672 -5.2884375 9.79527344 -4.921875 9.01367188 C-3.41870864 5.83626985 -1.95661265 2.93491897 0 0 Z " fill="#ECF5FC" transform="translate(198,133)"/>
<path d="M0 0 C3.26796583 3.03552844 4.96153019 6.59168358 6.875 10.5625 C7.58060063 12.00396918 8.28632975 13.44537546 8.9921875 14.88671875 C9.3334668 15.58845215 9.67474609 16.29018555 10.02636719 17.01318359 C11.69889563 20.4261817 13.44668594 23.80113389 15.1875 27.1796875 C16 29 16 29 16 31 C15.01 30.67 14.02 30.34 13 30 C12.26953125 28.15234375 12.26953125 28.15234375 11.8125 25.9375 C11.65394531 25.20402344 11.49539063 24.47054687 11.33203125 23.71484375 C11.22246094 23.14894531 11.11289062 22.58304688 11 22 C10.01 22 9.02 22 8 22 C7.34 21.01 6.68 20.02 6 19 C5.319375 18.7525 4.63875 18.505 3.9375 18.25 C3.298125 17.8375 2.65875 17.425 2 17 C1.3125 13.75 1.3125 13.75 1 10 C0.7215625 8.4221875 0.7215625 8.4221875 0.4375 6.8125 C0 4 0 4 0 0 Z " fill="#0436EF" transform="translate(248,133)"/>
<path d="M0 0 C4.51689366 3.97617421 6.61831855 9.76531876 9.25 15.0625 C9.8171875 16.17689453 10.384375 17.29128906 10.96875 18.43945312 C11.49984375 19.50228516 12.0309375 20.56511719 12.578125 21.66015625 C13.06700195 22.63605713 13.55587891 23.61195801 14.05957031 24.61743164 C14.36991211 25.4036792 14.68025391 26.18992676 15 27 C14.67 27.66 14.34 28.32 14 29 C13.608125 28.34 13.21625 27.68 12.8125 27 C12.214375 26.01 11.61625 25.02 11 24 C10.62488281 23.33742187 10.24976563 22.67484375 9.86328125 21.9921875 C7.37977114 17.74593362 5.51631999 15.25816 1 13 C0.67 12.34 0.34 11.68 0 11 C0.33 10.01 0.66 9.02 1 8 C0.01 8 -0.98 8 -2 8 C-1.33333333 5.33333333 -0.66666667 2.66666667 0 0 Z " fill="#0E3EE1" transform="translate(266,168)"/>
<path d="M0 0 C3.6297578 1.4317808 4.90238825 3.00805819 6.6875 6.4375 C7.31205078 7.61119141 7.31205078 7.61119141 7.94921875 8.80859375 C10.858054 14.87497506 10.98292441 21.41865164 9.2109375 27.875 C6.66696429 34.55535714 6.66696429 34.55535714 3 37 C3 36.01 3 35.02 3 34 C3.66 34 4.32 34 5 34 C5 32.02 5 30.04 5 28 C5.66 27.67 6.32 27.34 7 27 C7 22.71 7 18.42 7 14 C6.34 14 5.68 14 5 14 C4.67 10.7 4.34 7.4 4 4 C2.68 4 1.36 4 0 4 C0 2.68 0 1.36 0 0 Z " fill="#1740CE" transform="translate(215,272)"/>
<path d="M0 0 C0.99 0 1.98 0 3 0 C1.31252057 5.67180585 -1.19310009 10.87014941 -3.75 16.1875 C-4.19520996 17.11844482 -4.64041992 18.04938965 -5.09912109 19.00854492 C-8.20296731 25.45547106 -11.4269886 31.79806558 -15 38 C-15.99 37.67 -16.98 37.34 -18 37 C-18 36.01 -18 35.02 -18 34 C-17.01 34 -16.02 34 -15 34 C-14.731875 32.72125 -14.46375 31.4425 -14.1875 30.125 C-13.42809901 26.50324145 -13.29922197 26.19948132 -10 24 C-9.63239269 21.67182036 -9.29758419 19.3381615 -9 17 C-8.34 16.67 -7.68 16.34 -7 16 C-5.94647157 13.69034152 -4.94280904 11.3570226 -4 9 C-3.34 9 -2.68 9 -2 9 C-1.34 6.03 -0.68 3.06 0 0 Z " fill="#1441D5" transform="translate(165,193)"/>
<path d="M0 0 C0.66 0.99 1.32 1.98 2 3 C1.31035156 2.7834375 0.62070313 2.566875 -0.08984375 2.34375 C-6.22041894 0.52728328 -11.61442058 -0.61356101 -18 0 C-19.17949219 0.10441406 -19.17949219 0.10441406 -20.3828125 0.2109375 C-23.77534212 0.71477853 -26.15764888 1.11155006 -28.5703125 3.65625 C-29.88937878 5.5231283 -29.88937878 5.5231283 -30.9296875 7.44140625 C-32 9 -32 9 -35 10 C-35 7.875 -35 7.875 -34 5 C-24.51280673 -4.06603282 -11.79240198 -6.00745006 0 0 Z " fill="#1A43D8" transform="translate(213,269)"/>
<path d="M0 0 C1.32 0 2.64 0 4 0 C4.144375 1.093125 4.28875 2.18625 4.4375 3.3125 C4.88288104 6.93122987 4.88288104 6.93122987 6 10 C6.99 10 7.98 10 9 10 C9.33 12.97 9.66 15.94 10 19 C11.65 19.33 13.3 19.66 15 20 C15.33 24.29 15.66 28.58 16 33 C13.63527877 29.84703836 12.04134707 27.28268348 10.37109375 23.7890625 C9.65469727 22.29246094 9.65469727 22.29246094 8.92382812 20.765625 C8.43333984 19.72921875 7.94285156 18.6928125 7.4375 17.625 C6.94314453 16.59632813 6.44878906 15.56765625 5.93945312 14.5078125 C3.66104953 9.72285664 1.60652425 5.05890165 0 0 Z " fill="#1543D9" transform="translate(229,192)"/>
<path d="M0 0 C0.66 0 1.32 0 2 0 C1.34 2.31 0.68 4.62 0 7 C-0.66 7 -1.32 7 -2 7 C-2.08004482 10.5219721 -2.04005702 13.61981469 -1 17 C-1.804375 17.268125 -2.60875 17.53625 -3.4375 17.8125 C-4.283125 18.204375 -5.12875 18.59625 -6 19 C-6.33 19.99 -6.66 20.98 -7 22 C-8.32 21.67 -9.64 21.34 -11 21 C-10.60675537 20.2589502 -10.60675537 20.2589502 -10.20556641 19.50292969 C-9.01155584 17.25221185 -7.81827126 15.00110988 -6.625 12.75 C-6.2125 11.97269531 -5.8 11.19539062 -5.375 10.39453125 C-4.97539063 9.64042969 -4.57578125 8.88632813 -4.1640625 8.109375 C-3.79748535 7.41811523 -3.4309082 6.72685547 -3.05322266 6.01464844 C-2.01113969 4.02130846 -0.99957057 2.01494463 0 0 Z " fill="#143EE3" transform="translate(119,191)"/>
<path d="M0 0 C1.6026213 3.2052426 0.04134314 5.70241339 -1 9 C-1.33 9.99 -1.66 10.98 -2 12 C-2.66 12 -3.32 12 -4 12 C-4.33 15.96 -4.66 19.92 -5 24 C-6.98 23.34 -8.96 22.68 -11 22 C-9.54555549 18.89399665 -8.08577648 15.79052979 -6.625 12.6875 C-6.2125 11.80642578 -5.8 10.92535156 -5.375 10.01757812 C-4.97539063 9.17001953 -4.57578125 8.32246094 -4.1640625 7.44921875 C-3.61419678 6.27879028 -3.61419678 6.27879028 -3.05322266 5.0847168 C-2 3 -2 3 0 0 Z " fill="#0E3EE9" transform="translate(131,168)"/>
<path d="M0 0 C3.79841561 4.80935251 6.41823941 10.21289682 9.25 15.625 C9.8171875 16.6871875 10.384375 17.749375 10.96875 18.84375 C11.49984375 19.85695313 12.0309375 20.87015625 12.578125 21.9140625 C13.06700195 22.8417041 13.55587891 23.7693457 14.05957031 24.72509766 C14.36991211 25.47581543 14.68025391 26.2265332 15 27 C14.67 27.66 14.34 28.32 14 29 C12.84735447 27.25447936 11.70312673 25.50339804 10.5625 23.75 C9.92441406 22.77546875 9.28632813 21.8009375 8.62890625 20.796875 C7 18 7 18 6.46484375 15.765625 C6.10019688 13.58767159 6.10019688 13.58767159 3 12 C3 11.01 3 10.02 3 9 C1.35 9.66 -0.3 10.32 -2 11 C-2 10.01 -2 9.02 -2 8 C-1.34 8 -0.68 8 0 8 C0 5.36 0 2.72 0 0 Z " fill="#103CE1" transform="translate(233,104)"/>
<path d="M0 0 C0.66 0.99 1.32 1.98 2 3 C4.01076785 3.4745831 4.01076785 3.4745831 6.35791016 3.43237305 C7.25869293 3.45216721 8.15947571 3.47196136 9.08755493 3.49235535 C10.06155243 3.49874527 11.03554993 3.50513519 12.0390625 3.51171875 C13.03505463 3.52966995 14.03104675 3.54762115 15.05722046 3.56611633 C18.24643689 3.62040998 21.43550209 3.65417617 24.625 3.6875 C26.78387531 3.72065624 28.9427306 3.75514429 31.1015625 3.79101562 C36.40090603 3.876147 41.70026869 3.94441575 47 4 C47 4.33 47 4.66 47 5 C31.16 5 15.32 5 -1 5 C-0.67 3.35 -0.34 1.7 0 0 Z " fill="#0739E7" transform="translate(101,228)"/>
<path d="M0 0 C0.33 0.66 0.66 1.32 1 2 C0.69320312 2.86882812 0.38640625 3.73765625 0.0703125 4.6328125 C-1.14767474 8.46458258 -1.22495803 11.90743513 -1.125 15.875 C-1.11597656 16.56335938 -1.10695312 17.25171875 -1.09765625 17.9609375 C-1.07432513 19.64077838 -1.03846326 21.32043746 -1 23 C-3 21.46875 -3 21.46875 -5 19 C-5.3125 15.46875 -5.3125 15.46875 -5 11.5 C-4.9175 10.1903125 -4.835 8.880625 -4.75 7.53125 C-3.93454398 3.69181125 -3.03006223 2.3947266 0 0 Z " fill="#DCEDFD" transform="translate(175,278)"/>
<path d="M0 0 C0.66 0.66 1.32 1.32 2 2 C2.33 1.34 2.66 0.68 3 0 C3.66 0 4.32 0 5 0 C4.40165275 4.14298667 2.99335715 7.18194377 0.9375 10.8125 C0.38964844 11.78832031 -0.15820312 12.76414062 -0.72265625 13.76953125 C-1.14417969 14.50558594 -1.56570312 15.24164063 -2 16 C-3.30660357 11.70272603 -2.6596762 8.39784135 -2 4 C-1.34 4 -0.68 4 0 4 C0 2.68 0 1.36 0 0 Z " fill="#DFEBFB" transform="translate(163,96)"/>
<path d="M0 0 C0.66 0 1.32 0 2 0 C0.50829734 4.9723422 -1.60457417 9.41845739 -4 14 C-5.50390625 12.6171875 -5.50390625 12.6171875 -7 11 C-6.87266503 7.17995079 -4.49446126 4.72123047 -2 2 C-1.34 2 -0.68 2 0 2 C0 1.34 0 0.68 0 0 Z " fill="#E5EFFD" transform="translate(112,200)"/>
<path d="M0 0 C1.07090744 4.28362976 1.00804968 6.73517443 0 11 C-1.9375 12.9375 -1.9375 12.9375 -4 14 C-4.66 14 -5.32 14 -6 14 C-6 14.66 -6 15.32 -6 16 C-6.66 15.67 -7.32 15.34 -8 15 C-5.36 10.05 -2.72 5.1 0 0 Z " fill="#1842E0" transform="translate(143,145)"/>
<path d="M0 0 C1.98 0.99 1.98 0.99 4 2 C4 2.99 4 3.98 4 5 C4.66 5.66 5.32 6.32 6 7 C6.33 7.66 6.66 8.32 7 9 C7.66 9 8.32 9 9 9 C9.625 12.375 9.625 12.375 10 16 C9.34 16.66 8.68 17.32 8 18 C6.66180502 15.3773768 5.3292849 12.75213401 4 10.125 C3.6184375 9.37863281 3.236875 8.63226563 2.84375 7.86328125 C2.4828125 7.14785156 2.121875 6.43242188 1.75 5.6953125 C1.41484375 5.03547363 1.0796875 4.37563477 0.734375 3.69580078 C0 2 0 2 0 0 Z " fill="#DDE9FB" transform="translate(229,94)"/>
<path d="M0 0 C3 1 3 1 4.1328125 2.92578125 C4.62394531 4.10720703 4.62394531 4.10720703 5.125 5.3125 C5.45757812 6.09238281 5.79015625 6.87226563 6.1328125 7.67578125 C6.91550386 9.77353512 7.51059398 11.81764866 8 14 C8.99 14 9.98 14 11 14 C11.33 17.3 11.66 20.6 12 24 C9.82936952 21.82936952 8.92619374 20.01153079 7.6171875 17.24609375 C7.17246094 16.30958984 6.72773438 15.37308594 6.26953125 14.40820312 C5.57923828 12.93770508 5.57923828 12.93770508 4.875 11.4375 C4.40707031 10.45330078 3.93914062 9.46910156 3.45703125 8.45507812 C0 1.1429027 0 1.1429027 0 0 Z " fill="#1B43D3" transform="translate(206,146)"/>
<path d="M0 0 C1.68016581 4.94843355 0.15000689 9.39168335 -2 14 C-4.6875 15.625 -4.6875 15.625 -7 16 C-5.35433477 10.31497465 -2.70967216 5.23318364 0 0 Z " fill="#E3EBFC" transform="translate(184,161)"/>
<path d="M0 0 C0.97110486 3.02121511 1.13617383 5.00463263 0 8 C-0.99 8.495 -0.99 8.495 -2 9 C-2.72159424 10.64363134 -3.39351421 12.31050386 -4 14 C-4.66 14 -5.32 14 -6 14 C-6.103125 14.928125 -6.20625 15.85625 -6.3125 16.8125 C-7.0070192 20.03254358 -7.47740939 21.02579865 -10 23 C-10 19.95950517 -9.65929247 18.96037354 -8.3203125 16.34765625 C-7.79244141 15.30641602 -7.79244141 15.30641602 -7.25390625 14.24414062 C-6.88136719 13.52419922 -6.50882813 12.80425781 -6.125 12.0625 C-5.76019531 11.34642578 -5.39539063 10.63035156 -5.01953125 9.89257812 C-4.33623178 8.55206881 -3.6504696 7.21280984 -2.96142578 5.87524414 C-1.96074772 3.92343912 -0.97796525 1.96326932 0 0 Z " fill="#1E49D2" transform="translate(175,83)"/>
<path d="M0 0 C1.75414401 2.28038721 3.29638425 4.50808729 4.75 7 C7.51715074 10.68953432 9.91284176 11.95642088 14 14 C13.01 14.99 12.02 15.98 11 17 C9.33333333 15.33333333 7.66666667 13.66666667 6 12 C5.29875 11.360625 4.5975 10.72125 3.875 10.0625 C1.60403332 7.56443665 0.28586457 5.11314579 -1 2 C-0.67 1.34 -0.34 0.68 0 0 Z " fill="#E3F1FC" transform="translate(174,301)"/>
<path d="M0 0 C1.08948791 3.70965726 0.74840737 5.4630649 -0.75 9.0625 C-1.09546875 9.91972656 -1.4409375 10.77695313 -1.796875 11.66015625 C-2.97747655 13.95619628 -4.1282495 15.26301553 -6 17 C-7.03357147 18.64605826 -8.04060332 20.30963442 -9 22 C-9.33 21.34 -9.66 20.68 -10 20 C-9.19555664 17.93701172 -9.19555664 17.93701172 -7.91015625 15.4296875 C-7.22856445 14.08583984 -7.22856445 14.08583984 -6.53320312 12.71484375 C-6.04787109 11.77769531 -5.56253906 10.84054688 -5.0625 9.875 C-4.58103516 8.93011719 -4.09957031 7.98523438 -3.60351562 7.01171875 C-2.40938905 4.67075774 -1.20797401 2.33383736 0 0 Z " fill="#244AD4" transform="translate(154,123)"/>
<path d="M0 0 C0.12375 0.639375 0.2475 1.27875 0.375 1.9375 C0.684375 2.9584375 0.684375 2.9584375 1 4 C1.66 4.33 2.32 4.66 3 5 C-2.0022779 12.66742597 -2.0022779 12.66742597 -6 14 C-4.50829734 9.0276578 -2.39542583 4.58154261 0 0 Z " fill="#1544DB" transform="translate(163,106)"/>
<path d="M0 0 C0.99 0.33 1.98 0.66 3 1 C2.34 1 1.68 1 1 1 C0.938125 1.7425 0.87625 2.485 0.8125 3.25 C-0.28807128 6.97501049 -1.67216884 8.0467078 -5 10 C-8.8125 10.25 -8.8125 10.25 -12 10 C-12 9.67 -12 9.34 -12 9 C-10.02 9 -8.04 9 -6 9 C-6.33 7.35 -6.66 5.7 -7 4 C-6.01 4 -5.02 4 -4 4 C-4.33 4.99 -4.66 5.98 -5 7 C-4.34 7 -3.68 7 -3 7 C-2.67 5.68 -2.34 4.36 -2 3 C-1.34 3 -0.68 3 0 3 C0 2.01 0 1.02 0 0 Z " fill="#0E3DE4" transform="translate(217,305)"/>
<path d="M0 0 C0.66 0.99 1.32 1.98 2 3 C0.84858407 6.87294449 -1.16262776 10.40877243 -3 14 C-3.66 14 -4.32 14 -5 14 C-5 14.66 -5 15.32 -5 16 C-5.66 16 -6.32 16 -7 16 C-5.56835889 12.34061828 -4.01065704 8.76011932 -2.375 5.1875 C-1.92898437 4.21167969 -1.48296875 3.23585937 -1.0234375 2.23046875 C-0.51683594 1.12638672 -0.51683594 1.12638672 0 0 Z " fill="#DAE6FB" transform="translate(160,209)"/>
<path d="M0 0 C2.48627517 3.0622744 4.09989404 6.1457054 5.6875 9.75 C6.12449219 10.73484375 6.56148437 11.7196875 7.01171875 12.734375 C7.33785156 13.48203125 7.66398438 14.2296875 8 15 C7.01 15.33 6.02 15.66 5 16 C1.60840044 10.91260065 0 6.13018154 0 0 Z " fill="#D5E8FC" transform="translate(232,200)"/>
<path d="M0 0 C0.66 0.33 1.32 0.66 2 1 C1.47599609 1.99580078 1.47599609 1.99580078 0.94140625 3.01171875 C0.25884766 4.33623047 0.25884766 4.33623047 -0.4375 5.6875 C-0.88996094 6.55761719 -1.34242187 7.42773438 -1.80859375 8.32421875 C-2.95991928 10.90998264 -3.56320753 13.21356528 -4 16 C-4.33 16 -4.66 16 -5 16 C-5.19573608 14.56359829 -5.38127816 13.12580496 -5.5625 11.6875 C-5.66691406 10.88699219 -5.77132812 10.08648437 -5.87890625 9.26171875 C-6 7 -6 7 -5 4 C-4.01 4 -3.02 4 -2 4 C-1.34 2.68 -0.68 1.36 0 0 Z " fill="#E4EDFC" transform="translate(103,218)"/>
<path d="M0 0 C2.55375615 3.17494007 4.37447153 6.48103661 6.1875 10.125 C6.71730469 11.17945313 7.24710937 12.23390625 7.79296875 13.3203125 C9 16 9 16 9 18 C8.01 17.67 7.02 17.34 6 17 C5.26953125 15.15234375 5.26953125 15.15234375 4.8125 12.9375 C4.65394531 12.20402344 4.49539063 11.47054687 4.33203125 10.71484375 C4.22246094 10.14894531 4.11289062 9.58304688 4 9 C3.01 9 2.02 9 1 9 C0.67 6.03 0.34 3.06 0 0 Z " fill="#1D48D4" transform="translate(255,146)"/>
<path d="M0 0 C0.33 0 0.66 0 1 0 C1.22278115 3.89867006 0.45269257 6.41669166 -1 10 C-0.67 10.66 -0.34 11.32 0 12 C-0.66 12.66 -1.32 13.32 -2 14 C-3.32 14 -4.64 14 -6 14 C-4.50829734 9.0276578 -2.39542583 4.58154261 0 0 Z " fill="#D0E3FD" transform="translate(169,191)"/>
<path d="M0 0 C2 3 2 3 1.8125 5.3125 C0.39710026 9.99420683 -0.86915123 13.24610082 -5 16 C-4.80664062 15.43152344 -4.61328125 14.86304688 -4.4140625 14.27734375 C-2.81863577 9.54635062 -1.33099414 4.81205575 0 0 Z " fill="#083BEB" transform="translate(156,120)"/>
<path d="M0 0 C1.32 0.66 2.64 1.32 4 2 C3.48050781 2.24234375 2.96101562 2.4846875 2.42578125 2.734375 C-3.15656573 5.41720349 -7.7088153 8.48296347 -12 13 C-11.38722388 10.03824877 -10.74627478 8.61941217 -9 6 C-8.01 6 -7.02 6 -6 6 C-5.67 5.01 -5.34 4.02 -5 3 C-3.35 2.67 -1.7 2.34 0 2 C0 1.34 0 0.68 0 0 Z " fill="#D5EAFD" transform="translate(188,265)"/>
<path d="M0 0 C2.74792483 3.40219265 6 7.48464588 6 12 C1.125 10.25 1.125 10.25 0 8 C-0.13415472 5.3276379 -0.04318541 2.67749512 0 0 Z " fill="#E4F2F9" transform="translate(242,221)"/>
<path d="M0 0 C0.99 0.33 1.98 0.66 3 1 C0.69 5.62 -1.62 10.24 -4 15 C-5.09319392 10.62722433 -4.82044542 9.77048811 -3.125 5.8125 C-2.75632812 4.93207031 -2.38765625 4.05164063 -2.0078125 3.14453125 C-1 1 -1 1 0 0 Z " fill="#E1EDFE" transform="translate(126,172)"/>
<path d="M0 0 C2.79338987 3.43138632 4.77735487 7.18782761 6.75 11.125 C7.07871094 11.75792969 7.40742188 12.39085938 7.74609375 13.04296875 C8.56197269 14.66439906 9.28852285 16.33012128 10 18 C9.67 18.66 9.34 19.32 9 20 C7.86968397 18.27430361 6.74596893 16.54428261 5.625 14.8125 C4.99851563 13.84957031 4.37203125 12.88664062 3.7265625 11.89453125 C1.20509007 7.66735689 0 4.96418998 0 0 Z " fill="#254CCE" transform="translate(238,113)"/>
<path d="M0 0 C1.6026213 3.2052426 0.04134314 5.70241339 -1 9 C-1.33 9.99 -1.66 10.98 -2 12 C-4.0625 12.6875 -4.0625 12.6875 -6 13 C-4.58707905 8.1725201 -2.57025846 4.2837641 0 0 Z " fill="#214AD7" transform="translate(131,168)"/>
<path d="M0 0 C1.65 0 3.3 0 5 0 C5 2.64 5 5.28 5 8 C5.66 8.33 6.32 8.66 7 9 C6.01 10.485 6.01 10.485 5 12 C4.16440201 10.18854294 3.33157951 8.37580533 2.5 6.5625 C2.0359375 5.55316406 1.571875 4.54382813 1.09375 3.50390625 C0 1 0 1 0 0 Z " fill="#1B44E1" transform="translate(218,170)"/>
<path d="M0 0 C0.33 0.99 0.66 1.98 1 3 C2.32 2.67 3.64 2.34 5 2 C4.01 4.31 3.02 6.62 2 9 C1.34 8.34 0.68 7.68 0 7 C-0.99 7 -1.98 7 -3 7 C-2.38722388 4.03824877 -1.74627478 2.61941217 0 0 Z " fill="#E9F1FC" transform="translate(131,157)"/>
<path d="M0 0 C0 0.66 0 1.32 0 2 C-1.1446875 2.6496875 -1.1446875 2.6496875 -2.3125 3.3125 C-5.34395518 5.21597186 -6.23737591 6.95546748 -8 10 C-8.99 10.33 -9.98 10.66 -11 11 C-11 8.875 -11 8.875 -10 6 C-3.60655738 0 -3.60655738 0 0 0 Z " fill="#2449D5" transform="translate(189,268)"/>
<path d="M0 0 C1.9375 0.75 1.9375 0.75 4 2 C4.8125 4 4.8125 4 5 6 C4.67 6.66 4.34 7.32 4 8 C4.66 8.33 5.32 8.66 6 9 C5.01 9.33 4.02 9.66 3 10 C-0.22265625 4.82421875 -0.22265625 4.82421875 -1 3 C-0.67 2.01 -0.34 1.02 0 0 Z " fill="#E7F1FD" transform="translate(240,113)"/>
<path d="M0 0 C0.33 0 0.66 0 1 0 C1 2.31 1 4.62 1 7 C0.01 7 -0.98 7 -2 7 C-2.33 8.65 -2.66 10.3 -3 12 C-3.99 11.67 -4.98 11.34 -6 11 C-4.02 7.37 -2.04 3.74 0 0 Z " fill="#2247DB" transform="translate(106,216)"/>
<path d="M0 0 C2.2941487 2.12225283 3.85401234 4.17432883 5.3125 6.9375 C5.86357422 7.94103516 5.86357422 7.94103516 6.42578125 8.96484375 C7 11 7 11 6.10546875 13.25390625 C5.74066406 13.83011719 5.37585938 14.40632812 5 15 C2.43383368 11.15075052 2.44902324 8.5650696 2 4 C1.34 4 0.68 4 0 4 C0 2.68 0 1.36 0 0 Z " fill="#204AD4" transform="translate(248,133)"/>
<path d="M0 0 C0.66 0 1.32 0 2 0 C2.0825 0.5775 2.165 1.155 2.25 1.75 C3.2233811 4.6701433 4.67613275 6.01787793 7 8 C7.99 8.33 8.98 8.66 10 9 C10 9.66 10 10.32 10 11 C5.57165324 9.60823388 2.96898547 7.56278256 0 4 C0 2.68 0 1.36 0 0 Z " fill="#1F47D0" transform="translate(178,304)"/>
<path d="M0 0 C1.65 0 3.3 0 5 0 C5 3.3 5 6.6 5 10 C2.327664 6.43688534 1.22736029 4.15414253 0 0 Z " fill="#DEECFB" transform="translate(275,183)"/>
<path d="M0 0 C0.88336837 2.4667645 1.1312406 3.63859372 0.22265625 6.140625 C-0.16019531 6.83671875 -0.54304687 7.5328125 -0.9375 8.25 C-1.31777344 8.95640625 -1.69804687 9.6628125 -2.08984375 10.390625 C-2.39019531 10.92171875 -2.69054687 11.4528125 -3 12 C-3.33 11.34 -3.66 10.68 -4 10 C-4.99 9.67 -5.98 9.34 -7 9 C-6.01 8.34 -5.02 7.68 -4 7 C-3.67 6.01 -3.34 5.02 -3 4 C-2.34 4 -1.68 4 -1 4 C-0.67 2.68 -0.34 1.36 0 0 Z " fill="#F6FEF0" transform="translate(251,114)"/>
<path d="M0 0 C0.33 0.66 0.66 1.32 1 2 C1.66 2.33 2.32 2.66 3 3 C-0.06246747 4.78409802 -2.22079273 5.22880021 -5.75 5.125 C-6.54921875 5.10695313 -7.3484375 5.08890625 -8.171875 5.0703125 C-8.77515625 5.04710937 -9.3784375 5.02390625 -10 5 C-6.66666667 3.33333333 -3.33333333 1.66666667 0 0 Z " fill="#DCEFFA" transform="translate(214,313)"/>
<path d="M0 0 C0.66 1.32 1.32 2.64 2 4 C0.8828125 7.015625 0.8828125 7.015625 -0.875 10.25 C-1.44992188 11.32765625 -2.02484375 12.4053125 -2.6171875 13.515625 C-3.07351562 14.33546875 -3.52984375 15.1553125 -4 16 C-4.33 16 -4.66 16 -5 16 C-4.67 13.69 -4.34 11.38 -4 9 C-3.34 9 -2.68 9 -2 9 C-1.34 6.03 -0.68 3.06 0 0 Z " fill="#1944D0" transform="translate(173,177)"/>
<path d="M0 0 C0.66 0 1.32 0 2 0 C1.34 2.31 0.68 4.62 0 7 C-0.66 7 -1.32 7 -2 7 C-2 7.99 -2 8.98 -2 10 C-2.99 10.33 -3.98 10.66 -5 11 C-3.78065514 6.96678237 -2.44045073 3.45730521 0 0 Z " fill="#214AD8" transform="translate(119,191)"/>
<path d="M0 0 C0.99 0 1.98 0 3 0 C3.66 2.31 4.32 4.62 5 7 C5.66 7 6.32 7 7 7 C7 8.65 7 10.3 7 12 C4.39954125 9.6975881 3.15260817 7.50103323 1.8125 4.3125 C1.46832031 3.50425781 1.12414062 2.69601563 0.76953125 1.86328125 C0.51558594 1.24839844 0.26164063 0.63351563 0 0 Z " fill="#D7ECFD" transform="translate(244,124)"/>
<path d="M0 0 C1.96217707 2.9432656 3.58240698 5.75978738 5 9 C4.67 9.99 4.34 10.98 4 12 C1 10 1 10 0.48828125 7.6171875 C0.40126953 6.25980469 0.40126953 6.25980469 0.3125 4.875 C0.24675781 3.96492187 0.18101562 3.05484375 0.11328125 2.1171875 C0.07589844 1.41851562 0.03851563 0.71984375 0 0 Z " fill="#DBEEFB" transform="translate(218,171)"/>
<path d="M0 0 C2.60045875 2.3024119 3.84739183 4.49896677 5.1875 7.6875 C5.53167969 8.49574219 5.87585938 9.30398437 6.23046875 10.13671875 C6.48441406 10.75160156 6.73835938 11.36648437 7 12 C6.01 12.495 6.01 12.495 5 13 C2.25477117 8.57221156 0.51525603 5.28137429 0 0 Z " fill="#274ED6" transform="translate(266,168)"/>
<path d="M0 0 C0.33 0 0.66 0 1 0 C1.32469403 4.65394781 0.79790518 7.23358918 -2 11 C-2.99 11.495 -2.99 11.495 -4 12 C-4 12.66 -4 13.32 -4 14 C-4.66 13.67 -5.32 13.34 -6 13 C-4.02 8.71 -2.04 4.42 0 0 Z " fill="#D8E5FD" transform="translate(196,136)"/>
<path d="M0 0 C4.20626034 1.50223584 5.73900021 4.28550034 8 8 C7.67 8.66 7.34 9.32 7 10 C4 6.25 4 6.25 4 4 C2.68 4 1.36 4 0 4 C0 2.68 0 1.36 0 0 Z " fill="#2D53D1" transform="translate(215,272)"/>
<path d="M0 0 C0.99 0.33 1.98 0.66 3 1 C3.6875 3.0625 3.6875 3.0625 4 5 C3.360625 5.28875 2.72125 5.5775 2.0625 5.875 C-0.15206079 6.82823451 -0.15206079 6.82823451 -1 9 C-0.67 6.03 -0.34 3.06 0 0 Z " fill="#033AEA" transform="translate(177,277)"/>
<path d="M0 0 C1.32 0.33 2.64 0.66 4 1 C4.33 3.97 4.66 6.94 5 10 C2.35534962 6.8745041 1.15585285 3.91211733 0 0 Z " fill="#1C41DD" transform="translate(224,182)"/>
<path d="M0 0 C1.32 0.33 2.64 0.66 4 1 C4 2.65 4 4.3 4 6 C4.66 6.33 5.32 6.66 6 7 C5.34 7 4.68 7 4 7 C4 7.66 4 8.32 4 9 C3.34 9 2.68 9 2 9 C1.34 6.03 0.68 3.06 0 0 Z " fill="#F9FCF3" transform="translate(200,142)"/>
<path d="M0 0 C0.66 0.66 1.32 1.32 2 2 C2.33 1.34 2.66 0.68 3 0 C3.66 0 4.32 0 5 0 C4.67 1.65 4.34 3.3 4 5 C2.02 5.66 0.04 6.32 -2 7 C-2 6.01 -2 5.02 -2 4 C-1.34 4 -0.68 4 0 4 C0 2.68 0 1.36 0 0 Z " fill="#EAF1FA" transform="translate(163,96)"/>
<path d="M0 0 C-2 2 -2 2 -5.5 2.25 C-9 2 -9 2 -11 0 C-7.01803543 -1.05404945 -4.01804691 -0.84098656 0 0 Z " fill="#0539EF" transform="translate(205,315)"/>
<path d="M0 0 C0.625 1.8125 0.625 1.8125 1 4 C0.01 5.485 0.01 5.485 -1 7 C-1.66 7 -2.32 7 -3 7 C-3.33 5.02 -3.66 3.04 -4 1 C-2 0 -2 0 0 0 Z " fill="#EAF6F9" transform="translate(302,227)"/>
<path d="M0 0 C2.64465038 3.1254959 3.84414715 6.08788267 5 10 C4.01 9.67 3.02 9.34 2 9 C2 8.01 2 7.02 2 6 C1.01 5.67 0.02 5.34 -1 5 C-0.67 3.35 -0.34 1.7 0 0 Z " fill="#2447D4" transform="translate(226,90)"/>
<path d="M0 0 C2.1385485 2.1385485 2.42655063 3.13275314 3 6 C1.02 6.99 1.02 6.99 -1 8 C-1.625 5.125 -1.625 5.125 -2 2 C-1.34 1.34 -0.68 0.68 0 0 Z " fill="#FAFDF2" transform="translate(198,149)"/>
<path d="M0 0 C1.85776765 3.13498292 2.20140476 5.37471432 2 9 C1.67 8.01 1.34 7.02 1 6 C0.01 6 -0.98 6 -2 6 C-2.33 7.32 -2.66 8.64 -3 10 C-3.33 9.34 -3.66 8.68 -4 8 C-3.67 7.01 -3.34 6.02 -3 5 C-2.34 5 -1.68 5 -1 5 C-0.67 3.35 -0.34 1.7 0 0 Z " fill="#0637F2" transform="translate(172,92)"/>
<path d="M0 0 C0.66 0.66 1.32 1.32 2 2 C1.34 3.32 0.68 4.64 0 6 C-1.32 5.34 -2.64 4.68 -4 4 C-4 3.34 -4 2.68 -4 2 C-2.68 1.34 -1.36 0.68 0 0 Z " fill="#E3F0FA" transform="translate(213,264)"/>
<path d="M0 0 C0.66 0 1.32 0 2 0 C3.6875 1.75 3.6875 1.75 5 4 C4.6875 6.25 4.6875 6.25 4 8 C3.34 7.67 2.68 7.34 2 7 C1.26924352 4.6859378 0.59861742 2.35171131 0 0 Z " fill="#CEE1FB" transform="translate(291,214)"/>
<path d="M0 0 C2.64465038 3.1254959 3.84414715 6.08788267 5 10 C2 9 2 9 0.8125 7.25 C-0.10819096 4.70039426 -0.14948718 2.69076919 0 0 Z " fill="#CEE2FD" transform="translate(208,151)"/>
<path d="M0 0 C2.15377564 2.62198774 3.40072174 4.64404172 4 8 C3.34 8 2.68 8 2 8 C2 7.34 2 6.68 2 6 C1.01 6 0.02 6 -1 6 C-0.67 4.02 -0.34 2.04 0 0 Z " fill="#DAE8FD" transform="translate(227,190)"/>
<path d="M0 0 C2.24027294 2.88035092 4.16172132 5.84866512 6 9 C4.1875 8.875 4.1875 8.875 2 8 C0.1875 5.0625 0.1875 5.0625 -1 2 C-0.67 1.34 -0.34 0.68 0 0 Z " fill="#CDE0FD" transform="translate(174,301)"/>
<path d="M0 0 C0.66 0.66 1.32 1.32 2 2 C1.625 4.125 1.625 4.125 1 6 C0.01 6 -0.98 6 -2 6 C-2 4.35 -2 2.7 -2 1 C-1.34 0.67 -0.68 0.34 0 0 Z " fill="#F9FAF2" transform="translate(100,216)"/>
<path d="M0 0 C1.65 0.33 3.3 0.66 5 1 C4.01 2.485 4.01 2.485 3 4 C1.68 4 0.36 4 -1 4 C-0.67 2.68 -0.34 1.36 0 0 Z " fill="#E6EDFD" transform="translate(164,201)"/>
</svg>
