<svg version="1.1" id="Layer_1" xmlns:x="ns_extend;" xmlns:i="ns_ai;" xmlns:graph="ns_graphs;" xmlns="http://www.w3.org/2000/svg" xmlns:xlink="http://www.w3.org/1999/xlink" x="0px" y="0px" viewBox="0 0 30.8 43.6" style="enable-background:new 0 0 30.8 43.6;" xml:space="preserve">
 <style type="text/css">
  .st0{fill:#000DB5;}
 </style>
 <metadata>
  <sfw xmlns="ns_sfw;">
   <slices>
   </slices>
   <sliceSourceBounds bottomLeftOrigin="true" height="43.6" width="30.8" x="-119.7" y="-181.1">
   </sliceSourceBounds>
  </sfw>
 </metadata>
 <g>
  <path class="st0" d="M13.1,39.4c-0.6,0.6-1,1.1-1.2,1.9H19c-0.2-0.7-0.6-1.3-1.2-1.9H13.1z M19.7,35.8c-0.6,0.4-1.3,0.7-2,1.1
		L17.5,37l0.2,0.1c2.2,1.3,3.2,3.1,3.2,5.4c0,0.6,0.5,1.1,1.1,1.1c0.6,0,1.1-0.5,1.1-1.1c0-2.7-1.1-4.9-3.3-6.6L19.7,35.8L19.7,35.8
		z M11.8,28.5c0.2,0.7,0.6,1.3,1.2,1.9h4.6c0.6-0.6,1-1.1,1.2-1.9H11.8z M13.1,24c-0.6,0.6-1,1.1-1.2,1.9H19
		c-0.2-0.7-0.6-1.3-1.2-1.9H13.1z M7.8,11.7c0-0.7,0.6-1.3,1.3-1.3c0.7,0,1.3,0.6,1.3,1.3c0,0.7-0.6,1.3-1.3,1.3
		C8.3,13,7.8,12.4,7.8,11.7z M20.4,11.7c0-0.7,0.6-1.3,1.3-1.3c0.7,0,1.3,0.6,1.3,1.3c0,0.7-0.6,1.3-1.3,1.3
		C21,13,20.4,12.4,20.4,11.7z M2.8,11c-0.1,0.5-0.2,1-0.3,1.2c-0.8,2.2-2,3.3-2,3.3C0.2,15.7,0,16,0,16.3v0.3c0,0,0,0.1,0,0.1
		c0.1,0.4,0.5,0.8,0.9,0.8c5.9,0.6,9.2,1.4,11.4,2.1c-3.1,1.8-4.7,4.3-4.7,7.5c0,3.3,1.7,5.9,4.9,7.7c-3.2,1.8-4.9,4.4-4.9,7.7
		c0,0.6,0.5,1.1,1.1,1.1c0.6,0,1.1-0.5,1.1-1.1c0-3.9,3.1-5.6,5.5-6.5c0.1,0,0.2-0.1,0.3-0.1c0.8-0.3,1.6-0.6,2.3-1
		c3.4-1.8,5.1-4.4,5.1-7.8c0-2.5-1-4.6-2.9-6.3l0,0h0c-0.9,0.2-1.8,0.5-2.5,0.7l-0.2,0.1l0.2,0.1c2.2,1.3,3.2,3.1,3.2,5.4
		c0,3.9-3.1,5.6-5.5,6.4C13,32.6,9.9,31,9.9,27.1s3.1-5.6,5.5-6.5l0.2,0c0.5-0.2,1.3-0.6,2.7-0.9c2.2-0.7,5.6-1.5,11.7-2.1
		c0.5,0,0.8-0.4,0.9-0.8c0.1-0.4-0.1-0.9-0.5-1.1c0,0-1.1-1.1-2-3.3c-0.1-0.3-0.2-0.7-0.3-1.2C27.2,7.7,25.3,0,15.4,0
		C5.6,0,3.6,7.7,2.8,11z">
  </path>
 </g>
</svg>