<svg width="263" height="100" viewBox="0 0 263 100" fill="none" xmlns="http://www.w3.org/2000/svg"
  shape-rendering="crispEdges">
  <path
    d="M13.3082 22.8153H3.05643C1.63522 22.8153 0.483398 23.9671 0.483398 25.3883V35.6402C0.483398 37.0614 1.63522 38.2132 3.05643 38.2132H13.3082C14.7295 38.2132 15.8813 37.0614 15.8813 35.6402V25.3883C15.8813 23.9671 14.7295 22.8153 13.3082 22.8153Z"
    fill="black" />
  <path
    d="M33.8388 22.8153H23.5869C22.1657 22.8153 21.0139 23.9671 21.0139 25.3883V35.6402C21.0139 37.0614 22.1657 38.2132 23.5869 38.2132H33.8388C35.26 38.2132 36.4118 37.0614 36.4118 35.6402V25.3883C36.4118 23.9671 35.26 22.8153 33.8388 22.8153Z"
    fill="black" />
  <path
    d="M54.3686 22.8153H44.1169C42.6958 22.8153 41.5437 23.9671 41.5437 25.3883V35.6402C41.5437 37.0614 42.6958 38.2132 44.1169 38.2132H54.3686C55.7902 38.2132 56.9418 37.0614 56.9418 35.6402V25.3883C56.9418 23.9671 55.7902 22.8153 54.3686 22.8153Z"
    fill="black" />
  <path
    d="M13.3082 43.3458H3.05643C1.63522 43.3458 0.483398 44.4976 0.483398 45.9188V56.1706C0.483398 57.5919 1.63522 58.7437 3.05643 58.7437H13.3082C14.7295 58.7437 15.8813 57.5919 15.8813 56.1706V45.9188C15.8813 44.4976 14.7295 43.3458 13.3082 43.3458Z"
    fill="black" />
  <path
    d="M33.8388 43.3458H23.5869C22.1657 43.3458 21.0139 44.4976 21.0139 45.9188V56.1706C21.0139 57.5919 22.1657 58.7437 23.5869 58.7437H33.8388C35.26 58.7437 36.4118 57.5919 36.4118 56.1706V45.9188C36.4118 44.4976 35.26 43.3458 33.8388 43.3458Z"
    fill="black" />
  <path
    d="M54.3686 43.3456H44.1169C42.6958 43.3456 41.5437 44.4974 41.5437 45.9186V56.1704C41.5437 57.5917 42.6958 58.7435 44.1169 58.7435H54.3686C55.7902 58.7435 56.9418 57.5917 56.9418 56.1704V45.9186C56.9418 44.4974 55.7902 43.3456 54.3686 43.3456Z"
    fill="black" />
  <path
    d="M13.3082 63.8759H3.05643C1.63522 63.8759 0.483398 65.0276 0.483398 66.4487V76.7008C0.483398 78.1219 1.63522 79.2736 3.05643 79.2736H13.3082C14.7295 79.2736 15.8813 78.1219 15.8813 76.7008V66.4487C15.8813 65.0276 14.7295 63.8759 13.3082 63.8759Z"
    fill="black" />
  <path
    d="M33.8385 63.8759H23.5867C22.1655 63.8759 21.0137 65.0276 21.0137 66.4487V76.7008C21.0137 78.1219 22.1655 79.2736 23.5867 79.2736H33.8385C35.2597 79.2736 36.4115 78.1219 36.4115 76.7008V66.4487C36.4115 65.0276 35.2597 63.8759 33.8385 63.8759Z"
    fill="black" />
  <path
    d="M54.3686 63.8759H44.1169C42.6958 63.8759 41.5437 65.0276 41.5437 66.4487V76.7008C41.5437 78.1219 42.6958 79.2736 44.1169 79.2736H54.3686C55.7902 79.2736 56.9418 78.1219 56.9418 76.7008V66.4487C56.9418 65.0276 55.7902 63.8759 54.3686 63.8759Z"
    fill="black" />
  <path
    d="M93.5733 80.1392C88.248 80.1392 84.3269 78.0177 81.7435 74.9479V77.4438C81.7435 78.453 80.9263 79.2731 79.9207 79.2731H74.1613C73.1558 79.2731 72.3386 78.453 72.3386 77.4438V24.6448C72.3386 23.6353 73.1558 22.8153 74.1613 22.8153H79.9207C80.9263 22.8153 81.7435 23.6353 81.7435 24.6448V42.3965C84.3269 39.3319 88.248 37.2052 93.5733 37.2052C105.091 37.2052 111.673 46.9574 111.673 58.6722C111.673 70.3871 105.091 80.1392 93.5733 80.1392ZM81.5036 57.4936V59.9329C81.5036 67.5633 85.8892 71.8884 91.6893 71.8884C98.5053 71.8884 102.187 66.5438 102.187 58.6774C102.187 50.8111 98.5053 45.4661 91.6893 45.4661C85.8892 45.4661 81.5036 49.7144 81.5036 57.4987V57.4936ZM129.119 24.6448V77.4487C129.119 78.4584 128.302 79.2784 127.296 79.2784H121.537C120.531 79.2784 119.714 78.4584 119.714 77.4487V24.6448C119.714 23.6353 120.531 22.8153 121.537 22.8153H127.296C128.302 22.8153 129.119 23.6353 129.119 24.6448ZM176.841 58.6722C176.841 71.4889 168.616 80.1392 157.021 80.1392C145.426 80.1392 137.201 71.4889 137.201 58.6722C137.201 45.8556 145.426 37.2052 157.021 37.2052C168.616 37.2052 176.841 45.8556 176.841 58.6722ZM146.677 58.6722C146.677 67.0869 150.675 72.1962 157.021 72.1962C163.367 72.1962 167.365 67.0869 167.365 58.6722C167.365 50.2576 163.367 45.1484 157.021 45.1484C150.675 45.1484 146.677 50.2627 146.677 58.6722ZM191.755 58.6722C191.755 67.0869 196.141 71.9604 202.569 71.9604C206.847 71.9604 209.701 69.5568 211.177 66.0159C211.59 65.0218 212.734 64.5655 213.694 65.0523L218.427 67.4506C219.295 67.8912 219.663 68.9367 219.275 69.8283C216.711 75.7165 210.763 80.1445 202.574 80.1445C190.821 80.1445 182.36 71.4173 182.36 58.6774C182.36 45.9376 190.821 37.2104 202.574 37.2104C210.697 37.2104 216.512 41.4484 219.111 47.2495C219.504 48.1258 219.167 49.161 218.324 49.6222L213.684 52.1588C212.739 52.6764 211.585 52.2357 211.162 51.2416C209.681 47.7568 206.837 45.3124 202.574 45.3124C196.151 45.3124 191.76 50.2679 191.76 58.6825L191.755 58.6722Z"
    fill="black" />
  <path
    d="M235.742 53.2763V24.6448C235.742 23.6353 234.925 22.8153 233.919 22.8153H228.16C227.154 22.8153 226.337 23.6353 226.337 24.6448V77.439C226.337 78.4487 227.154 79.2687 228.16 79.2687H233.919C234.925 79.2687 235.742 78.4487 235.742 77.439V66.4672C235.742 66.257 235.829 66.0521 235.977 65.8982L240.449 61.3426C240.812 60.9736 241.415 61.0351 241.701 61.4655L252.907 78.4487C253.244 78.9613 253.811 79.2687 254.424 79.2687H260.933C262.389 79.2687 263.257 77.6389 262.45 76.4243L247.934 54.5729C247.72 54.2551 247.761 53.8349 248.026 53.5582L260.086 41.0899C261.209 39.9317 260.387 37.9895 258.779 37.9895H252.371C251.861 37.9895 251.376 38.2047 251.029 38.5839L237.151 53.8247C236.651 54.373 235.742 54.0194 235.742 53.2763Z"
    fill="black" />
</svg>