<?xml version="1.0" encoding="UTF-8"?>
<svg version="1.1" xmlns="http://www.w3.org/2000/svg" width="600" height="600">
<path d="M0 0 C198 0 396 0 600 0 C600 198 600 396 600 600 C402 600 204 600 0 600 C0 402 0 204 0 0 Z " fill="#FEFEFE" transform="translate(0,0)"/>
<path d="M0 0 C1.35100919 0.97598767 2.68967428 1.97003676 4 3 C4 1.02 4 -0.96 4 -3 C10.6 -3 17.2 -3 24 -3 C24 22.41 24 47.82 24 74 C17.4 74 10.8 74 4 74 C4 72.35 4 70.7 4 69 C2.89591797 69.63228516 2.89591797 69.63228516 1.76953125 70.27734375 C0.79371094 70.82519531 -0.18210937 71.37304688 -1.1875 71.9375 C-2.15042969 72.48277344 -3.11335938 73.02804687 -4.10546875 73.58984375 C-12.38672216 77.62430054 -22.98248348 77.0508417 -31.5546875 74.1015625 C-43.4371522 68.74875891 -49.25845113 60.58835529 -54.01953125 48.83203125 C-57.35310164 39.20319248 -57.17064641 28.96149958 -53.25390625 19.55859375 C-48.55491731 9.97031414 -41.96357397 1.79043706 -31.9375 -2.5 C-21.5459865 -5.7692402 -9.53964322 -5.52781651 0 0 Z " fill="#E4262B" transform="translate(365,274)"/>
<path d="M0 0 C0.78036621 -0.00193359 1.56073242 -0.00386719 2.36474609 -0.00585938 C10.02585031 0.20115511 15.77735978 2.64587966 22.375 6.5625 C22.375 4.9125 22.375 3.2625 22.375 1.5625 C28.975 1.5625 35.575 1.5625 42.375 1.5625 C42.375 26.9725 42.375 52.3825 42.375 78.5625 C35.775 78.5625 29.175 78.5625 22.375 78.5625 C22.045 77.2425 21.715 75.9225 21.375 74.5625 C20.61316406 74.96082031 20.61316406 74.96082031 19.8359375 75.3671875 C19.14757812 75.72039062 18.45921875 76.07359375 17.75 76.4375 C17.07710938 76.78554688 16.40421875 77.13359375 15.7109375 77.4921875 C7.43636121 81.28354854 -0.98275218 81.96964655 -9.8515625 79.7578125 C-22.06718239 75.18090065 -28.89767982 67.32024655 -34.34765625 55.89453125 C-38.06479812 46.19813364 -38.36954445 33.84856599 -34.5625 24.125 C-29.23176917 13.1201019 -21.90158733 5.8840129 -10.56152344 1.17773438 C-7.07013658 0.06851919 -3.64074933 -0.00940965 0 0 Z " fill="#E4242A" transform="translate(492.625,269.4375)"/>
<path d="M0 0 C0.82113281 0.37898438 1.64226562 0.75796875 2.48828125 1.1484375 C11.76879441 6.02105898 17.13314285 13.61946201 20.5 23.4375 C22.52600064 29.99580379 22 34.51732831 22 42 C4.18 42 -13.64 42 -32 42 C-27.26881504 53.55766081 -27.26881504 53.55766081 -21 58 C-14.7149499 60.0950167 -7.08800965 60.37735671 -0.99609375 57.66015625 C0.67738863 56.60020094 2.31958398 55.48795174 3.9140625 54.3125 C6 53 6 53 10 53 C12.359375 54.96875 12.359375 54.96875 14.75 57.5 C15.54921875 58.3353125 16.3484375 59.170625 17.171875 60.03125 C17.77515625 60.6809375 18.3784375 61.330625 19 62 C16.19253086 68.51332841 10.15589211 71.70497708 3.8125 74.3125 C-6.78307781 78.36928827 -19.06720154 78.70294519 -29.5703125 74.26171875 C-40.9484899 68.35311537 -46.89717007 59.997917 -51 48 C-53.78087283 36.77090592 -52.34187774 24.8127405 -46.71484375 14.6875 C-35.8229342 -0.84636543 -18.06240776 -8.61994687 0 0 Z " fill="#E4252B" transform="translate(82,273)"/>
<path d="M0 0 C10.46970606 -0.68280692 18.08763313 2.9807047 26.43359375 8.890625 C32.24075284 14.004956 35.53681049 21.80262033 36.60733032 29.36535645 C36.74423615 32.53438965 36.73624294 35.66497076 36.66015625 38.8359375 C36.65308151 39.97315247 36.64600677 41.11036743 36.63871765 42.28204346 C36.61101687 45.86842265 36.54832269 49.45316553 36.484375 53.0390625 C36.4592608 55.48956058 36.43645315 57.94008345 36.41601562 60.390625 C36.36126971 66.35738892 36.27516643 72.32294956 36.171875 78.2890625 C29.571875 78.2890625 22.971875 78.2890625 16.171875 78.2890625 C16.13449219 75.06125 16.09710938 71.8334375 16.05859375 68.5078125 C16.0123133 65.3635399 15.96110329 62.21938327 15.90942383 59.07519531 C15.87627719 56.89883539 15.84821366 54.72239162 15.82543945 52.54589844 C15.79170462 49.40784147 15.7393788 46.27054575 15.68359375 43.1328125 C15.67720383 42.16790894 15.6708139 41.20300537 15.66423035 40.2088623 C15.53605277 34.24911061 14.75618968 29.69362959 12.171875 24.2890625 C8.69148469 21.11952346 5.3498136 20.05775345 0.671875 19.9140625 C-5.61268323 20.2442681 -11.23012778 21.74551748 -16.32839966 25.5039978 C-19.48960778 29.26666078 -18.79169281 34.25325122 -18.73046875 38.93359375 C-18.74890587 40.62097908 -18.74890587 40.62097908 -18.76771545 42.342453 C-18.79946599 45.92948495 -18.78316053 49.51446592 -18.765625 53.1015625 C-18.77873245 55.53582642 -18.7949715 57.97007563 -18.81445312 60.40429688 C-18.85532709 66.36632359 -18.85311072 72.32696268 -18.828125 78.2890625 C-25.758125 78.2890625 -32.688125 78.2890625 -39.828125 78.2890625 C-39.828125 52.8790625 -39.828125 27.4690625 -39.828125 1.2890625 C-33.228125 1.2890625 -26.628125 1.2890625 -19.828125 1.2890625 C-19.828125 3.2690625 -19.828125 5.2490625 -19.828125 7.2890625 C-19.18746094 6.86753906 -18.54679687 6.44601562 -17.88671875 6.01171875 C-11.62544495 2.0459343 -7.32766735 0.74896047 0 0 Z " fill="#E4262C" transform="translate(153.828125,269.7109375)"/>
<path d="M0 0 C7.26 0 14.52 0 22 0 C22 6.93 22 13.86 22 21 C30.25 21 38.5 21 47 21 C47 26.94 47 32.88 47 39 C38.75 39 30.5 39 22 39 C22 51.54 22 64.08 22 77 C28.6 77 35.2 77 42 77 C42 83.93 42 90.86 42 98 C35.07 98 28.14 98 21 98 C21 91.07 21 84.14 21 77 C14.07 77 7.14 77 0 77 C0 51.59 0 26.18 0 0 Z " fill="#E52C32" transform="translate(403,250)"/>
<path d="M0 0 C2.35125 0.04125 4.7025 0.0825 7.125 0.125 C7.125 6.725 7.125 13.325 7.125 20.125 C4.65 20.021875 2.175 19.91875 -0.375 19.8125 C-7.09183657 19.69820828 -11.80637868 20.3574849 -16.875 25.125 C-17.55498047 25.58648437 -18.23496094 26.04796875 -18.93554688 26.5234375 C-22.0601948 30.71480813 -21.47842208 35.14131005 -21.484375 40.234375 C-21.50091125 41.31632141 -21.51744751 42.39826782 -21.53448486 43.51300049 C-21.58305101 46.96705758 -21.60435566 50.42067411 -21.625 53.875 C-21.65315236 56.21747018 -21.68307874 58.55991977 -21.71484375 60.90234375 C-21.7888128 66.64319292 -21.83833519 72.38379627 -21.875 78.125 C-28.475 78.125 -35.075 78.125 -41.875 78.125 C-41.875 53.045 -41.875 27.965 -41.875 2.125 C-35.605 2.125 -29.335 2.125 -22.875 2.125 C-22.875 4.105 -22.875 6.085 -22.875 8.125 C-22.29492188 7.71507812 -21.71484375 7.30515625 -21.1171875 6.8828125 C-20.33601563 6.34398437 -19.55484375 5.80515625 -18.75 5.25 C-17.98429687 4.71632813 -17.21859375 4.18265625 -16.4296875 3.6328125 C-11.03202176 0.44703425 -6.16770968 -0.15415864 0 0 Z " fill="#E42329" transform="translate(301.875,269.875)"/>
<path d="M0 0 C6.93 0 13.86 0 21 0 C21 6.93 21 13.86 21 21 C29.25 21 37.5 21 46 21 C46 26.94 46 32.88 46 39 C37.75 39 29.5 39 21 39 C21 51.54 21 64.08 21 77 C14.07 77 7.14 77 0 77 C0 51.59 0 26.18 0 0 Z " fill="#E4272D" transform="translate(202,250)"/>
<path d="M0 0 C3.70189524 2.17026315 7.3858961 4.39487007 10.109375 7.75390625 C10.82925383 11.65642775 10.71100293 15.60483961 10.734375 19.56640625 C10.77949219 20.64728516 10.82460938 21.72816406 10.87109375 22.84179688 C10.93794391 30.62029004 10.93794391 30.62029004 8.62329102 33.78710938 C2.75544362 38.90915577 -3.58901162 41.42136649 -11.39453125 41.171875 C-16.87661461 40.25390486 -20.61930754 37.1590466 -24.265625 33.12890625 C-28.85235876 26.42521845 -29.06906369 19.71894313 -27.890625 11.75390625 C-25.87961973 6.41508086 -22.22443914 1.83300678 -16.99609375 -0.6484375 C-11.22145757 -2.28761994 -5.54750202 -2.39142317 0 0 Z " fill="#FEF9F9" transform="translate(504.890625,290.24609375)"/>
<path d="M0 0 C2.05713308 0.97546655 3.78265086 1.91315657 5.60546875 3.28125 C6.48847656 3.90773438 7.37148438 4.53421875 8.28125 5.1796875 C11.84186945 9.93116958 11.41092832 14.43362361 11.35546875 20.21875 C11.40960938 21.8265332 11.40960938 21.8265332 11.46484375 23.46679688 C11.46484375 31.11573847 11.46484375 31.11573847 9.11279297 34.30566406 C3.52761142 39.19103346 -2.64895917 41.94793346 -10.12890625 41.6171875 C-15.22847041 40.86104523 -18.90361312 39.10600415 -22.19140625 35.08203125 C-27.2108929 27.6603617 -28.32717133 22.33209806 -27.39453125 13.28125 C-23.05942946 1.50920635 -11.88905879 -3.56865712 0 0 Z " fill="#FEFAFA" transform="translate(357.39453125,289.71875)"/>
<path d="M0 0 C3.81248738 1.31970717 5.66857107 2.63368381 8.375 5.625 C10.44442498 9.9230365 10.98087751 13.31358521 10 18 C7.92310545 21.86647167 5.03396147 24.32481674 1 26 C-2.99539131 26.76806044 -6.53605023 26.86098715 -10.10546875 24.76171875 C-13.67228991 21.79794776 -15.63639584 19.72703123 -16.2734375 14.94921875 C-16.46260108 10.73669126 -16.43245202 7.90919826 -13.6875 4.5625 C-9.20351488 0.28707233 -6.08186449 -0.72705401 0 0 Z " fill="#F9D7D8" transform="translate(560,250)"/>
<path d="M0 0 C6.6 0 13.2 0 20 0 C20 6.93 20 13.86 20 21 C13.4 21 6.8 21 0 21 C0 14.07 0 7.14 0 0 Z " fill="#E4252B" transform="translate(223,327)"/>
<path d="M0 0 C6.6 0 13.2 0 20 0 C20 6.6 20 13.2 20 20 C13.4 20 6.8 20 0 20 C0 13.4 0 6.8 0 0 Z " fill="#E42228" transform="translate(425,327)"/>
<path d="M0 0 C3.18853455 2.01016308 5.49150871 3.8842107 7.875 6.8125 C8.205 8.7925 8.535 10.7725 8.875 12.8125 C-1.355 12.8125 -11.585 12.8125 -22.125 12.8125 C-21.11617858 7.7683929 -19.76799209 5.22964621 -16.125 1.8125 C-10.72125446 -1.71168187 -6.06377249 -2.30423355 0 0 Z " fill="#FDF1F2" transform="translate(73.125,287.1875)"/>
<path d="M0 0 C3.81248738 1.31970717 5.66857107 2.63368381 8.375 5.625 C10.44442498 9.9230365 10.98087751 13.31358521 10 18 C7.92310545 21.86647167 5.03396147 24.32481674 1 26 C-2.99539131 26.76806044 -6.53605023 26.86098715 -10.10546875 24.76171875 C-13.67228991 21.79794776 -15.63639584 19.72703123 -16.2734375 14.94921875 C-16.46260108 10.73669126 -16.43245202 7.90919826 -13.6875 4.5625 C-9.20351488 0.28707233 -6.08186449 -0.72705401 0 0 Z M-11.859375 6.30859375 C-13.72878976 9.08070536 -13.68648111 11.57778331 -13.46875 14.84375 C-12.77989736 18.01247216 -11.33200445 19.80517228 -9 22 C-5.89951072 23.55024464 -3.42105782 23.28992015 0 23 C2.75329021 21.20437595 4.52627461 19.94745078 6 17 C6.67984933 11.01477198 6.67984933 11.01477198 3.625 6.0625 C-1.68191423 1.89278168 -6.5860335 1.43769147 -11.859375 6.30859375 Z " fill="#E6393E" transform="translate(560,250)"/>
<path d="M0 0 C0 4.29 0 8.58 0 13 C1.32 13 2.64 13 4 13 C4 11.02 4 9.04 4 7 C5.37562854 8.28965176 6.70766393 9.62689293 8 11 C8 11.66 8 12.32 8 13 C8.99 13 9.98 13 11 13 C11 13.66 11 14.32 11 15 C7.89951072 16.55024464 5.42105782 16.28992015 2 16 C-0.75329021 14.20437595 -2.52627461 12.94745078 -4 10 C-4.46364291 3.62491001 -4.46364291 3.62491001 -2.5625 1.0625 C-1 0 -1 0 0 0 Z " fill="#FCEEEF" transform="translate(551,257)"/>
<path d="M0 0 C1.98 0 3.96 0 6 0 C5.01 0.33 4.02 0.66 3 1 C3 1.99 3 2.98 3 4 C4.32 4 5.64 4 7 4 C7 3.01 7 2.02 7 1 C7.99 1.33 8.98 1.66 10 2 C9.835 2.598125 9.67 3.19625 9.5 3.8125 C8.73565728 7.15649939 9.1036361 9.75068088 10 13 C9.01 13 8.02 13 7 13 C5.95107762 11.36368108 4.95093297 9.69514137 4 8 C3.34 7.67 2.68 7.34 2 7 C2 8.65 2 10.3 2 12 C1.34 12 0.68 12 0 12 C0 8.04 0 4.08 0 0 Z " fill="#E74045" transform="translate(552,257)"/>
<path d="M0 0 C0.99 0 1.98 0 3 0 C2.79803569 3.63535761 2.21677989 4.7994786 -0.5 7.3125 C-4.87433275 9.42155329 -8.23972817 9.38082175 -13 9 C-13 8.01 -13 7.02 -13 6 C-11.96939453 5.85304688 -11.96939453 5.85304688 -10.91796875 5.703125 C-10.01691406 5.55359375 -9.11585938 5.4040625 -8.1875 5.25 C-7.29417969 5.11078125 -6.40085937 4.9715625 -5.48046875 4.828125 C-2.46602178 3.82172696 -1.79582965 2.53165669 0 0 Z " fill="#E53137" transform="translate(565,267)"/>
<path d="M0 0 C0 4.62 0 9.24 0 14 C-4 10 -4 10 -4.4375 6.4375 C-4 3 -4 3 -2.5625 1.0625 C-1 0 -1 0 0 0 Z " fill="#FEFBFC" transform="translate(551,257)"/>
<path d="M0 0 C0.33 0 0.66 0 1 0 C1.09796875 0.60328125 1.1959375 1.2065625 1.296875 1.828125 C2.20946904 6.70578282 2.87595723 9.83823388 7 13 C6.67 13.66 6.34 14.32 6 15 C3.11518762 13.70680824 0.94004909 12.52657556 -1 10 C-1.07421875 7.51953125 -1.07421875 7.51953125 -0.6875 4.8125 C-0.56761719 3.91144531 -0.44773437 3.01039063 -0.32421875 2.08203125 C-0.21722656 1.39496094 -0.11023438 0.70789063 0 0 Z " fill="#E8484D" transform="translate(546,260)"/>
<path d="M0 0 C1.98 0 3.96 0 6 0 C5.01 0.33 4.02 0.66 3 1 C3.309375 2.051875 3.309375 2.051875 3.625 3.125 C4.07850357 6.60186072 3.27540277 8.77398123 2 12 C1.34 12 0.68 12 0 12 C0 8.04 0 4.08 0 0 Z " fill="#E4272C" transform="translate(552,257)"/>
<path d="M0 0 C0.66 0.33 1.32 0.66 2 1 C-1.3 4.3 -4.6 7.6 -8 11 C-8.66 10.67 -9.32 10.34 -10 10 C-6.92118304 6.12948725 -3.99926986 2.97088618 0 0 Z " fill="#E74247" transform="translate(473,275)"/>
<path d="M0 0 C1.31625194 2.63250388 0.74813658 3.80179056 0.0625 6.625 C-0.13214844 7.44226563 -0.32679688 8.25953125 -0.52734375 9.1015625 C-0.68332031 9.72804688 -0.83929687 10.35453125 -1 11 C-1.66 11 -2.32 11 -3 11 C-3.08096803 9.54257537 -3.13917774 8.08387193 -3.1875 6.625 C-3.22230469 5.81289063 -3.25710938 5.00078125 -3.29296875 4.1640625 C-3.19628906 3.44992187 -3.09960938 2.73578125 -3 2 C-2.01 1.34 -1.02 0.68 0 0 Z " fill="#E53036" transform="translate(547,256)"/>
<path d="M0 0 C2.31 0 4.62 0 7 0 C7.33 0.66 7.66 1.32 8 2 C7.67 2.99 7.34 3.98 7 5 C5.68 5 4.36 5 3 5 C3 4.01 3 3.02 3 2 C2.01 1.34 1.02 0.68 0 0 Z " fill="#F2999C" transform="translate(552,256)"/>
</svg>
