<?xml version="1.0" encoding="UTF-8"?>
<svg version="1.1" xmlns="http://www.w3.org/2000/svg" width="200" height="200">
<path d="M0 0 C66 0 132 0 200 0 C200 66 200 132 200 200 C134 200 68 200 0 200 C0 134 0 68 0 0 Z " fill="#021B43" transform="translate(0,0)"/>
<path d="M0 0 C3.20609378 1.35620604 5.28919408 3.70190424 7.64453125 6.18359375 C8.10923828 6.66183594 8.57394531 7.14007813 9.05273438 7.6328125 C10.44163915 9.0623965 11.82436539 10.49797473 13.20703125 11.93359375 C15.67245749 14.41792664 18.15350458 16.88159884 20.6640625 19.3203125 C21.44136719 20.07957031 22.21867187 20.83882812 23.01953125 21.62109375 C24.20482422 22.77158203 24.20482422 22.77158203 25.4140625 23.9453125 C27.20703125 25.93359375 27.20703125 25.93359375 27.20703125 27.93359375 C21.26703125 27.93359375 15.32703125 27.93359375 9.20703125 27.93359375 C9.21226807 30.59413818 9.21750488 33.25468262 9.22290039 35.99584961 C9.23943545 44.76493146 9.25050213 53.53401398 9.25884342 62.30310726 C9.26407247 67.62224588 9.27117052 72.94136859 9.2824707 78.26049805 C9.2932988 83.3892336 9.29930792 88.51795381 9.30190849 93.64669991 C9.30376288 95.60800989 9.30738376 97.56931899 9.31276131 99.53062248 C9.31997071 102.26774822 9.32102224 105.00480972 9.32055664 107.74194336 C9.32415192 108.56121307 9.32774719 109.38048279 9.33145142 110.22457886 C9.32108341 115.81954159 9.32108341 115.81954159 8.20703125 116.93359375 C5.34435558 117.00684543 2.50631225 117.0259758 -0.35546875 116.99609375 C-1.16177734 116.99158203 -1.96808594 116.98707031 -2.79882812 116.98242188 C-4.79690631 116.97059893 -6.79494658 116.95266289 -8.79296875 116.93359375 C-9.71158659 114.17774023 -9.91501197 112.57398685 -9.90649414 109.73754883 C-9.90641861 108.89690384 -9.90634308 108.05625885 -9.90626526 107.19013977 C-9.90110397 106.2869249 -9.89594269 105.38371002 -9.890625 104.453125 C-9.88921005 103.52513596 -9.8877951 102.59714691 -9.88633728 101.64103699 C-9.88073812 98.67602317 -9.86818579 95.71108476 -9.85546875 92.74609375 C-9.85045364 90.73632922 -9.84589075 88.7265635 -9.84179688 86.71679688 C-9.83076896 81.78903343 -9.81350492 76.86132638 -9.79296875 71.93359375 C-15.73296875 71.93359375 -21.67296875 71.93359375 -27.79296875 71.93359375 C-27.78773193 73.29154053 -27.78249512 74.6494873 -27.77709961 76.04858398 C-27.7590549 81.06729478 -27.74753869 86.08600268 -27.73803711 91.10473633 C-27.73299567 93.28052248 -27.72616268 95.45630522 -27.7175293 97.63208008 C-27.70545537 100.75212442 -27.6997387 103.87212413 -27.6953125 106.9921875 C-27.69015121 107.97134628 -27.68498993 108.95050507 -27.67967224 109.95933533 C-27.67959671 110.86019363 -27.67952118 111.76105194 -27.67944336 112.68920898 C-27.67722275 113.48640854 -27.67500214 114.28360809 -27.67271423 115.10496521 C-27.79296875 116.93359375 -27.79296875 116.93359375 -28.79296875 117.93359375 C-35.39296875 117.93359375 -41.99296875 117.93359375 -48.79296875 117.93359375 C-48.79296875 102.75359375 -48.79296875 87.57359375 -48.79296875 71.93359375 C-54.40296875 71.93359375 -60.01296875 71.93359375 -65.79296875 71.93359375 C-64.64477668 67.34082548 -62.59524054 65.2683443 -59.3671875 62.0390625 C-58.82318802 61.48744949 -58.27918854 60.93583649 -57.71870422 60.36750793 C-56.56838402 59.20639907 -55.41408038 58.04922495 -54.25610352 56.89575195 C-52.48315269 55.12377622 -50.73260966 53.33153727 -48.98242188 51.53710938 C-47.8619797 50.41146232 -46.74027649 49.28706876 -45.6171875 48.1640625 C-45.09412521 47.62460495 -44.57106293 47.0851474 -44.03215027 46.52934265 C-40.424065 42.98881371 -40.424065 42.98881371 -37.79516602 42.75878906 C-34.73647971 44.55349684 -32.38513234 46.97601058 -29.93359375 49.5 C-29.44616699 49.990448 -28.95874023 50.480896 -28.45654297 50.98620605 C-26.64374044 52.81466537 -24.84412693 54.65616286 -23.04296875 56.49609375 C-19.00046875 60.60046875 -14.95796875 64.70484375 -10.79296875 68.93359375 C-10.46296875 55.73359375 -10.13296875 42.53359375 -9.79296875 28.93359375 C-16.06296875 28.93359375 -22.33296875 28.93359375 -28.79296875 28.93359375 C-26.7846506 24.91695744 -24.99682011 23.00149668 -21.79296875 19.93359375 C-20.77518991 18.89922249 -19.76098569 17.86132431 -18.75 16.8203125 C-17.70186842 15.75386152 -16.65369089 14.68745571 -15.60546875 13.62109375 C-15.07244141 13.07130859 -14.53941406 12.52152344 -13.99023438 11.95507812 C-12.62871919 10.57643697 -11.21456373 9.25019648 -9.79296875 7.93359375 C-9.13296875 7.93359375 -8.47296875 7.93359375 -7.79296875 7.93359375 C-7.54546875 7.35609375 -7.29796875 6.77859375 -7.04296875 6.18359375 C-3.53490423 -0.13092238 -3.53490423 -0.13092238 0 0 Z " fill="#3AC03E" transform="translate(138.79296875,41.06640625)"/>
<path d="M0 0 C3.15012804 1.24701667 3.68582382 2.9665315 5.28930664 5.90625 C6.17618164 6.793125 7.06305664 7.68 7.97680664 8.59375 C10.28930664 10.90625 10.28930664 10.90625 10.28930664 12.90625 C10.99442383 13.11121094 11.69954102 13.31617188 12.42602539 13.52734375 C16.19377169 15.34182457 18.37634291 17.85757311 21.10180664 20.96875 C21.60389648 21.52369141 22.10598633 22.07863281 22.62329102 22.65039062 C26.28930664 26.74535502 26.28930664 26.74535502 26.28930664 27.90625 C20.34930664 27.90625 14.40930664 27.90625 8.28930664 27.90625 C8.28930664 57.60625 8.28930664 87.30625 8.28930664 117.90625 C2.01930664 117.90625 -4.25069336 117.90625 -10.71069336 117.90625 C-10.71069336 88.20625 -10.71069336 58.50625 -10.71069336 27.90625 C-16.98069336 27.90625 -23.25069336 27.90625 -29.71069336 27.90625 C-24.80603528 22.18414891 -19.8362242 16.71769566 -14.56054688 11.35107422 C-13.6109238 10.37961884 -12.66763204 9.40193784 -11.73046875 8.41845703 C-10.36224451 6.98358848 -8.97228571 5.56954366 -7.58178711 4.15625 C-6.76637451 3.31578125 -5.95096191 2.4753125 -5.11083984 1.609375 C-2.71069336 -0.09375 -2.71069336 -0.09375 0 0 Z " fill="#F3B70A" transform="translate(63.710693359375,41.09375)"/>
<path d="M0 0 C3.35206873 1.31403399 5.60293464 3.97787003 8.08485413 6.50149536 C8.6562915 7.07243423 9.22772888 7.64337311 9.81648254 8.23161316 C11.02022549 9.43769325 12.22028468 10.64745968 13.41688538 11.86062622 C15.25514046 13.72254249 17.10642335 15.57071364 18.95985413 17.41751099 C20.12731643 18.59054779 21.29401024 19.76435004 22.45985413 20.93899536 C23.01602417 21.494254 23.57219421 22.04951263 24.1452179 22.62159729 C28.00672913 26.55561815 28.00672913 26.55561815 28.00672913 28.78665161 C22.06672913 28.78665161 16.12672913 28.78665161 10.00672913 28.78665161 C10.01196594 30.14459839 10.01720276 31.50254517 10.02259827 32.90164185 C10.04064298 37.92035264 10.05215919 42.93906054 10.06166077 47.95779419 C10.0667022 50.13358034 10.0735352 52.30936308 10.08216858 54.48513794 C10.0942425 57.60518228 10.09995917 60.725182 10.10438538 63.84524536 C10.10954666 64.82440414 10.11470795 65.80356293 10.12002563 66.81239319 C10.12010117 67.7132515 10.1201767 68.6141098 10.12025452 69.54226685 C10.12247513 70.3394664 10.12469574 71.13666595 10.12698364 71.95802307 C10.00672913 73.78665161 10.00672913 73.78665161 9.00672913 74.78665161 C2.40672913 74.78665161 -4.19327087 74.78665161 -10.99327087 74.78665161 C-10.99327087 59.60665161 -10.99327087 44.42665161 -10.99327087 28.78665161 C-16.60327087 28.78665161 -22.21327087 28.78665161 -27.99327087 28.78665161 C-26.84507881 24.19388334 -24.79554266 22.12140216 -21.56748962 18.89212036 C-21.02349014 18.34050735 -20.47949066 17.78889435 -19.91900635 17.2205658 C-18.76868614 16.05945693 -17.6143825 14.90228281 -16.45640564 13.74880981 C-14.68345482 11.97683408 -12.93291178 10.18459513 -11.182724 8.39016724 C-10.06228183 7.26452018 -8.94057862 6.14012663 -7.81748962 5.01712036 C-7.29442734 4.47766281 -6.77136505 3.93820526 -6.23245239 3.38240051 C-2.51156027 -0.26882314 -2.51156027 -0.26882314 0 0 Z " fill="#1E84E5" transform="translate(100.99327087402344,84.21334838867188)"/>
<path d="M0 0 C0.33 0 0.66 0 1 0 C1.33 29.04 1.66 58.08 2 88 C9.92 87.505 9.92 87.505 18 87 C18 58.29 18 29.58 18 0 C18.33 0 18.66 0 19 0 C19 29.7 19 59.4 19 90 C12.73 90 6.46 90 0 90 C0 60.3 0 30.6 0 0 Z " fill="#C4A541" transform="translate(53,69)"/>
<path d="M0 0 C0 3 0 3 -1 5 C4.28 5.33 9.56 5.66 15 6 C14.67 21.18 14.34 36.36 14 52 C18.95 51.505 18.95 51.505 24 51 C26.64 51 29.28 51 32 51 C32.33 36.15 32.66 21.3 33 6 C49 5 49 5 52 5 C52 5.66 52 6.32 52 7 C46.06 7 40.12 7 34 7 C34.00523682 8.35794678 34.01047363 9.71589355 34.01586914 11.11499023 C34.03391385 16.13370103 34.04543006 21.15240893 34.05493164 26.17114258 C34.05997308 28.34692873 34.06680607 30.52271147 34.07543945 32.69848633 C34.08751338 35.81853067 34.09323005 38.93853038 34.09765625 42.05859375 C34.10281754 43.03775253 34.10797882 44.01691132 34.11329651 45.02574158 C34.11337204 45.92659988 34.11344757 46.82745819 34.11352539 47.75561523 C34.115746 48.55281479 34.11796661 49.35001434 34.12025452 50.17137146 C34 52 34 52 33 53 C26.4 53 19.8 53 13 53 C13 37.82 13 22.64 13 7 C7.39 7 1.78 7 -4 7 C-3.04065919 3.16263678 -2.76390737 2.40339772 0 0 Z " fill="#255187" transform="translate(77,106)"/>
<path d="M0 0 C0.33 1.32 0.66 2.64 1 4 C-5.27 4 -11.54 4 -18 4 C-18 3.34 -18 2.68 -18 2 C-9.09 1.01 -9.09 1.01 0 0 Z " fill="#8A7F54" transform="translate(71,155)"/>
<path d="M0 0 C3.17730766 1.73307691 4.8693062 4.26166365 7.0625 7.125 C4.39583333 5.79166667 1.72916667 4.45833333 -0.9375 3.125 C-3.5775 5.765 -6.2175 8.405 -8.9375 11.125 C-9.9275 10.795 -10.9175 10.465 -11.9375 10.125 C-11.31875 9.8775 -10.7 9.63 -10.0625 9.375 C-7.51246075 7.87497691 -7.17527652 6.7552751 -5.9375 4.125 C-2.73602806 0.17651794 -2.73602806 0.17651794 0 0 Z " fill="#3E9D56" transform="translate(138.9375,40.875)"/>
<path d="M0 0 C0 3 0 3 -1 5 C4.28 5.33 9.56 5.66 15 6 C14.67 6.66 14.34 7.32 14 8 C8.06 7.67 2.12 7.34 -4 7 C-3.04065919 3.16263678 -2.76390737 2.40339772 0 0 Z " fill="#3167A0" transform="translate(77,106)"/>
<path d="M0 0 C1.32 1.32 2.64 2.64 4 4 C-1.94 4 -7.88 4 -14 4 C-14 3.67 -14 3.34 -14 3 C-13.07316406 2.95101562 -12.14632812 2.90203125 -11.19140625 2.8515625 C-9.99386719 2.77679688 -8.79632813 2.70203125 -7.5625 2.625 C-6.36753906 2.55539063 -5.17257813 2.48578125 -3.94140625 2.4140625 C-2.97074219 2.27742188 -2.00007813 2.14078125 -1 2 C-0.67 1.34 -0.34 0.68 0 0 Z " fill="#DBB845" transform="translate(86,65)"/>
<path d="M0 0 C0.66 0.33 1.32 0.66 2 1 C2 1.66 2 2.32 2 3 C-4.27 3 -10.54 3 -17 3 C-17 2.67 -17 2.34 -17 2 C-15.85660156 1.93941406 -14.71320313 1.87882812 -13.53515625 1.81640625 C-12.04425695 1.73201572 -10.55337225 1.64736698 -9.0625 1.5625 C-8.30775391 1.52318359 -7.55300781 1.48386719 -6.77539062 1.44335938 C-3.08055813 1.55961976 -3.08055813 1.55961976 0 0 Z " fill="#2E6393" transform="translate(127,110)"/>
<path d="M0 0 C2.75 0.25 2.75 0.25 5 1 C4.67 1.66 4.34 2.32 4 3 C1.2303041 3.72886734 -1.12862585 4 -4 4 C-2.3125 1.9375 -2.3125 1.9375 0 0 Z " fill="#9A883F" transform="translate(61,41)"/>
</svg>
