<?xml version="1.0" encoding="UTF-8"?>
<svg version="1.1" xmlns="http://www.w3.org/2000/svg" width="241" height="241">
<path d="M0 0 C79.53 0 159.06 0 241 0 C241 79.53 241 159.06 241 241 C161.47 241 81.94 241 0 241 C0 161.47 0 81.94 0 0 Z " fill="#2196F2" transform="translate(0,0)"/>
<path d="M0 0 C0.99 0 1.98 0 3 0 C3 49.5 3 99 3 150 C-2.78029586 147.68788166 -8.17351679 144.87830588 -13.6875 142 C-15.21600586 141.20916016 -15.21600586 141.20916016 -16.77539062 140.40234375 C-23.38961875 136.95887483 -29.92732073 133.39556187 -36.44067383 129.765625 C-37.26737831 129.30559082 -38.09408279 128.84555664 -38.94583893 128.37158203 C-40.96422061 127.24830875 -42.98226621 126.12443655 -45 125 C-45.39467347 112.39624449 -45.69632119 99.79396749 -45.88080692 87.18528175 C-45.9693786 81.32946538 -46.0893707 75.47788766 -46.2824707 69.62451172 C-46.46782887 63.97012513 -46.56894628 58.31979987 -46.61291313 52.6626091 C-46.64421933 50.50992214 -46.70536986 48.35744723 -46.79741096 46.20650101 C-47.47083054 29.8100289 -47.47083054 29.8100289 -43.37163925 25.14809608 C-39.34564617 21.93338089 -34.92666754 19.85703135 -30.174757 17.93472862 C-26.74726582 16.46156444 -23.63552206 14.51678672 -20.46875 12.55859375 C-19.29953625 11.86424265 -18.12913796 11.17187827 -16.95703125 10.48242188 C-16.38936035 10.14654053 -15.82168945 9.81065918 -15.23681641 9.46459961 C-14.05065515 8.76314046 -12.86411454 8.06232247 -11.67724609 7.36206055 C-9.9193993 6.324832 -8.1626978 5.28568915 -6.40625 4.24609375 C-5.38853516 3.64466553 -4.37082031 3.0432373 -3.32226562 2.42358398 C-1.12006203 1.19782664 -1.12006203 1.19782664 0 0 Z " fill="#FDFEFE" transform="translate(124,46)"/>
<path d="M0 0 C79.53 0 159.06 0 241 0 C241 79.53 241 159.06 241 241 C240.34 241 239.68 241 239 241 C239 164.77 239 88.54 239 10 C160.13 10 81.26 10 0 10 C0 6.7 0 3.4 0 0 Z " fill="#2295F1" transform="translate(0,0)"/>
<path d="M0 0 C6.93 0 13.86 0 21 0 C21 39.6 21 79.2 21 120 C14.07 120 7.14 120 0 120 C0 116.04 0 112.08 0 108 C2.97 108 5.94 108 9 108 C9 75.99 9 43.98 9 11 C6.03 11 3.06 11 0 11 C0 7.37 0 3.74 0 0 Z " fill="#EFFBFE" transform="translate(140,62)"/>
<path d="M0 0 C79.53 0 159.06 0 241 0 C241 79.53 241 159.06 241 241 C240.34 241 239.68 241 239 241 C239 162.46 239 83.92 239 3 C160.13 3 81.26 3 0 3 C0 2.01 0 1.02 0 0 Z " fill="#59B0EC" transform="translate(0,0)"/>
<path d="M0 0 C0.66 0 1.32 0 2 0 C2.00423194 0.5847601 2.00846388 1.16952021 2.01282406 1.77200031 C2.11607954 15.99332116 2.22470965 30.21459244 2.33933926 44.4358263 C2.39464308 51.31307591 2.44812041 58.1903307 2.49731445 65.06762695 C2.54476639 71.70066303 2.59728638 78.33364632 2.65294075 84.96661949 C2.67337069 87.5012246 2.69208269 90.03584413 2.70907402 92.57047462 C2.73310377 96.11189634 2.76316049 99.65321821 2.79467773 103.19458008 C2.80331093 104.77737762 2.80331093 104.77737762 2.81211853 106.39215088 C2.82190735 107.35548843 2.83169617 108.31882599 2.84178162 109.31135559 C2.84823417 110.14926541 2.85468672 110.98717524 2.8613348 111.85047626 C2.92040376 114.18537704 2.92040376 114.18537704 4 117 C3.34 117.99 2.68 118.98 2 120 C-0.38256836 120.37231445 -0.38256836 120.37231445 -3.33984375 120.36328125 C-4.40267578 120.36263672 -5.46550781 120.36199219 -6.56054688 120.36132812 C-7.67494141 120.34521484 -8.78933594 120.32910156 -9.9375 120.3125 C-11.04802734 120.31572266 -12.15855469 120.31894531 -13.30273438 120.32226562 C-21.59951916 120.26698723 -21.59951916 120.26698723 -25 118 C-24.67 117.01 -24.34 116.02 -24 115 C-23.34 115 -22.68 115 -22 115 C-22 113.02 -22 111.04 -22 109 C-21.67 109 -21.34 109 -21 109 C-21 112.3 -21 115.6 -21 119 C-14.07 119 -7.14 119 0 119 C0 79.73 0 40.46 0 0 Z " fill="#2F93E0" transform="translate(161,63)"/>
<path d="M0 0 C0.33 0 0.66 0 1 0 C1 32.34 1 64.68 1 98 C2.98 98.66 4.96 99.32 7 100 C8.38405316 100.67803831 9.74914012 101.39704761 11.0859375 102.1640625 C11.78847656 102.56367188 12.49101563 102.96328125 13.21484375 103.375 C13.92769531 103.7875 14.64054687 104.2 15.375 104.625 C16.11105469 105.04523438 16.84710938 105.46546875 17.60546875 105.8984375 C19.4063765 106.92752764 21.20357318 107.96310756 23 109 C19.90279155 109.87840996 18.09354597 109.99435406 15 109 C15 108.01 15 107.02 15 106 C14.37351562 105.80664062 13.74703125 105.61328125 13.1015625 105.4140625 C12.28429687 105.15367187 11.46703125 104.89328125 10.625 104.625 C9.81289062 104.36976563 9.00078125 104.11453125 8.1640625 103.8515625 C6 103 6 103 4 101 C3.319375 100.835 2.63875 100.67 1.9375 100.5 C1.298125 100.335 0.65875 100.17 0 100 C-1.71155358 96.57689284 -1.13788207 92.65089839 -1.12939453 88.88452148 C-1.13114685 87.93973938 -1.13289917 86.99495728 -1.13470459 86.02154541 C-1.13911813 82.88804303 -1.13618708 79.75459674 -1.1328125 76.62109375 C-1.13348563 74.45158375 -1.13445572 72.28207383 -1.13571167 70.11256409 C-1.13718792 65.56209598 -1.13503619 61.01164747 -1.13037109 56.46118164 C-1.12467047 50.61417044 -1.12795539 44.7672051 -1.13394356 38.92019558 C-1.13754823 34.43967846 -1.13641108 29.9591723 -1.13381577 25.47865486 C-1.13314641 23.3219712 -1.13397521 21.16528656 -1.13629532 19.00860405 C-1.13882067 16.00107032 -1.13498306 12.99361206 -1.12939453 9.98608398 C-1.13141876 9.08579971 -1.13344299 8.18551544 -1.13552856 7.25794983 C-1.11426304 1.11426304 -1.11426304 1.11426304 0 0 Z " fill="#3291DB" transform="translate(78,73)"/>
<path d="M0 0 C2.97 0 5.94 0 9 0 C9 32.01 9 64.02 9 97 C6.03 97 3.06 97 0 97 C0.99 96.01 0.99 96.01 2 95 C3.65 95 5.3 95 7 95 C7 64.64 7 34.28 7 3 C4.69 3 2.38 3 0 3 C0 2.01 0 1.02 0 0 Z " fill="#3991D7" transform="translate(140,73)"/>
<path d="M0 0 C-0.33 0.99 -0.66 1.98 -1 3 C-1.66 2.67 -2.32 2.34 -3 2 C-3 34.01 -3 66.02 -3 99 C-1.68 99 -0.36 99 1 99 C1 99.99 1 100.98 1 102 C-0.98 101.34 -2.96 100.68 -5 100 C-5.06939532 87.2569633 -5.12275793 74.51397128 -5.15543652 61.77078438 C-5.17111761 55.85412058 -5.19240044 49.93758569 -5.22631836 44.02099609 C-5.25882467 38.31518149 -5.27683458 32.60949118 -5.28463173 26.90359116 C-5.29019096 24.72259437 -5.30104619 22.54160467 -5.31719017 20.36066055 C-5.33884837 17.31467028 -5.3419718 14.26919893 -5.34057617 11.22314453 C-5.351362 10.31396271 -5.36214783 9.40478088 -5.3732605 8.4680481 C-5.36076355 5.96096802 -5.36076355 5.96096802 -5 2 C-2 0 -2 0 0 0 Z " fill="#D1F4FE" transform="translate(84,71)"/>
<path d="M0 0 C1.66611905 -0.042721 3.33382885 -0.04063832 5 0 C6 1 6 1 6.10743046 3.45003605 C6.09913432 4.54789149 6.09083818 5.64574694 6.08229065 6.77687073 C6.07525116 8.03195435 6.06821167 9.28703796 6.06095886 10.58015442 C6.04797467 11.98385706 6.03489464 13.38755882 6.02172852 14.79125977 C6.0115917 16.25936598 6.00189738 17.7274753 5.99261475 19.19558716 C5.96607388 23.19337699 5.93330678 27.1910949 5.89946485 31.18882871 C5.86518087 35.36218327 5.83656322 39.53557648 5.80735779 43.70896912 C5.75114702 51.61735505 5.68980222 59.5256926 5.62663645 67.4340257 C5.55499124 76.43505837 5.48903359 85.43612986 5.42356598 94.43720925 C5.28872914 112.95819004 5.14670983 131.47910964 5 150 C4.67 150 4.34 150 4 150 C4 101.16 4 52.32 4 2 C0.04 3.98 0.04 3.98 -4 6 C-3.67 5.01 -3.34 4.02 -3 3 C-2.34 3 -1.68 3 -1 3 C-0.67 2.01 -0.34 1.02 0 0 Z " fill="#3C8DCE" transform="translate(123,44)"/>
<path d="M0 0 C0.99 0 1.98 0 3 0 C3 49.5 3 99 3 150 C1.35 149.34 -0.3 148.68 -2 148 C-0.02 147.01 -0.02 147.01 2 146 C1.67 98.48 1.34 50.96 1 2 C0.34 1.67 -0.32 1.34 -1 1 C-0.67 0.67 -0.34 0.34 0 0 Z " fill="#B7ECFE" transform="translate(124,46)"/>
<path d="M0 0 C0.33 0 0.66 0 1 0 C1 37.95 1 75.9 1 115 C1.99 115 2.98 115 4 115 C3.67 115.99 3.34 116.98 3 118 C2.67 118 2.34 118 2 118 C1.67 123.94 1.34 129.88 1 136 C0.34 136.33 -0.32 136.66 -1 137 C-0.67 91.79 -0.34 46.58 0 0 Z " fill="#2A93E7" transform="translate(128,59)"/>
<path d="M0 0 C-0.33 0.99 -0.66 1.98 -1 3 C-8.26 3 -15.52 3 -23 3 C-22.67 2.34 -22.34 1.68 -22 1 C-18.89590179 0.83204189 -15.79171114 0.66585677 -12.6875 0.5 C-11.80642578 0.45230469 -10.92535156 0.40460937 -10.01757812 0.35546875 C-8.74624023 0.28779297 -8.74624023 0.28779297 -7.44921875 0.21875 C-6.66893311 0.17685547 -5.88864746 0.13496094 -5.0847168 0.09179688 C-3.39117604 0.01722476 -1.69518179 0 0 0 Z " fill="#449FE7" transform="translate(163,59)"/>
<path d="M0 0 C3.57364359 0.57409032 6.28384304 1.49945036 9.42578125 3.28515625 C10.22177734 3.73310547 11.01777344 4.18105469 11.83789062 4.64257812 C12.65451172 5.11115234 13.47113281 5.57972656 14.3125 6.0625 C15.14845703 6.53494141 15.98441406 7.00738281 16.84570312 7.49414062 C18.90069265 8.65667756 20.95187737 9.82542091 23 11 C19.90279155 11.87840996 18.09354597 11.99435406 15 11 C15 10.01 15 9.02 15 8 C14.37351562 7.80664062 13.74703125 7.61328125 13.1015625 7.4140625 C12.28429687 7.15367187 11.46703125 6.89328125 10.625 6.625 C9.81289062 6.36976563 9.00078125 6.11453125 8.1640625 5.8515625 C6 5 6 5 4 3 C1.93125966 2.3574765 1.93125966 2.3574765 0 2 C0 1.34 0 0.68 0 0 Z " fill="#3D95DD" transform="translate(78,171)"/>
<path d="M0 0 C0.33 0 0.66 0 1 0 C1 3.3 1 6.6 1 10 C7.6 10 14.2 10 21 10 C21 10.33 21 10.66 21 11 C17.56257082 11.05802698 14.12526747 11.09360486 10.6875 11.125 C9.71103516 11.14175781 8.73457031 11.15851563 7.72851562 11.17578125 C6.79072266 11.18222656 5.85292969 11.18867188 4.88671875 11.1953125 C4.02264404 11.20578613 3.15856934 11.21625977 2.26831055 11.22705078 C0 11 0 11 -3 9 C-2.67 8.01 -2.34 7.02 -2 6 C-1.34 6 -0.68 6 0 6 C0 4.02 0 2.04 0 0 Z " fill="#348FD8" transform="translate(139,172)"/>
<path d="M0 0 C1.66611905 -0.042721 3.33382885 -0.04063832 5 0 C6 1 6 1 6.0625 4.0625 C6.041875 5.031875 6.02125 6.00125 6 7 C5.67 7 5.34 7 5 7 C5 5.35 5 3.7 5 2 C0.45829004 3.90884692 0.45829004 3.90884692 -4 6 C-3.67 5.01 -3.34 4.02 -3 3 C-2.34 3 -1.68 3 -1 3 C-0.67 2.01 -0.34 1.02 0 0 Z " fill="#3595E1" transform="translate(123,44)"/>
<path d="M0 0 C0.66 0.33 1.32 0.66 2 1 C0.68 2.65 -0.64 4.3 -2 6 C-3.32 5.34 -4.64 4.68 -6 4 C-4.02 2.68 -2.04 1.36 0 0 Z " fill="#DEF5FD" transform="translate(97,62)"/>
<path d="M0 0 C3.14737182 0.69941596 6.02588876 1.76078698 9 3 C9 3.66 9 4.32 9 5 C5.22454612 3.90931332 2.52956528 3.0916909 0 0 Z " fill="#D4F2FD" transform="translate(85,173)"/>
</svg>
