<?xml version="1.0" encoding="UTF-8"?>
<svg version="1.1" xmlns="http://www.w3.org/2000/svg" width="300" height="300">
<path d="M0 0 C0.60585938 0.31759277 1.21171875 0.63518555 1.8359375 0.96240234 C3.71391584 1.95631169 5.57730539 2.97324016 7.4375 4 C9.04431641 4.88558594 9.04431641 4.88558594 10.68359375 5.7890625 C16.0988951 8.84451464 21.44890091 12.00325773 26.7890625 15.1875 C39.47317229 22.76267631 39.47317229 22.76267631 52.5859375 29.546875 C56.83121255 31.71022064 60.86571786 34.19877289 64.93212891 36.67797852 C69.51438709 39.46710219 74.16858329 42.07311318 78.8984375 44.60546875 C81.43907833 46.00086687 83.90538631 47.48295159 86.375 49 C89.88239552 51.13421708 93.4315504 53.02009064 97.125 54.8125 C102.58310822 57.4854296 107.73982256 60.51511267 112.92480469 63.671875 C118.33476535 66.96077432 123.82220649 70.07279119 129.4375 73 C130.02345947 73.40001221 130.60941895 73.80002441 131.21313477 74.2121582 C133.31094177 75.52241209 135.03008289 76.4131632 137.4375 77 C140.86064807 76.1984729 143.55468667 74.43762924 146.5 72.5625 C148.25892022 71.51790182 150.01804333 70.47364522 151.77734375 69.4296875 C152.69499512 68.86991211 153.61264648 68.31013672 154.55810547 67.73339844 C159.49093187 64.76383192 164.53547801 61.99347962 169.5625 59.1875 C175.84135528 55.65486588 182.06001265 52.04261717 188.22753906 48.3190918 C190.86477925 46.74496357 193.54230937 45.26174371 196.25 43.8125 C198.89859327 42.39235324 201.47725685 40.97450245 204.0078125 39.3515625 C207.81577434 37.2333072 210.11622688 37.51985854 214.4375 38 C216.6502533 39.57263184 216.6502533 39.57263184 218.4375 42 C218.9521637 45.3013916 218.9521637 45.3013916 218.97094727 49.27539062 C218.97956284 50.00106735 218.98817841 50.72674408 218.99705505 51.47441101 C219.01972387 53.86872206 219.01297567 56.26186362 219.00390625 58.65625 C219.00914121 60.32247262 219.01541723 61.98869226 219.02268982 63.65490723 C219.03309545 67.14524287 219.02853008 70.63517086 219.01391602 74.12548828 C218.99672128 78.59825654 219.02022991 83.06974102 219.05540562 87.54236603 C219.07736555 90.9825288 219.07594177 94.42238365 219.0676403 97.8625946 C219.06682012 99.51162627 219.07369634 101.16068039 219.08841133 102.80964661 C219.10583428 105.11543731 219.09133811 107.4189119 219.06860352 109.72460938 C219.06764175 111.03602905 219.06667999 112.34744873 219.06568909 113.6986084 C218.4375 117 218.4375 117 216.09263611 119.44763184 C213.26026093 121.10362568 211.71997453 121.41546294 208.51318359 120.72119141 C203.82731559 119.09309753 199.56469689 116.6053311 195.25 114.1875 C194.1986084 113.60871094 193.1472168 113.02992188 192.06396484 112.43359375 C184.33942154 108.14929543 176.72607039 103.68817647 169.21020508 99.04760742 C164.51732398 96.1647003 159.75398909 93.61654256 154.80712891 91.19628906 C150.83444324 89.19070903 147.05179594 86.86558937 143.27734375 84.51171875 C140.09176564 82.49191451 140.09176564 82.49191451 136.46313477 82.30053711 C133.04935034 83.47933576 129.92308649 85.23297612 126.75 86.9375 C125.62331909 87.53812256 125.62331909 87.53812256 124.47387695 88.15087891 C118.56309771 91.33033446 112.77815416 94.69805971 107.01342773 98.13330078 C100.85463804 101.7906722 94.59659832 105.24636533 88.31030273 108.67871094 C78.82973058 113.8619678 69.43703915 119.19847793 60.03808594 124.52783203 C56.46812705 126.54875318 52.89051129 128.55588458 49.3125 130.5625 C37.68989468 137.08886676 26.13446739 143.73411125 14.5703125 150.36328125 C13.61664795 150.90944092 12.6629834 151.45560059 11.68041992 152.01831055 C9.84930991 153.06700387 8.01871922 154.11660463 6.1887207 155.16723633 C5.36202881 155.64056396 4.53533691 156.1138916 3.68359375 156.6015625 C2.95841553 157.01744629 2.2332373 157.43333008 1.48608398 157.86181641 C-4.37240219 161.11676368 -8.82251996 161.80098314 -15.5625 161 C-19.59472974 158.98388513 -22.21826375 156.83121703 -24.5625 153 C-24.94281673 150.22881508 -24.94281673 150.22881508 -24.95018005 146.97866821 C-24.96008469 145.74495987 -24.96998932 144.51125153 -24.98019409 143.24015808 C-24.97595607 141.87576194 -24.97139821 140.51136677 -24.96655273 139.14697266 C-24.97225599 137.70785491 -24.97922008 136.2687417 -24.98735046 134.82963562 C-25.00530405 130.92250429 -25.00410918 127.01559727 -24.99840808 123.10843706 C-24.99531878 119.84554945 -25.00140592 116.58270508 -25.00744683 113.31982362 C-25.02149823 105.62073129 -25.01992623 97.92174989 -25.00854492 90.22265625 C-24.99706821 82.28367631 -25.01113028 74.34503435 -25.0379414 66.40609896 C-25.06010633 59.58727313 -25.06673385 52.76855333 -25.06086498 45.94969404 C-25.05749545 41.87835371 -25.05990982 37.80722995 -25.07711601 33.73591995 C-25.0925954 29.90593501 -25.08861905 26.07645001 -25.06981087 22.24648476 C-25.0661274 20.8428526 -25.0692265 19.43918334 -25.07969666 18.0355854 C-25.17131783 4.73491103 -25.17131783 4.73491103 -20.5625 0 C-13.19768262 -4.16876455 -7.36898668 -3.89764585 0 0 Z " fill="#FE6500" transform="translate(53.5625,71)"/>
<path d="M0 0 C2.2127533 1.57263184 2.2127533 1.57263184 4 4 C4.5146637 7.3013916 4.5146637 7.3013916 4.53344727 11.27539062 C4.54637062 12.36390572 4.54637062 12.36390572 4.55955505 13.47441101 C4.58222387 15.86872206 4.57547567 18.26186362 4.56640625 20.65625 C4.57164121 22.32247262 4.57791723 23.98869226 4.58518982 25.65490723 C4.59559545 29.14524287 4.59103008 32.63517086 4.57641602 36.12548828 C4.55922128 40.59825654 4.58272991 45.06974102 4.61790562 49.54236603 C4.63986555 52.9825288 4.63844177 56.42238365 4.6301403 59.8625946 C4.62932012 61.51162627 4.63619634 63.16068039 4.65091133 64.80964661 C4.66833428 67.11543731 4.65383811 69.4189119 4.63110352 71.72460938 C4.63014175 73.03602905 4.62917999 74.34744873 4.62818909 75.6986084 C4 79 4 79 1.65513611 81.44763184 C-1.17723907 83.10362568 -2.71752547 83.41546294 -5.92431641 82.72119141 C-10.61018441 81.09309753 -14.87280311 78.6053311 -19.1875 76.1875 C-20.2388916 75.60871094 -21.2902832 75.02992188 -22.37353516 74.43359375 C-30.09807846 70.14929543 -37.71142961 65.68817647 -45.22729492 61.04760742 C-49.90532177 58.17382549 -54.65293677 55.62353545 -59.58154297 53.20556641 C-63.17560537 51.41397745 -66.65915665 49.46395739 -70.125 47.4375 C-70.7953125 47.06431641 -71.465625 46.69113281 -72.15625 46.30664062 C-74.0703125 45.18359375 -74.0703125 45.18359375 -77 43 C-77 41.68 -77 40.36 -77 39 C-76.2718811 38.60228394 -76.2718811 38.60228394 -75.52905273 38.1965332 C-65.27534753 32.59002749 -55.05225825 26.93174495 -44.875 21.1875 C-43.94099365 20.6613208 -43.0069873 20.1351416 -42.04467773 19.59301758 C-36.71731479 16.57925768 -31.44970395 13.4824858 -26.20996094 10.3190918 C-23.57272075 8.74496357 -20.89519063 7.26174371 -18.1875 5.8125 C-15.53890673 4.39235324 -12.96024315 2.97450245 -10.4296875 1.3515625 C-6.62172566 -0.7666928 -4.32127312 -0.48014146 0 0 Z " fill="#1364D2" transform="translate(268,109)"/>
</svg>
