<?xml version="1.0" encoding="UTF-8"?>
<svg version="1.1" xmlns="http://www.w3.org/2000/svg" width="600" height="600">
<path d="M0 0 C198 0 396 0 600 0 C600 198 600 396 600 600 C402 600 204 600 0 600 C0 402 0 204 0 0 Z " fill="#FEFEFE" transform="translate(0,0)"/>
<path d="M0 0 C2.32128906 0.91674805 2.32128906 0.91674805 4.265625 2.26171875 C5.05106689 2.78918701 5.83650879 3.31665527 6.64575195 3.86010742 C7.93485474 4.76466675 7.93485474 4.76466675 9.25 5.6875 C11.26879107 7.05317813 13.28840067 8.41764666 15.30859375 9.78125 C15.8764006 10.16842697 16.44420746 10.55560394 17.02922058 10.95451355 C22.53366447 14.70661888 28.09296115 18.37308075 33.66015625 22.03125 C34.61109161 22.65618851 35.56202698 23.28112701 36.54177856 23.92500305 C38.49313363 25.20710943 40.44458085 26.48907558 42.39611816 27.77090454 C49.73576249 32.59439124 57.06584329 37.43234231 64.3916626 42.27679443 C67.01099251 44.00726223 69.63316539 45.73336673 72.25537109 47.45947266 C73.89305262 48.5417668 75.53059209 49.62427593 77.16796875 50.70703125 C77.91782547 51.19910568 78.66768219 51.69118011 79.44026184 52.19816589 C80.13052963 52.65588882 80.82079742 53.11361176 81.53198242 53.58520508 C82.1323381 53.98113358 82.73269379 54.37706207 83.35124207 54.7849884 C86.22664769 56.90394784 87.7939401 58.24444703 88.75 61.75 C87.33731214 67.8716474 80.98277175 70.67815217 76 74 C74.06640625 73.93359375 74.06640625 73.93359375 72 73 C70.02734375 70.84765625 70.02734375 70.84765625 67.9375 68.0625 C59.76950106 57.7758847 50.48702485 50.32263289 39 44 C38.00613281 43.443125 37.01226562 42.88625 35.98828125 42.3125 C16.59454191 32.37972697 -9.07052951 30.54723638 -29.9375 36.609375 C-50.75322041 43.39270801 -67.97057306 56.45320727 -81 74 C-84.43195616 73.36532318 -86.75691741 72.02411502 -89.625 70.0625 C-90.40101562 69.53785156 -91.17703125 69.01320313 -91.9765625 68.47265625 C-94.65757821 66.52141509 -95.85133996 65.58112562 -96.6875 62.3125 C-95.07088166 54.52333889 -83.45654775 49.56178846 -77.05467224 45.35391235 C-74.70486433 43.81657661 -72.3527887 42.28276958 -70 40.75 C-66.61108277 38.53913095 -63.2231762 36.32672103 -59.8359375 34.11328125 C-58.96045258 33.54166763 -58.08496765 32.97005402 -57.18295288 32.38111877 C-51.59188639 28.72229591 -46.03519478 25.01633471 -40.50030518 21.27310181 C-36.78276539 18.75960843 -33.05639358 16.25937346 -29.32958984 13.75964355 C-27.53487317 12.5505022 -25.74444459 11.33497017 -23.95849609 10.11291504 C-21.45462704 8.40081062 -18.93640457 6.71206868 -16.4140625 5.02734375 C-15.67910553 4.51608444 -14.94414856 4.00482513 -14.18692017 3.47807312 C-9.19520496 0.18741047 -5.98381384 -0.72874276 0 0 Z " fill="#36B45E" transform="translate(126,238)"/>
<path d="M0 0 C8.26241887 4.89895632 13.1222949 11.14445 16.20703125 20.30859375 C17.73395023 29.49359867 15.6567474 38.08937614 10.546875 45.8203125 C5.81662832 51.69669698 0.54233993 55.41531582 -6.79296875 57.30859375 C-16.1213621 58.30737183 -24.34488317 58.16572735 -32.09375 52.6796875 C-38.69541701 47.3313648 -43.14973984 40.736243 -44.79296875 32.30859375 C-45.74690086 22.51906093 -43.81527056 14.66064561 -37.54296875 6.99609375 C-27.74067031 -3.43997398 -13.08677119 -6.27210095 0 0 Z " fill="#1D2023" transform="translate(553.79296875,271.69140625)"/>
<path d="M0 0 C6.78282548 5.26270289 16.21788334 12.65365002 19 21 C13.06 24.96 7.12 28.92 1 33 C-0.65 31.35 -2.3 29.7 -4 28 C-14.77568946 17.78534285 -24.21178825 12.11415622 -39.4375 11.5625 C-53.89083495 11.96061581 -64.51184221 18.06970505 -74.37109375 28.16796875 C-76.17265452 30.10912743 -76.17265452 30.10912743 -78 33 C-82.72843614 31.42686828 -86.3433843 28.79358765 -90.3125 25.875 C-90.95767578 25.40707031 -91.60285156 24.93914062 -92.26757812 24.45703125 C-93.84848894 23.3094071 -95.42472301 22.15534523 -97 21 C-89.77528773 6.05798145 -75.2390743 -3.43343718 -60 -9 C-39.74237443 -15.07122614 -17.51539439 -11.42896391 0 0 Z " fill="#86C453" transform="translate(161,305)"/>
<path d="M0 0 C3.96 0 7.92 0 12 0 C12.33 6.93 12.66 13.86 13 21 C16.53070588 15.21171622 16.53070588 15.21171622 20.06005859 9.42260742 C20.50172363 8.69920166 20.94338867 7.9757959 21.3984375 7.23046875 C21.84880371 6.49207764 22.29916992 5.75368652 22.76318359 4.99291992 C23.80907225 3.3076477 24.89978666 1.65032001 26 0 C29.2578125 -0.29296875 29.2578125 -0.29296875 33.125 -0.1875 C35.04699219 -0.14689453 35.04699219 -0.14689453 37.0078125 -0.10546875 C37.99523437 -0.07066406 38.98265625 -0.03585937 40 0 C35.66084906 8.42708788 30.30683218 16.16655214 25 24 C22.74676094 26.67747428 22.74676094 26.67747428 23.23168945 28.96411133 C24.03586422 31.09503393 24.9818614 32.71447587 26.29296875 34.57421875 C26.75598389 35.2379248 27.21899902 35.90163086 27.69604492 36.58544922 C28.1882251 37.27912598 28.68040527 37.97280273 29.1875 38.6875 C30.18781255 40.12087568 31.18781455 41.55446814 32.1875 42.98828125 C32.91259766 44.02202881 32.91259766 44.02202881 33.65234375 45.07666016 C35.34859902 47.49751143 37.02761515 49.92906391 38.6875 52.375 C39.14511719 53.04273438 39.60273438 53.71046875 40.07421875 54.3984375 C41 56 41 56 41 58 C36.22511124 59.3715106 31.58530357 60.23879755 27 58 C21.0891321 52.01970915 17.07558157 44.28401812 13 37 C12.67 43.93 12.34 50.86 12 58 C8.04 58 4.08 58 0 58 C0 38.86 0 19.72 0 0 Z " fill="#1D1F22" transform="translate(244,271)"/>
<path d="M0 0 C2.52977359 0.98053737 3.77030967 1.61573202 5.18214417 3.97770691 C5.50174606 4.7871022 5.82134796 5.5964975 6.15063477 6.43041992 C6.52104385 7.34865036 6.89145294 8.2668808 7.27308655 9.2129364 C7.65863205 10.20872208 8.04417755 11.20450775 8.44140625 12.23046875 C9.05483131 13.7661425 9.05483131 13.7661425 9.6806488 15.33283997 C10.98756752 18.61274934 12.27533764 21.89979371 13.5625 25.1875 C14.4329648 27.38397123 15.30469504 29.57994143 16.17773438 31.77539062 C17.41161414 34.87930331 18.64357781 37.98383181 19.86585999 41.09233093 C20.23311691 42.02632217 20.60037384 42.96031342 20.97875977 43.92260742 C21.32294952 44.7992807 21.66713928 45.67595398 22.02175903 46.57919312 C22.88822105 48.72338589 23.81356604 50.82555621 24.76928711 52.9309082 C26 56 26 56 26 60 C21.71 60 17.42 60 13 60 C12.505 57.03 12.505 57.03 12 54 C5.07 54 -1.86 54 -9 54 C-9.33 55.98 -9.66 57.96 -10 60 C-14.29 60 -18.58 60 -23 60 C-21.87499491 53.24996948 -21.87499491 53.24996948 -20.62060547 50.19213867 C-20.34296356 49.50669479 -20.06532166 48.82125092 -19.77926636 48.11503601 C-19.47828033 47.39000381 -19.17729431 46.66497162 -18.8671875 45.91796875 C-18.55226349 45.14552322 -18.23733948 44.3730777 -17.91287231 43.57722473 C-16.9060238 41.11157293 -15.89066885 38.64952967 -14.875 36.1875 C-14.21558295 34.57640215 -13.55672409 32.96507571 -12.8984375 31.35351562 C-10.94049001 26.56562266 -8.97097625 21.78254094 -7 17 C-6.31534549 15.33678596 -5.6307749 13.67353737 -4.94628906 12.01025391 C-3.29843368 8.0064616 -1.6495267 4.00310401 0 0 Z " fill="#1E2124" transform="translate(358,269)"/>
<path d="M0 0 C4.29 0 8.58 0 13 0 C15.90601752 7.42648921 18.66959687 14.81634022 21.0078125 22.44140625 C22.01433357 25.03696256 23.22613717 26.87036242 25 29 C26.67825877 24.55261426 28.32784051 20.09769021 29.9375 15.625 C31.84218787 10.36688483 33.89721193 5.18187059 36 0 C40.29 0 44.58 0 49 0 C48.25288588 3.73557059 47.50706625 6.5251152 46.09814453 9.97045898 C45.51215988 11.41236855 45.51215988 11.41236855 44.91433716 12.88340759 C44.27998245 14.42418724 44.27998245 14.42418724 43.6328125 15.99609375 C43.19742157 17.06239517 42.76203064 18.12869659 42.31344604 19.22731018 C41.39255964 21.47996236 40.4695029 23.73172835 39.54443359 25.98266602 C38.13248607 29.41927925 36.72780279 32.85879183 35.32421875 36.29882812 C34.42751234 38.48975896 33.53039061 40.68051988 32.6328125 42.87109375 C32.21395782 43.89625595 31.79510315 44.92141815 31.36355591 45.97764587 C29.40032122 50.7473693 27.39910925 55.43259536 25 60 C22.60799819 57.84353304 21.3670552 55.97757312 20.17822266 52.99438477 C19.85423492 52.19247208 19.53024719 51.39055939 19.19644165 50.56434631 C18.68541397 49.26599098 18.68541397 49.26599098 18.1640625 47.94140625 C17.80283295 47.04187729 17.44160339 46.14234833 17.06942749 45.21556091 C15.914031 42.33404736 14.76926621 39.44844919 13.625 36.5625 C12.48803695 33.71598693 11.34892867 30.87033899 10.20965576 28.02474976 C9.4755896 26.18918002 8.74318625 24.35294438 8.01251221 22.51602173 C5.69293318 16.69049103 3.30024417 10.90650402 0.79052734 5.15991211 C0 3 0 3 0 0 Z " fill="#1C1F22" transform="translate(377,271)"/>
<path d="M0 0 C0.886875 0.5775 1.77375 1.155 2.6875 1.75 C3.55375 2.306875 4.42 2.86375 5.3125 3.4375 C9.41375606 7.43082827 11.4283079 11.63943573 12.125 17.3125 C11.34715765 23.42411849 8.97842004 28.33988774 4.6875 32.75 C-0.3351973 36.54264898 -4.3036898 37.44978433 -10.59375 37.19921875 C-16.51662163 36.22058335 -20.1283965 33.26808141 -23.75 28.625 C-26.94547527 22.7453255 -26.86439437 17.46348063 -25.5625 11.0625 C-23.50458932 5.6090367 -20.58492179 2.23484572 -15.37109375 -0.5234375 C-10.19265538 -2.35112163 -5.06166287 -1.91006146 0 0 Z " fill="#F9F9F9" transform="translate(547.3125,281.25)"/>
<path d="M0 0 C4.97256139 -1.03177066 9.07383434 -1.37320058 14 0 C18.07645578 3.88691119 20.5522279 9.16564547 22.96362305 14.19067383 C24.07944281 16.13869273 25.35242284 17.4875037 27 19 C27.24492187 18.32582031 27.48984375 17.65164063 27.7421875 16.95703125 C29.27261836 13.35909286 31.15843308 10.06123937 33.125 6.6875 C33.49753906 6.04232422 33.87007813 5.39714844 34.25390625 4.73242188 C35.16632213 3.15324055 36.08275509 1.57638136 37 0 C41.95 0 46.9 0 52 0 C47.45800867 7.97371811 42.66850277 15.70948009 37.64526367 23.38647461 C37.18740479 24.08651611 36.7295459 24.78655762 36.2578125 25.5078125 C35.8467627 26.13316895 35.43571289 26.75852539 35.01220703 27.40283203 C32.85180634 30.81174214 32.81088124 33.28348062 32.68359375 37.3203125 C32.62075195 39.20556641 32.62075195 39.20556641 32.55664062 41.12890625 C32.51732422 42.44761719 32.47800781 43.76632812 32.4375 45.125 C32.39430488 46.46485751 32.35069027 47.80470156 32.30664062 49.14453125 C32.20029019 52.42957815 32.09826192 55.71470281 32 59 C28.04 59 24.08 59 20 59 C20.10183594 57.24558594 20.20367187 55.49117188 20.30859375 53.68359375 C20.82807508 35.34319585 16.90870552 24.74351386 5.72021484 10.36523438 C3.33098923 7.08013393 1.67136289 3.69504393 0 0 Z " fill="#1F2224" transform="translate(457,271)"/>
<path d="M0 0 C3.96 0 7.92 0 12 0 C12 15.18 12 30.36 12 46 C17.94 46 23.88 46 30 46 C30 49.96 30 53.92 30 58 C20.1 58 10.2 58 0 58 C0 38.86 0 19.72 0 0 Z " fill="#202325" transform="translate(295,271)"/>
<path d="M0 0 C3.96 0 7.92 0 12 0 C12 19.47 12 38.94 12 59 C8.04 59 4.08 59 0 59 C0 39.53 0 20.06 0 0 Z " fill="#1F2225" transform="translate(436,271)"/>
<path d="M0 0 C4.24813 2.36082384 6.85748723 4.90823169 9.625 8.875 C4.53968379 14.86840839 -2.89277023 20.19144691 -10.73046875 21.38671875 C-15.62460876 20.69954582 -18.7729708 18.6099054 -22.8125 15.875 C-23.54404297 15.39804687 -24.27558594 14.92109375 -25.02929688 14.4296875 C-26.82052996 13.25894692 -28.59910512 12.06887891 -30.375 10.875 C-28.28680684 4.9847193 -24.69194416 2.43759025 -19.6875 -0.9375 C-12.88674591 -3.37550618 -6.5527438 -3.03186653 0 0 Z " fill="#CEC530" transform="translate(132.375,341.125)"/>
<path d="M0 0 C10.23 0 20.46 0 31 0 C31 0.66 31 1.32 31 2 C28.62109375 3.7265625 28.62109375 3.7265625 25.4375 5.625 C24.40496094 6.25664062 23.37242187 6.88828125 22.30859375 7.5390625 C18.45178857 9.24206739 16.17539049 9.54522398 12 9 C8.69140625 7.28515625 8.69140625 7.28515625 5.5625 5.0625 C3.98662109 3.96615234 3.98662109 3.96615234 2.37890625 2.84765625 C1.59386719 2.23792969 0.80882813 1.62820313 0 1 C0 0.67 0 0.34 0 0 Z " fill="#E2C326" transform="translate(106,353)"/>
<path d="M0 0 C3.11020134 2.54471018 4.00133026 5.15896252 5 9 C5.125 11.875 5.125 11.875 5 14 C2.03 14 -0.94 14 -4 14 C-3.46148032 8.72250715 -2.22656164 4.74354436 0 0 Z " fill="#EAEBEB" transform="translate(359,298)"/>
<path d="M0 0 C0.66 0.33 1.32 0.66 2 1 C-2.29 5.29 -6.58 9.58 -11 14 C-11 9.95136013 -9.70680732 8.98442858 -7 6 C-4.72143146 3.93123542 -2.38262895 1.94759838 0 0 Z " fill="#92CA63" transform="translate(79,308)"/>
</svg>
