<?xml version="1.0" encoding="UTF-8"?>
<svg version="1.1" xmlns="http://www.w3.org/2000/svg" width="200" height="200">
<path d="M0 0 C66 0 132 0 200 0 C200 66 200 132 200 200 C134 200 68 200 0 200 C0 134 0 68 0 0 Z " fill="#181C1F" transform="translate(0,0)"/>
<path d="M0 0 C29.04 0 58.08 0 88 0 C88 3.96 88 7.92 88 12 C91.96 12 95.92 12 100 12 C100 22.56 100 33.12 100 44 C98.02 44 96.04 44 94 44 C94 49.94 94 55.88 94 62 C97.96 62 101.92 62 106 62 C106 68.27 106 74.54 106 81 C101.71 81 97.42 81 93 81 C93 82.98 93 84.96 93 87 C89.04 87 85.08 87 81 87 C81 91.29 81 95.58 81 100 C70.77 100 60.54 100 50 100 C50 98.02 50 96.04 50 94 C37.46 94 24.92 94 12 94 C12 90.04 12 86.08 12 82 C8.04 82 4.08 82 0 82 C0 54.94 0 27.88 0 0 Z " fill="#FAFAFA" transform="translate(50,53)"/>
<path d="M0 0 C4.29 0 8.58 0 13 0 C14.45414106 3.95102029 15.90761733 7.90227271 17.35940552 11.85415649 C17.86826019 13.238857 18.37743388 14.62344031 18.88693237 16.00790405 C23.80199066 29.36634088 23.80199066 29.36634088 25.99609375 35.7421875 C26.40480713 36.92953491 26.40480713 36.92953491 26.82177734 38.14086914 C27.30395074 39.55449219 27.77987357 40.97026779 28.24853516 42.38842773 C29.25525908 45.88304242 29.25525908 45.88304242 32 48 C32.09531006 47.21157715 32.19062012 46.4231543 32.28881836 45.61083984 C33.20461191 40.96113624 34.76131792 36.67308292 36.37890625 32.2265625 C36.87619484 30.8409462 36.87619484 30.8409462 37.38352966 29.42733765 C38.43842095 26.49148422 39.50035077 23.55823441 40.5625 20.625 C41.28106566 18.62907421 41.99916979 16.63298219 42.71679688 14.63671875 C44.47252451 9.75587097 46.23456696 4.87734523 48 0 C50.31 0 52.62 0 55 0 C55 1.98 55 3.96 55 6 C54.34 6.33 53.68 6.66 53 7 C51.94524485 9.5803357 51.00041122 12.13465653 50.1015625 14.76953125 C49.82533051 15.56090988 49.54909851 16.35228851 49.26449585 17.16764832 C48.37778274 19.71360134 47.50137734 22.26297306 46.625 24.8125 C46.04232069 26.48915972 45.45899462 28.16559483 44.875 29.84179688 C41.85094355 38.53973363 38.88855146 47.25608438 36 56 C32.37 56 28.74 56 25 56 C24.65743164 54.96705811 24.31486328 53.93411621 23.96191406 52.86987305 C22.67378112 48.98718563 21.38356979 45.10519137 20.09277344 41.22338867 C19.53753083 39.55267461 18.9828299 37.88178043 18.42871094 36.21069336 C17.62582235 33.78970891 16.82127447 31.36928578 16.015625 28.94921875 C15.75511353 28.16610321 15.49460205 27.38298767 15.22619629 26.57614136 C13.47958109 21.35488999 11.63430502 16.18073006 9.65527344 11.04223633 C9 9 9 9 9 6 C8.01 6 7.02 6 6 6 C6 22.17 6 38.34 6 55 C4.02 55 2.04 55 0 55 C0 36.85 0 18.7 0 0 Z " fill="#0D151A" transform="translate(63,66)"/>
<path d="M0 0 C4.29 0 8.58 0 13 0 C15 5 15 5 15 8 C13.35 8.66 11.7 9.32 10 10 C9.67 8.68 9.34 7.36 9 6 C8.01 6 7.02 6 6 6 C6 22.17 6 38.34 6 55 C4.02 55 2.04 55 0 55 C0 36.85 0 18.7 0 0 Z " fill="#040C12" transform="translate(63,66)"/>
<path d="M0 0 C2.31 0 4.62 0 7 0 C7 16.5 7 33 7 50 C4.69 50 2.38 50 0 50 C0 33.5 0 17 0 0 Z " fill="#1C242A" transform="translate(118,72)"/>
<path d="M0 0 C0.66 0.33 1.32 0.66 2 1 C1.68817931 2.41681634 1.37551263 3.83344651 1.0625 5.25 C0.88847656 6.03890625 0.71445313 6.8278125 0.53515625 7.640625 C0.0527843 9.76728673 -0.47110699 11.88442798 -1 14 C-4.63 14 -8.26 14 -12 14 C-11.67 13.34 -11.34 12.68 -11 12 C-10.01 12 -9.02 12 -8 12 C-8.66 11.34 -9.32 10.68 -10 10 C-9.625 7.375 -9.625 7.375 -9 5 C-7.68 5.33 -6.36 5.66 -5 6 C-4.9175 5.38125 -4.835 4.7625 -4.75 4.125 C-4 2 -4 2 -2.0625 0.6875 C-1.381875 0.460625 -0.70125 0.23375 0 0 Z " fill="#161E23" transform="translate(100,108)"/>
<path d="M0 0 C2.79593783 1.39796892 2.95173777 3.13474989 4 6 C4.33 6.66 4.66 7.32 5 8 C3.35 7.67 1.7 7.34 0 7 C-0.38133299 5.0085944 -0.71325582 3.00720923 -1 1 C-0.67 0.67 -0.34 0.34 0 0 Z " fill="#071013" transform="translate(88,113)"/>
<path d="M0 0 C1.60031344 3.20062687 0.03173691 5.72271806 -1 9 C-1.66 8.34 -2.32 7.68 -3 7 C-2.67028521 3.70285207 -2.3773161 2.3773161 0 0 Z " fill="#040C12" transform="translate(86,99)"/>
</svg>
