<?xml version="1.0" encoding="UTF-8"?>
<svg version="1.1" xmlns="http://www.w3.org/2000/svg" width="300" height="100">
<path d="M0 0 C7.37675243 4.01168647 11.25916242 9.66190509 13.97265625 17.453125 C16.32184855 26.41137832 14.65486035 33.25460764 10.18359375 41.1875 C11.17359375 41.5175 12.16359375 41.8475 13.18359375 42.1875 C13.18359375 45.8175 13.18359375 49.4475 13.18359375 53.1875 C8.80397058 54.28240579 8.80397058 54.28240579 5.49609375 52.625 C1.32420631 50.91936646 -1.09433009 51.46892632 -5.34375 52.61328125 C-14.20390941 54.67085382 -21.2890298 53.35495081 -29.1796875 48.9609375 C-35.84764902 44.47611597 -39.73915463 38.60716127 -41.3203125 30.65234375 C-42.45506406 22.15962415 -41.03577215 15.096714 -36.25390625 7.9375 C-27.22389905 -3.24791093 -12.80259599 -5.89943623 0 0 Z M-27.31640625 15.6875 C-29.54087116 20.87791813 -29.54975276 25.62628893 -28.81640625 31.1875 C-26.683871 36.16341557 -23.71403851 38.36079015 -18.8984375 40.49609375 C-14.43048267 41.97982359 -11.03487008 41.65051626 -6.69140625 40 C-2.5401303 37.38289125 0.60758797 34.91551733 2.18359375 30.1875 C2.57844922 25.7074091 2.74244969 21.58463986 1.05859375 17.375 C-2.93392388 12.71706276 -6.68869299 9.49413856 -13.00390625 8.875 C-19.02794095 9.36877334 -23.05566356 11.42675731 -27.31640625 15.6875 Z " fill="#4155FF" transform="translate(65.81640625,25.8125)"/>
<path d="M0 0 C5.3588707 3.18055112 9.30308522 7.30612377 11.859375 13.02734375 C12.77429944 17.10291625 13.46634515 21.25090345 11.546875 25.08984375 C1.976875 25.41984375 -7.593125 25.74984375 -17.453125 26.08984375 C-13.5158139 29.04282708 -12.18977253 29.90037785 -7.453125 30.08984375 C-5.44499574 29.10627023 -3.44457891 28.10675639 -1.453125 27.08984375 C2.42916629 27.27471476 4.62091551 28.59735974 7.546875 31.08984375 C7.15943627 33.5453676 6.85092854 34.80060307 5.0234375 36.5390625 C4.41242188 36.94769531 3.80140625 37.35632813 3.171875 37.77734375 C2.26308594 38.40189453 2.26308594 38.40189453 1.3359375 39.0390625 C-3.56184042 41.91570499 -8.9595525 41.62341919 -14.453125 41.08984375 C-20.31783391 39.36492936 -24.03449672 36.16894863 -27.453125 31.08984375 C-30.30567 25.44226474 -31.63917302 20.11393526 -29.796875 13.86328125 C-27.27515419 7.36332847 -23.48056575 3.58548011 -17.625 -0.04296875 C-12.30727998 -2.16623106 -5.33015049 -1.97758768 0 0 Z M-16.453125 12.08984375 C-17.113125 13.07984375 -17.773125 14.06984375 -18.453125 15.08984375 C-12.183125 15.08984375 -5.913125 15.08984375 0.546875 15.08984375 C-2.68830249 10.22093872 -2.68830249 10.22093872 -5.41796875 9.27734375 C-10.02236004 8.83969864 -12.71298139 9.00972549 -16.453125 12.08984375 Z " fill="#4155FF" transform="translate(237.453125,37.91015625)"/>
<path d="M0 0 C1.65322266 0.01740234 1.65322266 0.01740234 3.33984375 0.03515625 C4.99693359 0.04869141 4.99693359 0.04869141 6.6875 0.0625 C7.54214844 0.07410156 8.39679688 0.08570313 9.27734375 0.09765625 C9.29716309 0.83927002 9.31698242 1.58088379 9.33740234 2.3449707 C9.43257303 5.70039459 9.54228469 9.05518911 9.65234375 12.41015625 C9.68328125 13.57740234 9.71421875 14.74464844 9.74609375 15.94726562 C9.78476563 17.06552734 9.8234375 18.18378906 9.86328125 19.3359375 C9.89470215 20.36759033 9.92612305 21.39924316 9.95849609 22.4621582 C10.10409004 25.32608861 10.10409004 25.32608861 12.27734375 28.09765625 C14.25481497 28.46063561 14.25481497 28.46063561 16.40234375 28.28515625 C17.68109375 28.22328125 18.95984375 28.16140625 20.27734375 28.09765625 C21.58914688 25.47404999 21.47233532 23.40314255 21.55859375 20.46875 C21.59597656 19.35177734 21.63335937 18.23480469 21.671875 17.08398438 C21.74230349 14.71419615 21.81261561 12.34440447 21.8828125 9.97460938 C21.92019531 8.85892578 21.95757812 7.74324219 21.99609375 6.59375 C22.02638672 5.56435303 22.05667969 4.53495605 22.08789062 3.47436523 C22.27734375 1.09765625 22.27734375 1.09765625 23.27734375 0.09765625 C25.29698574 0.02521572 27.31901499 0.01388437 29.33984375 0.03515625 C30.99693359 0.04869141 30.99693359 0.04869141 32.6875 0.0625 C33.54214844 0.07410156 34.39679688 0.08570313 35.27734375 0.09765625 C35.37691747 4.09937093 35.44913983 8.10059667 35.49707031 12.10327148 C35.51707003 13.46212338 35.54427951 14.82089049 35.57910156 16.17944336 C35.93148735 30.29042141 35.93148735 30.29042141 31.27734375 36.09765625 C24.52325427 41.33552156 18.60902682 41.84835358 10.27734375 41.09765625 C4.34100733 39.40017443 0.72395285 36.11090584 -2.72265625 31.09765625 C-3.86814705 27.75716713 -3.85173872 24.56651285 -3.85546875 21.0546875 C-3.85675781 19.89904297 -3.85804687 18.74339844 -3.859375 17.55273438 C-3.85550781 16.35068359 -3.85164063 15.14863281 -3.84765625 13.91015625 C-3.85152344 12.69650391 -3.85539062 11.48285156 -3.859375 10.23242188 C-3.85808594 9.08064453 -3.85679688 7.92886719 -3.85546875 6.7421875 C-3.85434082 5.68362549 -3.85321289 4.62506348 -3.85205078 3.53442383 C-3.66860123 0.07968796 -3.48539743 0.12501425 0 0 Z " fill="#4155FF" transform="translate(88.72265625,37.90234375)"/>
<path d="M0 0 C1.51815699 0.00015911 3.0363194 0.00585313 4.55444336 0.01586914 C5.35208603 0.01728409 6.1497287 0.01869904 6.97154236 0.02015686 C9.52916146 0.02577223 12.08669429 0.03832727 14.64428711 0.05102539 C16.37410356 0.05603841 18.10392137 0.06060166 19.83374023 0.06469727 C24.08312264 0.07574664 28.33244023 0.09302153 32.58178711 0.11352539 C32.58178711 4.717964 31.90068183 5.48244971 29.15209961 8.99243164 C28.08282227 10.37398437 28.08282227 10.37398437 26.99194336 11.78344727 C26.2378418 12.73799805 25.48374023 13.69254883 24.70678711 14.67602539 C23.22970782 16.57275847 21.75312324 18.46987694 20.27709961 20.36743164 C19.61726074 21.20604736 18.95742187 22.04466309 18.27758789 22.90869141 C16.98033065 24.59534994 15.76209911 26.34305739 14.58178711 28.11352539 C15.79737305 28.17411133 17.01295898 28.23469727 18.26538086 28.29711914 C19.85002939 28.38150871 21.43466413 28.46615749 23.01928711 28.55102539 C23.82172852 28.5903418 24.62416992 28.6296582 25.45092773 28.67016602 C31.46850586 29.00024414 31.46850586 29.00024414 32.58178711 30.11352539 C32.82059308 37.63591345 32.82059308 37.63591345 31.58178711 40.11352539 C18.71178711 40.11352539 5.84178711 40.11352539 -7.41821289 40.11352539 C-6.48493023 36.38039477 -5.8845983 35.09604932 -3.61743164 32.21508789 C-2.76955078 31.12454102 -2.76955078 31.12454102 -1.90454102 30.01196289 C-1.31092773 29.26172852 -0.71731445 28.51149414 -0.10571289 27.73852539 C3.63759795 22.96300591 7.29905465 18.2199981 10.58178711 13.11352539 C9.58276367 13.05293945 8.58374023 12.99235352 7.55444336 12.92993164 C6.2640918 12.84614258 4.97374023 12.76235352 3.64428711 12.67602539 C1.71262695 12.55420898 1.71262695 12.55420898 -0.25805664 12.42993164 C-3.41821289 12.11352539 -3.41821289 12.11352539 -4.41821289 11.11352539 C-4.51645226 9.44923488 -4.5479492 7.78070608 -4.54321289 6.11352539 C-4.54708008 4.75227539 -4.54708008 4.75227539 -4.55102539 3.36352539 C-4.33441298 -0.30614367 -3.80960267 0.12652419 0 0 Z " fill="#4155FF" transform="translate(153.418212890625,37.886474609375)"/>
<path d="M0 0 C0.89589844 0.01417969 1.79179687 0.02835938 2.71484375 0.04296875 C4.06255859 0.05263672 4.06255859 0.05263672 5.4375 0.0625 C7.65234375 0.23046875 7.65234375 0.23046875 8.65234375 1.23046875 C8.72493321 3.41686328 8.73608158 5.60547264 8.71484375 7.79296875 C8.70582031 8.99050781 8.69679688 10.18804687 8.6875 11.421875 C8.67589844 12.34871094 8.66429687 13.27554688 8.65234375 14.23046875 C9.62171875 14.20984375 10.59109375 14.18921875 11.58984375 14.16796875 C14.65234375 14.23046875 14.65234375 14.23046875 15.65234375 15.23046875 C15.75058312 16.89475926 15.78208006 18.56328806 15.77734375 20.23046875 C15.78121094 21.59171875 15.78121094 21.59171875 15.78515625 22.98046875 C15.65234375 25.23046875 15.65234375 25.23046875 14.65234375 26.23046875 C12.67234375 26.23046875 10.69234375 26.23046875 8.65234375 26.23046875 C8.65234375 35.47046875 8.65234375 44.71046875 8.65234375 54.23046875 C4.69234375 54.23046875 0.73234375 54.23046875 -3.34765625 54.23046875 C-4.34765625 53.23046875 -4.34765625 53.23046875 -4.46118164 50.63842773 C-4.45594482 49.51251221 -4.45070801 48.38659668 -4.4453125 47.2265625 C-4.44208984 46.01162109 -4.43886719 44.79667969 -4.43554688 43.54492188 C-4.42716797 42.26552734 -4.41878906 40.98613281 -4.41015625 39.66796875 C-4.40564453 38.38470703 -4.40113281 37.10144531 -4.39648438 35.77929688 C-4.3846517 32.59630853 -4.36816693 29.41341113 -4.34765625 26.23046875 C-5.15203125 26.25109375 -5.95640625 26.27171875 -6.78515625 26.29296875 C-9.34765625 26.23046875 -9.34765625 26.23046875 -10.34765625 25.23046875 C-10.44589562 23.56617824 -10.47739256 21.89764944 -10.47265625 20.23046875 C-10.47523438 19.32296875 -10.4778125 18.41546875 -10.48046875 17.48046875 C-10.34765625 15.23046875 -10.34765625 15.23046875 -9.34765625 14.23046875 C-7.6814851 14.18983043 -6.0137753 14.18774775 -4.34765625 14.23046875 C-4.37085938 13.38742188 -4.3940625 12.544375 -4.41796875 11.67578125 C-4.44503906 10.03222656 -4.44503906 10.03222656 -4.47265625 8.35546875 C-4.49585938 7.26492187 -4.5190625 6.174375 -4.54296875 5.05078125 C-4.29591299 1.48329602 -3.63979078 0.35731723 0 0 Z " fill="#4155FF" transform="translate(260.34765625,23.76953125)"/>
<path d="M0 0 C1.34771484 -0.00386719 1.34771484 -0.00386719 2.72265625 -0.0078125 C4.9375 0.125 4.9375 0.125 5.9375 1.125 C6.03096915 2.78238443 6.05494977 4.44374644 6.05102539 6.10375977 C6.05094986 7.16478409 6.05087433 8.22580841 6.05079651 9.31898499 C6.04563522 10.473134 6.04047394 11.62728302 6.03515625 12.81640625 C6.0337413 13.99138168 6.03232635 15.16635712 6.03086853 16.37693787 C6.02524992 20.14715064 6.01269426 23.91730504 6 27.6875 C5.9949874 30.23632727 5.99042408 32.78515547 5.98632812 35.33398438 C5.97527444 41.59767633 5.95851821 47.86133399 5.9375 54.125 C3.95840602 54.15186553 1.97921029 54.17133375 0 54.1875 C-1.10214844 54.19910156 -2.20429688 54.21070313 -3.33984375 54.22265625 C-6.0625 54.125 -6.0625 54.125 -7.0625 53.125 C-7.15590434 51.49825222 -7.17995171 49.86745949 -7.17602539 48.23803711 C-7.17594986 47.19703354 -7.17587433 46.15602997 -7.17579651 45.08348083 C-7.17063522 43.9512056 -7.16547394 42.81893036 -7.16015625 41.65234375 C-7.1587413 40.49956436 -7.15732635 39.34678497 -7.15586853 38.15907288 C-7.15025005 34.46018936 -7.13769442 30.76136536 -7.125 27.0625 C-7.11998738 24.56184983 -7.11542406 22.06119871 -7.11132812 19.56054688 C-7.10027462 13.41534412 -7.08351852 7.27017631 -7.0625 1.125 C-4.56110398 -0.12569801 -2.78857309 -0.00802467 0 0 Z " fill="#4155FF" transform="translate(197.0625,23.875)"/>
<path d="M0 0 C3.96 0 7.92 0 12 0 C13.84276509 1.84276509 13.12874411 4.42963759 13.13894653 6.88134766 C13.1369223 7.70425293 13.13489807 8.5271582 13.1328125 9.375 C13.13376923 10.21466309 13.13472595 11.05432617 13.13571167 11.91943359 C13.13639348 13.69824295 13.13453917 15.47705477 13.13037109 17.25585938 C13.12502283 19.98833776 13.13031605 22.72065176 13.13671875 25.453125 C13.13605797 27.1770837 13.13477681 28.90104229 13.1328125 30.625 C13.13483673 31.44790527 13.13686096 32.27081055 13.13894653 33.11865234 C13.11495054 38.88504946 13.11495054 38.88504946 12 40 C8.04 40 4.08 40 0 40 C0 26.8 0 13.6 0 0 Z " fill="#4155FF" transform="translate(130,38)"/>
<path d="M0 0 C2.375 2.1875 2.375 2.1875 4 5 C4 8.52397438 3.68152223 10.24275308 1.3125 12.875 C-1.73610685 14.35810604 -3.64742924 14.48891657 -7 14 C-9.375 12.375 -9.375 12.375 -11 10 C-11.50347322 6.54761218 -11.41556154 4.73217986 -9.6875 1.6875 C-6.60868968 -1.39131032 -3.92699756 -1.340926 0 0 Z " fill="#4155FF" transform="translate(140,21)"/>
</svg>
