<?xml version="1.0" encoding="UTF-8"?>
<svg version="1.1" xmlns="http://www.w3.org/2000/svg" width="200" height="200">
<path d="M0 0 C4.7479673 1.78754628 7.86475665 5.64894456 11.37939453 9.19287109 C12.17603516 9.95728516 12.97267578 10.72169922 13.79345703 11.50927734 C14.54111328 12.25564453 15.28876953 13.00201172 16.05908203 13.77099609 C16.74470215 14.4506543 17.43032227 15.1303125 18.13671875 15.83056641 C19.50439453 17.94287109 19.50439453 17.94287109 19.43139648 20.4543457 C17.74135699 24.99123603 14.20115812 27.90108326 10.81689453 31.25537109 C10.10855469 31.9959375 9.40021484 32.73650391 8.67041016 33.49951172 C3.35267402 38.82706823 3.35267402 38.82706823 -1.01513672 39.42333984 C-2.24296875 39.18550781 -2.24296875 39.18550781 -3.49560547 38.94287109 C-3.74310547 38.32412109 -3.99060547 37.70537109 -4.24560547 37.06787109 C-5.28323153 34.84484358 -5.28323153 34.84484358 -7.21044922 34.14208984 C-10.38569066 32.47576656 -12.7696929 30.11596883 -15.30810547 27.63037109 C-15.82308594 27.15664062 -16.33806641 26.68291016 -16.86865234 26.19482422 C-18.32763672 24.76708984 -18.32763672 24.76708984 -20.49560547 21.94287109 C-20.13734008 15.63522898 -15.48145571 12.26871431 -11.24560547 8.06787109 C-10.48119141 7.27123047 -9.71677734 6.47458984 -8.92919922 5.65380859 C-8.18283203 4.90615234 -7.43646484 4.15849609 -6.66748047 3.38818359 C-5.98782227 2.70256348 -5.30816406 2.01694336 -4.60791016 1.31054688 C-2.49560547 -0.05712891 -2.49560547 -0.05712891 0 0 Z " fill="#13A0C5" transform="translate(100.49560546875,122.05712890625)"/>
<path d="M0 0 C1.10057739 0.36085693 1.10057739 0.36085693 2.22338867 0.72900391 C2.55338867 1.71900391 2.88338867 2.70900391 3.22338867 3.72900391 C5.22355333 4.93782487 5.22355333 4.93782487 7.22338867 5.72900391 C7.22338867 6.38900391 7.22338867 7.04900391 7.22338867 7.72900391 C8.21338867 8.05900391 9.20338867 8.38900391 10.22338867 8.72900391 C10.22338867 9.38900391 10.22338867 10.04900391 10.22338867 10.72900391 C11.54338867 11.38900391 12.86338867 12.04900391 14.22338867 12.72900391 C14.22338867 13.38900391 14.22338867 14.04900391 14.22338867 14.72900391 C15.54338867 15.38900391 16.86338867 16.04900391 18.22338867 16.72900391 C18.22338867 18.70900391 18.22338867 20.68900391 18.22338867 22.72900391 C17.60463867 22.97650391 16.98588867 23.22400391 16.34838867 23.47900391 C13.8727018 24.9352903 13.27213865 26.10712897 12.22338867 28.72900391 C11.56338867 28.72900391 10.90338867 28.72900391 10.22338867 28.72900391 C9.89338867 29.71900391 9.56338867 30.70900391 9.22338867 31.72900391 C8.56338867 31.72900391 7.90338867 31.72900391 7.22338867 31.72900391 C6.56338867 33.04900391 5.90338867 34.36900391 5.22338867 35.72900391 C4.56338867 35.72900391 3.90338867 35.72900391 3.22338867 35.72900391 C2.56338867 37.04900391 1.90338867 38.36900391 1.22338867 39.72900391 C-3.58458374 39.30477105 -6.45321105 37.02588769 -9.77661133 33.72900391 C-11.44327799 31.72900391 -13.10994466 29.72900391 -14.77661133 27.72900391 C-15.86644284 26.85662096 -16.97075079 26.00200042 -18.08911133 25.16650391 C-20.77661133 22.72900391 -20.77661133 22.72900391 -21.1796875 20.35546875 C-20.38043214 15.14748019 -15.70875553 11.90946012 -12.08911133 8.35400391 C-11.27249023 7.50966797 -10.45586914 6.66533203 -9.61450195 5.79541016 C-8.81850586 5.00263672 -8.02250977 4.20986328 -7.20239258 3.39306641 C-6.11051636 2.30179443 -6.11051636 2.30179443 -4.99658203 1.18847656 C-2.77661133 -0.27099609 -2.77661133 -0.27099609 0 0 Z " fill="#12A0C5" transform="translate(142.776611328125,80.27099609375)"/>
<path d="M0 0 C4.4635446 1.65414914 7.5806394 5.72789328 10.88183594 9.04003906 C12.07099609 10.18666016 12.07099609 10.18666016 13.28417969 11.35644531 C14.033125 12.1028125 14.78207031 12.84917969 15.55371094 13.61816406 C16.24045898 14.29782227 16.92720703 14.97748047 17.63476562 15.67773438 C19.47054167 18.26793893 19.54204777 19.67885999 19.13183594 22.79003906 C17.77636719 24.37988281 17.77636719 24.37988281 15.94433594 25.72753906 C12.49744369 28.42691251 9.9331407 31.41410768 7.13183594 34.79003906 C5.19911942 36.80006424 3.46775555 38.18409433 1.13183594 39.79003906 C-1.74316406 39.60253906 -1.74316406 39.60253906 -3.86816406 38.79003906 C-4.36316406 37.30503906 -4.36316406 37.30503906 -4.86816406 35.79003906 C-6.86832873 34.5812181 -6.86832873 34.5812181 -8.86816406 33.79003906 C-8.86816406 33.13003906 -8.86816406 32.47003906 -8.86816406 31.79003906 C-9.85816406 31.46003906 -10.84816406 31.13003906 -11.86816406 30.79003906 C-11.86816406 30.13003906 -11.86816406 29.47003906 -11.86816406 28.79003906 C-13.18816406 28.13003906 -14.50816406 27.47003906 -15.86816406 26.79003906 C-15.86816406 26.13003906 -15.86816406 25.47003906 -15.86816406 24.79003906 C-17.18816406 24.13003906 -18.50816406 23.47003906 -19.86816406 22.79003906 C-19.86816406 20.81003906 -19.86816406 18.83003906 -19.86816406 16.79003906 C-19.24941406 16.54253906 -18.63066406 16.29503906 -17.99316406 16.04003906 C-15.51747719 14.58375267 -14.91691404 13.411914 -13.86816406 10.79003906 C-13.20816406 10.79003906 -12.54816406 10.79003906 -11.86816406 10.79003906 C-11.53816406 9.80003906 -11.20816406 8.81003906 -10.86816406 7.79003906 C-10.20816406 7.79003906 -9.54816406 7.79003906 -8.86816406 7.79003906 C-8.20816406 6.47003906 -7.54816406 5.15003906 -6.86816406 3.79003906 C-6.20816406 3.79003906 -5.54816406 3.79003906 -4.86816406 3.79003906 C-4.53816406 2.80003906 -4.20816406 1.81003906 -3.86816406 0.79003906 C-1.86816406 -0.20996094 -1.86816406 -0.20996094 0 0 Z " fill="#12A697" transform="translate(58.8681640625,80.2099609375)"/>
<path d="M0 0 C2.00720923 0.28674418 4.0085944 0.61866701 6 1 C6.33 1.99 6.66 2.98 7 4 C9.00016466 5.20882096 9.00016466 5.20882096 11 6 C11 6.66 11 7.32 11 8 C11.99 8.33 12.98 8.66 14 9 C14 9.66 14 10.32 14 11 C15.32 11.66 16.64 12.32 18 13 C18 13.66 18 14.32 18 15 C18.99 15.33 19.98 15.66 21 16 C21.875 18.0625 21.875 18.0625 22 21 C18.96980441 25.90869323 14.38489272 29.361472 10 33 C9.15017197 34.09152224 8.31658573 35.19589075 7.5 36.3125 C5 39 5 39 2.0625 39.8125 C-1.87712662 38.76729294 -3.06928382 37.02267404 -5.49609375 33.8671875 C-7.65972974 31.18090697 -10.35162983 29.19758376 -13 27 C-15.01002518 25.06728348 -16.39405527 23.33591961 -18 21 C-17.8125 18.125 -17.8125 18.125 -17 16 C-16.01 15.67 -15.02 15.34 -14 15 C-12.79117904 12.99983534 -12.79117904 12.99983534 -12 11 C-11.34 11 -10.68 11 -10 11 C-9.67 10.01 -9.34 9.02 -9 8 C-7.1875 6.2109375 -7.1875 6.2109375 -5 4.375 C-3.9171875 3.45847656 -3.9171875 3.45847656 -2.8125 2.5234375 C-2.214375 2.02070312 -1.61625 1.51796875 -1 1 C-0.67 0.67 -0.34 0.34 0 0 Z " fill="#12A898" transform="translate(98,39)"/>
<path d="M0 0 C0.78503906 -0.01224609 1.57007813 -0.02449219 2.37890625 -0.03710938 C4.42063726 -0.04236254 6.46192251 0.0652982 8.5 0.1875 C10.86568222 2.55318222 10.75571704 3.03982226 10.765625 6.25 C10.76949219 7.44496094 10.76949219 7.44496094 10.7734375 8.6640625 C10.76570313 9.49679688 10.75796875 10.32953125 10.75 11.1875 C10.75773437 12.02023438 10.76546875 12.85296875 10.7734375 13.7109375 C10.77085937 14.50757812 10.76828125 15.30421875 10.765625 16.125 C10.76336914 16.85589844 10.76111328 17.58679688 10.75878906 18.33984375 C10.5 20.1875 10.5 20.1875 8.5 22.1875 C6.63647461 22.43041992 6.63647461 22.43041992 4.40234375 22.41796875 C3.60119141 22.41603516 2.80003906 22.41410156 1.97460938 22.41210938 C0.71874023 22.39374023 0.71874023 22.39374023 -0.5625 22.375 C-1.40361328 22.37435547 -2.24472656 22.37371094 -3.11132812 22.37304688 C-9.35976816 22.32773184 -9.35976816 22.32773184 -10.5 21.1875 C-10.58669432 19.6987814 -10.60703494 18.206055 -10.59765625 16.71484375 C-10.59443359 15.81572266 -10.59121094 14.91660156 -10.58789062 13.99023438 C-10.57951172 13.04470703 -10.57113281 12.09917969 -10.5625 11.125 C-10.55798828 10.17560547 -10.55347656 9.22621094 -10.54882812 8.24804688 C-10.5370011 5.89446935 -10.52052025 3.54101523 -10.5 1.1875 C-7.21646451 -0.45426774 -3.60480362 0.00295961 0 0 Z " fill="#1BA2AF" transform="translate(131.5,57.8125)"/>
<path d="M0 0 C1.55214428 0.00399351 3.1042894 0.01875918 4.65625 0.04296875 C5.83380859 0.04393555 5.83380859 0.04393555 7.03515625 0.04492188 C12.87531304 0.09000027 12.87531304 0.09000027 15.15625 1.23046875 C15.18513146 4.54295062 15.20300799 7.85540042 15.21875 11.16796875 C15.22712891 12.11349609 15.23550781 13.05902344 15.24414062 14.03320312 C15.24897461 15.38188477 15.24897461 15.38188477 15.25390625 16.7578125 C15.26176147 18.00679321 15.26176147 18.00679321 15.26977539 19.28100586 C15.15625 21.23046875 15.15625 21.23046875 14.15625 22.23046875 C11.16606839 22.35714639 8.20930892 22.41567713 5.21875 22.41796875 C4.38150391 22.43021484 3.54425781 22.44246094 2.68164062 22.45507812 C1.47991211 22.45797852 1.47991211 22.45797852 0.25390625 22.4609375 C-0.48335693 22.46504639 -1.22062012 22.46915527 -1.98022461 22.47338867 C-3.84375 22.23046875 -3.84375 22.23046875 -5.84375 20.23046875 C-6.10253906 18.3828125 -6.10253906 18.3828125 -6.109375 16.16796875 C-6.11195312 15.37132813 -6.11453125 14.5746875 -6.1171875 13.75390625 C-6.10945313 12.92117187 -6.10171875 12.0884375 -6.09375 11.23046875 C-6.10148437 10.39773437 -6.10921875 9.565 -6.1171875 8.70703125 C-6.11460938 7.91039063 -6.11203125 7.11375 -6.109375 6.29296875 C-6.10711914 5.56207031 -6.10486328 4.83117188 -6.10253906 4.078125 C-5.55145083 0.14356295 -3.66499745 0.21975086 0 0 Z " fill="#10A587" transform="translate(63.84375,57.76953125)"/>
<path d="M0 0 C3.31248187 -0.02888146 6.62493167 -0.04675799 9.9375 -0.0625 C10.88302734 -0.07087891 11.82855469 -0.07925781 12.80273438 -0.08789062 C14.15141602 -0.09272461 14.15141602 -0.09272461 15.52734375 -0.09765625 C16.77632446 -0.10551147 16.77632446 -0.10551147 18.05053711 -0.11352539 C20 0 20 0 21 1 C21.12667764 3.99018161 21.18520838 6.94694108 21.1875 9.9375 C21.19974609 10.77474609 21.21199219 11.61199219 21.22460938 12.47460938 C21.22750977 13.67633789 21.22750977 13.67633789 21.23046875 14.90234375 C21.23457764 15.63960693 21.23868652 16.37687012 21.24291992 17.13647461 C21 19 21 19 19 21 C17.13647461 21.24291992 17.13647461 21.24291992 14.90234375 21.23046875 C14.10119141 21.22853516 13.30003906 21.22660156 12.47460938 21.22460938 C11.21874023 21.20624023 11.21874023 21.20624023 9.9375 21.1875 C9.09638672 21.18685547 8.25527344 21.18621094 7.38867188 21.18554688 C1.14023184 21.14023184 1.14023184 21.14023184 0 20 C-0.08669432 18.5112814 -0.10703494 17.018555 -0.09765625 15.52734375 C-0.09443359 14.62822266 -0.09121094 13.72910156 -0.08789062 12.80273438 C-0.07951172 11.85720703 -0.07113281 10.91167969 -0.0625 9.9375 C-0.05798828 8.98810547 -0.05347656 8.03871094 -0.04882812 7.06054688 C-0.0370011 4.70696935 -0.02052025 2.35351523 0 0 Z " fill="#1AA1CF" transform="translate(121,121)"/>
<path d="M0 0 C0.83265381 0.00523682 1.66530762 0.01047363 2.52319336 0.01586914 C3.42231445 0.0190918 4.32143555 0.02231445 5.24780273 0.02563477 C6.66609375 0.03820312 6.66609375 0.03820312 8.11303711 0.05102539 C9.06243164 0.05553711 10.01182617 0.06004883 10.98999023 0.06469727 C13.34356776 0.07652429 15.69702188 0.09300514 18.05053711 0.11352539 C18.07941857 3.42600726 18.0972951 6.73845706 18.11303711 10.05102539 C18.12141602 10.99655273 18.12979492 11.94208008 18.13842773 12.91625977 C18.14326172 14.26494141 18.14326172 14.26494141 18.14819336 15.64086914 C18.15604858 16.88984985 18.15604858 16.88984985 18.1640625 18.1640625 C18.05053711 20.11352539 18.05053711 20.11352539 17.05053711 21.11352539 C14.0603555 21.24020304 11.10359603 21.29873377 8.11303711 21.30102539 C7.27579102 21.31327148 6.43854492 21.32551758 5.57592773 21.33813477 C4.37419922 21.34103516 4.37419922 21.34103516 3.14819336 21.34399414 C2.41093018 21.34810303 1.67366699 21.35221191 0.9140625 21.35644531 C-0.94946289 21.11352539 -0.94946289 21.11352539 -2.94946289 19.11352539 C-3.19238281 17.25 -3.19238281 17.25 -3.17993164 15.01586914 C-3.17799805 14.2147168 -3.17606445 13.41356445 -3.17407227 12.58813477 C-3.16182617 11.75088867 -3.14958008 10.91364258 -3.13696289 10.05102539 C-3.13631836 9.20991211 -3.13567383 8.36879883 -3.13500977 7.50219727 C-3.08190378 0.17947217 -3.08190378 0.17947217 0 0 Z " fill="#1AA3B0" transform="translate(60.949462890625,120.886474609375)"/>
<path d="M0 0 C3.125 6.5 3.125 6.5 2 11 C-2.62 11 -7.24 11 -12 11 C-10.99963151 6.99852603 -10.45795728 6.02638974 -7.6875 3.25 C-6.79611328 2.32960938 -6.79611328 2.32960938 -5.88671875 1.390625 C-4 0 -4 0 0 0 Z " fill="#1091AB" transform="translate(155,69)"/>
<path d="M0 0 C4.97968095 0.15089942 7.32187142 2.88119311 10.64453125 6.2109375 C12 8 12 8 12 11 C7.38 11 2.76 11 -2 11 C-3.28485596 5.86057616 -2.22194431 4.62164416 0 0 Z " fill="#139873" transform="translate(45,69)"/>
<path d="M0 0 C4.95 0 9.9 0 15 0 C13.875 6.75 13.875 6.75 12 10 C7.59124045 9.49614177 5.17449034 8.0886933 2 5 C1.34 3.35 0.68 1.7 0 0 Z " fill="#1A9BCD" transform="translate(143,121)"/>
<path d="M0 0 C4.95 0 9.9 0 15 0 C12.75330251 5.61674371 11.73453321 6.68582675 7 10 C5.68 10 4.36 10 3 10 C0.96564469 6.27034861 0 4.33094958 0 0 Z " fill="#16A29E" transform="translate(42,121)"/>
<path d="M0 0 C0 4.95 0 9.9 0 15 C-5.61674371 12.75330251 -6.68582675 11.73453321 -10 7 C-10 5.68 -10 4.36 -10 3 C-3.375 0 -3.375 0 0 0 Z " fill="#14A27B" transform="translate(79,42)"/>
<path d="M0 0 C6.75 1.125 6.75 1.125 10 3 C9.49614177 7.40875955 8.0886933 9.82550966 5 13 C3.35 13.66 1.7 14.32 0 15 C0 10.05 0 5.1 0 0 Z " fill="#149E9A" transform="translate(121,42)"/>
<path d="M0 0 C3.15171576 1.57585788 4.84587701 2.53158719 7.25 4.875 C7.77078125 5.36742187 8.2915625 5.85984375 8.828125 6.3671875 C10 8 10 8 10 12 C6.27034861 14.03435531 4.33094958 15 0 15 C0 10.05 0 5.1 0 0 Z " fill="#1999CA" transform="translate(121,143)"/>
<path d="M0 0 C0 4.95 0 9.9 0 15 C-6.75 13.875 -6.75 13.875 -10 12 C-9.848048 6.98558397 -7.07298671 4.66645254 -3.69140625 1.35546875 C-2 0 -2 0 0 0 Z " fill="#119BB7" transform="translate(79,143)"/>
</svg>
