<?xml version="1.0" encoding="UTF-8"?>
<svg version="1.1" xmlns="http://www.w3.org/2000/svg" width="1418" height="290">
<path d="M0 0 C22.396129 -0.57686999 46.6399366 3.96100484 63.38720703 19.71655273 C73.10501949 29.47906382 76.96156643 40.6970666 78.453125 54.12109375 C67.893125 54.12109375 57.333125 54.12109375 46.453125 54.12109375 C45.133125 50.49109375 43.813125 46.86109375 42.453125 43.12109375 C37.29212989 35.25057621 29.36494731 31.26795946 20.3359375 28.97265625 C14.62516853 27.7984067 8.95147369 27.79097444 3.140625 27.80859375 C2.08939453 27.79248047 1.03816406 27.77636719 -0.04492188 27.75976562 C-11.29964434 27.75284816 -21.83111564 29.5526318 -30.546875 37.12109375 C-34.0932171 41.15065567 -34.68943128 44.8465114 -34.546875 50.12109375 C-32.99740515 55.3720749 -31.20368248 58.24774445 -26.546875 61.12109375 C-19.84439314 64.25108247 -13.32076198 65.97277744 -6.03515625 67.0859375 C-5.06386276 67.2459877 -4.09256927 67.4060379 -3.09184265 67.57093811 C1.00856552 68.24646806 5.11296646 68.89591988 9.2175293 69.5456543 C30.59829868 72.95898841 54.61671486 77.0609024 68.3359375 95.67578125 C73.37259261 103.68089977 74.84487351 111.02458634 74.828125 120.37109375 C74.82651367 121.30187744 74.82490234 122.23266113 74.82324219 123.19165039 C74.65082635 132.85961505 72.36712216 140.35897248 66.453125 148.12109375 C65.64875 149.32765625 65.64875 149.32765625 64.828125 150.55859375 C52.47247927 163.88968519 33.07540571 168.49722267 15.50048828 169.24707031 C-12.34962278 169.90100367 -39.95781995 168.52557342 -61.2890625 148.46484375 C-71.46058033 137.90617473 -73.42484507 126.7074829 -74.546875 112.12109375 C-64.316875 112.12109375 -54.086875 112.12109375 -43.546875 112.12109375 C-42.556875 115.58609375 -42.556875 115.58609375 -41.546875 119.12109375 C-38.09054937 127.93666585 -33.69523472 133.3219964 -25.109375 137.37109375 C-8.06197119 144.32274234 14.78235726 144.59606367 32.015625 138.30859375 C37.23581254 136.01136836 40.30598249 132.84180751 43.453125 128.12109375 C44.76560775 122.06348107 44.60229023 118.68461899 41.453125 113.12109375 C34.76571296 103.75871689 20.58968811 102.36822482 10.02563477 100.56851196 C7.06536089 100.07699328 4.10343344 99.59708195 1.140625 99.12109375 C-45.69098461 91.55655051 -45.69098461 91.55655051 -57.12890625 77.125 C-64.46564772 66.82500042 -66.39649041 55.60271645 -65.546875 43.12109375 C-63.49625072 31.10798775 -57.77050366 20.79336836 -47.921875 13.55859375 C-33.34055832 3.83771597 -17.24297958 0.81983492 0 0 Z " fill="#040707" transform="translate(471.546875,60.87890625)"/>
<path d="M0 0 C11.88 0 23.76 0 36 0 C52.62689469 35.10559993 52.62689469 35.10559993 60.62573242 52.50317383 C64.24315342 60.36955138 67.89562663 68.21906799 71.5625 76.0625 C78.07296089 89.99153625 84.54499644 103.93826379 90.99951172 117.89331055 C94.6804079 125.84975655 98.36949955 133.80178201 102.1015625 141.734375 C103.01247711 143.67571098 103.92302266 145.61721963 104.83346558 147.55877686 C105.66619766 149.32969761 106.5050178 151.09775158 107.34399414 152.86572266 C107.83246826 153.90776855 108.32094238 154.94981445 108.82421875 156.0234375 C109.45976685 157.36801025 109.45976685 157.36801025 110.1081543 158.73974609 C111 161 111 161 111 164 C100.44 164 89.88 164 79 164 C76.75661901 159.25006235 74.51413969 154.49972021 72.27392578 149.74829102 C71.51208087 148.13313448 70.74971669 146.51822277 69.98681641 144.90356445 C68.88827008 142.5782842 67.79161434 140.2521204 66.6953125 137.92578125 C66.3556546 137.20787918 66.0159967 136.48997711 65.66604614 135.75032043 C65.34586517 135.06999252 65.0256842 134.38966461 64.69580078 133.6887207 C64.41600372 133.09581741 64.13620667 132.50291412 63.84793091 131.89204407 C62.83134289 129.62366429 61.92318773 127.30796932 61 125 C32.29 124.67 3.58 124.34 -26 124 C-26.66 125.98 -27.32 127.96 -28 130 C-28.50663739 131.24105515 -29.03349185 132.47422334 -29.58813477 133.69458008 C-29.88506729 134.35158401 -30.18199982 135.00858795 -30.4879303 135.6855011 C-30.80257736 136.37323105 -31.11722443 137.060961 -31.44140625 137.76953125 C-31.76914536 138.49113937 -32.09688446 139.2127475 -32.43455505 139.95622253 C-33.12312688 141.47042005 -33.81317895 142.98394523 -34.50463867 144.49682617 C-35.56635825 146.82094577 -36.62236349 149.14760107 -37.67773438 151.47460938 C-38.34862214 152.94806979 -39.01983451 154.42138245 -39.69140625 155.89453125 C-40.00807755 156.59238235 -40.32474884 157.29023346 -40.65101624 158.00923157 C-42.88464969 162.88464969 -42.88464969 162.88464969 -44 164 C-46.29151417 164.08790975 -48.58572524 164.10694038 -50.87890625 164.09765625 C-51.90889992 164.09553383 -51.90889992 164.09553383 -52.95970154 164.09336853 C-55.16067801 164.08775479 -57.36155409 164.07520007 -59.5625 164.0625 C-61.05143083 164.05748676 -62.54036324 164.05292355 -64.02929688 164.04882812 C-67.68623075 164.03778093 -71.34310558 164.02050713 -75 164 C-74.37743151 160.13709618 -73.21576625 156.97603625 -71.55078125 153.44140625 C-71.03974854 152.34908691 -70.52871582 151.25676758 -70.00219727 150.13134766 C-69.44459717 148.95362793 -68.88699707 147.7759082 -68.3125 146.5625 C-67.7259383 145.31324301 -67.13993026 144.06372592 -66.55444336 142.81396484 C-65.32602957 140.19358129 -64.09476428 137.57456607 -62.86132812 134.95654297 C-61.07059784 131.15351391 -59.29105599 127.34534801 -57.515625 123.53515625 C-57.23128098 122.92497147 -56.94693695 122.31478668 -56.65397644 121.68611145 C-56.07905628 120.45228213 -55.50416106 119.21844118 -54.92929077 117.98458862 C-53.46620961 114.84573531 -52.00064605 111.7080418 -50.53515625 108.5703125 C-47.31347535 101.67180681 -44.09348093 94.77251517 -40.87399292 87.87298584 C-39.41606887 84.74862288 -37.95802854 81.62431419 -36.5 78.5 C-35.91666611 77.25000026 -35.33333278 76.00000026 -34.75 74.75 C-33.58333333 72.25 -32.41666667 69.75 -31.25 67.25 C-30.96129532 66.63134567 -30.67259064 66.01269135 -30.37513733 65.37528992 C-29.79135069 64.12432145 -29.20755958 62.87335506 -28.62376404 61.62239075 C-27.1723299 58.5122253 -25.72097135 55.40202463 -24.26977539 52.29174805 C-21.56274086 46.49010156 -18.85497523 40.68879975 -16.1446228 34.88870239 C-14.87941294 32.18106248 -13.61461855 29.47322858 -12.34985352 26.76538086 C-11.75305467 25.48794068 -11.15605751 24.21059313 -10.55883789 22.93334961 C-9.72490254 21.14982017 -8.89173872 19.36593004 -8.05859375 17.58203125 C-7.58736084 16.57374268 -7.11612793 15.5654541 -6.63061523 14.52661133 C-4.39673302 9.69528499 -2.20258036 4.8456768 0 0 Z M17 30 C16.18740264 31.76062761 15.3748082 33.52125657 14.56222534 35.28189087 C13.83174181 36.86457416 13.10121054 38.44723543 12.37063599 40.02987671 C10.33990192 44.42924152 8.31002895 48.82900029 6.28173828 53.22949219 C2.58284662 61.25237097 -1.12040984 69.27279278 -4.8671875 77.2734375 C-5.4250293 78.46855957 -5.98287109 79.66368164 -6.55761719 80.89501953 C-7.58226563 83.08827793 -8.61137978 85.27945701 -9.64550781 87.46826172 C-10.09506836 88.4326416 -10.54462891 89.39702148 -11.0078125 90.390625 C-11.39598145 91.21594727 -11.78415039 92.04126953 -12.18408203 92.89160156 C-13.18045161 95.08950719 -13.18045161 95.08950719 -13 98 C7.46 98 27.92 98 49 98 C43.21719079 84.69953881 37.46014552 71.46692638 31.25 58.375 C30.31159972 56.38828791 29.37419573 54.40110791 28.43688965 52.41387939 C27.83191224 51.13141867 27.22653746 49.84914531 26.62072754 48.56707764 C23.70733027 42.39635438 20.84760531 36.20136392 18 30 C17.67 30 17.34 30 17 30 Z " fill="#040707" transform="translate(1258,64)"/>
<path d="M0 0 C9.24 0 18.48 0 28 0 C28 54.12 28 108.24 28 164 C18.76 164 9.52 164 0 164 C-0.33 159.38 -0.66 154.76 -1 150 C-2.0725 151.03125 -3.145 152.0625 -4.25 153.125 C-18.42176283 165.47217961 -35.02253141 167.12713624 -53 166 C-67.11955339 164.55980555 -82.647945 157.99498358 -92 147 C-104.25234565 130.85643709 -107.66287359 113.22964627 -105.609375 93.1875 C-102.96525037 77.18715611 -95.75744496 63.81741656 -82.52734375 54.203125 C-66.72891972 44.08812768 -46.15388012 41.13521689 -27.8125 44.6875 C-16.91572499 47.55507237 -9.502303 52.71231172 -1 60 C-0.67 40.2 -0.34 20.4 0 0 Z M-68.75 78.75 C-77.07783176 88.80804338 -77.88747725 100.43853888 -77 113 C-75.40417049 122.61267381 -70.71562607 130.27633418 -63.24609375 136.4609375 C-53.26790559 143.29816556 -40.73696884 144.35474681 -29.02734375 142.5390625 C-18.87426203 140.11146209 -10.98457797 134.5493971 -5 126 C0.60247703 115.81677427 1.88450905 103.98201043 -1.125 92.6875 C-4.39859326 83.39963075 -10.66561101 75.18170073 -19.55859375 70.71484375 C-36.11718923 63.85028485 -56.05464416 65.24944189 -68.75 78.75 Z " fill="#040707" transform="translate(1087,64)"/>
<path d="M0 0 C9.57 0 19.14 0 29 0 C29.33 20.13 29.66 40.26 30 61 C31.65 59.35 33.3 57.7 35 56 C48.09895286 44.2813669 63.26402494 43.09931966 80 44 C93.29842464 45.60615569 104.66894299 51.38357522 113 62 C118.57147085 71.07456303 121.33014848 79.85417109 121.22705078 90.43554688 C121.22734283 91.23650787 121.22763489 92.03746887 121.22793579 92.86270142 C121.22655455 95.48149871 121.21105086 98.10000308 121.1953125 100.71875 C121.19157807 102.54577479 121.18873313 104.37280159 121.18673706 106.1998291 C121.17913444 110.98707701 121.1595152 115.77420179 121.1373291 120.56140137 C121.11679774 125.45497981 121.10771981 130.34857832 121.09765625 135.2421875 C121.07626587 144.82818755 121.0411115 154.41406423 121 164 C111.76 164 102.52 164 93 164 C92.98541748 161.91204102 92.97083496 159.82408203 92.95581055 157.67285156 C92.90520646 150.7317548 92.83856797 143.79087632 92.76428509 136.84999466 C92.719782 132.64659842 92.68048327 128.44329464 92.65356445 124.23974609 C92.62732925 120.17411895 92.58678859 116.10885154 92.53681374 112.0434494 C92.52028036 110.50156927 92.50868267 108.95962712 92.50238609 107.4176712 C92.44945066 89.90532438 92.44945066 89.90532438 84.7421875 74.62109375 C79.06420792 69.33777194 71.97586713 67.64550251 64.3671875 67.7890625 C53.68395755 68.74103349 44.96139474 72.42994789 37.6875 80.375 C32.17201648 87.28467518 29.90842925 93.92117203 29.79467773 102.69628906 C29.78477814 103.36011597 29.77487854 104.02394287 29.76467896 104.70788574 C29.7331874 106.89376302 29.70835563 109.079662 29.68359375 111.265625 C29.66301355 112.78449049 29.64201679 114.30335038 29.62062073 115.82220459 C29.56551016 119.81371525 29.51605247 123.80527665 29.46777344 127.796875 C29.41747783 131.8724416 29.36183389 135.9479348 29.30664062 140.0234375 C29.19919381 148.01556454 29.09821355 156.00775416 29 164 C19.43 164 9.86 164 0 164 C0 109.88 0 55.76 0 0 Z " fill="#040707" transform="translate(574,64)"/>
<path d="M0 0 C12.05596138 10.33644125 17.23642098 22.76950094 19.6875 38.25 C19.6875 44.52 19.6875 50.79 19.6875 57.25 C-11.9925 57.25 -43.6725 57.25 -76.3125 57.25 C-73.05678505 66.56401299 -73.05678505 66.56401299 -68.3125 74.25 C-67.9825 75.24 -67.6525 76.23 -67.3125 77.25 C-65.54658113 78.25916033 -65.54658113 78.25916033 -63.3125 79.25 C-62.0440625 80.2090625 -62.0440625 80.2090625 -60.75 81.1875 C-52.09689786 86.97792173 -41.13464964 87.26696641 -31.16796875 85.78125 C-24.60619129 84.39461024 -18.90000128 82.32388696 -14.3125 77.25 C-13.3225 75.27 -12.3325 73.29 -11.3125 71.25 C-1.7425 71.25 7.8275 71.25 17.6875 71.25 C16.25853602 82.68171187 11.75382228 91.03363555 2.6875 98.25 C-14.24944491 110.10829141 -35.25219158 112.64971244 -55.44140625 109.75390625 C-71.36251812 106.60526178 -86.70079745 99.19988566 -96.15625 85.59765625 C-101.85577897 76.40837332 -105.8328443 66.14218148 -106.3125 55.25 C-106.3640625 54.31027344 -106.415625 53.37054688 -106.46875 52.40234375 C-106.93128177 36.54135832 -103.45891876 21.97348295 -92.875 9.875 C-91.37258732 8.31537624 -89.85331739 6.77169377 -88.3125 5.25 C-87.77109375 4.68667969 -87.2296875 4.12335938 -86.671875 3.54296875 C-65.18668455 -17.01987767 -23.06485157 -17.49867321 0 0 Z M-69.0703125 22.27734375 C-73.74663315 28.15852122 -73.74663315 28.15852122 -75.3125 35.25 C-53.8625 35.25 -32.4125 35.25 -10.3125 35.25 C-11.42636585 27.45293903 -12.67569268 22.09190782 -18.8125 16.9375 C-33.76193855 6.81490969 -57.12683325 8.50253101 -69.0703125 22.27734375 Z " fill="#040707" transform="translate(884.3125,119.75)"/>
<path d="M0 0 C9.9 0 19.8 0 30 0 C30 54.12 30 108.24 30 164 C20.1 164 10.2 164 0 164 C0 109.88 0 55.76 0 0 Z " fill="#040707" transform="translate(1388,64)"/>
<path d="M0 0 C9.57 0 19.14 0 29 0 C29 54.12 29 108.24 29 164 C19.43 164 9.86 164 0 164 C0 109.88 0 55.76 0 0 Z " fill="#040707" transform="translate(928,64)"/>
<path d="M0 0 C55.40406321 -1.7979684 55.40406321 -1.7979684 73 7 C73.02577224 13.75454881 73.04303976 20.50908453 73.05493164 27.26367188 C73.05989949 29.55208815 73.06667605 31.84050136 73.07543945 34.12890625 C73.11820733 45.60076013 73.10892767 57.05456531 72.55859375 68.515625 C72.51960464 69.35156189 72.48061554 70.18749878 72.44044495 71.04876709 C72.12841862 76.74316277 72.12841862 76.74316277 71 79 C67.22897636 78.85885325 63.4582328 78.7111987 59.6875 78.5625 C58.63498047 78.52318359 57.58246094 78.48386719 56.49804688 78.44335938 C49.63947152 78.16901636 42.82901897 77.69319348 36 77 C36.48120799 62.31928821 36.96479204 47.65333106 38 33 C36.74292236 33.01740234 36.74292236 33.01740234 35.46044922 33.03515625 C26.62980287 33.10354461 17.93061314 32.68954008 9.125 32 C7.85269531 31.90460938 6.58039063 31.80921875 5.26953125 31.7109375 C2.17930458 31.47858963 -0.91048215 31.24155931 -4 31 C-3.49622294 23.31571063 -2.79975421 15.76789063 -1.4375 8.1875 C-1.29892578 7.38763672 -1.16035156 6.58777344 -1.01757812 5.76367188 C-0.68378813 3.8415019 -0.34273255 1.92059563 0 0 Z " fill="#040707" transform="translate(123,69)"/>
<path d="M0 0 C9.57 0 19.14 0 29 0 C29 38.94 29 77.88 29 118 C19.43 118 9.86 118 0 118 C0 79.06 0 40.12 0 0 Z " fill="#040707" transform="translate(725,110)"/>
<path d="M0 0 C2.05209213 0.29290711 4.10417305 0.5858928 6.15625 0.87890625 C7.44015625 1.06211426 8.7240625 1.24532227 10.046875 1.43408203 C12.49508746 1.78456106 14.94305529 2.13675931 17.390625 2.49169922 C35.89375795 5.17255087 54.38688368 7.28034221 73 9 C72.29653428 21.34735848 70.86406915 33.59479093 69.4375 45.875 C69.20089779 47.93095806 68.96456765 49.98694745 68.72851562 52.04296875 C68.15547649 57.02901219 67.57876854 62.0146185 67 67 C63.32505472 68.03189229 60.51343136 67.89073483 56.703125 67.44140625 C55.49785156 67.30283203 54.29257813 67.16425781 53.05078125 67.02148438 C51.79652344 66.87001953 50.54226562 66.71855469 49.25 66.5625 C47.98027344 66.41490234 46.71054688 66.26730469 45.40234375 66.11523438 C42.26742069 65.7498862 39.13343069 65.3778996 36 65 C35.97108454 60.54168018 35.95323019 56.08338431 35.9375 51.625 C35.92912109 50.35398438 35.92074219 49.08296875 35.91210938 47.7734375 C35.90888672 46.56171875 35.90566406 45.35 35.90234375 44.1015625 C35.89710693 42.98088379 35.89187012 41.86020508 35.88647461 40.70556641 C36 38 36 38 37 36 C36.4423999 35.92483154 35.8847998 35.84966309 35.31030273 35.7722168 C23.78496058 34.20590682 12.37073603 32.46278614 1 30 C0.25015295 25.99908596 -0.1195296 22.23250483 -0.09765625 18.1640625 C-0.09443359 17.10058594 -0.09121094 16.03710938 -0.08789062 14.94140625 C-0.07951172 13.84699219 -0.07113281 12.75257813 -0.0625 11.625 C-0.05798828 10.50738281 -0.05347656 9.38976562 -0.04882812 8.23828125 C-0.03709244 5.49213196 -0.02067363 2.74609414 0 0 Z " fill="#040707" transform="translate(91,179)"/>
<path d="M0 0 C13.42591138 -0.11512985 26.83063707 -0.02642051 40.25 0.4375 C42.04195801 0.49635376 42.04195801 0.49635376 43.87011719 0.55639648 C45.55089355 0.61935913 45.55089355 0.61935913 47.265625 0.68359375 C48.25336914 0.72025146 49.24111328 0.75690918 50.25878906 0.79467773 C52.91277901 0.99346697 55.40555135 1.41823068 58 2 C58.25549849 10.84815597 57.51943819 19.31079567 56.25 28.0625 C56.07170654 29.32296143 55.89341309 30.58342285 55.7097168 31.88208008 C51.86977398 58.26045204 51.86977398 58.26045204 49 64 C46.2265625 64.59765625 46.2265625 64.59765625 42.625 65.0625 C40.7378125 65.30806641 40.7378125 65.30806641 38.8125 65.55859375 C33.88129938 66.12952169 28.949207 66.61618395 24 67 C24.46484574 55.77397547 26.81382407 45.00140144 29 34 C18.11 34 7.22 34 -4 34 C-2.90806882 22.6127177 -1.75934798 11.30474657 0 0 Z " fill="#040707" transform="translate(199,155)"/>
<path d="M0 0 C1.7623685 0.00503117 3.52473842 0.00959118 5.28710938 0.01367188 C9.54560866 0.02453533 13.80403809 0.04170829 18.0625 0.0625 C17.97685791 0.95928467 17.89121582 1.85606934 17.80297852 2.7800293 C15.60622382 26.21158498 14.43053683 49.53254338 14.0625 73.0625 C9.93664751 72.42203595 5.81198238 71.77422408 1.6875 71.125 C-0.0759375 70.85139648 -0.0759375 70.85139648 -1.875 70.57226562 C-2.99648437 70.39501953 -4.11796875 70.21777344 -5.2734375 70.03515625 C-6.82877197 69.79164429 -6.82877197 69.79164429 -8.41552734 69.54321289 C-10.9375 69.0625 -10.9375 69.0625 -12.9375 68.0625 C-12.9375 56.1825 -12.9375 44.3025 -12.9375 32.0625 C-19.66826875 31.77392453 -19.66826875 31.77392453 -26.39941406 31.49438477 C-27.66350098 31.4372229 -27.66350098 31.4372229 -28.953125 31.37890625 C-29.81196289 31.34224854 -30.67080078 31.30559082 -31.55566406 31.26782227 C-33.78710143 31.07546486 -35.78732524 30.67403756 -37.9375 30.0625 C-38.34722581 10.64604889 -38.34722581 10.64604889 -35.9375 2.0625 C-30.53805109 -3.33694891 -7.44632199 -0.03748267 0 0 Z " fill="#040707" transform="translate(70.9375,98.9375)"/>
<path d="M0 0 C1.43880051 0.00503077 2.87760274 0.00959086 4.31640625 0.01367188 C7.79430751 0.02453936 11.27214217 0.04171472 14.75 0.0625 C14.18685513 6.71790347 13.27849441 13.20533754 11.97265625 19.75390625 C11.80124619 20.6252269 11.62983612 21.49654755 11.45323181 22.39427185 C11.09344694 24.21394103 10.7311649 26.03311815 10.36645508 27.85180664 C9.80802486 30.64740332 9.2640996 33.4455877 8.72070312 36.24414062 C8.36806205 38.01840321 8.01457751 39.79249841 7.66015625 41.56640625 C7.49862564 42.40482559 7.33709503 43.24324493 7.17066956 44.10707092 C6.76269433 46.1067221 6.26487798 48.08767108 5.75 50.0625 C2.90464275 51.48517862 0.38781448 51.28221869 -2.7890625 51.37890625 C-4.09101562 51.42080078 -5.39296875 51.46269531 -6.734375 51.50585938 C-8.11458045 51.54567299 -9.49478883 51.58538522 -10.875 51.625 C-12.26303415 51.66819407 -13.65105528 51.71180865 -15.0390625 51.75585938 C-18.44260256 51.86222 -21.84621778 51.96424714 -25.25 52.0625 C-24.58425862 45.57343459 -23.24578944 39.39168678 -21.6875 33.0625 C-21.45353516 32.09699219 -21.21957031 31.13148437 -20.97851562 30.13671875 C-20.40626866 27.77765983 -19.83002171 25.41965708 -19.25 23.0625 C-20.50554687 23.206875 -21.76109375 23.35125 -23.0546875 23.5 C-31.48489596 24.44407565 -39.75299185 25.34109043 -48.25 25.0625 C-46.72536437 17.56637484 -44.56993846 10.34890866 -42.25 3.0625 C-40.16739536 2.74518006 -38.0838597 2.43397054 -36 2.125 C-34.25976562 1.86396484 -34.25976562 1.86396484 -32.484375 1.59765625 C-21.65491339 0.15717353 -10.90383956 -0.06718246 0 0 Z " fill="#040707" transform="translate(112.25,12.9375)"/>
<path d="M0 0 C10.12677066 2.25039348 10.12677066 2.25039348 13.47827148 3.22094727 C14.6087516 3.54622154 14.6087516 3.54622154 15.7620697 3.87806702 C16.54054764 4.10521896 17.31902557 4.33237091 18.12109375 4.56640625 C18.94706558 4.80536118 19.77303741 5.0443161 20.6240387 5.29051208 C22.35123057 5.79088078 24.07802907 6.29260926 25.80444336 6.7956543 C28.45387655 7.56726947 31.10476121 8.33373657 33.75585938 9.09960938 C35.4401917 9.58824005 37.12443962 10.07716177 38.80859375 10.56640625 C39.6012413 10.79558243 40.39388885 11.02475861 41.21055603 11.26087952 C46.7690201 12.88451005 46.7690201 12.88451005 49 14 C49.62588025 16.76639069 50.101527 19.44739752 50.5 22.25 C50.69009644 23.5488916 50.69009644 23.5488916 50.8840332 24.87402344 C52.96435323 40.05680242 54.24791528 55.66739355 54 71 C50.51987918 70.52759949 47.04110146 70.0459514 43.5625 69.5625 C42.07266602 69.36043945 42.07266602 69.36043945 40.55273438 69.15429688 C39.13637695 68.95610352 39.13637695 68.95610352 37.69140625 68.75390625 C36.81685791 68.63345947 35.94230957 68.5130127 35.04125977 68.38891602 C33 68 33 68 32 67 C31.76894879 64.55602113 31.59674731 62.13347472 31.46484375 59.68359375 C31.42186661 58.95253922 31.37888947 58.22148468 31.33460999 57.46827698 C31.19786155 55.12491396 31.06761458 52.78123983 30.9375 50.4375 C30.84612993 48.85218888 30.75433859 47.26690199 30.66210938 45.68164062 C30.43651044 41.78802501 30.21674303 37.89411823 30 34 C28.85289551 33.82041748 28.85289551 33.82041748 27.68261719 33.63720703 C21.45590509 32.63561974 15.34894169 31.47620906 9.25 29.875 C6.8575 29.25625 4.465 28.6375 2 28 C1.34 18.76 0.68 9.52 0 0 Z " fill="#040707" transform="translate(222,58)"/>
<path d="M0 0 C8.65056451 -0.35914696 16.74896143 0.71027533 25.25 2.25 C26.52528564 2.47743896 27.80057129 2.70487793 29.11450195 2.93920898 C49.8610971 6.72058202 49.8610971 6.72058202 55 9 C57.29268288 12.43052528 57.56852913 16.04219635 58.0703125 20.07421875 C58.15626678 20.75748734 58.24222107 21.44075592 58.33078003 22.14472961 C58.51070886 23.58912913 58.68699208 25.03398686 58.85986328 26.47924805 C59.12216824 28.66391502 59.39803484 30.84654558 59.67578125 33.02929688 C60.54955548 40.11357319 61 46.8122818 61 54 C51.76 52.02 42.52 50.04 33 48 C32.34963374 44.09780242 31.8761732 41.07871285 31.90234375 37.2578125 C31.90556641 36.41992188 31.90878906 35.58203125 31.91210938 34.71875 C31.92467773 33.43484375 31.92467773 33.43484375 31.9375 32.125 C31.94201172 31.24585937 31.94652344 30.36671875 31.95117188 29.4609375 C31.96287663 27.30726197 31.98080931 25.15362183 32 23 C31.36578125 22.96261719 30.7315625 22.92523437 30.078125 22.88671875 C19.96794875 22.17453783 10.00515475 20.57796432 0 19 C-1.14665967 15.00020398 -0.89996471 11.35388115 -0.5625 7.25 C-0.48418945 6.20392578 -0.48418945 6.20392578 -0.40429688 5.13671875 C-0.27525928 3.42403797 -0.13840386 1.71194934 0 0 Z " fill="#040707" transform="translate(156,0)"/>
<path d="M0 0 C-1.50834719 8.02043299 -4.119021 15.60800803 -6.7956543 23.29589844 C-7.56971435 25.5207358 -8.33517372 27.74840215 -9.09960938 29.9765625 C-9.58804405 31.39079696 -10.07695852 32.80486583 -10.56640625 34.21875 C-10.91017052 35.21859924 -10.91017052 35.21859924 -11.26087952 36.23864746 C-12.88424529 40.88424529 -12.88424529 40.88424529 -14 42 C-15.85174706 42.15786308 -17.7090911 42.25107356 -19.56640625 42.31640625 C-20.69111328 42.35830078 -21.81582031 42.40019531 -22.97460938 42.44335938 C-24.15861328 42.48267578 -25.34261719 42.52199219 -26.5625 42.5625 C-27.75037109 42.60568359 -28.93824219 42.64886719 -30.16210938 42.69335938 C-33.10792197 42.79983453 -36.05394502 42.90045681 -39 43 C-37.35 36.73 -35.7 30.46 -34 24 C-44.23 23.67 -54.46 23.34 -65 23 C-64.01 16.07 -63.02 9.14 -62 2 C-56.99392578 1.90912109 -56.99392578 1.90912109 -51.88671875 1.81640625 C-48.6232719 1.75444428 -45.3598539 1.69112846 -42.09643555 1.62768555 C-39.84353244 1.58460561 -37.59060231 1.54291397 -35.33764648 1.50268555 C-32.08308803 1.44432397 -28.82866227 1.3808261 -25.57421875 1.31640625 C-24.58105148 1.29969376 -23.58788422 1.28298126 -22.56462097 1.26576233 C-16.77350763 1.14546529 -11.05530964 0.79561338 -5.29231262 0.20762634 C-3 0 -3 0 0 0 Z " fill="#040707" transform="translate(223,247)"/>
<path d="M0 0 C-0.50506184 7.57802328 -1.99272773 14.65520131 -3.875 22 C-6.00054311 30.52561359 -7.85002771 39.00244646 -9.14990234 47.69335938 C-9.91991392 52.83982784 -9.91991392 52.83982784 -11 55 C-17.32140973 56.17063143 -23.58842029 56.10607393 -30 56 C-29.57286737 46.30850793 -28.27866621 37.42995201 -26 28 C-26.88042969 28.2165625 -27.76085937 28.433125 -28.66796875 28.65625 C-29.82941406 28.9346875 -30.99085937 29.213125 -32.1875 29.5 C-33.33605469 29.7784375 -34.48460937 30.056875 -35.66796875 30.34375 C-38.58594007 30.9184501 -41.04925285 31.05280979 -44 31 C-43.2202853 27.37232164 -42.42421932 23.7484269 -41.625 20.125 C-41.40328125 19.09246094 -41.1815625 18.05992188 -40.953125 16.99609375 C-40.73398437 16.00996094 -40.51484375 15.02382813 -40.2890625 14.0078125 C-40.09006348 13.09660645 -39.89106445 12.18540039 -39.68603516 11.24658203 C-39 9 -39 9 -37 7 C-34.76585204 6.34748811 -32.50449886 5.7869806 -30.234375 5.2734375 C-29.56335754 5.12089508 -28.89234009 4.96835266 -28.20098877 4.81118774 C-26.77949337 4.48999933 -25.35716081 4.17249707 -23.93408203 3.85839844 C-21.77000048 3.37942667 -19.60960831 2.88595067 -17.44921875 2.390625 C-16.06530177 2.07984792 -14.68119268 1.76992481 -13.296875 1.4609375 C-12.04229492 1.18040527 -10.78771484 0.89987305 -9.49511719 0.61083984 C-6.24108608 0.04213449 -3.29350636 -0.11821222 0 0 Z " fill="#040707" transform="translate(44,40)"/>
<path d="M0 0 C7.73324981 2.10048596 15.15393306 4.8419707 22.55249023 7.91381836 C23.8168022 8.43274138 25.08618061 8.93947638 26.36010742 9.43432617 C36.76108851 13.4796688 36.76108851 13.4796688 39.36499023 16.67504883 C40.1951317 18.7764059 40.58876608 20.77677353 41 23 C41.66777652 25.27085441 42.35021076 27.53742278 43.04296875 29.80078125 C43.76128725 32.30369288 44.47604932 34.80762754 45.1875 37.3125 C45.55903884 38.59966884 45.93078215 39.88677868 46.30273438 41.17382812 C46.65013672 42.39134766 46.99753906 43.60886719 47.35546875 44.86328125 C47.67153076 45.96969971 47.98759277 47.07611816 48.31323242 48.21606445 C49 51 49 51 49 54 C47.33090999 53.67902115 45.66496019 53.34175499 44 53 C42.22109375 52.66742188 42.22109375 52.66742188 40.40625 52.328125 C36.16514882 51.26475224 32.15724902 50.15825548 29 47 C27.74159529 43.62488256 27.37172103 40.18830147 26.9375 36.625 C26.44261946 32.77713166 25.89179615 29.41834452 24 26 C18.88387974 22.31130556 12.87000319 21.0647513 6.83203125 19.59765625 C2.2199689 18.36833199 2.2199689 18.36833199 0.33203125 15.20703125 C-0.00255933 11.97527984 -0.19720285 8.87412809 -0.125 5.625 C-0.10695312 4.56539063 -0.08890625 3.50578125 -0.0703125 2.4140625 C-0.04710937 1.61742187 -0.02390625 0.82078125 0 0 Z " fill="#040707" transform="translate(231,2)"/>
<path d="M0 0 C10.23 0 20.46 0 31 0 C31 9.9 31 19.8 31 30 C20.77 30 10.54 30 0 30 C0 20.1 0 10.2 0 0 Z " fill="#040707" transform="translate(724,64)"/>
</svg>
