<?xml version="1.0" encoding="utf-8"?>
<!-- Generator: Adobe Illustrator 26.0.3, SVG Export Plug-In . SVG Version: 6.00 Build 0)  -->
<svg version="1.0" id="katman_1" xmlns="http://www.w3.org/2000/svg"
	xmlns:xlink="http://www.w3.org/1999/xlink" x="0px" y="0px"
	viewBox="0 0 800 600" style="enable-background:new 0 0 800 600;" xml:space="preserve">
<g>
	<path
			d="M609.4,343.7v-64.8c0-1.3,1-2.3,2.2-2.3h10.7c1.2,0,2.2,1,2.2,2.3v64.6c0,1.3-1,2.3-2.2,2.3h-10.7
		C610.4,346,609.4,344.9,609.4,343.7L609.4,343.7z M617,266.2c4.8,0,8.8-4,8.8-8.9c0-4.9-3.9-8.9-8.8-8.9c-4.8,0-8.8,4-8.8,8.9
		C608.3,262.2,612.2,266.2,617,266.2L617,266.2z M340.9,267c0-6.1,4.6-9.7,12.5-9.7H384c1,0,1.8-0.8,1.8-1.8v-11.2
		c0-1-0.8-1.8-1.8-1.8h-30.7c-15.8,0-26.9,10-26.9,24.5c0,28.1,47.9,32.4,47.9,52.9c0,6.5-5.3,11.2-12.5,11.2h-9.9
		c-6.8,0-12.4-5.7-12.4-12.7v-3.6c0-1.3-1-2.3-2.3-2.3h-10.1c-1.3,0-2.3,1-2.3,2.3v3.6c0,15.2,12.1,27.4,26.9,27.4h9.8
		c15.4,0,27.1-11.2,27.1-26C388.7,288.7,340.9,282.7,340.9,267L340.9,267z M583.3,244.7v31.9h-23.2c-14.4,0-26.1,11.8-26.1,26.6
		v16.1c0,14.6,11.8,26.6,26.1,26.6h35.4c1.2,0,2.2-1,2.2-2.3v-98.9c0-1.3-1-2.3-2.2-2.3h-10.1C584.3,242.5,583.3,243.5,583.3,244.7
		L583.3,244.7z M583.3,331.1h-23.2c-6.4,0-11.6-5.4-11.6-11.8v-16.1c0-6.5,5.3-11.8,11.6-11.8h23.2V331.1z M508,278.9v52.2h-17.4
		c-6.5-0.1-11.6-5-11.6-11.7v-40.6c0-1.3-1-2.3-2.2-2.3h-10.1c-1.3,0-2.2,1-2.2,2.3v40.6c0,14.6,11.7,26.4,25.9,26.4h17.5v10.4
		c0,6.6-6.4,11.5-12.9,11.7h-13.8c-1.3,0-2.3,1-2.2,2.3v10.3c0,1.3,1,2.3,2.2,2.3H495c15,0,27.4-12.6,27.4-27.9v-76
		c0-1.2-1-2.3-2.2-2.3H510C509,276.6,508,277.6,508,278.9L508,278.9z M672.9,276.6h-11.8c-14.4,0.1-25.9,11.8-25.9,26.4v16.3
		c0,14.8,11.6,26.4,26.1,26.4h11.8c14.4-0.1,25.9-11.8,25.9-26.4v-16.2C698.9,288.4,687.3,276.6,672.9,276.6L672.9,276.6z
		 M684.4,319.4c0,6.6-5,11.8-11.5,11.8h-11.7c-2.9-0.1-5.5-1-7.4-2.6c-2.7-2.3-4.2-5.6-4.2-9.2v-16.1c0-6.6,5-11.8,11.6-11.8h11.7
		c2.9,0.1,5.5,1,7.4,2.6c2.6,2.2,4.1,5.4,4.1,9.2V319.4z M409.6,242.6h-10.1c-1.3,0-2.3,1-2.2,2.3v98.8c0,1.3,1,2.3,2.2,2.3h10.1
		c1.2,0,2.2-1,2.2-2.3v-98.9C411.9,243.5,410.9,242.5,409.6,242.6L409.6,242.6z M435.9,311.2l19.7-31.9c0.8-1.2,0-2.7-1.4-2.7h-12.2
		c-1,0-2,0.6-2.6,1.5l-18.3,28.5c-0.3,0.5-0.5,1.1-0.5,1.7v5.8c0,0.6,0.2,1.2,0.5,1.7l18.3,28.5c0.5,0.9,1.5,1.5,2.6,1.5H454
		c1.5,0,2.4-1.6,1.6-2.9L435.9,311.2z M104.2,364.3c0,9,5.8,15.2,14.4,17.1c1.1,0.2,4.3,1.4,23.7,1.4h119v-105
		C110.3,323.8,104.2,355.1,104.2,364.3L104.2,364.3z M99.5,300.5c148.4-29.3,180.2-47.3,180.2-57.9c0-9-18.7-11.7-18.7-11.7v-12.7
		H99.5V300.5z M99.5,300.5"
			fill="#1b42ff" />
</g>
</svg>