<svg xmlns="http://www.w3.org/2000/svg" viewBox="0 0 212.6 69.7">
                            <title>spire-logo</title>
                            <path d="M76.77,50.83c-6.17,0-13.23-1.41-13.23-6.39,0-3.49.82-5.5,2.3-5.5,1.71,0,1.26,2.82,4.16,5.8a9.39,9.39,0,0,0,7.21,2.9c4.9,0,7-3,7-5.87,0-4.53-3.49-5.65-8.92-8.25-8-3.79-10.92-5.65-10.92-11.59,0-5.43,4.09-9.36,11.22-9.36A23.69,23.69,0,0,1,86.5,14.71a2.71,2.71,0,0,1,1.86,2.75c0,3.12-.82,5.94-2.6,5.94s-1.86-3.79-4.16-5.94a8.43,8.43,0,0,0-5.5-1.78c-4.16,0-6.17,2.23-6.17,4.9,0,3.27,1.93,4.83,7.65,7.73,5.43,2.75,12.63,4.38,12.63,12,0,6.61-6.46,10.55-13.45,10.55" fill="#be1e2d"></path>
                            <path d="M113.77,16.57c-6,0-9.07,5-9.07,10.7V37.52c0,7,4.31,9.88,8.84,9.88,6.69,0,10.18-6,10.18-16.94,0-8.62-3.12-13.9-10-13.9m.74,34.26c-4.16,0-7.43-.89-9.81-3.86V63.23c0,3.64,1,3.64,2.08,3.64a.85.85,0,0,1,1,1c0,1.49-1.26,1.86-2.68,1.86H98.24c-1.19,0-2.75-.37-2.75-1.86,0-.45.07-1,.89-1,1.11,0,2.15-.22,2.15-3.72V20.36c0-3-.45-3.79-2.08-3.79a1,1,0,0,1-1-1c0-1.26,1.41-1.78,2.75-1.78h4.53c1.93,0,1.93,1.93,1.93,4.83,3-5.05,8-6,11.52-6,8,0,14.19,4.91,14.19,18.73,0,10.77-5.35,19.54-15.9,19.54" fill="#be1e2d"></path>
                            <path d="M141.49,8a4.2,4.2,0,0,1-4-4,4.09,4.09,0,0,1,8.17,0,4.23,4.23,0,0,1-4.16,4m4,41.83h-6.69c-1.11,0-2.75-.37-2.75-1.86a.88.88,0,0,1,1-1c1,0,2.08,0,2.08-3.57V20.21c0-3-.52-3.64-2.08-3.64a.91.91,0,0,1-1-1c0-1.41,1.64-1.78,2.75-1.78h4.76c1.49,0,1.78,1.26,1.78,2.67s-.07,3.12-.07,3.79V43.47c0,3.57,1,3.57,1.93,3.57a1,1,0,0,1,1.11,1c0,1.48-1.34,1.86-2.82,1.86" fill="#be1e2d"></path>
                            <path d="M176,21.1c-1.78,0-2.3-3.27-5.5-3.27-4.83,0-7.28,6.17-7.28,11.67v14c0,3.57,1,3.57,2.08,3.57a.88.88,0,0,1,1,1c0,1.49-1.26,1.86-2.68,1.86h-6.84c-1.19,0-2.75-.37-2.75-1.86,0-.37.07-1,.89-1,1.11,0,2.15,0,2.15-3.57V20.21c0-2.9-.52-3.64-1.93-3.64-.74,0-1.12-.3-1.12-1,0-1.49,1.64-1.86,2.82-1.86h4.76c1.49,0,1.71,1.19,1.71,2.82,0,1-.07,2.75-.07,3.94,2.45-4.83,6.91-7.43,10.63-7.43s4.91,1.41,4.91,3.42c0,3.12-1.49,4.61-2.75,4.61" fill="#be1e2d"></path>
                            <path d="M197.74,15.75c-7.43,0-8.84,7.8-8.84,11.15,0,1.41.22,1.41,1.41,1.41h13c2.15,0,2.45-.52,2.45-2.82,0-4.31-1.86-9.73-8-9.73m12.11,15.83h-21c0,7.06,2.38,15.16,10.7,15.16,4.83,0,7.21-2.08,9.44-5.05a2.2,2.2,0,0,1,1.71-1.26,1.37,1.37,0,0,1,1.49,1.34,2.57,2.57,0,0,1-.37,1.56c-2.3,4.61-7.43,7.5-13.6,7.5-9.36,0-16.05-6.47-16.05-18.58,0-12.78,6.32-19.69,15.83-19.69S212.6,19,212.6,27.49c0,3.49-1.49,4.09-2.75,4.09" fill="#be1e2d"></path>
                            <path d="M36.89,42.32a2,2,0,0,1-1-1.72v-9a2,2,0,0,0-1-1.72l-7.38-4.4a2,2,0,0,1-1-1.72V9.91h0a1.57,1.57,0,0,1,1-1.43L28,8.31a1.7,1.7,0,0,1,2.24.6v0L50.39,45.81a2,2,0,0,1-.71,2.69l-.29.17a1.87,1.87,0,0,1-1.93,0Z" fill="#be1e2d"></path>
                            <path d="M3.18,48.67a1.87,1.87,0,0,1-1.93,0L1,48.5a2,2,0,0,1-.71-2.69L20.39,8.92v0a1.7,1.7,0,0,1,2.24-.6l.38.16A1.57,1.57,0,0,1,24,9.9h0v13.9a2,2,0,0,1-1,1.72l-7.38,4.4a2,2,0,0,0-1,1.72v9a2,2,0,0,1-1,1.72Z" fill="#be1e2d"></path>
                            <path d="M47.34,53.28a2,2,0,0,1-1.93,2H5.52a2,2,0,0,1-1.92-2v-.66a2,2,0,0,1,1-1.72l10.78-6.48a1.87,1.87,0,0,1,1.93,0l7.36,4.38a3.16,3.16,0,0,0,1.71,0l7.36-4.38a1.87,1.87,0,0,1,1.93,0L46.39,50.9a2,2,0,0,1,1,1.72Z" fill="#be1e2d"></path>
                        </svg>