<?xml version="1.0" encoding="utf-8"?>
<!-- Generator: Adobe Illustrator 19.2.1, SVG Export Plug-In . SVG Version: 6.00 Build 0)  -->
<svg version="1.1" id="layer" xmlns="http://www.w3.org/2000/svg" xmlns:xlink="http://www.w3.org/1999/xlink" x="0px" y="0px"
	 viewBox="0 0 652 652" style="enable-background:new 0 0 652 652;" xml:space="preserve">
<style type="text/css">
	.st0{fill:#59CB59;}
	.st1{fill:#0CA750;}
	.st2{fill:#2BB656;}
	.st3{fill:#75DD66;}
</style>
<path class="st0" d="M62.1,262.2c-22.7,0-41.1,18.4-41.1,41.1V379c0,2.5,3,3.7,4.6,1.9l22.3-22.3h28.3c22.7,0,41.1-18.4,41.1-41.1
	v-55.3H62.1z"/>
<path class="st1" d="M48,358.7H27.5l12.8,7.7L48,358.7z"/>
<path class="st2" d="M117.4,262.2H62.1v55.3L117.4,262.2z"/>
<path class="st1" d="M62.1,262.2c-22.7,0-41.1,18.4-41.1,41.1v55.3l41.1-41.1V262.2z"/>
<path class="st3" d="M117.4,262.2l-55.3,55.3h55.3V262.2z"/>
<path d="M167.7,340.9c-1.4-0.9-2.5-2.3-2.5-4.2c0-2.8,2.1-4.9,4.9-4.9c0.9,0,1.8,0.2,2.5,0.7c4.2,2.6,8.4,3.9,11.9,3.9
	c3.7,0,5.3-1.2,5.3-3.3v-0.2c0-2.6-4.2-3.7-9.1-5.1c-6.1-1.8-13.2-4.7-13.2-13.2v-0.2c0-9,7.2-14.1,16.2-14.1
	c4.6,0,9.3,1.2,13.7,3.3c1.8,0.9,3,2.6,3,4.7c0,2.8-2.3,4.9-5.1,4.9c-0.9,0-1.4-0.2-2.3-0.5c-3.5-1.8-6.9-2.8-9.5-2.8
	c-3,0-4.6,1.4-4.6,3v0.2c0,2.5,4.2,3.7,9,5.3c6.1,2.1,13.3,5.1,13.3,13v0.2c0,9.8-7.4,14.2-16.9,14.2
	C178.9,346,173.1,344.4,167.7,340.9z M240.6,323.2c0-7.6-4.9-12.3-10.7-12.3s-10.7,4.9-10.7,12.1v0.2c0,7.4,4.9,12.1,10.7,12.1
	C235.6,335.5,240.6,330.6,240.6,323.2z M206.8,306.9c0-3.5,2.8-6.3,6.3-6.3c3.5,0,6.3,2.8,6.3,6.3v0.5c3-4,7.2-7.2,13.7-7.2
	c10.4,0,20,8.1,20,22.8v0.2c0,14.8-9.7,22.8-20,22.8c-6.7,0-10.7-3-13.7-6.5v13.2c0,3.5-2.8,6.3-6.3,6.3c-3.5,0-6.3-2.8-6.3-6.3
	C206.8,352.7,206.8,306.9,206.8,306.9z M324.3,323.4c0-6.7-4.7-12.3-11.6-12.3c-7.2,0-11.4,5.4-11.4,11.9v0.2
	c0,6.5,4.7,12.1,11.6,12.1C319.9,335.5,324.3,329.9,324.3,323.4z M288.9,323.4c0-12.8,10.2-23.2,23.9-23.2
	c13.7,0,23.7,10.2,23.7,22.8v0.2c0,12.6-10.2,23-23.9,23C299,346.2,288.9,336,288.9,323.4z M382.7,339.5c0,3.5-2.8,6.3-6.3,6.3
	s-6.3-2.8-6.3-6.3V339c-2.8,3.7-6.5,7-13,7c-9.5,0-14.9-6.3-14.9-16.3v-22.8c0-3.5,2.8-6.3,6.3-6.3s6.3,2.8,6.3,6.3v18.8
	c0,6,2.8,9,7.6,9c4.7,0,7.9-3,7.9-9v-18.8c0-3.5,2.8-6.3,6.3-6.3s6.3,2.8,6.3,6.3v32.7C382.8,339.5,382.7,339.5,382.7,339.5z
	 M389,332.7v-37.1c0-3.5,2.8-6.3,6.3-6.3s6.3,2.8,6.3,6.3v5.4h5.4c3,0,5.3,2.5,5.3,5.3c0,3-2.5,5.3-5.3,5.3h-5.4v18.8
	c0,2.8,1.2,4.2,4,4.2h1.4c2.8,0,5.3,2.3,5.3,5.3c0,2.3-1.4,4-3.2,4.7c-2.3,0.9-4.4,1.2-7.2,1.2C394.2,346,389,342.9,389,332.7z
	 M438.3,346c-6.1,0-12.8-2.5-17.6-6.3l3.2-4.6c4.6,3.5,9.7,5.4,14.8,5.4s8.8-2.6,8.8-6.7v-0.2c0-4.2-5.1-6-10.5-7.6
	c-6.7-1.9-14.1-4.2-14.1-11.9v-0.2c0-7.4,6.1-12.1,14.4-12.1c5.3,0,10.9,1.8,15.3,4.7l-2.8,4.7c-3.9-2.6-8.4-4-12.6-4
	c-5.1,0-8.3,2.6-8.3,6.1v0.2c0,4,5.3,5.6,10.9,7.4c6.5,1.9,13.7,4.6,13.7,12.1v0.2C453.4,341.3,446.8,346,438.3,346z M480.7,307.4
	c-9.3,0-15.6,7.4-15.6,16.5c0,9.3,6.7,16.7,15.6,16.7c9.1,0,15.6-7.4,15.6-16.5C496.3,314.8,489.6,307.4,480.7,307.4z M480.7,346.2
	c-12.8,0-22.1-10-22.1-22.1s9.3-22.3,22.3-22.3c12.8,0,22.1,10,22.1,22.1C503,336,493.5,346.2,480.7,346.2z M529.3,346.2
	c-12.5,0-21.8-10.2-21.8-22.1c0-12.1,9.3-22.3,21.8-22.3c8.1,0,13.2,3.3,17,7.6l-4.2,4.4c-3.3-3.5-7.2-6.5-13-6.5
	c-8.6,0-15.3,7.4-15.3,16.5c0,9.3,6.7,16.7,15.6,16.7c5.4,0,9.7-2.6,13-6.3l4,3.9C542.5,342.7,537.4,346.2,529.3,346.2z
	 M553.7,345.1v-42.5h6.3v42.5H553.7z M553.2,293.3v-7h7.2v7H553.2z M573.8,332.5c0,5.4,4.9,8.6,10.7,8.6c7.9,0,14.2-4.7,14.2-11.6
	v-4c-3.2-0.9-7.4-1.8-12.5-1.8C578.3,323.7,573.8,327.1,573.8,332.5z M573,310.7l-1.9-5.3c4.7-2.1,9.3-3.5,15.5-3.5
	c11.6,0,18.1,6,18.1,17v26h-6.1v-6.5c-3,3.9-7.9,7.4-15.5,7.4c-7.9,0-15.8-4.4-15.8-13.3c0-9.1,7.4-13.9,18.3-13.9
	c5.4,0,9.3,0.7,13.2,1.8V319c0-7.7-4.7-11.6-12.6-11.6C581,307.7,577.1,309,573,310.7L573,310.7z M614.7,345.1v-60.1h6.3v60.1H614.7
	z M293.4,296.8c0,0-5.4,2.5-10.2,2.3c-4.6-0.2-6.9,2.3-6.9,2.3c-1.9,1.4-3.5,3.9-4.7,6.5v-1.2c0-3.5-2.8-6.3-6.3-6.3
	c-3.5,0-6.3,2.8-6.3,6.3v32.8c0,3.5,2.8,6.3,6.3,6.3c3.5,0,6.3-2.8,6.3-6.3v-15.5c0.9-6.7,4.2-10.4,9.7-11.6c0.4,0,0.5-0.2,0.9-0.4
	C294.8,308.4,293.4,296.8,293.4,296.8z"/>
</svg>
